<svg width="78" height="54" viewBox="0 0 78 54" fill="none" xmlns="http://www.w3.org/2000/svg">
<path d="M75.7931 1.56268C75.28 1.06752 74.6695 0.6745 73.9969 0.406293C73.3243 0.138085 72.6029 0 71.8743 0C71.1456 0 70.4242 0.138085 69.7516 0.406293C69.079 0.6745 68.4685 1.06752 67.9554 1.56268L26.8353 40.9734L9.55931 24.3849C9.02657 23.8924 8.39767 23.5051 7.70853 23.2451C7.0194 22.9852 6.28352 22.8577 5.54291 22.87C4.8023 22.8822 4.07147 23.034 3.39214 23.3166C2.71281 23.5992 2.09829 24.0071 1.58366 24.517C1.06903 25.0269 0.664379 25.6289 0.392799 26.2885C0.121218 26.9481 -0.0119693 27.6524 0.00084403 28.3613C0.0136573 29.0702 0.17222 29.7697 0.467476 30.4199C0.762732 31.0701 1.1889 31.6583 1.72165 32.1509L22.9165 52.4373C23.4296 52.9325 24.04 53.3255 24.7126 53.5937C25.3852 53.8619 26.1067 54 26.8353 54C27.5639 54 28.2854 53.8619 28.958 53.5937C29.6306 53.3255 30.241 52.9325 30.7541 52.4373L75.7931 9.32859C76.3533 8.83389 76.8005 8.23347 77.1063 7.56518C77.4121 6.8969 77.57 6.17522 77.57 5.44564C77.57 4.71606 77.4121 3.99438 77.1063 3.32609C76.8005 2.6578 76.3533 2.05739 75.7931 1.56268Z" fill="#C6EA5F"/>
</svg>
