<svg width="41" height="40" viewBox="0 0 41 40" fill="none" xmlns="http://www.w3.org/2000/svg">
<path d="M14.3331 15.9206C14.2223 16.0089 14.1186 16.1059 14.0231 16.2106C13.8031 16.5306 13.6131 16.8306 13.7031 17.1106C13.7295 17.272 13.7199 17.4373 13.675 17.5947C13.63 17.752 13.5508 17.8974 13.4431 18.0206C13.2931 18.2306 13.1431 18.2906 13.0231 18.2306C12.9031 18.1706 12.9031 18.1306 12.9331 17.9806L12.9931 17.7906C13.0378 17.5896 13.098 17.3923 13.1731 17.2006C13.3431 16.8006 13.5131 16.4206 13.3431 16.2006C13.3431 16.2006 13.4331 15.9606 13.5131 15.8306C13.5931 15.7006 13.7031 15.5706 13.7931 15.4406C13.7231 15.4406 13.6631 15.3806 13.5831 15.3606C13.5031 15.3406 13.2831 15.4406 13.0931 15.6206C12.9262 15.7786 12.7934 15.9692 12.7031 16.1806C12.4865 16.8596 12.0721 17.4585 11.5131 17.9006C11.4124 17.9863 11.3188 18.0799 11.2331 18.1806C11.191 18.2286 11.1633 18.2875 11.1531 18.3506C11.0931 18.4906 11.1531 18.5806 11.2531 18.5806H11.7031C11.8431 18.5806 11.9631 18.5806 11.9931 18.8006C12.011 18.9536 12.0445 19.1044 12.0931 19.2506L12.0431 19.3306C12.0626 19.4127 12.0509 19.499 12.0102 19.573C11.9696 19.6469 11.9028 19.7031 11.8231 19.7306C11.6672 19.7878 11.5066 19.8313 11.3431 19.8606C11.1531 19.8606 11.1531 19.8606 10.9331 20.3406C10.8731 20.4606 10.7731 20.5306 10.6731 20.4806C10.3831 20.3406 10.0831 20.2006 10.0031 19.8206C9.94311 19.6706 9.47309 19.6806 9.29309 19.9406L8.79309 20.6506C8.70309 20.7706 8.62309 20.8906 8.54309 21.0206C8.46309 21.1506 8.36308 21.3906 8.44308 21.1406C8.4831 21.1915 8.51985 21.245 8.5531 21.3006C8.45822 21.5032 8.31375 21.6786 8.13308 21.8106C7.86308 21.9706 7.6531 22.1106 7.4631 22.2406C7.02922 22.5782 6.68567 23.0179 6.4631 23.5206C6.38869 23.6277 6.34881 23.7551 6.34881 23.8856C6.34881 24.016 6.38869 24.1434 6.4631 24.2506C6.5231 24.3706 6.4631 24.4706 6.3031 24.5806C6.20331 24.6488 6.1126 24.7295 6.03311 24.8206C6.03311 24.8206 6.1431 24.7406 6.1231 24.8206L5.9931 25.4606C5.98007 25.5678 5.94488 25.6712 5.8898 25.7642C5.83471 25.8571 5.76092 25.9376 5.67309 26.0006C4.97581 26.5519 4.51747 27.3504 4.39309 28.2306C4.33734 28.5463 4.19545 28.8404 3.98309 29.0806C3.92949 29.1547 3.85585 29.2119 3.77081 29.2456C3.68577 29.2792 3.5929 29.2879 3.50311 29.2706C3.45445 29.2746 3.40728 29.2894 3.36502 29.3138C3.32276 29.3383 3.28646 29.3718 3.25872 29.412C3.23098 29.4521 3.2125 29.498 3.20462 29.5461C3.19673 29.5943 3.19962 29.6436 3.2131 29.6906L3.35308 30.2306C3.35308 30.3406 3.4831 30.4406 3.4631 30.5606C3.4431 30.6806 3.2931 30.7806 3.2131 30.9106C2.9331 31.3906 2.4231 31.5606 2.2131 32.1306C2.07886 32.257 1.97699 32.4138 1.91607 32.5879C1.85516 32.7619 1.83699 32.948 1.86309 33.1306C1.86309 33.5206 1.6231 34.0806 1.6531 34.4006C1.68926 34.507 1.70948 34.6182 1.7131 34.7306C1.6331 35.0106 1.5731 35.3706 1.4931 35.7306C1.46552 35.8047 1.46552 35.8864 1.4931 35.9606C1.6731 36.1806 1.68308 36.7606 1.88308 36.8506C2.07135 36.9339 2.25498 37.0273 2.4331 37.1306C2.5031 37.2006 2.4831 37.4206 2.4931 37.6606C2.5031 37.9006 2.49308 37.9006 2.66308 37.7606C2.83308 37.6206 2.80308 37.6406 2.85308 37.7006C2.90308 37.7606 2.92309 37.8906 2.98309 37.9206C3.04309 37.9506 3.2131 37.7906 3.2431 37.9206C3.2731 38.0506 3.2431 38.0306 3.3031 38.0006C3.53348 37.8802 3.79785 37.8414 4.0531 37.8906C4.1131 37.8906 4.2231 37.8906 4.3431 37.8106C4.50714 37.754 4.66743 37.6872 4.82308 37.6106C4.91767 37.5263 5.02588 37.4586 5.14309 37.4106C5.28525 37.3329 5.4222 37.246 5.5531 37.1506C5.92319 36.9019 6.25934 36.606 6.5531 36.2706C6.71094 36.0302 6.81028 35.7562 6.8431 35.4706C6.8431 35.3306 6.9331 35.2706 7.0531 35.1506C7.1731 35.0306 7.53311 34.6506 7.78311 34.4006C7.87365 34.3066 7.92387 34.181 7.92309 34.0506C8.07326 33.452 8.33815 32.8882 8.70309 32.3906C8.95483 32.1893 9.12818 31.9063 9.19308 31.5906C9.34108 31.2099 9.53234 30.8475 9.76309 30.5106C10.0205 30.1315 10.1944 29.702 10.2731 29.2506L10.4131 28.6806C10.4389 28.5422 10.4972 28.412 10.5831 28.3006L11.0731 27.7006C11.4414 27.3303 11.6949 26.8615 11.8031 26.3506C11.8631 26.1706 11.8631 25.9406 11.9031 25.7806C11.9431 25.6206 12.0131 25.6006 12.1031 25.5306C12.4031 25.3006 12.3831 25.3306 12.3231 25.1206C12.3137 25.0375 12.3137 24.9536 12.3231 24.8706C12.4159 24.6358 12.5441 24.4166 12.7031 24.2206L12.7931 24.1006L12.8931 23.7906V23.6906C12.8931 23.6106 12.9431 23.5506 12.9631 23.4806C13.0018 23.3367 13.0252 23.1893 13.0331 23.0406C13.0331 22.9506 13.1531 22.8306 13.2331 22.7506C13.2762 22.7004 13.3068 22.6407 13.3224 22.5764C13.3381 22.5121 13.3383 22.445 13.3231 22.3806C13.2431 21.8506 13.2431 21.8406 13.5731 21.4406C13.7336 21.2757 13.8415 21.0669 13.8831 20.8406C13.9031 20.7064 13.9401 20.5754 13.9931 20.4506L13.9031 20.6106C14.0748 20.2316 14.2932 19.8755 14.5531 19.5506C14.6931 19.3706 14.8631 19.2306 15.0031 19.0606C15.0549 19.0111 15.0938 18.9497 15.1165 18.8817C15.1391 18.8137 15.1448 18.7412 15.1331 18.6706C15.1331 18.6706 15.0731 18.6706 15.0431 18.6706C14.9637 18.6846 14.8825 18.6846 14.8031 18.6706C14.7431 18.6706 14.8831 18.3506 15.0631 18.1206C15.158 18.0244 15.2449 17.9207 15.3231 17.8106C15.4315 17.6284 15.4933 17.4223 15.5031 17.2106C15.519 17.0009 15.519 16.7903 15.5031 16.5806C15.4815 16.3881 15.5045 16.1933 15.5704 16.0112C15.6363 15.8291 15.7433 15.6646 15.8831 15.5306L16.1631 15.3106C16.3033 15.1755 16.4066 15.0068 16.4631 14.8206C16.4714 14.5545 16.5508 14.2955 16.6931 14.0706C16.7405 13.9946 16.7712 13.9093 16.7831 13.8206C16.7784 13.7845 16.7661 13.7499 16.7472 13.7189C16.7282 13.6879 16.703 13.6612 16.6731 13.6406C16.6731 13.6406 16.5331 13.7106 16.4531 13.7506C16.0721 14.1877 15.7149 14.6451 15.3831 15.1206C15.3831 15.2106 15.2231 15.3106 15.1431 15.2906C15.0878 15.2767 15.0387 15.2451 15.0031 15.2006C14.8235 15.4778 14.5967 15.7215 14.3331 15.9206ZM8.67309 23.7406C8.96309 23.9206 8.6731 24.1106 8.4931 24.3306C8.41703 24.4554 8.36923 24.5953 8.35308 24.7406C8.35308 24.9006 8.25309 25.0006 8.11309 25.0006C7.97309 25.0006 7.99309 25.0006 7.98309 24.9306C7.80391 24.4226 7.80391 23.8686 7.98309 23.3606C8.02011 23.2792 8.07084 23.2048 8.13308 23.1406L8.32308 23.0106C8.31185 23.1567 8.34259 23.3031 8.41168 23.4324C8.48076 23.5618 8.58534 23.6686 8.7131 23.7406H8.67309ZM5.54309 29.2706C5.26309 29.5506 5.02309 29.4406 5.04309 29.0306C5.03326 28.9608 5.04915 28.8899 5.08779 28.831C5.12644 28.7721 5.18521 28.7293 5.25311 28.7106C5.46311 28.6606 5.66308 28.7106 5.88308 28.4006C5.97752 28.3097 6.08145 28.2292 6.19308 28.1606C6.19308 28.2906 6.12308 28.4306 6.07308 28.5606C6.02609 28.6658 5.96919 28.7662 5.9031 28.8606C5.80439 29.0033 5.69754 29.1402 5.58309 29.2706H5.54309Z" fill="#01AF34"/>
<path d="M26.4231 32.5805L26.3031 32.1605C26.3031 32.0705 26.3031 31.9405 26.3031 31.8305C26.3031 31.7205 26.0331 31.3305 25.7231 31.3605C25.5845 31.3741 25.4455 31.3398 25.329 31.2634C25.2126 31.187 25.1258 31.0731 25.0831 30.9405C25.041 30.8724 25.0268 30.7907 25.0436 30.7124C25.0604 30.6341 25.1068 30.5654 25.1731 30.5205C25.2157 30.4864 25.2686 30.4679 25.3231 30.4679C25.3776 30.4679 25.4306 30.4864 25.4731 30.5205C25.522 30.5469 25.5688 30.577 25.6131 30.6105C25.7531 30.7005 25.8931 30.7805 26.0231 30.8805C26.1531 30.9805 26.4731 31.3605 26.7831 31.2305C26.7831 31.2305 26.9531 31.3505 26.9731 31.4505C26.9931 31.5505 26.9731 31.6305 27.0331 31.7105L26.7031 32.6105H26.6331L27.2931 31.5505C27.367 31.4061 27.4177 31.2508 27.4431 31.0905C27.4338 30.9161 27.3588 30.7517 27.2331 30.6305C26.7887 30.2776 26.4926 29.771 26.4031 29.2105C26.3881 29.1022 26.3543 28.9973 26.3031 28.9005C26.2804 28.8522 26.2414 28.8133 26.1931 28.7905C26.1727 28.7701 26.1478 28.7549 26.1203 28.7461C26.0928 28.7374 26.0636 28.7354 26.0352 28.7403C26.0067 28.7452 25.9799 28.7569 25.9569 28.7743C25.934 28.7917 25.9155 28.8145 25.9031 28.8405C25.8331 28.9805 25.7731 29.1305 25.6931 29.2605C25.6619 29.3339 25.6084 29.3955 25.5402 29.4368C25.472 29.4781 25.3926 29.4969 25.3131 29.4905C25.1533 29.4805 24.993 29.4805 24.8331 29.4905C24.6231 29.4905 24.5131 29.3705 24.5631 29.2105C24.6032 29.0548 24.6602 28.9039 24.7331 28.7605C24.8131 28.5805 24.8131 28.5805 24.5231 28.2805C24.504 28.2636 24.4886 28.2429 24.4781 28.2196C24.4676 28.1963 24.4622 28.1711 24.4622 28.1455C24.4622 28.12 24.4676 28.0947 24.4781 28.0715C24.4886 28.0482 24.504 28.0274 24.5231 28.0105C24.6513 27.8725 24.8058 27.7616 24.9776 27.6843C25.1494 27.607 25.3348 27.565 25.5231 27.5605C25.7031 27.5605 25.8931 27.0805 25.7831 26.9105C25.5222 26.4582 25.1837 26.0554 24.7831 25.7205C24.6731 25.6505 24.5831 25.6105 24.5831 25.4705C24.584 25.2352 24.5434 25.0017 24.4631 24.7805C24.3719 24.4869 24.2222 24.2148 24.0231 23.9805C23.9293 23.8617 23.8219 23.7543 23.7031 23.6605C23.5031 23.5005 23.3131 23.6005 23.1231 23.6605C22.9331 23.7205 22.9531 23.6605 22.9431 23.4905C22.9492 23.3854 22.9156 23.2819 22.8489 23.2004C22.7822 23.1189 22.6874 23.0654 22.5831 23.0505L22.1131 22.9505C22.0393 22.9405 21.9701 22.9084 21.9148 22.8584C21.8595 22.8085 21.8206 22.743 21.8031 22.6705C21.7209 22.3876 21.5742 22.1275 21.3747 21.9107C21.1752 21.6938 20.9283 21.526 20.6531 21.4205C20.5498 21.3809 20.4556 21.3205 20.3765 21.2432C20.2974 21.1658 20.235 21.073 20.1931 20.9705C20.1131 20.8205 20.1931 20.6905 20.2931 20.5605C20.3214 20.5343 20.3406 20.4997 20.3478 20.4618C20.3549 20.4239 20.3498 20.3847 20.3329 20.35C20.3161 20.3152 20.2886 20.2868 20.2545 20.2689C20.2203 20.251 20.1812 20.2446 20.1431 20.2505H19.6631C19.5631 20.2505 19.4431 20.3005 19.3631 20.2505C19.2831 20.2005 19.2931 20.0705 19.2431 19.9805C19.0431 19.6405 19.2431 19.2405 18.9231 18.9805C18.9231 18.7005 18.7631 18.5605 18.4631 18.4205L18.3631 18.3605L18.0331 17.9605C17.7831 17.8605 17.5931 17.6905 17.3831 17.7005C17.1731 17.7105 16.8031 17.7805 16.6031 17.7005H16.4831C16.1831 17.7905 15.8831 17.6405 15.6731 17.7005C15.4718 17.7373 15.2678 17.7574 15.0631 17.7605C14.9431 17.7605 14.8631 17.6105 14.8531 17.4305C14.8431 17.2505 14.8531 17.2505 14.7631 17.3805C14.6731 17.5105 14.7631 17.5105 14.6931 17.4605C14.6231 17.4105 14.6031 17.2805 14.5731 17.2505C14.5431 17.2205 14.5031 17.4305 14.4631 17.3305C14.4231 17.2305 14.4031 17.1705 14.3831 17.2105C14.3532 17.3702 14.2806 17.5188 14.1731 17.6405C14.3031 17.6405 13.8531 17.8605 13.2231 18.1305C13.0885 18.3997 13.0038 18.6911 12.9731 18.9905C13.0893 19.4338 13.1729 19.885 13.2231 20.3405C13.2357 20.6587 13.3285 20.9685 13.4928 21.2412C13.6572 21.514 13.8877 21.7407 14.1631 21.9005L13.8131 21.4705C13.9131 21.5505 13.9131 21.6305 13.9231 21.7805C13.9331 21.9305 14.0231 22.3805 14.0731 22.6805C14.0731 22.8105 14.1631 22.8605 14.2731 22.9405C14.677 23.3084 14.9975 23.7585 15.2131 24.2605C15.2131 24.6105 15.4531 24.7505 15.6731 24.9605C15.9365 25.216 16.1774 25.4937 16.3931 25.7905C16.6526 26.1262 16.9982 26.3854 17.3931 26.5405L17.8631 26.7905C17.9754 26.8399 18.0741 26.9157 18.1507 27.0115C18.2273 27.1072 18.2796 27.2202 18.3031 27.3405C18.3616 27.5542 18.4637 27.7534 18.6031 27.9256C18.7426 28.0977 18.9162 28.239 19.1131 28.3405C19.2714 28.4305 19.435 28.5106 19.6031 28.5805C19.6031 28.5805 19.6031 28.6305 19.6031 28.6705C19.6031 28.7105 19.5231 28.7905 19.5331 28.8105C19.5988 28.8727 19.6832 28.9113 19.7731 28.9205C19.9969 28.9479 20.2048 29.0501 20.3631 29.2105C20.5408 29.4355 20.7618 29.6226 21.0131 29.7605C21.0831 29.7605 21.1231 29.9405 21.1531 30.0405C21.1831 30.1405 21.2431 30.2105 21.3831 30.2205C21.8431 30.2205 21.8631 30.2205 21.9631 30.6105C21.9728 30.6901 22.0028 30.7659 22.05 30.8306C22.0973 30.8954 22.1603 30.947 22.2331 30.9805C22.4062 31.0937 22.5548 31.2405 22.6699 31.4123C22.785 31.5841 22.8643 31.7774 22.9031 31.9805C22.9428 32.1453 22.9729 32.3122 22.9931 32.4805C23.0066 32.5396 23.0396 32.5925 23.0867 32.6306C23.1339 32.6687 23.1925 32.6898 23.2531 32.6905C23.2531 32.6905 23.3231 32.6405 23.3431 32.6005C23.3631 32.5605 23.4331 32.4305 23.5031 32.3805C23.5731 32.3305 23.7131 32.5305 23.7931 32.7505C23.8072 32.8546 23.8375 32.9559 23.8831 33.0505C23.928 33.1273 23.9886 33.1938 24.061 33.2455C24.1334 33.2972 24.2159 33.333 24.3031 33.3505H24.8031C24.7431 33.1505 24.6731 32.9505 24.6231 32.7605C24.6731 32.8385 24.7337 32.9092 24.8031 32.9705C25.1087 33.2708 25.3772 33.6065 25.6031 33.9705C25.6483 34.0714 25.7019 34.1684 25.7631 34.2605C25.8687 34.3952 26.0167 34.4904 26.1831 34.5305C26.4007 34.5334 26.6113 34.6071 26.7831 34.7405C26.8404 34.7798 26.905 34.8071 26.9731 34.8205C27.004 34.816 27.0335 34.8047 27.0594 34.7874C27.0854 34.7701 27.1071 34.7473 27.1231 34.7205C27.1088 34.6605 27.0852 34.6032 27.0531 34.5505C26.7431 34.3205 26.4831 33.8505 26.1731 33.6205C26.145 33.5908 26.1293 33.5514 26.1293 33.5105C26.1293 33.4696 26.145 33.4302 26.1731 33.4005C26.2241 33.3605 26.2775 33.3238 26.3331 33.2905C26.2231 32.8705 26.2331 32.6505 26.4231 32.5805ZM22.6331 25.5105C22.3431 25.7505 22.3231 25.5105 22.2231 25.3105C22.1231 25.1105 22.0531 25.1905 21.9531 25.1605C21.8531 25.1305 21.7931 25.0405 21.8531 24.9105C21.8654 24.8866 21.8823 24.8655 21.903 24.8483C21.9236 24.8311 21.9475 24.8183 21.9731 24.8105C22.3819 24.7154 22.8107 24.7576 23.1931 24.9305C23.2678 25.0022 23.3289 25.0869 23.3731 25.1805C23.4025 25.2579 23.4227 25.3384 23.4331 25.4205C23.3045 25.3602 23.1616 25.3368 23.0204 25.3526C22.8792 25.3685 22.7452 25.4232 22.6331 25.5105ZM19.3331 22.1305C19.2431 21.8305 19.4531 21.6705 19.7731 21.7505C19.9131 21.7505 19.9631 21.8605 19.9231 21.9805C19.8831 22.1005 19.7231 22.3205 19.8631 22.5505C19.8911 22.6483 19.9079 22.7489 19.9131 22.8505C19.8197 22.8031 19.7295 22.7497 19.6431 22.6905C19.5931 22.6905 19.5731 22.6005 19.4931 22.4905C19.429 22.3756 19.3754 22.2551 19.3331 22.1305Z" fill="#01AF34"/>
<path d="M26.8832 35.1205C26.7557 35.0849 26.6251 35.0615 26.4932 35.0505C26.1132 35.0505 25.8132 35.0505 25.6132 35.3005C25.4824 35.4259 25.3227 35.5171 25.1483 35.566C24.9738 35.6148 24.79 35.6198 24.6132 35.5805C24.3332 35.5805 24.1932 35.4405 24.1932 35.2805C24.1932 35.1205 24.1932 35.0905 24.3832 35.0405L24.5932 34.9905C24.8132 34.9305 25.0232 34.8605 25.2432 34.8205C25.7532 34.7405 26.0332 34.7005 26.0932 34.4105C26.0932 34.4105 26.3032 34.3405 26.4132 34.3305H26.8132L26.7232 34.1005C26.6809 34.0236 26.6223 33.9568 26.5515 33.905C26.4806 33.8532 26.3993 33.8175 26.3132 33.8005C26.1618 33.7353 25.9979 33.7045 25.8332 33.7105C25.0892 33.8964 24.3057 33.844 23.5932 33.5605C23.4532 33.5605 23.2932 33.5005 23.1432 33.4705C23.0668 33.461 22.9895 33.461 22.9132 33.4705C22.7332 33.5205 22.6832 33.6105 22.7632 33.7205C22.8432 33.8305 22.9932 33.9805 23.0932 34.1105C23.1932 34.2405 23.2332 34.3905 23.0932 34.5305C22.9532 34.6705 22.8532 34.7805 22.7232 34.9105C22.6556 34.9874 22.5616 35.0362 22.4598 35.0473C22.358 35.0584 22.2558 35.031 22.1732 34.9705L21.7732 34.6005C21.6332 34.4405 21.6332 34.4405 21.0532 34.5005C20.9032 34.5005 20.7632 34.5005 20.7432 34.3505C20.6889 34.1777 20.6825 33.9934 20.7248 33.8173C20.767 33.6412 20.8563 33.4798 20.9832 33.3505C21.1432 33.2105 20.7132 32.8005 20.4232 32.8005C19.6977 32.7498 18.9687 32.7901 18.2532 32.9205C18.1116 32.9753 17.9547 32.9753 17.8132 32.9205L17.2332 32.6405C16.7805 32.4835 16.2958 32.4422 15.8232 32.5205C15.692 32.5249 15.5647 32.5655 15.4552 32.6379C15.3458 32.7103 15.2585 32.8116 15.2032 32.9305C15.1232 33.0505 15.0032 33.0405 14.8232 32.9305C14.6862 32.8634 14.5357 32.8285 14.3832 32.8285C14.2306 32.8285 14.0801 32.8634 13.9432 32.9305L13.3532 33.2205C13.1579 33.318 12.9334 33.3394 12.7232 33.2805C11.877 33.0644 10.9854 33.1062 10.1632 33.4005C9.86162 33.5062 9.53824 33.5337 9.22318 33.4805C9.13348 33.4693 9.04863 33.4334 8.97803 33.377C8.90744 33.3205 8.85382 33.2456 8.82316 33.1605C8.79552 33.1208 8.75998 33.0873 8.71873 33.062C8.67748 33.0368 8.63143 33.0203 8.5835 33.0138C8.53558 33.0072 8.48682 33.0106 8.44028 33.0238C8.39375 33.037 8.35049 33.0598 8.31318 33.0905L7.89317 33.4705C7.80317 33.5505 7.75316 33.6705 7.63316 33.7105C7.51316 33.7505 7.35316 33.7105 7.20316 33.7105C6.63316 33.7105 6.27315 33.4005 5.66315 33.4505C5.48971 33.3892 5.30581 33.363 5.12214 33.3733C4.93846 33.3836 4.75869 33.4302 4.59318 33.5105C4.12449 33.6243 3.66354 33.7679 3.21317 33.9405C2.71696 34.1941 2.20605 34.4178 1.68317 34.6105C1.61937 34.6299 1.56109 34.6642 1.51316 34.7105C1.42316 34.9105 0.953174 35.1205 0.933174 35.2805C0.916788 35.4395 0.88668 35.5968 0.843178 35.7505C0.843178 35.8305 0.583168 35.8705 0.333168 35.8905C0.0831679 35.9105 0.0631813 35.8905 0.253181 36.0105C0.443181 36.1305 0.423157 36.0905 0.353157 36.1305C0.283157 36.1705 0.113158 36.1805 0.0731582 36.2105C0.0331582 36.2405 0.303154 36.3605 0.163154 36.3705C0.0231545 36.3805 -0.0368296 36.3705 0.0231704 36.3705C0.224225 36.5113 0.394377 36.6916 0.52317 36.9005C0.658007 37.0044 0.781969 37.1217 0.893165 37.2505C1.10826 37.3737 1.33222 37.4806 1.56318 37.5705C1.9174 37.6544 2.25529 37.7963 2.56318 37.9905C3.09355 38.3535 3.73264 38.523 4.37318 38.4705C4.52024 38.4401 4.67334 38.4651 4.80317 38.5405C5.15317 38.6705 5.54315 38.7705 5.91315 38.8905C6.05708 38.9306 6.20923 38.9306 6.35316 38.8905C7.07531 38.8362 7.80147 38.8766 8.51316 39.0105C8.87604 39.1355 9.27028 39.1355 9.63316 39.0105C10.1221 38.9654 10.6142 38.9654 11.1032 39.0105C11.651 39.0333 12.198 38.9484 12.7132 38.7605L13.3632 38.5805C13.6704 38.4886 14.0003 38.5099 14.2932 38.6405C14.8239 38.8244 15.3956 38.8556 15.9432 38.7305C16.1734 38.6892 16.4006 38.6324 16.6232 38.5605C16.7791 38.5347 16.9391 38.5556 17.0832 38.6205C17.5732 38.7805 17.5832 38.7805 17.8732 38.6205C18.1107 38.4434 18.3895 38.3298 18.6832 38.2905C19.0791 38.2718 19.47 38.1943 19.8432 38.0605C19.988 38.0279 20.1383 38.0279 20.2832 38.0605C20.3498 38.0858 20.4224 38.0908 20.4918 38.0747C20.5613 38.0587 20.6244 38.0224 20.6732 37.9705C21.0732 37.6105 21.0832 37.6005 21.5932 37.7105C21.8059 37.7903 22.0404 37.7903 22.2532 37.7105C22.7936 37.5654 23.3628 37.5654 23.9032 37.7105C24.1288 37.7456 24.3524 37.7923 24.5732 37.8505C24.649 37.8721 24.7291 37.8743 24.8059 37.8568C24.8828 37.8393 24.9541 37.8028 25.0132 37.7505C25.0132 37.7505 25.0132 37.6705 25.0132 37.6405C25.0132 37.6105 24.8832 37.4905 24.8732 37.4105C24.8632 37.3305 25.2232 37.3105 25.5432 37.4105C25.7038 37.4651 25.8741 37.4855 26.0432 37.4705C26.334 37.4619 26.6144 37.3603 26.8432 37.1805C27.0652 37.0176 27.258 36.8181 27.4132 36.5905C27.7402 36.2624 28.1468 36.0247 28.5932 35.9005C28.7332 35.8305 28.8632 35.8005 29.0032 35.7205C29.1432 35.6405 29.4632 35.2605 29.5332 35.1805C29.6541 34.8937 29.7576 34.5998 29.8432 34.3005C29.8673 34.202 29.8673 34.0991 29.8432 34.0005C29.8322 33.9767 29.8131 33.9575 29.7893 33.9465C29.7654 33.9355 29.7384 33.9334 29.7132 33.9405C29.6654 34.0042 29.6219 34.071 29.5832 34.1405C29.5232 34.6205 28.8332 35.0005 28.3632 35.2605C28.3206 35.2946 28.2677 35.3132 28.2132 35.3132C28.1586 35.3132 28.1057 35.2946 28.0632 35.2605C28.0244 35.2067 27.9971 35.1454 27.9832 35.0805C27.6301 35.2104 27.2448 35.2245 26.8832 35.1205ZM16.6432 34.5805C16.6432 34.9505 16.3332 34.8005 16.0332 34.7405C15.886 34.7387 15.7398 34.7659 15.6032 34.8205C15.4332 34.8805 15.3132 34.8205 15.2432 34.7405C15.2261 34.7193 15.2168 34.6928 15.2168 34.6655C15.2168 34.6383 15.2261 34.6118 15.2432 34.5905C15.6249 34.2011 16.1111 33.9302 16.6432 33.8105C16.7229 33.8009 16.8034 33.8009 16.8832 33.8105C16.9484 33.8364 17.0118 33.8665 17.0732 33.9005C16.9536 33.9728 16.8526 34.0718 16.778 34.1898C16.7033 34.3078 16.6572 34.4416 16.6432 34.5805ZM9.78318 34.8505C9.37318 34.7405 9.36318 34.4905 9.78318 34.3105C9.8413 34.2683 9.9113 34.2455 9.98316 34.2455C10.055 34.2455 10.1251 34.2683 10.1832 34.3105C10.3332 34.4605 10.3932 34.6505 10.7832 34.6905C10.9177 34.7187 11.0486 34.7624 11.1732 34.8205L10.7432 34.9305C10.6732 34.9305 10.5832 34.9305 10.3832 34.9305C10.1832 34.9305 9.99318 34.9005 9.78318 34.8505Z" fill="#01AF34"/>
<path d="M28.2031 33.0705C28.1564 32.9814 28.0956 32.9004 28.0231 32.8306C27.8131 32.6706 27.6131 32.5306 27.3831 32.6506C27.2863 32.7028 27.1742 32.7194 27.0664 32.6974C26.9586 32.6755 26.8619 32.6165 26.7931 32.5306C26.6731 32.4006 26.6631 32.2706 26.7931 32.1706C26.8142 32.1332 26.848 32.1046 26.8883 32.0899C26.9287 32.0752 26.9729 32.0755 27.0131 32.0906H27.1431C27.2931 32.1506 27.3931 32.0906 27.5031 32.1706C27.6131 32.2506 28.0131 32.3506 28.1831 32.1706C28.1831 32.1706 28.3531 32.1706 28.4431 32.2706C28.5404 32.3315 28.6339 32.3983 28.7231 32.4705C28.7605 32.4059 28.7938 32.3392 28.8231 32.2706C28.8731 32.1606 28.8231 32.0106 28.6831 31.8606C28.592 31.7332 28.4622 31.6385 28.3131 31.5906C28.0031 31.5106 27.9931 31.5405 27.8631 31.4405L27.7431 31.3006L27.6831 31.2305C27.6023 31.2887 27.5254 31.3521 27.4531 31.4206L27.3931 31.4805L27.7731 31.2706V31.2005V31.1106C27.7662 31.0474 27.7662 30.9837 27.7731 30.9206C27.7425 30.8282 27.7058 30.738 27.6631 30.6506C27.6551 30.6302 27.6429 30.6117 27.6275 30.5962C27.612 30.5807 27.5935 30.5686 27.5731 30.5606C27.5545 30.5467 27.5328 30.5376 27.5098 30.5342C27.4868 30.5308 27.4633 30.5332 27.4415 30.5412C27.4197 30.5491 27.4002 30.5624 27.3848 30.5797C27.3693 30.597 27.3585 30.618 27.3531 30.6406C27.3531 30.7606 27.2831 30.9006 27.2331 31.0306C27.1831 31.1606 27.1131 31.2605 26.9531 31.2605C26.8252 31.2715 26.6982 31.2916 26.5731 31.3205C26.4031 31.3205 26.2931 31.2606 26.3131 31.1106C26.3267 30.9757 26.3501 30.842 26.3831 30.7106C26.3831 30.5506 26.3831 30.5506 26.1531 30.3306C26.1363 30.3165 26.1228 30.2989 26.1135 30.279C26.1042 30.2591 26.0994 30.2375 26.0994 30.2156C26.0994 30.1936 26.1042 30.172 26.1135 30.1521C26.1228 30.1322 26.1363 30.1146 26.1531 30.1005C26.2395 29.9743 26.3505 29.8668 26.4793 29.7843C26.6082 29.7018 26.7523 29.6462 26.9031 29.6206C27.0531 29.6206 27.1531 29.1706 27.0331 29.0506C26.7785 28.7093 26.4633 28.4177 26.1031 28.1905C26.0131 28.1405 25.9331 28.1205 25.9231 28.0105C25.9122 27.8694 25.8922 27.7291 25.8631 27.5906C25.7796 27.2835 25.5968 27.0127 25.3431 26.8205C25.1431 26.6405 24.9731 26.7106 24.7931 26.7506C24.6131 26.7906 24.6331 26.7506 24.6131 26.5806C24.6021 26.4772 24.5599 26.3797 24.492 26.3011C24.4241 26.2225 24.3337 26.1665 24.2331 26.1406L23.8031 26.0306C23.7319 26.0178 23.6654 25.986 23.6108 25.9384C23.5562 25.8909 23.5155 25.8294 23.4931 25.7605C23.3684 25.5024 23.203 25.2661 23.0031 25.0606L22.8431 24.9206C22.9731 25.0706 22.8431 24.9906 22.8431 25.0006C22.8431 25.0106 22.7931 25.0606 22.5831 24.8706C22.3775 24.7238 22.204 24.5366 22.0731 24.3205C22.038 24.2597 22.0195 24.1908 22.0195 24.1206C22.0195 24.0503 22.038 23.9814 22.0731 23.9206C22.089 23.8892 22.0963 23.8542 22.0944 23.8191C22.0924 23.784 22.0812 23.75 22.062 23.7206C22.0427 23.6912 22.016 23.6674 21.9846 23.6516C21.9532 23.6358 21.9182 23.6285 21.8831 23.6305H21.3331C21.2442 23.6501 21.1521 23.6501 21.0631 23.6305C20.9931 23.6305 20.9631 23.4705 20.9031 23.4105C20.6731 23.1505 20.6931 22.8206 20.4131 22.5906C20.4131 22.3706 20.2331 22.2706 19.9731 22.1806C19.7131 22.0906 19.5631 21.8706 19.2931 21.7706C19.0028 21.6798 18.7267 21.5485 18.4731 21.3805C18.4335 21.3725 18.3927 21.3725 18.3531 21.3805C18.1431 21.4405 17.9131 21.3105 17.7531 21.3805C17.6073 21.4475 17.4569 21.5044 17.3031 21.5506C17.2231 21.5506 17.1331 21.4506 17.0431 21.3306C16.9531 21.2106 16.9331 21.1906 16.8731 21.3306C16.8131 21.4706 16.8731 21.4606 16.7631 21.4306C16.6862 21.3876 16.6059 21.3508 16.5231 21.3205C16.4631 21.3205 16.4531 21.5105 16.3631 21.4505C16.2731 21.3905 16.2331 21.3405 16.2231 21.3805C16.1701 21.577 16.0666 21.7563 15.9231 21.9006C15.9037 22.0131 15.9037 22.1281 15.9231 22.2406C15.897 22.433 15.897 22.6281 15.9231 22.8205C16.03 23.0837 16.1039 23.3592 16.1431 23.6406C16.1559 23.8663 16.2169 24.0867 16.3222 24.2868C16.4274 24.4869 16.5744 24.6621 16.7531 24.8006C16.8531 24.8706 16.8631 24.9406 16.9031 25.0606C16.9431 25.1806 17.0831 25.5706 17.1531 25.8306C17.1939 25.9181 17.2601 25.9912 17.3431 26.0405C17.658 26.3272 17.9218 26.6653 18.1231 27.0405C18.1231 27.3105 18.2731 27.3505 18.4231 27.4705C18.4978 27.5182 18.5596 27.5834 18.6031 27.6605C18.8031 27.9305 18.8531 28.0505 19.1731 28.4505C19.3727 28.7052 19.6394 28.8991 19.9431 29.0105L20.3031 29.1905C20.3902 29.2323 20.4653 29.2955 20.5213 29.3742C20.5772 29.4529 20.6123 29.5446 20.6231 29.6406C20.6612 29.8034 20.7323 29.9566 20.8321 30.0908C20.9319 30.225 21.0582 30.3372 21.2031 30.4206C21.3235 30.4957 21.4507 30.5593 21.5831 30.6106C21.6223 30.6359 21.6552 30.6697 21.6794 30.7096C21.7036 30.7494 21.7186 30.7942 21.7231 30.8406C21.8131 31.1406 21.8231 31.1505 22.0631 31.2005C22.2634 31.2138 22.455 31.2869 22.6131 31.4105C22.7995 31.5951 23.0203 31.7412 23.2631 31.8406C23.3231 31.8406 23.3831 31.9906 23.4231 32.0806C23.4371 32.1278 23.4689 32.1678 23.5118 32.1921C23.5548 32.2163 23.6054 32.223 23.6531 32.2106C24.0431 32.2106 24.0531 32.2106 24.1931 32.5006C24.2158 32.5692 24.2536 32.6318 24.3038 32.6837C24.354 32.7356 24.4153 32.7756 24.4831 32.8006C24.8077 32.9652 25.0758 33.2228 25.2531 33.5405L25.3031 33.6406L25.3931 33.7305V33.7806L25.5131 33.9606C25.5513 34.0073 25.6006 34.0437 25.6565 34.0664C25.7124 34.0891 25.7732 34.0975 25.8331 34.0906C25.8331 34.0906 25.8331 34.0406 25.8331 34.0006C25.8331 33.9606 25.8331 33.8406 25.8331 33.7806C25.8331 33.7206 26.1231 33.8805 26.3131 34.0705C26.5031 34.2605 26.4231 34.2406 26.5031 34.3006C26.5599 34.3467 26.6257 34.3804 26.6964 34.3993C26.767 34.4183 26.8409 34.4221 26.9131 34.4105C27.0772 34.3792 27.2379 34.3323 27.3931 34.2706C27.5087 34.2269 27.6359 34.2249 27.7528 34.2651C27.8697 34.3053 27.9688 34.385 28.0331 34.4906C28.064 34.552 28.0907 34.6155 28.1131 34.6806C28.1853 34.7594 28.2793 34.8151 28.3831 34.8406C28.5431 34.8406 28.7031 34.8406 28.8031 35.0906C28.8299 35.1478 28.8759 35.1937 28.9331 35.2205C28.9951 35.2392 29.0612 35.2392 29.1231 35.2205C29.1231 35.2205 29.1231 35.1105 29.1831 35.0405C29.1599 34.8291 29.0916 34.6251 28.9829 34.4423C28.8743 34.2595 28.7277 34.102 28.5531 33.9805C28.5193 33.9564 28.4948 33.9214 28.4839 33.8813C28.4729 33.8412 28.4762 33.7985 28.4931 33.7605C28.528 33.7038 28.5719 33.6531 28.6231 33.6106C28.4497 33.4592 28.3071 33.2759 28.2031 33.0705ZM24.2031 28.3706C23.9731 28.5706 23.9331 28.3705 23.8531 28.1605C23.7894 28.086 23.7064 28.0307 23.6131 28.0006C23.5897 27.9966 23.5676 27.9867 23.5491 27.9718C23.5305 27.9569 23.5161 27.9376 23.507 27.9155C23.498 27.8935 23.4948 27.8696 23.4976 27.846C23.5004 27.8223 23.5092 27.7998 23.5231 27.7806C23.5231 27.7806 23.5231 27.7005 23.6131 27.7005C23.9951 27.6542 24.3817 27.735 24.7131 27.9306C24.7544 27.9632 24.7885 28.0041 24.8131 28.0506C24.818 28.0971 24.818 28.144 24.8131 28.1905C24.7005 28.1728 24.5854 28.1788 24.4752 28.2081C24.365 28.2374 24.2621 28.2893 24.1731 28.3606L24.2031 28.3706ZM21.3331 25.3606C21.2331 25.1006 21.3831 24.9506 21.6831 25.0606C21.7409 25.0748 21.7909 25.1109 21.8226 25.1613C21.8543 25.2116 21.8652 25.2723 21.8531 25.3306C21.8531 25.5206 21.6831 25.6005 21.7431 25.7605C21.7532 25.7931 21.7532 25.828 21.7431 25.8606C21.7431 25.8606 21.7431 25.8605 21.7431 25.9405C21.7431 26.0205 21.6831 25.9405 21.6731 25.9405L21.5931 25.8805C21.5931 25.8805 21.5931 25.8206 21.5131 25.7506L21.3331 25.3606Z" fill="#01AF34"/>
<path d="M27.9532 32.8806C27.9532 32.8206 27.8632 32.7406 27.8232 32.6606C27.7832 32.5806 27.4732 32.3806 27.2632 32.4606C27.162 32.4849 27.0559 32.4789 26.9581 32.4434C26.8603 32.4078 26.7751 32.3442 26.7132 32.2606C26.6644 32.2246 26.6317 32.1708 26.6223 32.1109C26.613 32.0509 26.6277 31.9897 26.6632 31.9405C26.6835 31.9074 26.7139 31.8818 26.7499 31.8673C26.786 31.8529 26.8257 31.8505 26.8632 31.8606H26.9832C27.1086 31.8872 27.2297 31.931 27.3432 31.9906C27.5532 32.1506 27.7932 32.2406 27.9732 32.1006C28.1532 31.9606 28.1232 32.1606 28.1932 32.2006C28.2632 32.2406 28.3332 32.3306 28.4032 32.3906L28.5132 32.2306C28.5336 32.1689 28.5369 32.1029 28.5228 32.0395C28.5087 31.9762 28.4778 31.9178 28.4332 31.8706C28.3672 31.7533 28.2604 31.6644 28.1332 31.6206C27.7293 31.4199 27.4051 31.0887 27.2132 30.6806C27.1689 30.6042 27.1151 30.5336 27.0532 30.4705L26.9332 30.4206C26.915 30.4127 26.8951 30.4091 26.8753 30.4101C26.8554 30.4111 26.836 30.4166 26.8186 30.4263C26.8012 30.436 26.7863 30.4495 26.775 30.4658C26.7636 30.4822 26.7562 30.5009 26.7532 30.5206V30.8706C26.7532 30.9806 26.6832 31.0806 26.5432 31.1106C26.4278 31.1366 26.3143 31.17 26.2032 31.2106C26.0632 31.2606 25.9432 31.2106 25.9432 31.0706C25.9432 30.9306 25.9432 30.8306 25.9432 30.7106C25.9432 30.5906 25.9432 30.5706 25.6932 30.4206C25.6765 30.4123 25.6617 30.4006 25.6499 30.3862C25.6381 30.3718 25.6296 30.355 25.6248 30.337C25.6201 30.319 25.6193 30.3001 25.6225 30.2818C25.6256 30.2634 25.6327 30.2459 25.6432 30.2306C25.7695 29.9892 25.9846 29.8063 26.2432 29.7205C26.3732 29.7205 26.4032 29.3206 26.2432 29.2406C26.1081 29.1171 25.9567 29.0128 25.7932 28.9306C25.674 28.834 25.5386 28.7595 25.3932 28.7106C25.3232 28.7106 25.2532 28.7106 25.2432 28.6006V28.3306C25.2432 28.1406 25.0532 28.0406 24.8832 27.9306L25.0232 28.1706C24.9682 28.1007 24.896 28.0464 24.8135 28.013C24.7311 27.9797 24.6413 27.9685 24.5532 27.9806C24.4532 27.9806 24.4132 27.9106 24.4032 27.7906C24.3917 27.6961 24.3574 27.6059 24.3035 27.5275C24.2495 27.4492 24.1774 27.385 24.0932 27.3406L23.7332 27.1406C23.6103 27.0789 23.5168 26.971 23.4732 26.8406C23.2622 26.404 22.9098 26.0516 22.4732 25.8406C22.3218 25.7578 22.1943 25.6372 22.1032 25.4906C22.0789 25.4591 22.0657 25.4204 22.0657 25.3806C22.0657 25.3407 22.0789 25.3021 22.1032 25.2706C22.1032 25.2006 22.0332 25.0706 21.9232 25.0206L21.6232 24.8906C21.5598 24.8724 21.4992 24.8455 21.4432 24.8106C21.4432 24.8106 21.3632 24.6706 21.3132 24.6006C21.1786 24.3256 21.0283 24.0585 20.8632 23.8006C20.7786 23.6029 20.6484 23.4281 20.4832 23.2906C20.3132 23.1206 20.1832 22.9006 19.9932 22.7406C19.777 22.572 19.5792 22.3809 19.4032 22.1706C19.4032 22.1706 19.3332 22.1106 19.3232 22.1206C19.3132 22.1306 19.0132 21.9506 18.9132 21.9906C18.8239 22.0343 18.73 22.0678 18.6332 22.0906C18.5832 22.0906 18.4932 22.0006 18.4032 21.9006C18.3132 21.8006 18.2932 21.7906 18.2832 21.9006C18.2732 22.0106 18.2832 22.0106 18.2832 21.9906C18.2208 21.9544 18.1534 21.9275 18.0832 21.9106C18.0832 21.9106 18.0832 22.0606 17.9932 22.0206C17.9032 21.9806 17.8732 21.9506 17.8732 22.0206C17.8895 22.1494 17.8613 22.2799 17.7932 22.3906C17.804 22.4641 17.8277 22.5352 17.8632 22.6006C17.8948 22.7274 17.9454 22.8488 18.0132 22.9606C18.1465 23.1259 18.2452 23.3163 18.3032 23.5206C18.3949 23.8741 18.5817 24.1957 18.8432 24.4506C18.8972 24.5061 18.9352 24.5752 18.9532 24.6506C19.0132 24.8206 19.0732 25.0206 19.1332 25.2106C19.1524 25.2804 19.1865 25.3452 19.2332 25.4006C19.4502 25.7062 19.6189 26.0435 19.7332 26.4006C19.7505 26.6232 19.8189 26.8388 19.9332 27.0306C20.0595 27.3061 20.1664 27.5901 20.2532 27.8806C20.3392 28.1866 20.4969 28.4677 20.7132 28.7006L20.9432 28.9405C21.0016 28.9952 21.0472 29.0621 21.0766 29.1364C21.106 29.2108 21.1185 29.2908 21.1132 29.3706C21.1071 29.5041 21.1279 29.6375 21.1743 29.7629C21.2207 29.8883 21.2917 30.0031 21.3832 30.1006L21.4932 30.3006H21.5432C21.6561 30.4088 21.7764 30.509 21.9032 30.6006C21.9818 30.6755 22.0343 30.7736 22.0532 30.8806C22.1732 31.2106 22.1832 31.2406 22.3932 31.3106C22.5779 31.3601 22.7467 31.4566 22.8832 31.5906C23.0354 31.791 23.2445 31.9409 23.4832 32.0206C23.5532 32.0206 23.6232 32.1505 23.6632 32.2205C23.6857 32.2597 23.7202 32.2907 23.7617 32.3087C23.8031 32.3267 23.8492 32.3308 23.8932 32.3206C24.2432 32.2706 24.2532 32.2606 24.4232 32.5206C24.4528 32.5818 24.4962 32.6354 24.55 32.677C24.6038 32.7186 24.6665 32.7472 24.7332 32.7606C25.0366 32.8676 25.2989 33.0669 25.4832 33.3306C25.5622 33.4298 25.6356 33.5333 25.7032 33.6406C25.7259 33.6791 25.761 33.709 25.8027 33.7253C25.8444 33.7416 25.8903 33.7435 25.9332 33.7306C25.9332 33.7306 25.9332 33.6806 25.9832 33.6606C26.0332 33.6406 25.9832 33.5106 26.0332 33.4606C26.0832 33.4106 26.2332 33.5206 26.3632 33.6406C26.4932 33.7606 26.4532 33.7706 26.5132 33.8306C26.5609 33.8766 26.6174 33.9127 26.6792 33.9367C26.741 33.9608 26.8069 33.9723 26.8732 33.9705C27.0217 33.9798 27.1706 33.9629 27.3132 33.9206C27.4333 33.8944 27.5585 33.9063 27.6714 33.9547C27.7844 34.0031 27.8794 34.0855 27.9432 34.1905L28.0632 34.3906C28.1028 34.4377 28.1516 34.4762 28.2066 34.5037C28.2617 34.5312 28.3218 34.5472 28.3832 34.5506C28.4701 34.5266 28.561 34.5205 28.6504 34.5325C28.7397 34.5446 28.8257 34.5745 28.9032 34.6206C28.962 34.6378 29.0245 34.6378 29.0832 34.6206C29.1503 34.5881 29.2112 34.5441 29.2632 34.4906C29.2632 34.4906 29.2632 34.3906 29.2132 34.3306C28.9332 34.1906 28.6932 33.8205 28.3732 33.7205C28.3407 33.7053 28.3152 33.6781 28.3022 33.6446C28.2892 33.611 28.2895 33.5738 28.3032 33.5406C28.3316 33.4936 28.3651 33.45 28.4032 33.4106C28.2058 33.2804 28.0496 33.0965 27.9532 32.8806ZM24.0132 28.9906C23.8132 29.1306 23.7832 28.9906 23.7132 28.8206C23.6928 28.7934 23.665 28.7726 23.6332 28.7606L23.6832 28.8506L23.5732 28.7506C23.4832 28.6906 23.4532 28.6206 23.5032 28.5506C23.5532 28.4806 23.5632 28.4906 23.5932 28.5006C23.7509 28.5404 23.9048 28.594 24.0532 28.6606L23.9832 28.5306C24.1394 28.5542 24.2912 28.6014 24.4332 28.6706C24.4641 28.6896 24.4885 28.7175 24.5032 28.7506C24.5139 28.7831 24.5139 28.8181 24.5032 28.8506C24.3289 28.8418 24.1566 28.8911 24.0132 28.9906ZM21.7232 26.0706C21.6332 25.8606 21.7232 25.8106 21.9432 25.9206C22.1632 26.0306 22.0732 26.0306 22.0632 26.0906C22.0532 26.1506 21.9832 26.2706 22.0632 26.4506C22.098 26.5119 22.1185 26.5802 22.1232 26.6506L21.9432 26.4906C21.9432 26.4906 21.8932 26.4206 21.8332 26.3306L21.7232 26.0706Z" fill="#01AF34"/>
<path d="M27.873 10.5406C28.0662 10.596 28.2635 10.6362 28.463 10.6606C29.023 10.6606 29.583 10.6606 29.863 10.3506C30.06 10.2043 30.2856 10.1012 30.525 10.0478C30.7645 9.99437 31.0125 9.99192 31.253 10.0406C31.643 10.0406 31.843 10.1706 31.853 10.3406C31.863 10.5106 31.853 10.5506 31.583 10.6106L31.283 10.6706C30.9835 10.7536 30.6797 10.8204 30.373 10.8706C29.723 10.9806 29.113 11.0706 28.973 11.4406C28.7867 11.5091 28.5912 11.5496 28.393 11.5606C28.173 11.5606 27.943 11.5606 27.723 11.5606H27.783C27.7943 11.6654 27.8143 11.7691 27.843 11.8706C27.893 12.0406 28.153 12.1406 28.503 12.1806C28.8371 12.2236 29.1764 12.2033 29.503 12.1206C30.5594 11.8253 31.6766 11.8253 32.733 12.1206C32.9674 12.185 33.2099 12.2153 33.453 12.2106C33.604 12.2049 33.7544 12.1882 33.903 12.1606C34.193 12.0806 34.283 11.9706 34.133 11.8706C33.983 11.7706 33.713 11.6306 33.533 11.4906C33.353 11.3506 33.263 11.2106 33.533 11.0506C33.7366 10.9232 33.9216 10.7684 34.083 10.5906C34.1839 10.4953 34.3094 10.4298 34.4453 10.4016C34.5813 10.3733 34.7224 10.3834 34.853 10.4306C35.0535 10.5252 35.2444 10.6391 35.423 10.7706C35.633 10.9206 35.653 10.9006 36.293 10.7706C36.443 10.7706 36.583 10.7706 36.593 10.9406C36.6473 11.3237 36.5544 11.7132 36.333 12.0306C36.223 12.1806 36.563 12.6406 36.493 12.6506L36.603 12.2706C36.5935 12.1976 36.5935 12.1236 36.603 12.0506C36.6441 11.8905 36.7117 11.7383 36.803 11.6006L34.803 8.07057C34.4197 8.73225 34.1079 9.43286 33.873 10.1606C33.8393 10.3695 33.7454 10.5641 33.603 10.7206L32.953 11.2806C32.8329 11.3873 32.7225 11.5044 32.623 11.6306C32.533 11.7406 32.623 11.6306 32.533 11.6806C32.3502 11.9194 32.1831 12.17 32.033 12.4306C31.9347 12.5755 31.8717 12.7414 31.8491 12.9151C31.8265 13.0888 31.845 13.2653 31.903 13.4306C31.903 13.6206 31.823 13.7606 31.583 13.9406C31.1685 14.2531 30.8865 14.7099 30.793 15.2206C30.653 15.6806 30.793 15.6706 30.853 15.7906C30.913 15.9106 30.913 15.9806 30.853 15.9906C30.503 15.9906 30.483 15.9906 30.603 16.8506C30.603 17.1506 30.503 16.9106 30.433 16.7806C30.3546 16.5859 30.3074 16.38 30.293 16.1706C30.293 15.8706 30.243 15.8206 30.223 15.9806C30.2064 16.1111 30.1727 16.2388 30.123 16.3606C30.123 16.4306 30.063 16.5606 30.023 16.5606C29.983 16.5606 29.953 16.4106 29.923 16.3506C29.803 16.0706 29.923 15.7106 29.873 15.6006C29.6963 15.1565 29.3851 14.7789 28.983 14.5206L27.633 13.5206C27.3646 13.3432 27.0759 13.1988 26.773 13.0906L25.843 12.7406C25.4864 12.6344 25.1489 12.4724 24.843 12.2606C24.7747 12.2125 24.6958 12.1817 24.613 12.1706C24.393 12.2306 23.793 11.9306 23.613 12.0306C23.4904 12.1377 23.3522 12.2254 23.203 12.2906C23.113 12.2906 22.843 12.1206 22.583 11.9106C22.323 11.7006 22.293 11.6706 22.403 11.9106C22.453 12.0106 22.523 12.1306 22.403 12.0906C22.2807 12.0218 22.1537 11.9616 22.023 11.9106C21.963 11.9106 22.153 12.2306 22.023 12.1206C21.893 12.0106 21.793 11.9606 21.823 12.0306C21.9523 12.2947 22.0141 12.5867 22.003 12.8806C22.003 12.9406 22.143 13.2106 22.193 13.4406C22.3224 13.7496 22.4833 14.0445 22.673 14.3206C23.033 14.7906 23.293 15.1406 23.603 15.6106C23.8474 15.9694 24.1254 16.3042 24.433 16.6106C24.5801 16.764 24.7371 16.9077 24.903 17.0406C24.9192 17 24.947 16.9652 24.983 16.9406C25.043 16.9406 25.143 17.2106 25.203 17.4106L25.483 18.1806C25.5336 18.3404 25.6006 18.4946 25.683 18.6406L26.073 19.3506C26.2796 19.7043 26.5172 20.0389 26.783 20.3506C27.073 20.7306 27.363 21.1206 27.643 21.5206C27.783 21.6806 27.923 22.0106 28.053 22.0506L28.453 22.2106L30.063 22.9306C30.5732 23.2531 31.1345 23.4864 31.723 23.6206L32.243 23.8006L32.463 23.5906L32.703 23.3706L33.123 23.0406C34.0395 22.3667 34.8199 21.5252 35.423 20.5606L36.003 19.0006C36.343 18.0606 36.403 18.0506 36.693 17.7906C37.2201 17.3191 37.6337 16.7345 37.903 16.0806C38.093 15.7306 38.093 15.5806 38.363 15.0806C38.4499 14.8022 38.5967 14.5462 38.793 14.3306C39.233 13.8006 39.253 13.7706 39.253 13.3306C39.2213 12.936 39.2794 12.5394 39.423 12.1706C39.644 11.6679 39.8051 11.1409 39.903 10.6006L40.503 7.91057L38.863 7.49058C38.623 7.43058 38.123 7.18057 37.793 7.07057C37.5004 6.97648 37.1856 6.97648 36.893 7.07057C36.4031 7.38157 35.8137 7.49589 35.243 7.39058C34.9023 7.3541 34.558 7.40574 34.243 7.54057C33.5989 7.82763 32.8773 7.89098 32.193 7.72057C31.863 7.72057 31.573 7.59059 31.263 7.53059C31.1617 7.49804 31.0545 7.48832 30.949 7.50215C30.8435 7.51598 30.7425 7.55301 30.653 7.61058C30.653 7.61058 30.653 7.69058 30.653 7.73058C30.653 7.77058 30.843 7.91058 30.853 7.99058C30.863 8.07058 30.373 8.09058 29.923 7.99058C29.713 7.99058 29.533 7.87059 29.323 7.84059C29.0046 7.79591 28.68 7.83734 28.383 7.96059C28.0869 8.08251 27.8106 8.24763 27.563 8.45058C27.3118 8.60634 27.0309 8.70812 26.7382 8.74944C26.4456 8.79075 26.1475 8.77071 25.863 8.69057C25.663 8.64057 25.503 8.55057 25.303 8.51057C25.0033 8.42978 24.684 8.46927 24.413 8.62059C24.12 8.93325 23.7345 9.14355 23.313 9.22057C23.1699 9.25384 23.0406 9.33071 22.943 9.44057C22.8724 9.56847 22.8477 9.71669 22.873 9.86058C22.873 9.92058 23.093 9.99057 23.213 10.0706C24.0805 10.0526 24.9459 9.97582 25.803 9.84059C25.881 9.82068 25.9632 9.82534 26.0383 9.85399C26.1135 9.88263 26.1781 9.93386 26.223 10.0006C26.2329 10.1037 26.2329 10.2075 26.223 10.3106C26.7832 10.2675 27.346 10.346 27.873 10.5406ZM34.563 12.8306C34.943 13.0106 34.563 13.2006 34.283 13.5306C34.165 13.6938 34.077 13.8766 34.023 14.0706C33.943 14.2906 33.833 14.4306 33.653 14.4406C33.473 14.4506 33.523 14.4406 33.523 14.3406C33.5134 14.0065 33.5301 13.6721 33.573 13.3406C33.5963 13.1647 33.6331 12.9908 33.683 12.8206C33.7375 12.6782 33.7777 12.5308 33.803 12.3806C33.8258 12.3183 33.8597 12.2608 33.903 12.2106C33.966 12.1333 34.0401 12.0659 34.123 12.0106C34.0968 12.1765 34.1257 12.3465 34.2051 12.4946C34.2845 12.6426 34.4102 12.7606 34.563 12.8306ZM31.153 19.4906C31.0355 19.3454 30.9521 19.1756 30.9088 18.9939C30.8656 18.8122 30.8636 18.6231 30.903 18.4406C30.903 18.4406 30.953 18.4406 30.983 18.4406C31.013 18.4406 30.983 18.4406 31.033 18.4406C31.083 18.4406 31.203 18.9306 31.283 18.6506C31.283 18.5606 31.403 18.5806 31.463 18.5406L31.393 19.0706C31.393 19.1406 31.393 19.2206 31.343 19.4106C31.293 19.6006 31.343 19.5006 31.343 19.5706C31.343 19.6406 31.343 19.6706 31.343 19.6306L31.153 19.4906Z" fill="#F7F300"/>
<path d="M18.0509 6.96227C17.9892 6.94477 17.9237 6.94477 17.862 6.96227C17.7246 6.96227 17.57 6.9623 17.7417 7.25168C17.9135 7.54107 17.8276 7.69424 17.7417 7.64317C17.6559 7.5921 17.6215 7.507 17.57 7.28571C17.5184 7.06441 17.57 7.03035 17.4841 6.94523C17.4574 6.88005 17.4089 6.82596 17.3467 6.79204C17.3932 6.72427 17.4181 6.64423 17.4181 6.56227C17.4181 6.4803 17.3932 6.40021 17.3467 6.33244C17.3467 6.33244 17.4326 6.33244 17.4326 6.33244H17.5356L17.3295 6.11114C17.2377 6.01345 17.1339 5.92767 17.0204 5.85581C16.8658 5.71963 16.694 5.53236 16.694 5.5664C16.694 5.60045 16.694 5.5664 16.694 5.66853C16.7939 5.82255 16.8857 5.98164 16.9688 6.14517C17.1578 6.45157 17.2608 6.45162 17.3639 6.67292C17.483 6.83316 17.5598 7.02039 17.5872 7.2176C17.5872 7.4389 17.5872 7.69427 17.5872 7.62618C17.6459 7.50353 17.742 7.40227 17.862 7.33678C17.9413 7.28825 18.0284 7.2537 18.1196 7.23464C18.1196 7.23464 18.4288 7.04741 18.8925 6.87718H19.133L19.5109 6.75801L19.133 6.86014C19.3969 6.77748 19.6668 6.71491 19.9403 6.67292C20.2908 6.64526 20.6367 6.57666 20.9709 6.4686L21.5549 6.34948C21.5549 6.34948 21.5549 6.34948 21.3831 6.34948C21.2113 6.34948 21.2285 6.34945 21.3831 6.26434L21.7953 6.12818C22.0873 6.02604 22.0015 5.99197 21.9327 5.83877C21.864 5.68557 21.5548 5.70258 21.2628 5.66853C20.9708 5.63449 21.0911 5.66857 21.2628 5.54941C21.4346 5.43025 21.4861 5.39618 21.2628 5.31107L20.8162 5.10681C20.6617 5.10681 20.6273 4.98766 20.7304 4.90254C20.8334 4.81743 21.0052 4.37482 20.5243 4.03437C20.3353 3.91521 20.3525 3.81311 20.4212 3.69395C20.4899 3.57479 20.6789 3.69395 20.885 3.69395C21.0911 3.69395 21.177 3.5918 20.9881 3.52371L20.4728 3.31945C20.3697 3.31945 20.1808 3.2343 20.1465 3.18323C20.1121 3.13217 20.1464 3.09814 20.2495 3.04708C20.3526 2.99601 20.7992 2.7747 20.7992 2.5534C20.7992 2.33211 21.0396 2.34911 20.7992 2.16186C20.5587 1.97461 20.6961 1.80441 20.4728 1.60014C20.2495 1.39586 19.9403 1.17458 19.8888 0.91924C19.8737 0.895841 19.8535 0.876038 19.8297 0.861317C19.806 0.846595 19.7792 0.837294 19.7513 0.834095C19.4202 0.69721 19.0819 0.577897 18.738 0.476633L17.6043 0.323435C17.5361 0.308604 17.4718 0.279711 17.4156 0.238654C17.3594 0.197598 17.3125 0.14527 17.278 0.0850927C17.278 -0.0170435 17.175 -0.0170435 16.8658 0.0850927C16.747 0.110927 16.6239 0.110927 16.505 0.0850927C16.3485 0.0388226 16.1871 0.0102903 16.0241 0C15.8523 0 15.6978 0 15.5088 0H13.8771C13.774 0 13.5679 0.119134 13.5851 0.187225C13.6023 0.255315 13.5851 0.391536 13.2931 0.493673C13.0011 0.595809 12.6748 0.851157 12.9496 1.14054C13.2244 1.42993 12.9495 1.22565 12.8465 1.29374C12.668 1.40309 12.496 1.52242 12.3312 1.6512C12.2453 1.6512 12.3312 1.77034 12.3312 1.83843C12.3312 1.90652 12.3312 2.4172 12.1766 2.68956C12.0221 2.96193 11.9877 2.97898 12.0392 3.14921C12.1073 3.34791 12.1073 3.5633 12.0392 3.762C11.9361 4.01734 12.0392 4.2557 12.314 4.49402L12.5545 4.78337C12.6919 4.93658 12.5545 5.07274 12.4171 5.1919C12.2797 5.31106 12.1079 5.70262 12.211 5.97498C12.2841 6.09741 12.3705 6.21154 12.4686 6.3154C12.4686 6.40052 12.4686 6.48566 12.3656 6.55375C12.2625 6.62184 12.1079 6.84313 12.3656 6.97931C12.6232 7.1155 12.8293 7.18355 12.9324 7.42187C13.0295 7.69132 13.2098 7.92363 13.4477 8.08578C13.4477 8.08578 13.4477 8.23899 13.4477 8.40921C13.4477 8.57944 13.4477 8.66454 13.7225 8.71561C14.3924 8.88584 14.3924 8.8518 14.4095 9.31141C14.452 9.48853 14.5323 9.65457 14.6448 9.79844C14.7574 9.9423 14.8997 10.0606 15.0622 10.1455C15.4763 10.3866 15.9136 10.5862 16.3677 10.7413C16.9191 10.9321 17.5017 11.0187 18.0853 10.9966C18.3429 10.9966 18.6177 10.9966 18.8925 10.9966C18.9936 10.9936 19.0912 10.9592 19.1714 10.898C19.2516 10.8369 19.3103 10.7523 19.3391 10.6562C19.3391 10.6562 19.3391 10.5541 19.2361 10.52C19.1316 10.4559 19.0339 10.3818 18.9441 10.2987C18.9441 10.1966 19.2876 9.9923 19.3907 9.92421C19.4937 9.85612 19.5625 9.92423 19.6312 9.83911C19.7024 9.65265 19.7024 9.44681 19.6312 9.26035C19.6202 9.04991 19.5737 8.84275 19.4937 8.6475C19.3907 8.35812 19.4937 8.13683 19.6483 8.06874H19.8373C19.8654 8.02878 19.8804 7.98127 19.8804 7.93258C19.8804 7.88389 19.8654 7.83633 19.8373 7.79637C19.7245 7.64407 19.6697 7.45714 19.6827 7.26867C19.6977 7.23972 19.7056 7.20763 19.7056 7.17506C19.7056 7.14248 19.6977 7.1104 19.6827 7.08145C19.5995 6.98778 19.5076 6.90228 19.4079 6.82612H19.2361C19.2361 7.04741 18.8925 7.16654 18.9097 7.43891C18.9269 7.71127 18.8067 7.43891 18.7208 7.43891L18.5319 7.25168C18.4813 7.27368 18.4261 7.28329 18.3711 7.27968C18.316 7.27608 18.2626 7.25935 18.2154 7.23096C18.1682 7.20256 18.1286 7.16333 18.1 7.11656C18.0714 7.06979 18.0545 7.01686 18.0509 6.96227ZM18.8238 5.9409C18.257 5.9409 18.4803 5.83879 18.5662 5.75368C18.652 5.66856 18.5662 5.65151 18.4288 5.61747C18.2914 5.58342 18.4287 5.51535 18.5662 5.48131H18.8067C19.234 5.56743 19.6494 5.7046 20.0434 5.88984H19.9232C19.5559 5.86967 19.1876 5.88678 18.8238 5.9409ZM18.4631 3.57478C18.5846 3.50104 18.7244 3.46199 18.8668 3.46199C19.0093 3.46199 19.149 3.50104 19.2704 3.57478C19.3907 3.57478 19.3735 3.69391 19.2704 3.71093C19.1674 3.72796 18.7379 3.71093 18.6864 3.86413C18.6349 4.01734 18.549 3.94926 18.4631 3.9833L18.3086 3.83011C18.3086 3.83011 18.3086 3.83013 18.3086 3.69395C18.3573 3.65072 18.4089 3.61089 18.4631 3.57478Z" fill="#F7F300"/>
</svg>
