<svg width="186" height="230" viewBox="0 0 186 230" fill="none" xmlns="http://www.w3.org/2000/svg">
<path d="M115.174 229.876C100.542 231.737 100.997 212.132 102.331 203.757C102.463 198.653 107.622 195.755 112.073 196.325L174.224 195.442C179.098 194.772 184.104 197.774 183.659 203.054C184.124 210.718 183.917 218.407 183.039 226.034C182.979 227.456 181.733 227.511 180.163 227.577C159.093 228.394 135.207 228.268 115.174 229.876ZM105.421 204.262C104.494 209.92 104.373 220.019 107.831 224.657C109.982 227.527 117.265 226.781 122.584 226.232C136.941 225.2 169.976 225.036 180.064 224.459C180.806 217.412 180.964 210.315 180.536 203.241C180.739 199.245 177.973 198.329 174.268 198.57L112.095 199.426C108.297 199.223 105.657 200.42 105.399 204.234L105.421 204.262ZM179.91 225.727C179.905 225.795 179.905 225.863 179.91 225.93C179.909 225.853 179.914 225.776 179.927 225.7L179.91 225.727Z" fill="#020202"/>
<path d="M114.457 63.5272C99.8244 65.3878 100.28 45.7831 101.614 37.4077C101.745 32.3034 106.904 29.4055 111.356 29.9763L173.507 29.0927C178.381 28.4231 183.386 31.4253 182.942 36.7052C183.407 44.3686 183.199 52.0581 182.321 59.6853C182.261 61.1068 181.015 61.1617 179.445 61.2276C158.375 62.0453 134.489 61.9191 114.457 63.5272ZM104.704 37.9126C103.776 43.5712 103.655 53.67 107.113 58.3077C109.265 61.1782 116.548 60.4317 121.866 59.8829C136.224 58.8511 169.259 58.6864 179.347 58.1101C180.088 51.0624 180.246 43.9655 179.819 36.8918C180.022 32.8962 177.255 31.9796 173.551 32.2211L111.378 33.0773C107.58 32.8742 104.94 34.0707 104.682 37.8852L104.704 37.9126ZM179.193 59.378C179.187 59.4455 179.187 59.5135 179.193 59.581C179.191 59.5038 179.197 59.4267 179.209 59.3505L179.193 59.378Z" fill="#020202"/>
<path d="M18.6104 176.435C7.19987 176.259 -1.27979 177.972 0.196603 163.23C0.679587 157.977 -0.472991 147.769 1.42053 142.719C3.89582 136.506 12.7761 134.421 19.044 134.563C25.663 134.865 33.1657 133.707 39.1921 136.825C44.1591 141.44 51.0032 171.331 42.2272 173.18C34.5417 175.344 26.5947 176.44 18.6104 176.435ZM22.0407 137.67C14.1318 137.198 2.22733 139.163 3.55005 149.377C4.05499 154.563 1.73337 168.328 4.81788 172.165C16.2668 174.816 29.977 173.136 41.3765 170.189C46.0307 168.186 41.0197 145.601 38.5664 141.402C36.5851 136.215 26.7058 138.367 22.0407 137.67Z" fill="#020202"/>
<path d="M68.0314 63.8782C58.8007 63.7361 51.9409 65.1214 53.1352 53.1956C53.526 48.9465 52.5936 40.6881 54.1254 36.6033C56.1278 31.5773 63.3117 29.8901 68.3822 30.0055C73.7368 30.2497 79.8063 29.3129 84.6814 31.8348C88.6996 35.5688 94.2363 59.749 87.1367 61.2453C80.9194 62.9961 74.4905 63.882 68.0314 63.8782ZM70.8064 32.5185C64.4084 32.1367 54.778 33.7262 55.8481 41.989C56.2566 46.1848 54.3784 57.3204 56.8737 60.4239C66.1356 62.5684 77.2267 61.2098 86.4485 58.8255C90.2136 57.2049 86.1599 38.9343 84.1753 35.5377C82.5724 31.3419 74.5804 33.0824 70.8064 32.5185Z" fill="#020202"/>
<path d="M175.558 132.791C173.95 146.764 175.377 160.826 174.46 174.766C179.016 175.414 183.308 173.477 183.335 168.394C184.828 157.923 184.889 147.296 183.516 136.808C183.451 132.418 180.311 129.503 175.893 129.355C175.761 130.562 175.619 131.748 175.558 132.791Z" fill="#020202"/>
<path d="M161.162 174.706L169.126 174.745C170.07 159.415 168.615 144.333 170.503 128.954C167.759 128.812 165.015 128.768 162.271 128.795C161.146 144.053 161.305 159.415 161.162 174.706Z" fill="#020202"/>
<path d="M146.524 145.447C146.843 155.184 147.518 164.904 147.518 174.646L155.811 174.684C155.954 159.448 155.811 144.136 156.909 128.933C153.281 129.081 149.653 129.328 146.025 129.63C146.272 134.926 146.354 140.173 146.524 145.447Z" fill="#020202"/>
<path d="M132.441 174.575L142.172 174.619C141.941 159.8 141.157 144.931 140.701 130.096C138.396 130.31 136.091 130.541 133.786 130.766C134.351 145.321 133.253 160.052 132.441 174.575Z" fill="#020202"/>
<path d="M120.383 147.961C120.476 156.819 120.498 165.672 120.932 174.52L127.084 174.547C127.891 160.2 128.956 145.656 128.434 131.271C125.745 131.534 123.052 131.768 120.355 131.973C121.173 137.165 120.328 143.312 120.383 147.961Z" fill="#020202"/>
<path d="M106.673 143.472C106.327 153.801 105.745 164.125 105.246 174.443L115.591 174.492C114.955 160.398 114.999 146.501 114.977 132.357C112.419 132.528 109.856 132.67 107.293 132.802C107.046 136.369 106.793 139.866 106.673 143.472Z" fill="#020202"/>
<path d="M91.6013 147.001C91.3323 156.331 91.0524 165.7 90.9756 175.058C94.104 174.926 97.1336 174.728 99.8833 174.591C100.745 160.749 100.943 146.869 101.92 133.043C98.6265 133.17 95.2895 133.252 91.969 133.312C91.7879 137.873 91.733 142.44 91.6013 147.001Z" fill="#020202"/>
<path d="M60.5476 164.47C62.1941 168.614 65.3939 171.199 69.4115 172.802C70.5805 159.629 70.7945 146.457 71.6068 133.285C54.7189 130.848 57.0679 154.388 60.5476 164.47Z" fill="#020202"/>
<path d="M74.631 174.284C78.2544 174.921 81.9291 175.22 85.6079 175.178C85.7671 161.243 86.2116 147.313 86.6013 133.389C83.3796 133.389 80.1524 133.389 76.9306 133.34C76.1183 147.001 75.9208 160.672 74.631 174.284Z" fill="#020202"/>
<path d="M56.8375 114.158C44.4061 114.158 32.6883 113.773 20.9704 113.06C14.752 112.736 7.70482 112.363 3.65434 106.523C-1.68043 96.7867 -3.06352 73.8944 12.7981 75.5848C49.7848 74.0645 87.3094 73.2138 124.329 73.0601C129.269 72.2753 133.786 76.0568 134.334 80.7934C145.141 112.314 113.215 111.529 91.7825 113.258C79.6146 113.856 68.0175 114.158 56.8375 114.158ZM124.609 76.1995C87.5344 76.3477 49.9659 77.1984 12.9298 78.7187C9.63676 78.8559 6.40955 79.2676 5.06488 81.3806C2.23283 85.8208 2.93536 100.041 6.22294 104.75C14.258 115.179 72.9461 109.937 91.6288 110.146C103.967 109.119 118.61 109.355 129.543 102.341C134.861 97.5771 133.286 88.7736 131.321 81.6331C130.487 77.6924 128.67 75.8592 124.609 76.1995Z" fill="#020202"/>
<path d="M146.876 105.93C154.806 112.017 173.22 107.423 182.419 106.254C185.443 99.9699 187.737 81.0073 183.11 75.4804C173.615 72.0172 162.633 72.599 152.589 71.1281C149.373 70.8536 145.608 70.8097 143.55 73.2301C139.675 81.6878 139.625 98.7569 146.876 105.93ZM162.243 83.9765C171.42 80.892 177.611 94.0039 166.683 96.2213C158.829 97.3848 153.539 87.1763 162.232 83.9491L162.243 83.9765Z" fill="#020202"/>
<path d="M160.413 20.2395C164.979 23.7441 175.582 21.099 180.878 20.4259C182.619 16.8075 183.94 5.88903 181.276 2.70672C175.809 0.712635 169.486 1.04762 163.702 0.200684C161.85 0.0426746 159.683 0.0173912 158.498 1.41104C156.266 6.28089 156.238 16.1091 160.413 20.2395ZM169.261 7.59869C174.545 5.82266 178.11 13.3724 171.818 14.6491C167.295 15.319 164.249 9.44108 169.255 7.58289L169.261 7.59869Z" fill="#020202"/>
<path d="M71.4126 228.112C75.9791 231.617 86.5815 228.972 91.878 228.299C93.6193 224.681 94.9402 213.762 92.2762 210.58C86.8091 208.586 80.4855 208.921 74.7024 208.074C72.8505 207.916 70.6826 207.89 69.4975 209.284C67.2664 214.154 67.238 223.982 71.4126 228.112ZM80.2611 215.472C85.545 213.696 89.1097 221.245 82.8177 222.522C78.2955 223.192 75.2491 217.314 80.2548 215.456L80.2611 215.472Z" fill="#020202"/>
</svg>
