<svg width="186" height="159" viewBox="0 0 186 159" fill="none" xmlns="http://www.w3.org/2000/svg">
<path d="M70.5636 158.876C85.1958 160.737 84.7402 141.132 83.4065 132.757C83.2748 127.653 78.1157 124.755 73.6645 125.325L11.5133 124.442C6.63951 123.772 1.63403 126.774 2.0786 132.054C1.61329 139.718 1.82082 147.407 2.6988 155.034C2.75917 156.456 4.00506 156.511 5.57476 156.577C26.6449 157.394 50.5307 157.268 70.5636 158.876ZM80.3165 133.262C81.2441 138.92 81.3648 149.019 77.9071 153.657C75.7556 156.527 68.4725 155.781 63.1541 155.232C48.7963 154.2 15.7613 154.036 5.67355 153.459C4.932 146.412 4.77412 139.315 5.20153 132.241C4.99846 128.245 7.76465 127.329 11.4694 127.57L73.6426 128.426C77.4406 128.223 80.0805 129.42 80.3385 133.234L80.3165 133.262ZM5.82722 154.727C5.83287 154.795 5.83287 154.863 5.82722 154.93C5.82876 154.853 5.82325 154.776 5.81076 154.7L5.82722 154.727Z" fill="#57665B"/>
<path d="M167.127 105.435C178.538 105.259 187.018 106.972 185.541 92.2296C185.058 86.9772 186.211 76.7687 184.317 71.7193C181.842 65.5063 172.962 63.4207 166.694 63.5634C160.075 63.8653 152.572 62.7072 146.546 65.8247C141.579 70.4405 134.735 100.331 143.511 102.18C151.196 104.344 159.143 105.44 167.127 105.435ZM163.697 66.6699C171.606 66.1979 183.51 68.1628 182.188 78.3768C181.683 83.5634 184.004 97.3284 180.92 101.165C169.471 103.816 155.761 102.136 144.361 99.189C139.707 97.1857 144.718 74.6007 147.171 70.4021C149.153 65.2155 159.032 67.3669 163.697 66.6699Z" fill="#57665B"/>
<path d="M10.1795 61.7908C11.7876 75.7644 10.3606 89.8258 11.2772 103.766C6.7218 104.414 2.42984 102.477 2.4024 97.3944C0.909773 86.9226 0.848832 76.2965 2.22127 65.8083C2.28713 61.4175 5.42654 58.5032 9.84474 58.355C9.97647 59.5624 10.1192 60.7479 10.1795 61.7908Z" fill="#57665B"/>
<path d="M24.5757 103.706L16.612 103.745C15.668 88.4154 17.1224 73.3331 15.2344 57.9545C17.9786 57.8118 20.7228 57.7679 23.4671 57.7953C24.5922 73.0532 24.433 88.4154 24.5757 103.706Z" fill="#57665B"/>
<path d="M39.2134 74.4474C38.8951 84.1839 38.22 93.9039 38.22 103.646L29.927 103.684C29.7843 88.4484 29.927 73.1356 28.8293 57.9326C32.4572 58.0808 36.085 58.3278 39.7129 58.6297C39.4659 63.926 39.3836 69.173 39.2134 74.4474Z" fill="#57665B"/>
<path d="M53.2969 103.575L43.5659 103.619C43.7964 88.7997 44.5812 73.9315 45.0368 59.0962C47.3419 59.3102 49.6471 59.5408 51.9522 59.7658C51.3869 74.3212 52.4846 89.0522 53.2969 103.575Z" fill="#57665B"/>
<path d="M65.355 76.9609C65.2617 85.8193 65.2397 94.6722 64.8061 103.52L58.6536 103.547C57.8468 89.2002 56.782 74.6557 57.3034 60.2705C59.9928 60.534 62.6858 60.7681 65.3824 60.973C64.5647 66.1651 65.4099 72.3122 65.355 76.9609Z" fill="#57665B"/>
<path d="M79.0651 72.4715C79.4109 82.8008 79.9927 93.1246 80.4921 103.443L70.1464 103.492C70.783 89.3979 70.7391 75.5012 70.7611 61.3574C73.3187 61.5276 75.8818 61.6703 78.4449 61.802C78.6919 65.3695 78.9444 68.8656 79.0651 72.4715Z" fill="#57665B"/>
<path d="M94.1365 76.0006C94.4054 85.331 94.6853 94.6998 94.7621 104.058C91.6337 103.926 88.6041 103.728 85.8544 103.591C84.9927 89.7492 84.7951 75.8689 83.8182 62.0435C87.1112 62.1697 90.4482 62.252 93.7687 62.3124C93.9499 66.8733 94.0047 71.4397 94.1365 76.0006Z" fill="#57665B"/>
<path d="M125.19 93.47C123.544 97.6138 120.344 100.199 116.326 101.802C115.157 88.6292 114.943 75.4569 114.131 62.2846C131.019 59.8478 128.67 83.3878 125.19 93.47Z" fill="#57665B"/>
<path d="M111.107 103.284C107.483 103.921 103.809 104.22 100.13 104.178C99.9707 90.2431 99.5261 76.3134 99.1364 62.3892C102.358 62.3892 105.585 62.3892 108.807 62.3398C109.619 76.0006 109.817 89.6723 111.107 103.284Z" fill="#57665B"/>
<path d="M128.9 43.1577C141.332 43.1577 153.05 42.7735 164.767 42.06C170.986 41.7362 178.033 41.363 182.083 35.5232C187.418 25.7867 188.801 2.89438 172.94 4.58482C135.953 3.06452 98.4284 2.21381 61.4088 2.06013C56.4692 1.27528 51.9522 5.05683 51.4033 9.79337C40.5966 41.3136 72.5229 40.5287 93.9553 42.2576C106.123 42.8558 117.72 43.1577 128.9 43.1577ZM61.1289 5.19953C98.2034 5.34772 135.772 6.19843 172.808 7.71873C176.101 7.85594 179.328 8.26758 180.673 10.3806C183.505 14.8208 182.802 29.0414 179.515 33.7505C171.48 44.1785 112.792 38.9371 94.109 39.1456C81.7709 38.1193 67.1277 38.3553 56.1947 31.341C50.8764 26.5771 52.4516 17.7736 54.4165 10.6331C55.2507 6.69239 57.0674 4.85925 61.1289 5.19953Z" fill="#57665B"/>
<path d="M38.8622 34.9303C30.9314 41.017 12.5177 36.4232 3.319 35.2542C0.29486 28.9699 -1.99932 10.0073 2.62745 4.4804C12.1225 1.01718 23.1049 1.59896 33.1488 0.128052C36.365 -0.146371 40.1301 -0.190281 42.1882 2.23013C46.0631 10.6878 46.1125 27.7569 38.8622 34.9303ZM23.4946 12.9765C14.3179 9.89201 8.12689 23.0039 19.0544 25.2213C26.9084 26.3848 32.1992 16.1763 23.5055 12.9491L23.4946 12.9765Z" fill="#57665B"/>
</svg>
