<svg width="593" height="829" viewBox="0 0 593 829" fill="none" xmlns="http://www.w3.org/2000/svg">
<g clip-path="url(#clip0_305_7119)">
<path d="M220.846 619.998C220.846 619.998 293.387 744.291 424.057 738.538C424.057 738.538 383.132 734.32 335.192 705.215C285.971 675.355 220.846 619.998 220.846 619.998Z" fill="black" fill-opacity="0.7"/>
<path d="M188.473 585.107C186.62 583.879 216.558 628.679 286.668 627.937C356.778 627.196 392.976 651.186 392.976 651.186C392.976 651.186 333.425 599.728 285.058 602.463C236.691 605.198 219.612 605.31 188.473 585.107Z" fill="black" fill-opacity="0.7"/>
<path d="M156.078 543.398C154.127 542.357 186.723 584.381 256.093 576.938C325.462 569.495 362.821 589.967 362.821 589.967C362.821 589.967 300.639 544.077 252.849 551.456C205.06 558.834 188.16 560.677 156.078 543.398Z" fill="black" fill-opacity="0.7"/>
<path d="M111.194 490.38C109.275 489.266 140.956 532.325 210.515 527.373C280.075 522.422 317.227 544.249 317.227 544.249C317.227 544.249 255.968 496.27 207.929 501.959C159.89 507.649 142.946 508.768 111.194 490.38Z" fill="black" fill-opacity="0.7"/>
<path d="M70.1574 429.181C68.4892 428.015 93.8078 471.431 160.073 471.29C226.339 471.149 259.055 494.556 259.055 494.556C259.055 494.556 206.296 444.419 160.332 446.716C114.369 449.012 98.223 448.958 70.1574 429.181Z" fill="black" fill-opacity="0.7"/>
<path d="M39.6053 370.345C37.8854 368.928 58.9599 419.39 133.263 423.685C207.565 427.981 240.485 456.454 240.485 456.454C240.485 456.454 189.849 396.646 137.869 396.085C85.8885 395.525 67.6838 394.437 39.6053 370.345Z" fill="black" fill-opacity="0.7"/>
<path d="M-9.27058 251.554C-10.8888 250.021 8.49132 301.241 82.8635 309.595C157.236 317.949 189.084 347.867 189.084 347.867C189.084 347.867 140.29 285.587 88.2531 282.346C36.2159 279.105 18.0932 276.996 -9.27058 251.554Z" fill="black" fill-opacity="0.7"/>
<path d="M193.686 593.745C193.686 593.745 212.002 691.716 325.737 806.39C325.73 806.282 235.051 650.861 193.686 593.745Z" fill="black" fill-opacity="0.7"/>
<path d="M119.475 509.929C119.475 509.929 150.728 564.84 166.104 622.293C182.424 683.278 244.077 794.569 244.077 794.569C244.077 794.569 211.518 708.541 202.903 671.855C194.288 635.17 174.979 584.526 119.475 509.929Z" fill="black" fill-opacity="0.7"/>
<path d="M-0.155161 276.963C-0.155161 276.963 31.6777 374.136 117.198 382.672C203.81 391.285 240.677 414.943 240.677 414.943C240.677 414.943 192.507 365.104 127.22 351.726C61.9323 338.349 37.4588 329.741 -0.155161 276.963Z" fill="black" fill-opacity="0.7"/>
<path d="M-27.1645 209.71C-32.6458 249.564 -41.9308 288.802 -54.8923 326.887C-76.9358 392.819 -64.1567 501.579 -50.2971 538.014C-50.2971 538.014 -55.3103 404.65 -37.5132 349.247C-19.7162 293.843 -24.403 226.806 -27.1645 209.71Z" fill="black" fill-opacity="0.7"/>
<path d="M-15.0302 258.729C-15.7589 300.888 -19.2914 342.951 -25.6042 384.64C-36.4433 459.892 -28.4911 527.525 -19.6609 582.951C-19.6609 582.951 -20.2697 475.071 -4.64497 406.235C10.9798 337.399 -15.0302 258.729 -15.0302 258.729Z" fill="black" fill-opacity="0.7"/>
<path d="M17.8758 339.222C17.8758 339.222 19.3717 409.212 16.5071 468.518C13.6426 527.823 26.0494 626.45 38.2142 664.222C38.2142 664.222 38.0249 579.568 43.8184 527.155C50.4067 463.336 41.5076 398.869 17.8758 339.222Z" fill="black" fill-opacity="0.7"/>
<path d="M54.1434 411.888L62.3035 543.933C66.4729 611.4 89.8017 680.731 108.534 722.632C108.534 722.632 89.4649 629.495 87.7985 570.833C84.9524 471.361 54.1434 411.888 54.1434 411.888Z" fill="black" fill-opacity="0.7"/>
<path d="M84.0482 459.664C96.003 506.047 105.339 553.065 112.013 600.497C124.225 684.227 197.264 774.318 197.264 774.318C197.264 774.318 142.334 667.908 132.098 600.308C121.863 532.707 84.0482 459.664 84.0482 459.664Z" fill="black" fill-opacity="0.7"/>
<path d="M-19.4174 202.412C-0.626338 282.252 59.2659 450.168 248.894 649.461C248.894 649.461 -3.05843 440.126 -35.2799 168.785C-40.1481 138.144 -49.7812 77.9422 -56.0963 39.7359C-64.8536 -13.3373 -76.1897 -54.1354 -76.1897 -54.1354L-65.095 -58.9201C-65.095 -58.9201 -48.7323 -17.1993 -23.8659 169.168C-23.8659 169.168 -22.6515 182.95 -19.4174 202.412Z" fill="black" fill-opacity="0.7"/>
<g opacity="0.4">
<path d="M146.428 307.724C146.554 308.104 146.748 308.459 147.001 308.771L146.428 307.724Z" fill="black"/>
<path d="M276.298 30.139C291.293 29.8129 311.994 27.4395 379.714 34.21C447.434 40.9806 519.007 95.9622 519.007 95.9622C519.007 95.9622 394.596 -23.1802 256.141 22.1037C249.21 17.0507 242.006 12.093 234.528 7.23071C241.853 7.97157 249.243 7.77051 256.517 6.63244C288.127 1.47369 320.277 0.488586 352.143 3.70241C393.268 7.63557 461.721 45.0804 461.721 45.0804C461.721 45.0804 325.379 -52.0959 221.099 -1.16031C208.852 -8.5175 195.905 -15.545 182.258 -22.2428C186.746 -21.6437 191.289 -21.5628 195.796 -22.0018C212.35 -23.5271 251.767 -30.8755 321.821 -32.601C348.492 -23.7001 367.898 -16.2249 367.898 -16.2249C367.898 -16.2249 354.339 -23.3904 332.346 -32.7033C403.128 -31.9018 469.618 8.37934 469.618 8.37934C469.618 8.37934 411.145 -47.5576 295.644 -47.0566C281.194 -52.1695 265.242 -57.2697 248.462 -61.6453C256.351 -63.2366 264.356 -64.1819 272.399 -64.4718C287.625 -58.7127 297.915 -54.2248 297.915 -54.2248C297.915 -54.2248 291.204 -58.6396 279.524 -64.5395C321.485 -64.4455 360.189 -50.5055 360.189 -50.5055C328.811 -65.0958 294.72 -72.9395 260.12 -73.5295C252.643 -76.7352 244.22 -80.0006 234.998 -83.1346C263.487 -85.8269 295.359 -81.433 311.839 -77.8931C300.8 -81.7841 289.407 -84.5849 277.822 -86.2556C262.807 -88.5806 247.607 -89.5017 232.421 -89.007L232.332 -89.5209L228.307 -88.8369C225.141 -88.6636 221.886 -88.4096 218.587 -88.1153C169.828 -101.407 105.372 -105.684 45.1083 -67.921C5.34619 -75.7151 -35.0015 -80.1482 -75.5073 -81.1734L-70.2703 -67.0177C-32.2342 -64.7906 5.62885 -60.2259 43.1044 -53.3492C24.8219 -41.5007 -10.556 -10.9927 -10.3963 48.0559C-10.1744 127.581 58.1281 221.681 58.1281 221.681C58.1281 221.681 48.7315 207.169 27.1548 138.311C6.59766 72.6884 -9.17156 -19.1663 53.5392 -51.2896C61.1517 -49.7197 68.5866 -47.9885 75.9043 -46.178C65.2399 -35.8176 39.5098 -3.37282 41.6477 67.8199C44.2969 157.514 84.0991 223.355 84.0991 223.355C84.0991 223.355 29.4316 20.9903 84.7986 -43.881C91.7935 -42.1285 98.5219 -40.134 105.272 -37.9969C100.022 -33.0675 76.6872 -6.25584 87.248 73.4976C88.5868 83.2179 90.4819 92.8535 92.9242 102.357C92.4055 106.367 91.9286 110.393 91.5216 114.437C84.47 189.761 140.244 296.185 146.428 307.724C144.745 303.849 138.351 285.206 120.326 199.047C118.139 188.626 116.552 178.088 115.572 167.486C130.99 202.628 149.255 236.45 170.185 268.615C170.185 268.615 135.94 184.677 117.508 99.6181C125.14 46.9476 143.716 7.22091 140.623 -24.7138L136.211 -27.1632C148.19 -22.4807 159.876 -17.3073 171.27 -11.643C167.475 -0.442215 160.013 35.4586 175.685 122.566C182.624 159.466 192.89 195.663 206.358 230.712C201.5 296.344 223.894 355.273 223.894 355.273C220.091 325.195 218.814 294.851 220.077 264.56C230.411 288.844 242.03 312.562 254.885 335.612C254.885 335.612 240.052 291.672 223.426 234.096C224.177 229.658 225.039 225.282 226.076 221.099C238.604 170.25 254.331 109.417 227.302 21.7635C239.699 30.4163 251.913 39.9382 264.138 50.0977C263.657 69.7974 263.166 112.957 265.588 172.058C268.955 254.481 296.689 374.563 296.689 374.563C296.689 374.563 305.659 170.249 270.421 55.4688C278.367 62.3548 286.324 69.6093 294.292 77.2325C298.385 100.154 307.235 145.448 313.43 196.476C322.117 267.205 305.317 397.986 305.317 397.986C305.317 397.986 341.477 224.444 315.148 98.1148C320.961 104.129 326.809 110.3 332.686 116.742C334.676 118.933 336.72 121.184 338.629 123.286C341.128 144.899 346.246 192.42 341.456 236.648C335.447 292.058 314.45 364.728 314.45 364.728C314.45 364.728 365.915 248.854 357.035 145.636C364.614 155.468 371.547 165.274 377.834 175.053C354.434 235.29 357.536 321.735 338.838 369.3C318.817 420.199 291.839 447.104 291.839 447.104C291.839 447.104 343.049 403.299 366.695 322.658C382.699 268.139 384.611 214.287 384.162 185.085C391.142 196.549 397.308 207.89 402.763 218.983C369.393 263.959 383.535 342.54 374.356 372.355C364.643 403.843 355.785 414.913 355.785 414.913C355.785 414.913 378.537 399.33 397.087 307.781C404.721 270.077 408.062 247.131 409.372 233.163C414.828 245.418 419.436 257.334 423.292 268.719C398.497 294.965 405.687 362.38 390.279 402.769C377.269 436.845 364.75 452.808 360.377 457.751C366.851 450.63 391.386 421.242 413.924 361.87C426.018 330.029 429.718 307.002 430.254 291.439C434.825 307.96 438.292 324.767 440.632 341.748C438.088 344.896 431.466 356.584 423.89 397.208C414.111 449.478 370.537 496.128 370.537 496.128C370.537 496.128 468.647 399.221 442.103 341.196C440.753 325.265 438.562 309.417 435.539 293.718C437.892 296.012 443.673 303.567 450.388 326.431C459.145 356.302 461.715 421.158 461.715 421.158C461.715 421.158 478.128 319.611 432.858 277.646C432.858 277.646 427.549 258.801 420.881 239.38C421.849 240.743 422.875 242.081 424.015 243.396C434.59 255.784 436.913 256.646 459.223 293.201C481.533 329.756 485.471 376.485 485.529 378.215C485.588 379.945 481.995 244.558 412.558 217.274C412.036 216.046 411.528 214.832 411.018 213.675C389.3 165.007 359.643 120.288 323.261 81.3451C330.094 84.3872 337.34 86.4011 344.763 87.3213C364.359 89.9493 384.074 96.0094 432.3 113.027C477.059 128.816 534.478 185.467 543.265 195.588C531.555 179.719 433.65 44.9612 318.153 75.9881C311.019 68.5797 303.403 61.2047 295.374 53.8805C300.796 55.8227 306.449 57.0467 312.189 57.5215C322.211 57.8482 350.761 59.4771 412.9 72.4778C475.039 85.4785 530.971 140.373 530.971 140.373C530.971 140.373 440.555 14.4563 291.588 50.4561C283.558 43.3396 275.011 36.2879 265.946 29.3009C269.363 29.9051 272.829 30.1857 276.298 30.139ZM276.996 -46.4391C241.416 -44.1954 206.239 -37.6495 172.233 -26.9445C168.271 -28.7492 164.169 -30.5891 160.035 -32.3737C183.593 -41.8772 207.62 -50.1721 232.024 -57.2261C246.256 -54.6438 261.772 -50.7681 276.996 -46.4391ZM221.023 -81.0604C229.888 -78.7365 238.736 -76.0736 247.038 -73.2388C236 -72.7488 225.02 -71.3691 214.204 -69.1132C206.721 -70.422 199.104 -71.6098 191.406 -72.589C200.633 -75.9621 210.084 -78.6865 219.691 -80.7423C220.196 -80.9304 220.623 -80.9947 221.038 -81.0739L221.023 -81.0604ZM77.3296 -60.4945C73.8994 -61.2967 70.5297 -62.181 67.0995 -62.9832C81.6716 -64.2216 123.259 -82.2402 165.803 -87.7816C175.503 -88.9996 187.787 -87.9978 200.782 -85.5884C187.599 -83.2544 174.672 -79.6568 162.178 -74.8452C132.362 -75.7564 103.136 -71.8818 77.3296 -60.4945ZM107.396 36.126C104.894 8.67971 105.748 -16.4106 111.95 -35.849C119.143 -33.4923 126.202 -31.0146 133.153 -28.3581C122.692 -7.66069 114.073 13.9173 107.396 36.126ZM115.248 -49.3532C107.554 -51.8756 99.6937 -54.2833 91.6677 -56.5763C94.5535 -56.8196 97.5848 -57.141 100.718 -57.5282C109.08 -58.5841 119.172 -59.9956 133.137 -60.98C126.961 -57.436 120.972 -53.575 115.194 -49.4125L115.248 -49.3532ZM144.196 -38.9269C137.183 -41.6902 129.996 -44.3393 122.633 -46.874L125.302 -46.7314C132.207 -46.3566 146.794 -53.7957 165.6 -62.0936C172.554 -62.1412 180.152 -62.0445 188.48 -61.7995C172.78 -56.1364 157.877 -48.4685 144.142 -38.9861L144.196 -38.9269ZM221.187 46.4448C225.997 79.1701 229.23 118.785 212.227 194.069C192.078 119.376 173.543 34.6798 179.299 -7.5329C193.223 -0.221085 206.74 7.84053 219.791 16.6164C219.02 22.3418 218.969 31.6274 221.133 46.3856L221.187 46.4448Z" fill="black"/>
<path d="M360.298 457.634C359.237 458.786 358.642 459.381 358.642 459.381C358.642 459.381 359.236 458.815 360.298 457.634Z" fill="black"/>
<path d="M544.364 197.156C544.018 196.622 543.625 196.12 543.191 195.655C544.015 196.771 544.354 197.382 544.364 197.156Z" fill="black"/>
<path d="M364.628 114.966C382.828 122.185 409.595 132.025 463.109 163.314C515.768 194.137 567.936 275.171 570.173 279.271C567.042 273.146 487.107 111.559 341.969 98.8818C341.969 98.8818 346.415 107.704 364.628 114.966Z" fill="black"/>
<path d="M389.641 159.792C400.474 168.568 426.458 171.149 475.649 211.065C524.841 250.981 554.477 316.815 554.477 316.815C554.477 316.815 493.272 161.453 372.975 137.455C376.883 145.998 382.564 153.613 389.641 159.792Z" fill="black"/>
<path d="M409.374 201.632C415.721 208.918 440.082 217.268 475.881 265.077C511.681 312.886 523.883 372.373 523.883 372.373C523.883 372.373 521.559 232.97 398.552 183.795C401.353 190.194 404.992 196.192 409.374 201.632Z" fill="url(#paint0_linear_305_7119)"/>
</g>
<g opacity="0.4">
<path d="M61.428 549.723C61.5544 550.104 61.7484 550.459 62.0006 550.77L61.428 549.723Z" fill="black"/>
<path d="M191.298 272.138C206.293 271.812 226.994 269.439 294.714 276.21C362.434 282.98 434.007 337.962 434.007 337.962C434.007 337.962 309.596 218.819 171.141 264.103C164.21 259.05 157.006 254.093 149.528 249.23C156.853 249.971 164.243 249.77 171.517 248.632C203.127 243.473 235.277 242.488 267.143 245.702C308.268 249.635 376.721 287.08 376.721 287.08C376.721 287.08 240.379 189.904 136.099 240.839C123.852 233.482 110.905 226.455 97.2579 219.757C101.746 220.356 106.289 220.437 110.796 219.998C127.35 218.472 166.767 211.124 236.821 209.399C263.492 218.299 282.898 225.775 282.898 225.775C282.898 225.775 269.339 218.609 247.346 209.296C318.128 210.098 384.618 250.379 384.618 250.379C384.618 250.379 326.145 194.442 210.644 194.943C196.194 189.83 180.242 184.73 163.462 180.354C171.351 178.763 179.356 177.818 187.399 177.528C202.625 183.287 212.915 187.775 212.915 187.775C212.915 187.775 206.204 183.36 194.524 177.46C236.485 177.554 275.189 191.494 275.189 191.494C243.811 176.904 209.72 169.06 175.12 168.47C167.643 165.264 159.22 161.999 149.998 158.865C178.487 156.173 210.359 160.567 226.839 164.106C215.8 160.215 204.407 157.415 192.822 155.744C177.807 153.419 162.607 152.498 147.421 152.993L147.332 152.479L143.307 153.163C140.141 153.336 136.886 153.59 133.587 153.884C84.8281 140.593 20.3721 136.316 -39.8917 174.079C-79.6538 166.284 -120.001 161.851 -160.507 160.826L-155.27 174.982C-117.234 177.209 -79.3711 181.774 -41.8956 188.65C-60.1781 200.499 -95.556 231.007 -95.3963 290.055C-95.1744 369.58 -26.8719 463.68 -26.8719 463.68C-26.8719 463.68 -36.2685 449.169 -57.8452 380.311C-78.4023 314.688 -94.1716 222.833 -31.4608 190.71C-23.8483 192.28 -16.4134 194.011 -9.09567 195.821C-19.7601 206.182 -45.4902 238.627 -43.3523 309.819C-40.7031 399.514 -0.900859 465.355 -0.900859 465.355C-0.900859 465.355 -55.5684 262.99 -0.201398 198.118C6.79351 199.871 13.5219 201.865 20.2718 204.003C15.0224 208.932 -8.31278 235.744 2.24803 315.497C3.58676 325.217 5.48193 334.853 7.92419 344.356C7.40554 348.367 6.92859 352.393 6.52159 356.437C-0.529967 431.76 55.2438 538.184 61.4279 549.724C59.7455 545.848 53.3511 527.205 35.3255 441.047C33.1388 430.626 31.5518 420.088 30.5723 409.485C45.9898 444.627 64.2549 478.449 85.185 510.614C85.185 510.614 50.9402 426.677 32.5077 341.618C40.1397 288.947 58.7163 249.22 55.6234 217.286L51.2106 214.836C63.1898 219.519 74.8765 224.692 86.2705 230.357C82.4749 241.557 75.0129 277.458 90.685 364.565C97.6241 401.466 107.89 437.662 121.358 472.711C116.5 538.343 138.894 597.273 138.894 597.273C135.091 567.194 133.814 536.851 135.077 506.559C145.411 530.844 157.03 554.561 169.885 577.611C169.885 577.611 155.052 533.671 138.426 476.096C139.177 471.658 140.039 467.282 141.076 463.098C153.604 412.249 169.331 351.417 142.302 263.763C154.699 272.416 166.913 281.938 179.138 292.097C178.657 311.797 178.166 354.957 180.588 414.058C183.955 496.481 211.689 616.563 211.689 616.563C211.689 616.563 220.659 412.248 185.421 297.468C193.367 304.354 201.324 311.609 209.292 319.232C213.385 342.153 222.235 387.448 228.43 438.476C237.117 509.205 220.317 639.986 220.317 639.986C220.317 639.986 256.477 466.444 230.148 340.114C235.961 346.128 241.809 352.3 247.686 358.741C249.676 360.933 251.72 363.183 253.629 365.286C256.128 386.898 261.246 434.42 256.456 478.647C250.447 534.058 229.45 606.728 229.45 606.728C229.45 606.728 280.915 490.854 272.035 387.636C279.614 397.468 286.547 407.273 292.834 417.053C269.434 477.29 272.536 563.735 253.838 611.3C233.817 662.199 206.839 689.104 206.839 689.104C206.839 689.104 258.049 645.299 281.695 564.657C297.699 510.138 299.611 456.287 299.162 427.084C306.142 438.549 312.308 449.889 317.763 460.983C284.393 505.958 298.535 584.539 289.356 614.354C279.643 645.842 270.785 656.913 270.785 656.913C270.785 656.913 293.537 641.329 312.087 549.781C319.721 512.076 323.062 489.13 324.372 475.162C329.828 487.417 334.436 499.334 338.292 510.719C313.497 536.965 320.687 604.379 305.279 644.768C292.269 678.845 279.75 694.808 275.377 699.751C281.851 692.629 306.386 663.242 328.924 603.87C341.018 572.029 344.718 549.001 345.254 533.438C349.825 549.96 353.292 566.766 355.632 583.747C353.088 586.896 346.466 598.583 338.89 639.208C329.111 691.477 285.537 738.128 285.537 738.128C285.537 738.128 383.647 641.22 357.103 583.195C355.753 567.265 353.562 551.417 350.539 535.717C352.892 538.011 358.673 545.567 365.388 568.43C374.145 598.301 376.715 663.158 376.715 663.158C376.715 663.158 393.128 561.61 347.858 519.646C347.858 519.646 342.549 500.8 335.881 481.38C336.849 482.743 337.875 484.081 339.015 485.396C349.59 497.784 351.913 498.646 374.223 535.201C396.533 571.756 400.471 618.484 400.529 620.214C400.588 621.945 396.995 486.558 327.558 459.274C327.036 458.045 326.528 456.832 326.018 455.674C304.3 407.007 274.643 362.287 238.261 323.345C245.094 326.387 252.34 328.401 259.763 329.321C279.359 331.949 299.074 338.009 347.3 355.026C392.059 370.815 449.478 427.466 458.265 437.587C446.555 421.719 348.65 286.961 233.153 317.988C226.019 310.579 218.403 303.204 210.374 295.88C215.796 297.822 221.449 299.046 227.189 299.521C237.211 299.848 265.761 301.477 327.9 314.477C390.039 327.478 445.971 382.372 445.971 382.372C445.971 382.372 355.555 256.456 206.588 292.456C198.558 285.339 190.011 278.287 180.946 271.3C184.363 271.905 187.829 272.185 191.298 272.138ZM191.996 195.56C156.416 197.804 121.239 204.35 87.2334 215.055C83.271 213.25 79.1686 211.41 75.0352 209.626C98.593 200.122 122.62 191.827 147.024 184.773C161.256 187.356 176.772 191.231 191.996 195.56ZM136.023 160.939C144.888 163.263 153.736 165.926 162.038 168.761C151 169.251 140.02 170.63 129.204 172.886C121.721 171.578 114.104 170.39 106.406 169.41C115.633 166.037 125.084 163.313 134.691 161.257C135.196 161.069 135.623 161.005 136.038 160.926L136.023 160.939ZM-7.67038 181.505C-11.1006 180.703 -14.4703 179.819 -17.9005 179.016C-3.32842 177.778 38.2587 159.759 80.8026 154.218C90.5032 153 102.787 154.002 115.782 156.411C102.599 158.745 89.6717 162.343 77.1784 167.154C47.362 166.243 18.1364 170.118 -7.67038 181.505ZM22.3961 278.126C19.8942 250.679 20.7478 225.589 26.9503 206.151C34.1427 208.507 41.2018 210.985 48.1532 213.641C37.6922 234.339 29.0732 255.917 22.3961 278.126ZM30.2479 192.646C22.5538 190.124 14.6937 187.716 6.66766 185.423C9.55355 185.18 12.5848 184.859 15.7183 184.471C24.0801 183.415 34.1723 182.004 48.1375 181.019C41.961 184.564 35.9719 188.425 30.1941 192.587L30.2479 192.646ZM59.1958 203.073C52.1835 200.309 44.9957 197.66 37.6326 195.125L40.3017 195.268C47.2071 195.643 61.7945 188.204 80.5999 179.906C87.554 179.858 95.1525 179.955 103.48 180.2C87.7798 185.863 72.8771 193.531 59.142 203.013L59.1958 203.073ZM136.187 288.444C140.997 321.17 144.23 360.785 127.227 436.069C107.078 361.376 88.5434 276.679 94.2987 234.467C108.223 241.778 121.74 249.84 134.791 258.616C134.02 264.341 133.969 273.627 136.133 288.385L136.187 288.444Z" fill="black"/>
<path d="M275.298 699.634C274.237 700.786 273.642 701.38 273.642 701.38C273.642 701.38 274.236 700.814 275.298 699.634Z" fill="black"/>
<path d="M238.134 167.708C238.459 167.143 234.165 165.747 226.875 164.235C234.435 166.907 237.504 168.74 238.134 167.708Z" fill="black"/>
<path d="M459.364 439.156C459.018 438.622 458.625 438.12 458.191 437.655C459.015 438.771 459.354 439.382 459.364 439.156Z" fill="black"/>
<path d="M279.628 356.966C297.828 364.185 324.595 374.025 378.109 405.314C430.768 436.137 482.936 517.171 485.173 521.271C482.042 515.145 402.107 353.558 256.969 340.881C256.969 340.881 261.415 349.704 279.628 356.966Z" fill="black"/>
<path d="M304.641 401.792C315.474 410.568 341.458 413.149 390.649 453.065C439.841 492.981 469.477 558.814 469.477 558.814C469.477 558.814 408.272 403.452 287.975 379.455C291.883 387.998 297.564 395.612 304.641 401.792Z" fill="black"/>
<path d="M324.374 443.631C330.721 450.917 355.082 459.268 390.881 507.077C426.681 554.886 438.883 614.372 438.883 614.372C438.883 614.372 436.559 474.969 313.552 425.795C316.353 432.194 319.992 438.192 324.374 443.631Z" fill="url(#paint1_linear_305_7119)"/>
</g>
</g>
<defs>
<linearGradient id="paint0_linear_305_7119" x1="448.639" y1="289.52" x2="488.007" y2="253.768" gradientUnits="userSpaceOnUse">
<stop/>
<stop offset="0.73"/>
</linearGradient>
<linearGradient id="paint1_linear_305_7119" x1="363.639" y1="531.52" x2="403.007" y2="495.767" gradientUnits="userSpaceOnUse">
<stop/>
<stop offset="0.73"/>
</linearGradient>
<clipPath id="clip0_305_7119">
<rect width="593" height="829" fill="white"/>
</clipPath>
</defs>
</svg>
