<svg xmlns="http://www.w3.org/2000/svg" width="1440" height="1071" viewBox="0 0 1440 1071" fill="none"><path d="M0 5.00002C0 2.2386 2.23858 0 5 0H1435C1437.76 0 1440 2.23858 1440 5V939.476C1440 942.237 1437.76 944.476 1435 944.476H4.99998C2.23856 944.476 0 942.237 0 939.476V5.00002Z" fill="white"></path><path d="M1440 924.874H0V1062.85C9.06294 1062.8 22.8252 1067.39 25.1748 1067.34C37.5944 1067.66 51.0209 1066.55 64.7832 1066.55C78.5454 1066.09 92.3078 1069.52 104.392 1069.33C116.476 1069.01 127.217 1069.52 134.937 1068.92C142.322 1067.53 147.357 1069.38 147.021 1068.78C148.364 1067.34 153.734 1067.8 161.119 1068.5C168.839 1069.33 178.238 1068.92 187.636 1068.45C197.371 1070.12 206.769 1067.9 214.825 1069.15C222.881 1069.7 228.923 1070.26 230.937 1070.31C232.951 1069.47 248.392 1070.58 263.832 1069.52C279.273 1069.38 295.049 1070.17 297.399 1069.15C297.399 1069.56 302.769 1069.1 311.161 1069.29C319.552 1069.33 330.629 1069.52 341.706 1069.75C352.783 1070.26 364.196 1071.6 372.252 1070.49C380.643 1070.77 386.014 1069.42 386.014 1070.31C392.392 1070.35 399.105 1068.54 405.147 1067.8C411.189 1068.17 415.552 1065.81 417.231 1066.23C424.951 1067.48 432.336 1068.82 440.392 1069.7C444.755 1068.87 459.189 1068.68 463.888 1068.5C468.587 1067.9 490.741 1071.14 495.776 1070.77C516.923 1069.29 514.573 1068.73 538.07 1071C555.189 1070.26 559.888 1066.09 588.419 1067.48C611.245 1065.21 602.517 1065.44 634.07 1067.57C641.119 1066.92 635.413 1065.63 646.825 1065.26C651.86 1067.15 659.58 1067.71 667.301 1069.24L691.804 1067.76C696.168 1066.23 700.867 1066.64 702.21 1065.3C726.378 1067.11 755.916 1067.02 780.419 1068.64H785.119C825.063 1067.85 840.839 1069.8 858.629 1067.53L938.517 1068.22C938.517 1068.22 997.93 1069.56 1037.54 1070.44C1057.34 1070.91 1072.11 1070.44 1072.11 1070.77C1072.11 1070.4 1085.2 1069.29 1105.34 1069.89C1115.41 1069.33 1126.82 1068.13 1139.24 1067.99C1151.66 1068.13 1165.43 1070.17 1178.85 1069.98C1192.28 1069.98 1205.03 1065.58 1217.45 1064.88C1229.87 1064.61 1241.96 1066.69 1252.03 1066.23C1271.83 1064.75 1257.06 1067.48 1285.93 1068.27C1290.63 1066.92 1296.34 1067.15 1302.04 1066.88C1307.75 1066.41 1314.13 1066.69 1320.17 1065.53C1326.55 1065.39 1333.26 1065.53 1339.97 1065.72C1346.69 1066 1353.73 1066.83 1360.45 1066.6C1368.17 1065.95 1372.87 1065.49 1378.91 1065.21C1385.29 1064.98 1393.01 1064.93 1406.1 1065.21C1423.22 1062.52 1418.85 1062.61 1438.99 1063.49L1440 924.874Z" fill="white"></path></svg>