<svg width="206" height="167" viewBox="0 0 206 167" fill="none" xmlns="http://www.w3.org/2000/svg">
<path d="M54.994 106.489C56.3625 106.126 57.898 104.931 59.379 103.436C61.7821 101.033 64.098 97.8675 65.6335 96.234C69.065 92.546 72.344 88.7248 75.4707 84.7706C76.0732 84.0119 76.6976 83.1553 76.654 82.1933V82.1716C76.5959 81.0826 75.7175 80.2477 74.8971 79.5326L56.1375 63.1142C55.3316 62.41 54.4169 61.6622 53.3497 61.6985C52.2062 61.7312 51.306 62.6351 50.5328 63.4772L44.7249 69.8006C45.0588 70.0801 45.3928 70.3633 45.7195 70.6537C48.9392 73.4995 52.0501 76.4616 55.2082 79.3656C56.6783 80.7268 58.9543 82.5019 59.0487 84.7089C59.0623 85.0176 59.033 85.3266 58.9616 85.6273C58.7039 86.7163 57.9815 87.6165 57.2809 88.4586C56.1145 89.8646 54.9299 91.2525 53.7272 92.6222C51.2697 95.4354 48.7287 98.1543 46.1877 100.895C48.8267 103.657 52.3587 107.175 54.994 106.489ZM55.4405 94.1468C56.6384 92.7856 57.8472 91.3699 59.0342 89.936C59.7602 89.0431 60.7911 87.8198 61.1759 86.179C61.2957 85.6765 61.3458 85.1598 61.3247 84.6436C61.1976 81.7396 58.9253 79.6959 57.2664 78.2004C57.0885 78.0407 56.9034 77.8882 56.7582 77.7394C55.858 76.9081 54.965 76.0732 54.0684 75.2383C52.0864 73.3907 50.0428 71.4849 47.9737 69.6336L49.4257 68.0365L52.1881 65.0236C52.9504 64.1887 53.2771 63.9927 53.4005 63.9745C53.5239 63.9564 53.9958 64.2758 54.6347 64.8348L73.4125 81.235C74.1602 81.8884 74.3635 82.1788 74.3998 82.2877C74.2324 82.6884 73.9966 83.0569 73.7029 83.3767C70.6283 87.2607 67.3577 91.0722 63.9818 94.7022C63.3393 95.3919 62.617 96.2703 61.7784 97.2903C60.5551 98.775 59.1685 100.459 57.7855 101.846C55.9197 103.715 54.8815 104.191 54.435 104.307C54.3624 104.307 53.6727 104.452 51.9412 103.175C51.0142 102.465 50.1372 101.693 49.3168 100.862L49.4003 100.771C51.3895 98.6117 53.4477 96.3829 55.4405 94.1287V94.1468Z" fill="black"/>
<path d="M51.6326 89.2827C52.315 88.495 55.3533 85.8923 55.1246 84.8142C55.0304 84.5065 54.8488 84.2328 54.6019 84.0265C52.8341 82.2369 50.9284 80.5744 49.088 78.8574C46.812 76.7375 44.5396 74.6067 42.1584 72.5994L32.8185 82.7923C31.9473 83.7397 31.0035 84.9013 31.2612 86.1609C31.4246 87.0031 32.0816 87.6492 32.7132 88.2336C36.2851 91.5877 39.8848 94.9115 43.5123 98.2051C46.253 95.2503 49.0081 92.321 51.6326 89.2827Z" fill="black"/>
<path d="M85.9176 112.398C85.1916 111.502 84.4656 110.583 83.707 109.701C83.2925 109.23 82.8513 108.783 82.3856 108.362C82.2949 108.278 82.1969 108.198 82.0953 108.122L82.0372 108.079C81.9827 108.137 81.9247 108.191 81.8738 108.249C81.4728 108.704 81.0971 109.18 80.7486 109.676C79.8774 110.877 78.9336 111.974 77.9498 113.088C75.2419 116.155 72.4831 119.175 69.7207 122.188C71.3324 123.64 72.9369 125.121 74.5486 126.581C78.2947 129.967 81.6778 135.703 86.2116 130.751L95.3918 120.715C94.2017 119.565 92.9487 118.483 91.6384 117.473C89.6565 115.858 87.5693 114.38 85.9176 112.398Z" fill="black"/>
<path d="M105.287 108.478C105.281 108.314 105.256 108.15 105.215 107.991C105.011 107.233 104.423 106.652 103.857 106.111C97.5965 100.097 91.2308 94.1866 84.7597 88.3787C84.6254 88.2553 84.4839 88.1319 84.3423 88.0157C83.9477 87.6561 83.4659 87.4058 82.9448 87.2897C81.6924 87.0792 80.6107 88.1064 79.754 89.043L61.0452 109.607C60.537 110.162 60.0106 110.761 59.8763 111.505C59.8475 111.66 59.8365 111.817 59.8436 111.973C59.8945 113.117 60.8455 114.119 61.7312 114.925C63.4555 116.504 65.1942 118.075 66.9221 119.644C70.3379 115.941 73.8844 112.289 77.0424 108.391C78.6287 106.427 80.2332 103.189 83.2896 104.481C85.7471 105.519 87.4895 108.474 89.0249 110.289C90.6548 112.217 93.3228 113.941 95.3665 115.676C96.2159 116.402 97.0871 117.168 97.9075 117.988L103.563 111.817C104.423 110.845 105.356 109.694 105.287 108.478ZM96.8294 113.923C96.1034 113.32 95.3411 112.721 94.5897 112.144C93.1631 111.055 91.6857 109.912 90.7528 108.801C90.437 108.438 90.0885 107.97 89.7219 107.49C88.3352 105.675 86.611 103.418 84.1717 102.383C79.9609 100.601 77.3764 104.125 75.9897 106.013C75.7429 106.354 75.5033 106.677 75.2637 106.953C72.8498 109.944 70.1382 112.852 67.5138 115.665C67.2669 115.934 67.0165 116.199 66.7696 116.464L66.4066 116.141C65.3467 115.179 64.2831 114.217 63.2268 113.237C62.2721 112.365 62.1051 111.988 62.0761 111.875C62.2517 111.597 62.4574 111.339 62.6895 111.106L81.4274 90.5567C82.1171 89.8016 82.4547 89.5911 82.5926 89.533C82.7006 89.6008 82.8037 89.676 82.9012 89.7581L83.2642 90.063C89.6711 95.8274 96.078 101.777 102.307 107.741C102.585 107.984 102.829 108.264 103.033 108.572C103.033 108.67 102.968 109.084 101.9 110.253L97.7877 114.747C97.4283 114.438 97.1016 114.151 96.8294 113.926V113.923Z" fill="black"/>
<path d="M101.501 55.1175V55.0703C101.454 54.0321 100.63 53.2117 99.8639 52.5075L95.5079 48.5146C94.7819 49.3313 94.0342 50.1335 93.3082 50.9321C92.0849 52.2752 90.8398 53.6183 89.7363 55.0666C89.3225 55.6075 89.3733 55.5567 88.9486 56.181C88.5239 56.8054 88.1282 57.3826 87.7035 57.9742C86.2733 59.9816 83.9574 63.1724 81.0752 62.4827C79.4998 62.1197 78.5088 60.6023 77.4452 59.5206C75.8662 57.9198 74.0004 56.5731 72.2544 55.1647C70.5664 53.8107 68.9874 52.3587 67.4338 50.874C66.4959 49.9531 65.4966 49.0969 64.4427 48.3113L59.7237 53.4549C58.9977 54.2354 58.2463 55.1393 58.2899 56.1956V56.2246C58.3516 57.2737 59.1938 58.0831 59.9778 58.7656C64.1595 62.4827 68.3643 66.1731 72.592 69.837C76.5559 73.2782 80.0298 79.0571 84.6398 74.1494L87.9068 70.6755L100.096 57.702C100.786 56.9796 101.523 56.1302 101.501 55.1175ZM82.9882 72.6175C82.2622 73.3944 81.6088 73.79 81.0607 73.7973C79.8229 73.7973 78.0296 72.0113 76.447 70.4214C75.6847 69.6555 74.897 68.8642 74.0694 68.1454C69.8622 64.5155 65.6261 60.7766 61.4734 57.0885C61.1118 56.8107 60.799 56.4745 60.5477 56.0939C60.7613 55.6791 61.0435 55.3036 61.3826 54.9832L63.6877 52.464L64.6605 51.404C65.0525 51.767 65.4518 52.13 65.8656 52.5184C67.3176 53.8869 69.0056 55.4659 70.8242 56.9252C71.2416 57.2628 71.6699 57.5967 72.0947 57.9307C73.4024 58.9092 74.6475 59.9688 75.8226 61.1033C76.0187 61.3066 76.2292 61.5425 76.4506 61.7893C77.4198 62.8783 78.6286 64.2251 80.538 64.6933C84.9338 65.7424 88.0411 61.3901 89.533 59.2992C89.9759 58.6821 90.4042 58.0577 90.8071 57.4842L91.0903 57.0631C91.2391 56.8381 91.2718 56.7945 91.5222 56.4642C92.466 55.2264 93.5187 54.072 94.6331 52.8342L94.9707 52.4712L95.6422 51.7452L95.9072 51.9884L98.3284 54.2063C98.6772 54.4879 98.9797 54.8222 99.225 55.1973C99.0132 55.5703 98.7464 55.9092 98.4337 56.2028L86.2552 69.14L82.9882 72.6175Z" fill="black"/>
<path d="M92.76 46.0025L81.3983 35.5809C80.5779 34.8295 79.6232 34.0309 78.4943 34.0999C77.4416 34.1688 76.6212 35.0037 75.9061 35.7806L67.0127 45.4907C69.7932 47.5162 72.1491 50.246 74.799 52.3876C76.4833 53.738 78.2511 55.0484 79.8047 56.5549C80.2802 57.0195 80.7013 57.5386 81.1659 58.0068C81.4019 58.2537 81.6487 58.4824 81.8919 58.7111C82.078 58.6045 82.2553 58.4831 82.4219 58.3481C82.4219 58.3227 82.8285 57.9524 82.8684 57.9125C83.0644 57.7128 83.2314 57.5023 83.431 57.2917C84.2366 56.3259 84.9868 55.3151 85.678 54.2644C87.718 51.3059 90.3425 48.725 92.76 46.0025Z" fill="black"/>
<path d="M106.34 78.0115C106.046 78.2946 105.752 78.5814 105.461 78.879C105.135 79.2133 104.94 79.6529 104.909 80.1187C104.878 80.5845 105.015 81.046 105.294 81.42C107.472 84.2768 110.311 86.5673 112.721 89.2172C114.061 90.6909 115.302 92.2446 116.58 93.7655C116.76 93.9785 116.983 94.1506 117.235 94.2705C117.487 94.3903 117.762 94.4552 118.041 94.4607C118.319 94.4662 118.596 94.4122 118.853 94.3023C119.109 94.1925 119.339 94.0293 119.527 93.8236L128.7 83.7904C129.455 82.9664 130.258 82.0117 130.192 80.8864C130.127 79.7611 129.277 78.9589 128.479 78.2257L117.952 68.5663C117.761 68.3913 117.537 68.2561 117.293 68.1685C117.049 68.081 116.79 68.0429 116.531 68.0564C116.273 68.0699 116.019 68.1348 115.786 68.2472C115.552 68.3597 115.343 68.5175 115.171 68.7115C113.999 70.0256 112.823 71.3287 111.629 72.6246C109.908 74.5049 108.144 76.2546 106.34 78.0115Z" fill="black"/>
<path d="M174.855 68.3603C174.327 68.3457 173.796 68.3344 173.259 68.3363C172.655 68.3387 172.072 68.5565 171.615 68.9503C171.158 69.3442 170.856 69.8884 170.764 70.4849C170.103 75.0822 170.563 79.7756 170.303 84.3996C170.158 86.9703 169.85 89.5231 169.605 92.0797C169.572 92.4388 169.616 92.8008 169.733 93.1417C169.851 93.4826 170.04 93.7945 170.288 94.0566C170.535 94.3188 170.836 94.5252 171.169 94.6621C171.503 94.799 171.862 94.8633 172.222 94.8506L189.787 94.2185C191.232 94.1681 192.839 94.0428 193.818 92.9629C194.796 91.8829 194.766 90.3727 194.719 88.9718L194.088 70.5107C194.076 70.1758 193.998 69.8467 193.857 69.5424C193.717 69.2381 193.518 68.9648 193.271 68.7384C193.024 68.512 192.734 68.3369 192.419 68.2236C192.104 68.1102 191.769 68.0607 191.434 68.0779C189.16 68.1874 186.893 68.2836 184.615 68.3565C181.322 68.4736 178.11 68.4321 174.855 68.3603Z" fill="black"/>
<path d="M113.705 65.1834L109.905 61.695C109.095 60.969 108.169 60.1704 107.077 60.2031C105.984 60.2358 105.146 61.0307 104.391 61.7821C99.42 66.7358 94.5897 71.8178 89.8998 77.028C89.3407 77.6499 88.7854 78.2719 88.2336 78.8938C87.7073 79.4855 87.1628 80.128 87.0466 80.9084C87.0269 81.0442 87.0196 81.1815 87.0248 81.3186C87.0757 82.4657 88.0231 83.4603 88.8979 84.2698L102.14 96.5209C103.933 98.1798 106.496 101.726 108.739 102.63C111.113 103.592 114.101 100.3 115.513 98.757C113.132 96.1289 111.015 93.2649 108.507 90.7493C107.099 89.3336 105.643 87.9615 104.289 86.4913C103.563 85.7181 102.881 84.9123 102.234 84.081C101.766 83.4748 101.272 83.1046 100.826 82.4439C100.522 82.0182 100.345 81.5144 100.318 80.9919C100.234 79.1152 102.133 77.362 103.407 76.1133C106.982 72.6031 110.369 68.9223 113.705 65.1834ZM101.639 74.6867C100.162 76.1387 97.9329 78.3166 98.0563 81.0972C98.1016 82.0425 98.4123 82.9558 98.9529 83.7326C99.2588 84.1697 99.6013 84.5802 99.9766 84.9595C100.143 85.1263 100.301 85.302 100.448 85.4858C101.102 86.328 101.817 87.1665 102.626 88.045C103.596 89.094 104.608 90.0923 105.592 91.0578L106.906 92.361C108.325 93.7875 109.607 95.3194 110.961 96.9456C111.444 97.5228 111.937 98.1108 112.438 98.6989C110.26 100.786 109.621 100.568 109.589 100.554C108.529 100.125 106.884 98.3105 105.683 96.9819C104.957 96.2015 104.307 95.4646 103.675 94.8802L94.7966 86.6656L90.4406 82.629C89.4678 81.7288 89.3153 81.3585 89.2936 81.2497C89.4724 80.9457 89.6869 80.6642 89.9324 80.4111L91.5877 78.5562C96.2304 73.3908 101.076 68.2871 105.995 63.3866C106.721 62.6606 107.03 62.4791 107.146 62.4646C107.262 62.4501 107.592 62.6388 108.384 63.3648L109.418 64.3159L110.536 65.3395C107.226 69.0167 104.492 71.8952 101.824 74.5052L101.639 74.6867Z" fill="black"/>
<path d="M89.5777 153.66C93.1608 153.252 96.7696 153.116 100.373 153.254C101.022 153.262 101.651 153.027 102.134 152.594C102.617 152.161 102.92 151.562 102.983 150.916C103.288 148.539 103.154 146.146 103.019 143.831C102.95 142.578 102.878 141.362 102.882 140.201C107.009 140.244 111.956 140.201 115.764 139.547C116.352 139.429 116.883 139.115 117.271 138.657C117.658 138.199 117.879 137.624 117.899 137.024L118.407 127.695C122.374 127.557 126.353 127.231 130.281 126.712C130.972 126.595 131.591 126.212 132.004 125.645C132.417 125.078 132.592 124.371 132.491 123.677C132.11 120.401 132.023 117.098 132.23 113.807C134.442 113.87 136.655 113.749 138.847 113.444C140.719 113.176 142.609 113.068 144.499 113.121C144.862 113.134 145.223 113.066 145.556 112.922C145.89 112.778 146.187 112.562 146.427 112.29C146.679 112.007 146.871 111.676 146.991 111.316C147.112 110.957 147.158 110.577 147.127 110.199C146.837 106.101 147.229 102.177 147.766 98.4668C151.516 98.3108 156.206 97.9078 159.44 97.1637C159.979 97.0272 160.462 96.7245 160.82 96.2985C161.177 95.8724 161.392 95.3445 161.433 94.7897C161.879 90.205 161.796 87.6278 161.618 83.3517L161.589 82.662C161.553 81.6565 161.538 80.4186 161.52 79.1046C161.48 76.2442 161.433 73.0062 161.157 70.6831C161.102 70.1297 160.875 69.6074 160.509 69.189C160.142 68.7706 159.655 68.477 159.113 68.349C155.846 67.6702 151.164 67.3544 147.407 67.26C146.79 63.5538 146.318 59.6371 146.503 55.5389C146.523 55.1598 146.467 54.7806 146.339 54.4234C146.21 54.0662 146.012 53.7383 145.755 53.4589C145.508 53.1926 145.206 52.9837 144.87 52.847C144.534 52.7103 144.172 52.649 143.809 52.6676C141.919 52.7485 140.025 52.6732 138.147 52.4425C135.95 52.1795 133.736 52.0981 131.526 52.1993C131.244 48.9148 131.256 45.6117 131.562 42.3294C131.646 41.6318 131.455 40.9287 131.03 40.3696C130.604 39.8104 129.977 39.4392 129.282 39.3347C125.344 38.8918 121.358 38.6341 117.387 38.5724L116.661 29.2543C116.628 28.6564 116.396 28.0868 116.001 27.6366C115.606 27.1865 115.071 26.8818 114.483 26.7714C110.65 26.187 105.717 26.2378 101.589 26.3576C101.56 25.1887 101.589 23.9799 101.644 22.7276C101.727 20.4153 101.807 18.0086 101.448 15.6492C101.37 15.0029 101.054 14.4089 100.561 13.9838C100.068 13.5587 99.434 13.3332 98.7833 13.3514C95.1763 13.5583 91.5588 13.4891 87.9624 13.1445C87.8716 9.6815 87.8825 6.21488 87.8136 2.75189C87.7773 1.05307 87.8789 0.265377 86.1111 0.0947683C83.2071 -0.188369 80.118 0.247225 77.2104 0.308935C76.2848 0.327085 72.9597 -0.21015 72.3934 0.671931C72.1737 1.0925 72.0828 1.56849 72.1321 2.04042C72.1757 5.80107 72.1321 9.55808 72.1321 13.3151C68.5296 13.7239 64.901 13.8538 61.2785 13.7035C60.6284 13.6969 59.9994 13.9346 59.5161 14.3695C59.0328 14.8044 58.7303 15.4049 58.6685 16.0521C58.3636 18.4261 58.4979 20.8182 58.6323 23.1305C58.7012 24.3865 58.7702 25.5989 58.7702 26.7605C54.6429 26.7169 49.7134 26.7605 45.8874 27.4139C45.298 27.5281 44.765 27.8393 44.3758 28.2964C43.9866 28.7535 43.7644 29.3294 43.7458 29.9295L43.2339 39.2585C39.2664 39.3928 35.2807 39.7231 31.3603 40.2385C30.6689 40.3563 30.0509 40.7395 29.638 41.3064C29.225 41.8733 29.0498 42.579 29.1497 43.2732C29.5288 46.549 29.6162 49.8519 29.411 53.1431C27.199 53.08 24.9855 53.2014 22.7936 53.5061C20.9219 53.7712 19.0315 53.8804 17.1417 53.8328C16.7793 53.8202 16.4186 53.8879 16.0854 54.031C15.7522 54.174 15.4547 54.389 15.2142 54.6604C14.9617 54.9439 14.7693 55.2757 14.6489 55.6357C14.5285 55.9958 14.4825 56.3765 14.5136 56.7549C14.7968 60.8459 14.4084 64.7699 13.8748 68.4869C10.125 68.643 5.4351 69.046 2.2008 69.7865C1.66254 69.9237 1.18082 70.2262 0.823365 70.6513C0.465905 71.0765 0.250682 71.603 0.20795 72.1569C-0.020738 74.4837 0.00830128 77.7288 0.037341 80.5856C0.037341 81.8997 0.0627508 83.1266 0.037341 84.1394V84.8399C-0.0279984 89.1088 -0.071554 91.6897 0.483831 96.2635C0.538695 96.8179 0.765545 97.3414 1.13265 97.7606C1.49974 98.1797 1.98872 98.4736 2.53113 98.6012C5.77994 99.2836 10.4771 99.603 14.2305 99.6901C14.8512 103.393 15.3195 107.313 15.138 111.411C15.116 111.79 15.171 112.169 15.2995 112.526C15.428 112.883 15.6274 113.21 15.8858 113.488C16.1311 113.756 16.4329 113.966 16.7693 114.104C17.1058 114.241 17.4685 114.302 17.8314 114.283C19.7206 114.196 21.6137 114.269 23.4906 114.5C25.6879 114.769 27.9041 114.85 30.1152 114.744C30.3972 118.03 30.3851 121.336 30.0789 124.621C29.9956 125.318 30.187 126.02 30.6126 126.578C31.0381 127.137 31.6644 127.507 32.3586 127.612C36.2971 128.058 40.2828 128.312 44.2503 128.378L44.9763 137.696C45.0091 138.294 45.2415 138.863 45.6364 139.314C46.0313 139.764 46.5658 140.068 47.1543 140.179C51.0057 140.752 55.9461 140.716 60.0806 140.596C60.106 141.754 60.0806 142.974 60.0225 144.226C59.9427 146.546 59.8628 148.945 60.2222 151.308C60.3006 151.954 60.6173 152.547 61.1101 152.971C61.603 153.396 62.2365 153.621 62.8866 153.602C66.4815 153.397 70.0868 153.466 73.6712 153.809C73.7002 156.401 73.555 158.989 73.5587 161.581C73.5587 162.87 73.5913 164.162 73.7075 165.447C73.8418 166.939 75.1305 167.033 76.2848 166.993C79.0036 166.899 81.7297 166.815 84.4449 166.761C85.6247 166.736 88.162 167.189 89.1639 166.434C90.1658 165.679 89.7048 163.752 89.683 162.706C89.6467 162.035 89.251 153.7 89.5777 153.66ZM79.1924 161.102C78.3829 160.035 78.5499 158.256 78.6769 157.007C78.8693 155.134 78.7568 153.218 78.735 151.323C78.7462 150.678 78.5236 150.052 78.1086 149.559C77.6936 149.065 77.114 148.739 76.4772 148.64C72.6921 148.155 68.8757 147.96 65.0609 148.056C65.0319 146.905 65.0609 145.696 65.1154 144.448C65.1916 142.128 65.2715 139.729 64.9121 137.366C64.8363 136.73 64.5291 136.144 64.049 135.72C63.569 135.296 62.9497 135.064 62.3094 135.068H62.117C58.5052 135.188 53.7681 135.34 49.8986 135.01L49.1508 125.441C49.1207 124.776 48.8401 124.148 48.3653 123.682C47.8904 123.216 47.2567 122.947 46.5917 122.929C42.86 122.929 39.0921 122.78 35.3605 122.432C35.5356 118.75 35.3777 115.061 34.8886 111.408C34.8546 111.067 34.7537 110.736 34.5916 110.434C34.4295 110.133 34.2094 109.866 33.944 109.649C33.6786 109.433 33.3731 109.271 33.045 109.173C32.7168 109.075 32.3726 109.042 32.0319 109.077C28.7032 109.535 26.3945 109.302 23.9516 109.077C22.7827 108.965 21.5921 108.852 20.2853 108.809C20.2127 104.358 19.5266 100.166 18.8696 96.4667C18.777 95.8607 18.4743 95.3065 18.0145 94.9011C17.5546 94.4956 16.9669 94.2648 16.354 94.2488C12.6718 94.2637 8.99265 94.0345 5.34073 93.5628C5.05759 90.5499 5.09389 88.3864 5.14834 84.9416V84.241C5.16649 83.1738 5.14834 81.8997 5.14834 80.5457C5.14834 78.6255 5.11204 76.5527 5.17012 74.7559C8.7974 74.2224 12.4558 73.9277 16.1217 73.8738C16.7339 73.8476 17.3171 73.6054 17.7676 73.19C18.2182 72.7747 18.507 72.2132 18.5828 71.6051C19.16 67.9207 19.7481 63.7136 19.719 59.2632C21.0222 59.1979 22.2128 59.0563 23.378 58.922C25.8174 58.6389 28.1188 58.3702 31.4547 58.7659C31.7956 58.7962 32.1391 58.7584 32.4652 58.6547C32.7913 58.551 33.0935 58.3835 33.3543 58.1619C33.6151 57.9403 33.8292 57.669 33.9842 57.3639C34.1392 57.0588 34.2319 56.7259 34.257 56.3847C34.6665 52.7195 34.7406 49.0246 34.4785 45.3459C38.2028 44.9357 41.9671 44.6998 45.6987 44.6417C46.3598 44.6134 46.9856 44.3355 47.4497 43.8639C47.9139 43.3923 48.1819 42.7622 48.1997 42.1007L48.7261 32.5213C52.5811 32.1147 57.3218 32.1837 60.9337 32.2345H61.1333C61.7712 32.2249 62.3831 31.9803 62.852 31.5477C63.3208 31.115 63.6136 30.5246 63.6743 29.8895C63.9792 27.5119 63.8449 25.1197 63.7178 22.8111C63.6489 21.5624 63.5763 20.3572 63.5799 19.1811C67.3966 19.2157 71.2104 18.9621 74.9889 18.4225C75.6122 18.3099 76.1745 17.9778 76.574 17.4864C76.9736 16.995 77.1839 16.3767 77.1669 15.7435V11.0064C77.1669 9.58713 76.8039 7.88467 77.1886 6.50166C77.5734 5.11864 78.7677 5.66676 79.893 5.65587C80.5259 5.6081 81.1613 5.60204 81.7951 5.63772C83.4104 5.84826 82.6989 9.68877 82.728 10.7669L82.8623 15.6891C82.8624 16.3259 83.0899 16.9417 83.5039 17.4255C83.9178 17.9094 84.491 18.2294 85.1201 18.3281C88.9067 18.8088 92.7242 19.0017 96.54 18.9052C96.5654 20.0668 96.54 21.272 96.4819 22.5352C96.4057 24.8511 96.3258 27.2542 96.6852 29.6136C96.761 30.2495 97.0682 30.8352 97.5482 31.259C98.0283 31.6828 98.6475 31.915 99.2879 31.9114H99.4875C103.096 31.7952 107.836 31.6355 111.699 31.9731L112.446 41.5417C112.477 42.2027 112.756 42.8278 113.227 43.2927C113.697 43.7575 114.326 44.0279 114.987 44.05C118.719 44.05 122.483 44.2025 126.219 44.5437C126.042 48.2276 126.2 51.9199 126.69 55.5752C126.724 55.916 126.824 56.2469 126.985 56.5488C127.147 56.8508 127.367 57.1177 127.632 57.3344C127.897 57.551 128.203 57.713 128.531 57.811C128.859 57.9091 129.203 57.9412 129.544 57.9056C132.872 57.4519 135.181 57.6733 137.628 57.9056C138.8 58.0218 139.987 58.1379 141.294 58.1815C141.366 62.6246 142.049 66.8244 142.71 70.498C142.801 71.1053 143.103 71.6612 143.563 72.0681C144.023 72.475 144.611 72.7069 145.225 72.7231C148.893 72.7099 152.557 72.9367 156.195 73.4019C156.289 75.177 156.322 77.2715 156.347 79.1881C156.369 80.5421 156.384 81.8198 156.424 82.887L156.449 83.584C156.58 87.0288 156.663 89.1923 156.449 92.2088C152.807 92.7462 149.134 93.0445 145.454 93.1017C144.842 93.1278 144.259 93.3696 143.809 93.7842C143.358 94.1988 143.069 94.7594 142.993 95.3668C142.415 99.0585 141.827 103.262 141.856 107.709C140.55 107.778 139.366 107.912 138.197 108.05C135.758 108.333 133.457 108.605 130.121 108.21C129.78 108.18 129.436 108.218 129.109 108.322C128.783 108.426 128.481 108.594 128.22 108.816C127.959 109.038 127.744 109.309 127.589 109.615C127.434 109.92 127.34 110.253 127.315 110.595C126.91 114.258 126.837 117.95 127.097 121.626C123.373 122.04 119.612 122.272 115.877 122.327C115.214 122.358 114.587 122.639 114.123 123.114C113.658 123.589 113.392 124.222 113.376 124.886L112.849 134.465C108.991 134.868 104.246 134.799 100.638 134.748H100.442C99.8043 134.758 99.1924 135.003 98.7235 135.435C98.2547 135.868 97.9619 136.458 97.9012 137.093C97.5963 139.467 97.7306 141.859 97.8577 144.179C97.9303 145.428 97.9992 146.629 97.9956 147.787C94.1804 147.76 90.3688 148.025 86.5939 148.579C85.9643 148.693 85.3973 149.032 84.9972 149.531C84.597 150.031 84.3906 150.658 84.4159 151.297C84.4377 153.555 84.7172 155.806 84.7208 158.067C84.7208 158.888 85.1455 160.946 84.2526 161.378C83.9838 161.483 83.6942 161.524 83.4068 161.498C82.3178 161.472 80.1725 162.245 79.2904 161.291C79.2759 161.207 79.2323 161.153 79.1924 161.102Z" fill="black"/>
</svg>
