<svg width="191" height="157" viewBox="0 0 191 157" fill="none" xmlns="http://www.w3.org/2000/svg">
<path d="M177.965 88.7391V157H108.437V77.5692C108.437 52.7471 115.454 34.5442 129.487 22.9605C143.52 10.9631 161.38 3.30962 183.068 0L190.084 32.8893C175.626 35.3715 164.357 40.1291 156.277 47.1621C148.198 54.195 144.158 64.3307 144.158 77.5692V88.7391H177.965ZM68.8896 88.7391V157H0V77.5692C0 52.7471 7.01653 34.5442 21.0496 22.9605C35.0827 10.9631 52.9429 3.30962 74.6304 0L81.6469 32.8893C67.1886 35.3715 55.9196 40.1291 47.84 47.1621C39.7604 54.195 35.7205 64.3307 35.7205 77.5692V88.7391H68.8896Z" fill="white"/>
</svg>
