<svg xmlns="http://www.w3.org/2000/svg" width="70" height="70" viewBox="0 0 70 70" fill="none"><rect width="70" height="70" rx="35" fill="white"></rect><g clip-path="url(#clip0_83_467)"><path d="M23.1325 28.1862C23.1245 28.118 23.09 28.0556 23.0365 28.0125C22.9829 27.9694 22.9146 27.949 22.8462 27.9557L22.2814 28.0352L21.9792 28.0908C21.9117 28.0982 21.8499 28.1321 21.8074 28.185C21.7648 28.2379 21.7451 28.3054 21.7525 28.3729C21.7599 28.4403 21.7938 28.502 21.8467 28.5445C21.8997 28.587 21.9674 28.6067 22.0349 28.5993H22.0826C22.0826 28.5993 22.3928 28.5358 22.878 28.4722C22.9143 28.4725 22.9502 28.465 22.9833 28.4503C23.0165 28.4356 23.0461 28.4139 23.0702 28.3868C23.0943 28.3598 23.1124 28.3279 23.1231 28.2933C23.1339 28.2586 23.1371 28.2221 23.1325 28.1862Z" fill="#231F20"></path><path d="M46.3584 40.2713L46.0482 40.5176C45.9949 40.5611 45.9609 40.6238 45.9534 40.6922C45.946 40.7606 45.9657 40.8291 46.0084 40.8831C46.0323 40.9129 46.0626 40.9369 46.097 40.9534C46.1314 40.9699 46.1691 40.9784 46.2073 40.9784C46.2614 40.9785 46.3141 40.9618 46.3584 40.9307C46.4698 40.8433 46.5811 40.756 46.6845 40.6606C47.0348 40.3572 47.3642 40.0307 47.6708 39.6833C47.7161 39.6348 47.7413 39.5709 47.7413 39.5045C47.7413 39.4382 47.7161 39.3743 47.6708 39.3257C47.6471 39.3012 47.6187 39.2818 47.5872 39.2685C47.5558 39.2552 47.522 39.2483 47.4879 39.2483C47.4538 39.2483 47.42 39.2552 47.3885 39.2685C47.3571 39.2818 47.3287 39.3012 47.3049 39.3257C47.114 39.5482 46.9152 39.7469 46.7084 39.9455L46.3584 40.2713Z" fill="#231F20"></path><path d="M32.4626 31.3961C32.5129 31.4414 32.5779 31.4668 32.6456 31.4677C32.7135 31.4684 32.7791 31.4427 32.8285 31.3961C32.8531 31.3724 32.8726 31.344 32.8859 31.3126C32.8992 31.2812 32.9061 31.2475 32.9061 31.2134C32.9061 31.1793 32.8992 31.1455 32.8859 31.1141C32.8726 31.0827 32.8531 31.0543 32.8285 31.0306C32.6615 30.8638 32.4785 30.6969 32.2876 30.538L31.9456 30.252C31.7865 30.1248 31.6195 29.9898 31.4525 29.8706C31.4249 29.851 31.3937 29.837 31.3607 29.8296C31.3276 29.8221 31.2935 29.8214 31.2601 29.8273C31.2268 29.8332 31.195 29.8457 31.1666 29.8641C31.1381 29.8824 31.1136 29.9063 31.0945 29.9342C31.0738 29.9613 31.0589 29.9924 31.0508 30.0256C31.0427 30.0588 31.0417 30.0933 31.0476 30.1269C31.0536 30.1605 31.0665 30.1926 31.0856 30.2209C31.1046 30.2493 31.1293 30.2734 31.1582 30.2917C31.4341 30.487 31.6995 30.6965 31.9536 30.9194L32.2956 31.2293L32.4626 31.3961Z" fill="#231F20"></path><path d="M34.4352 34.201C34.4563 34.2441 34.4891 34.2805 34.5299 34.3058C34.5707 34.3311 34.6179 34.3443 34.6659 34.344C34.7024 34.3538 34.7408 34.3538 34.7773 34.344C34.8078 34.3297 34.835 34.3093 34.8574 34.284C34.8797 34.2588 34.8966 34.2293 34.907 34.1972C34.9174 34.1652 34.9212 34.1314 34.918 34.0979C34.9149 34.0643 34.9049 34.0318 34.8886 34.0023C34.7136 33.6368 34.5068 33.2872 34.3 32.9456C34.1966 32.7787 34.0932 32.6119 33.9818 32.4529C33.9405 32.4069 33.8838 32.3774 33.8223 32.3701C33.7608 32.3628 33.6988 32.3781 33.6478 32.4132C33.593 32.4531 33.5558 32.5125 33.544 32.5792C33.5321 32.6458 33.5465 32.7145 33.5841 32.7707C33.7194 32.9694 33.8546 33.176 33.9818 33.3905C34.1091 33.605 34.2125 33.7957 34.3239 34.0023C34.4352 34.2089 34.3875 34.1136 34.4352 34.201Z" fill="#231F20"></path><path d="M38.1578 40.311C38.1919 40.3178 38.2271 40.3178 38.2612 40.311C38.3324 40.3084 38.4002 40.2802 38.4521 40.2315C38.4997 40.1826 38.5264 40.117 38.5264 40.0488C38.5264 39.9805 38.4997 39.915 38.4521 39.866L38.1658 39.572C38.0465 39.4528 37.9351 39.3178 37.8237 39.1906C37.7124 39.0635 37.4897 38.7854 37.3306 38.5709C37.3108 38.5425 37.2855 38.5183 37.2561 38.5C37.2267 38.4816 37.1939 38.4695 37.1596 38.4643C37.1254 38.4591 37.0904 38.4609 37.0569 38.4697C37.0234 38.4785 36.992 38.494 36.9647 38.5153C36.938 38.5356 36.9155 38.5609 36.8986 38.5899C36.8818 38.6189 36.8708 38.6509 36.8664 38.6842C36.8619 38.7174 36.8641 38.7511 36.8728 38.7835C36.8815 38.8159 36.8965 38.8463 36.917 38.8728C37.1939 39.2536 37.4968 39.6146 37.8237 39.9534C37.9112 40.0488 37.9987 40.1441 38.0942 40.2315L38.1578 40.311Z" fill="#231F20"></path><path d="M36.1612 37.5301H36.2408H36.2806C36.3398 37.4966 36.3837 37.4414 36.403 37.3762C36.4223 37.311 36.4155 37.2408 36.384 37.1805C36.3283 37.0931 36.2885 36.9978 36.2408 36.9104C36.1215 36.6958 36.0101 36.4813 35.8988 36.2509C35.7874 36.0204 35.6919 35.8377 35.5965 35.6232C35.583 35.592 35.5634 35.5639 35.5388 35.5404C35.5142 35.5169 35.4851 35.4986 35.4534 35.4865C35.4216 35.4745 35.3877 35.4689 35.3537 35.4701C35.3197 35.4714 35.2863 35.4794 35.2555 35.4937C35.2247 35.508 35.197 35.5284 35.1742 35.5536C35.1514 35.5788 35.1339 35.6083 35.1226 35.6404C35.1114 35.6724 35.1068 35.7064 35.1089 35.7403C35.1111 35.7742 35.12 35.8073 35.1352 35.8377C35.3738 36.3674 35.6389 36.8759 35.9306 37.3633V37.4348C35.9585 37.468 35.9941 37.494 36.0342 37.5106C36.0744 37.5272 36.1179 37.5339 36.1612 37.5301Z" fill="#231F20"></path><path d="M26.3619 28.4961C26.4242 28.4966 26.4845 28.4742 26.5315 28.4331C26.5784 28.3921 26.6086 28.3354 26.6164 28.2736C26.6255 28.2052 26.6072 28.136 26.5655 28.0809C26.5238 28.0259 26.462 27.9895 26.3937 27.9796C26.163 27.9796 25.9323 27.9319 25.6937 27.9081H25.3517H24.604C24.5365 27.9081 24.4718 27.9349 24.424 27.9826C24.3763 28.0303 24.3495 28.0949 24.3495 28.1623C24.3484 28.1964 24.3542 28.2303 24.3665 28.2621C24.3788 28.2939 24.3974 28.3228 24.4212 28.3473C24.4449 28.3718 24.4733 28.3912 24.5047 28.4045C24.5362 28.4178 24.5699 28.4246 24.604 28.4246C24.8506 28.4246 25.1051 28.4246 25.3517 28.4246H25.6937L26.3619 28.4961Z" fill="#231F20"></path><path d="M48.4105 38.3007C48.4576 38.3113 48.5065 38.3113 48.5536 38.3007H48.6332C48.6882 38.2861 48.7361 38.2523 48.7684 38.2054C48.9195 37.967 49.0706 37.7128 49.2138 37.4585C49.2308 37.4294 49.2418 37.3971 49.2462 37.3637C49.2506 37.3303 49.2483 37.2963 49.2394 37.2637C49.2305 37.2312 49.2152 37.2008 49.1944 37.1742C49.1737 37.1476 49.1478 37.1254 49.1184 37.1089C49.058 37.0774 48.9878 37.0706 48.9225 37.0898C48.8572 37.1091 48.8019 37.153 48.7684 37.2122C48.7684 37.2837 48.6809 37.3552 48.6332 37.4267C48.5855 37.4983 48.4423 37.7684 48.3389 37.9273C48.317 37.9558 48.3013 37.9886 48.293 38.0235C48.2847 38.0585 48.2839 38.0948 48.2907 38.1301C48.2974 38.1654 48.3116 38.1988 48.3323 38.2282C48.3529 38.2576 48.3796 38.2824 48.4105 38.3007Z" fill="#231F20"></path><path d="M27.6664 18.0715C27.5885 18.0284 27.5009 18.0057 27.4118 18.0057C27.3228 18.0057 27.2352 18.0284 27.1573 18.0715L17.2704 23.2123C17.1876 23.2572 17.1186 23.3238 17.0709 23.405C17.0233 23.4863 16.9987 23.579 17 23.6731V52.0783C16.9998 52.1663 17.0224 52.2527 17.0656 52.3293C17.1088 52.4059 17.1711 52.47 17.2466 52.5153C17.3235 52.5571 17.4096 52.5789 17.4971 52.5789C17.5846 52.5789 17.6708 52.5571 17.7477 52.5153L27.6346 47.3428C27.7189 47.299 27.7895 47.2328 27.8386 47.1515C27.8877 47.0702 27.9134 46.9769 27.9129 46.8819V28.7344C27.9416 28.7878 27.9902 28.8277 28.0482 28.8456C28.5766 28.9929 29.0925 29.1815 29.5912 29.4098V47.3428C29.5922 47.4364 29.6186 47.528 29.6676 47.6078C29.7167 47.6876 29.7865 47.7525 29.8696 47.7957L39.7565 52.9047C39.83 52.9442 39.9117 52.966 39.9951 52.9682C40.0906 52.9654 40.1837 52.938 40.2656 52.8888C40.3404 52.8428 40.4024 52.7787 40.4455 52.7022C40.4887 52.6257 40.5116 52.5395 40.5121 52.4518V41.9001C40.7348 41.9875 40.9576 42.067 41.1803 42.1305H41.2519C41.3083 42.1306 41.3632 42.1119 41.4078 42.0773C41.4525 42.0428 41.4843 41.9945 41.4985 41.9399C41.508 41.9075 41.5107 41.8735 41.5066 41.8401C41.5024 41.8066 41.4914 41.7743 41.4743 41.7452C41.4571 41.7162 41.4342 41.691 41.4069 41.6711C41.3796 41.6513 41.3485 41.6373 41.3155 41.63C41.0439 41.5506 40.7781 41.4523 40.5201 41.336V24.0783C40.5181 23.9839 40.4913 23.8917 40.4424 23.8108C40.3936 23.7299 40.3244 23.6633 40.2417 23.6175L30.3548 18.4767C30.2764 18.436 30.1889 18.416 30.1005 18.4187C30.0122 18.4214 29.926 18.4466 29.8502 18.4921C29.7744 18.5375 29.7115 18.6015 29.6676 18.6781C29.6237 18.7547 29.6001 18.8413 29.5992 18.9296V28.8536C29.1442 28.6559 28.6765 28.4887 28.1993 28.353C28.148 28.3377 28.093 28.3395 28.0428 28.3581C27.9925 28.3767 27.9498 28.4112 27.9209 28.4563V18.5085C27.9188 18.4202 27.8943 18.3337 27.8498 18.2573C27.8053 18.1809 27.7422 18.117 27.6664 18.0715ZM26.871 46.6039L25.7097 47.2077L25.3677 47.3825L23.7053 48.2566L23.3632 48.4313L21.7724 49.2259L21.5577 49.3371L19.8475 50.227L19.6646 50.3224L18.0261 51.1805V23.9274L21.4702 22.1317L21.6133 22.0522L26.8869 19.311L26.871 46.6039ZM30.6014 19.7798L31.9297 20.4711L32.2718 20.6459L33.9421 21.5119L34.2841 21.6867L35.8749 22.4813L36.217 22.6561L39.4622 24.3485V40.9864L39.3986 41.05C39.3666 41.1024 39.3554 41.1649 39.3672 41.2251C39.379 41.2854 39.4129 41.3391 39.4622 41.3757V51.6493L38.1339 50.958L37.7919 50.7753L36.2011 49.9807L35.859 49.8059L34.2682 49.0113L33.9262 48.8366L32.2559 47.9705L31.9138 47.7877L30.5855 47.1044L30.6014 19.7798Z" fill="#231F20"></path><path d="M42.087 23.6572V52.0624C42.0868 52.1503 42.1094 52.2368 42.1526 52.3134C42.1958 52.39 42.2582 52.4541 42.3336 52.4994C42.4105 52.5411 42.4966 52.563 42.5842 52.563C42.6717 52.563 42.7578 52.5411 42.8347 52.4994L48.4821 49.5596L48.5934 49.5039L50.3433 48.5982L50.6456 48.4393L52.7216 47.3587C52.8059 47.3149 52.8765 47.2486 52.9256 47.1673C52.9747 47.086 53.0005 46.9928 53 46.8978V18.5085C52.9987 18.4209 52.9755 18.335 52.9324 18.2586C52.8893 18.1823 52.8278 18.1179 52.7534 18.0715C52.677 18.0283 52.5907 18.0056 52.5029 18.0056C52.4151 18.0056 52.3287 18.0283 52.2523 18.0715L42.3575 23.2122C42.277 23.2559 42.2096 23.32 42.162 23.3982C42.1145 23.4764 42.0886 23.5658 42.087 23.6572ZM51.9819 46.6038L50.6535 47.2951L50.3115 47.4778L48.6412 48.3439L48.2991 48.5187L46.7083 49.3132L46.3743 49.4881L44.7835 50.2826L44.4414 50.4654L43.1131 51.1566V42.2894C43.5668 42.2495 44.0133 42.1507 44.4414 41.9955L44.7835 41.8683C44.8143 41.8553 44.8423 41.8364 44.8658 41.8125C44.8893 41.7887 44.9078 41.7605 44.9204 41.7295C44.9329 41.6985 44.9393 41.6653 44.939 41.6319C44.9387 41.5984 44.9318 41.5654 44.9187 41.5346C44.9046 41.5017 44.8839 41.4721 44.8579 41.4475C44.8319 41.4229 44.8012 41.4039 44.7675 41.3916C44.7391 41.3776 44.7078 41.3703 44.6761 41.3703C44.6444 41.3703 44.6131 41.3776 44.5846 41.3916L44.4255 41.4472C44.0001 41.6187 43.5532 41.7309 43.0972 41.7809V23.9671L44.4255 23.2758L44.688 23.1328L46.3425 22.2747L46.6765 22.0999L48.2673 21.2656L48.6094 21.0908L50.2797 20.2247L50.6217 20.042L51.95 19.3507L51.9819 46.6038Z" fill="#231F20"></path></g><defs><clipPath id="clip0_83_467"><rect width="36" height="35" fill="white" transform="translate(17 18)"></rect></clipPath></defs></svg>