<svg xmlns="http://www.w3.org/2000/svg" width="70" height="70" viewBox="0 0 70 70" fill="none"><rect width="70" height="70" rx="35" fill="white"></rect><path d="M55 27.6312V27.4042C54.9244 27.321 55.2269 27.6312 47.2917 19.1588C47.1871 19.0601 47.0497 19.0035 46.9059 19H22.0941C21.9532 19.0157 21.8195 19.0708 21.7083 19.1588C13.7731 27.5555 14.0756 27.2454 14 27.4042V27.7825C14 27.8025 14.008 27.8218 14.0222 27.8359C14.0363 27.8501 14.0556 27.8581 14.0756 27.8581C15.4524 29.4618 32.3214 49.7954 33.7435 51.5277L33.8192 51.6033C33.8646 51.6834 33.9326 51.7483 34.0146 51.79C34.0967 51.8317 34.1892 51.8483 34.2806 51.8378H34.3563C34.4641 51.8333 34.5673 51.7929 34.6496 51.723C34.7318 51.6531 34.7883 51.5577 34.8102 51.452C55.4312 27.1697 54.9698 27.7825 54.9698 27.6312H55ZM53.4871 27.0941H47.0723L36.1566 19.9153H46.6941L53.4871 27.0941ZM30.3395 28.0472H38.7362L34.4622 48.9708L30.3395 28.0472ZM23.6978 27.1319L34.4622 20.0363L45.2266 27.1319H23.6978ZM29.3485 28.0472L33.3956 48.585L22.8581 28.0472H29.3485ZM39.6288 28.0472H46.1192L35.6044 47.8664L39.6288 28.0472ZM22.2984 19.9531H32.8888L21.973 27.1319H15.5583L22.2984 19.9531ZM15.4221 28.0472H21.7537L31.8373 47.6697L15.4221 28.0472ZM36.6786 47.8664L47.1328 28.0472H53.5476L36.6786 47.8664Z" fill="black"></path></svg>