<svg xmlns="http://www.w3.org/2000/svg" width="70" height="70" viewBox="0 0 70 70" fill="none"><rect width="70" height="70" rx="35" fill="white"></rect><g clip-path="url(#clip0_83_469)"><path d="M37.2884 18H15.6415C15.4645 18.0112 15.2987 18.0906 15.179 18.2216C15.0593 18.3526 14.9952 18.5249 15 18.7022V45.1084C14.9952 45.2858 15.0593 45.4581 15.179 45.5891C15.2987 45.72 15.4645 45.7995 15.6415 45.8106H31.6361V49.8331C31.6361 50.3186 32.1909 50.7607 32.5897 50.4313L33.9421 49.3303L34.9391 48.5241C35.0419 48.4459 35.1489 48.3736 35.2598 48.3073C35.3198 48.3439 35.3751 48.3875 35.4245 48.4374C35.7193 48.7321 36.0747 48.9662 36.3868 49.2263L37.8606 50.4313C37.9095 50.4792 37.9683 50.5161 38.0327 50.5393C38.0972 50.5625 38.1659 50.5715 38.2342 50.5657C38.3025 50.56 38.3688 50.5396 38.4284 50.5059C38.4881 50.4722 38.5399 50.4261 38.5801 50.3706C38.6595 50.306 38.7228 50.2238 38.765 50.1305C38.8071 50.0372 38.8269 49.9354 38.8228 49.8331V45.8106H54.5834C54.6651 45.8122 54.7462 45.796 54.8211 45.763C54.8959 45.7301 54.9627 45.6813 55.0168 45.6199C55.1343 45.4895 55.1965 45.3185 55.1902 45.1431V18.7022C55.1957 18.5303 55.1363 18.3627 55.0239 18.2326C54.9114 18.1025 54.7542 18.0195 54.5834 18H37.2884ZM31.6361 44.4062H16.2744V19.3957H31.6361V44.4062ZM37.5398 48.4374C36.8723 47.8999 36.2134 47.3537 35.5546 46.8076C35.4581 46.7438 35.3451 46.7098 35.2295 46.7098C35.1139 46.7098 35.0008 46.7438 34.9044 46.8076L32.9018 48.4461V19.3957H37.5398V48.4374ZM38.8142 19.3957H53.9418V44.4062H38.8228L38.8142 19.3957Z" fill="#231F20"></path><path d="M19.1785 25.9669H28.2031C28.7493 25.9669 28.7493 25.0306 28.2031 25.0306H19.1785C18.6324 25.0306 18.6324 25.9669 19.1785 25.9669Z" fill="#231F20"></path><path d="M19.1785 29.8854H28.2031C28.7493 29.8854 28.7493 28.9491 28.2031 28.9491H19.1785C18.6324 28.9491 18.6324 29.8854 19.1785 29.8854Z" fill="#231F20"></path><path d="M19.1785 33.7953H28.2031C28.7493 33.7953 28.7493 32.8677 28.2031 32.8677H19.1785C18.6324 32.8677 18.6324 33.7953 19.1785 33.7953Z" fill="#231F20"></path><path d="M19.1785 37.7224H28.2031C28.7493 37.7224 28.7493 36.7861 28.2031 36.7861H19.1785C18.6324 36.7861 18.6324 37.7224 19.1785 37.7224Z" fill="#231F20"></path><path d="M51.0897 25.0306H42.0738C41.5276 25.0306 41.5276 25.9669 42.0738 25.9669H51.0897C51.6445 25.9669 51.6445 25.0306 51.0897 25.0306Z" fill="#231F20"></path><path d="M51.0897 28.9491H42.0738C41.5276 28.9491 41.5276 29.8854 42.0738 29.8854H51.0897C51.6445 29.8854 51.6445 28.9491 51.0897 28.9491Z" fill="#231F20"></path><path d="M51.0897 32.8677H42.0738C41.5276 32.8677 41.5276 33.7953 42.0738 33.7953H51.0897C51.2018 33.7799 51.3046 33.7245 51.3789 33.6392C51.4533 33.5539 51.4943 33.4446 51.4943 33.3315C51.4943 33.2183 51.4533 33.109 51.3789 33.0237C51.3046 32.9385 51.2018 32.883 51.0897 32.8677Z" fill="#231F20"></path><path d="M51.0897 36.7861H42.0738C41.5276 36.7861 41.5276 37.7224 42.0738 37.7224H51.0897C51.6445 37.7224 51.6445 36.7861 51.0897 36.7861Z" fill="#231F20"></path></g><defs><clipPath id="clip0_83_469"><rect width="40.2249" height="32.57" fill="white" transform="translate(15 18)"></rect></clipPath></defs></svg>