<svg xmlns="http://www.w3.org/2000/svg" width="70" height="70" viewBox="0 0 70 70" fill="none"><rect width="70" height="70" rx="35" fill="white"></rect><path d="M50.9169 21.8561H41.9758V19.4662C41.9718 18.8134 41.7107 18.1884 41.2491 17.7268C40.7874 17.2651 40.1625 17.004 39.5096 17H29.9578C29.3049 17.004 28.6799 17.2651 28.2183 17.7268C27.7567 18.1884 27.4955 18.8134 27.4915 19.4662V21.8561H18.6269C18.1509 21.8551 17.6795 21.948 17.2395 22.1294C16.7995 22.3108 16.3997 22.5772 16.0628 22.9134C15.7259 23.2496 15.4586 23.6489 15.2763 24.0885C15.0939 24.5281 15 24.9993 15 25.4753V46.6711C14.998 47.0162 15.0646 47.3583 15.196 47.6775C15.3273 47.9967 15.5209 48.2865 15.7653 48.5302C16.0097 48.7739 16.3001 48.9666 16.6197 49.097C16.9392 49.2274 17.2815 49.2931 17.6266 49.29H51.8408C52.1855 49.2931 52.5275 49.2274 52.8466 49.0969C53.1657 48.9664 53.4556 48.7736 53.6994 48.5298C53.9432 48.286 54.136 47.996 54.2666 47.6769C54.3971 47.3578 54.4627 47.0159 54.4597 46.6711V25.4753C54.4752 25.0022 54.3947 24.531 54.2231 24.0899C54.0516 23.6489 53.7924 23.2471 53.4614 22.9089C53.1303 22.5707 52.7342 22.3031 52.2968 22.1221C51.8595 21.9412 51.3901 21.8507 50.9169 21.8561ZM41.052 19.4662V21.8561H39.1278V18.0384H39.586C39.9637 18.0527 40.3227 18.2067 40.5935 18.4704C40.8643 18.7342 41.0277 19.089 41.052 19.4662ZM31.4237 21.8561V18.0384H38.2116V21.8561H31.4237ZM53.5664 29.7969C53.5694 30.1417 53.5038 30.4836 53.3732 30.8027C53.2427 31.1218 53.0499 31.4118 52.8061 31.6556C52.5623 31.8994 52.2724 32.0922 51.9532 32.2227C51.6341 32.3532 51.2922 32.4189 50.9474 32.4158H47.7864V30.9498C47.7793 30.8299 47.729 30.7166 47.6447 30.631C47.5605 30.5453 47.448 30.4931 47.3282 30.4841H43.5106C43.39 30.4929 43.2766 30.5448 43.191 30.6303C43.1055 30.7158 43.0536 30.8292 43.0448 30.9498V32.4158H37.7V26.6358H53.5664V29.7969ZM43.9 31.5225H46.8319V34.9126C46.8319 35.3014 46.6775 35.6743 46.4026 35.9492C46.1276 36.2241 45.7548 36.3786 45.3659 36.3786C45.1717 36.385 44.9782 36.3514 44.7975 36.28C44.6167 36.2086 44.4526 36.1008 44.3152 35.9634C44.1777 35.826 44.07 35.6618 43.9986 35.4811C43.9272 35.3003 43.8936 35.1068 43.9 34.9126V31.5225ZM36.7685 40.5857L35.1498 39.2724C35.0639 39.1982 34.9541 39.1574 34.8406 39.1574C34.7271 39.1574 34.6173 39.1982 34.5314 39.2724L32.9126 40.5857V22.8563H36.7685V40.5857ZM22.7118 31.5225H25.6361V34.9126C25.6371 35.1048 25.6002 35.2952 25.5273 35.473C25.4545 35.6509 25.3472 35.8125 25.2117 35.9488C25.0762 36.085 24.9151 36.1931 24.7376 36.2668C24.5602 36.3406 24.3699 36.3786 24.1778 36.3786C23.9835 36.385 23.7901 36.3514 23.6093 36.28C23.4286 36.2086 23.2644 36.1008 23.127 35.9634C22.9895 35.826 22.8818 35.6618 22.8104 35.4811C22.739 35.3003 22.7054 35.1068 22.7118 34.9126V31.5225ZM26.1019 30.5986H22.2613C22.1427 30.6074 22.0312 30.6585 21.9472 30.7426C21.8631 30.8267 21.812 30.9382 21.8032 31.0567V32.5227H18.6421C18.2973 32.5258 17.9554 32.4601 17.6363 32.3296C17.3172 32.1991 17.0272 32.0063 16.7834 31.7625C16.5396 31.5187 16.3468 31.2287 16.2163 30.9096C16.0858 30.5905 16.0201 30.2486 16.0232 29.9038V26.7122H31.8819V32.4922H26.5371V31.0262C26.5392 30.9655 26.5288 30.9049 26.5066 30.8484C26.4843 30.7918 26.4506 30.7405 26.4077 30.6975C26.3647 30.6545 26.3133 30.6209 26.2568 30.5986C26.2002 30.5763 26.1397 30.5659 26.079 30.5681L26.1019 30.5986ZM28.4918 19.4968C28.4918 19.108 28.6462 18.7351 28.9211 18.4602C29.1961 18.1852 29.5689 18.0308 29.9578 18.0308H30.4159V21.8484H28.4918V19.4968ZM18.6269 22.8869H31.8819V25.8189H16.0079V25.5058C16.0007 25.1585 16.0634 24.8132 16.192 24.4906C16.3207 24.1679 16.5129 23.8743 16.7571 23.6272C17.0013 23.3802 17.2926 23.1846 17.6138 23.0522C17.935 22.9198 18.2795 22.8532 18.6269 22.8563V22.8869ZM20.3219 44.5026H16.0079V40.1886H16.466C16.5839 41.1704 17.028 42.0842 17.7272 42.7833C18.4264 43.4825 19.3401 43.9267 20.3219 44.0445V44.5026ZM51.8408 48.3585H17.6801C17.2317 48.3545 16.8029 48.1747 16.4859 47.8576C16.1689 47.5406 15.989 47.1118 15.985 46.6634V45.4342H53.5893V46.6634C53.5578 47.1125 53.3622 47.5342 53.0397 47.8482C52.7172 48.1622 52.2905 48.3466 51.8408 48.3661V48.3585ZM53.5664 44.5026H49.2524V43.9681C50.2331 43.8477 51.1454 43.4028 51.8442 42.7041C52.5429 42.0054 52.9878 41.0931 53.1082 40.1123H53.6427V44.5026H53.5664ZM53.5664 39.1579H52.5661C52.4455 39.1667 52.3321 39.2186 52.2466 39.3041C52.1611 39.3896 52.1092 39.503 52.1004 39.6236C52.0924 40.5203 51.7327 41.3779 51.0986 42.012C50.4646 42.646 49.6069 43.0058 48.7103 43.0137C48.5917 43.0225 48.4802 43.0736 48.3961 43.1577C48.312 43.2418 48.2609 43.3533 48.2521 43.4719V44.5026H21.2458V43.51C21.2367 43.3902 21.1846 43.2778 21.0989 43.1935C21.0133 43.1093 20.9 43.059 20.78 43.0519C19.8834 43.0439 19.0257 42.6842 18.3917 42.0502C17.7576 41.4161 17.3979 40.5585 17.3899 39.6618C17.3829 39.5419 17.3325 39.4286 17.2483 39.3429C17.1641 39.2573 17.0516 39.2051 16.9318 39.196H15.9316V32.286C16.2701 32.642 16.6759 32.9272 17.1254 33.1251C17.575 33.323 18.0594 33.4297 18.5505 33.439H21.7115V34.905C21.6932 35.2296 21.7413 35.5547 21.8529 35.8601C21.9645 36.1656 22.1373 36.4451 22.3606 36.6814C22.584 36.9178 22.8533 37.1061 23.1519 37.2348C23.4506 37.3635 23.7724 37.4299 24.0976 37.4299C24.4228 37.4299 24.7446 37.3635 25.0433 37.2348C25.3419 37.1061 25.6112 36.9178 25.8346 36.6814C26.058 36.4451 26.2307 36.1656 26.3423 35.8601C26.4539 35.5547 26.502 35.2296 26.4837 34.905V33.439H31.8819V41.6088C31.8793 41.7083 31.9071 41.8062 31.9617 41.8895C32.0163 41.9727 32.095 42.0373 32.1873 42.0746C32.2752 42.1186 32.3746 42.1342 32.4717 42.1191C32.5689 42.1041 32.6589 42.0591 32.7294 41.9906L34.8062 40.2955L36.8907 41.9906C37.0434 42.1509 37.1961 42.1509 37.4328 42.0746C37.5216 42.0325 37.5971 41.9668 37.651 41.8846C37.7048 41.8025 37.735 41.707 37.7382 41.6088V33.439H43.083V34.905C43.083 35.5388 43.3348 36.1467 43.7829 36.5949C44.2311 37.043 44.839 37.2948 45.4728 37.2948C46.1067 37.2948 46.7146 37.043 47.1628 36.5949C47.6109 36.1467 47.8627 35.5388 47.8627 34.905V33.439H51.0238C51.5171 33.4438 52.0059 33.3435 52.4575 33.1447C52.909 32.9459 53.3131 32.6532 53.6427 32.286V39.2189L53.5664 39.1579ZM53.5664 25.6738H37.6619V22.7418H50.9169C51.2688 22.7344 51.6185 22.7986 51.9448 22.9306C52.2711 23.0626 52.5672 23.2595 52.815 23.5095C53.0628 23.7595 53.2572 24.0572 53.3864 24.3846C53.5156 24.7121 53.5768 25.0624 53.5664 25.4142V25.6738Z" fill="black"></path></svg>