<svg xmlns="http://www.w3.org/2000/svg" width="70" height="70" viewBox="0 0 70 70" fill="none"><rect width="70" height="70" rx="35" fill="white"></rect><g clip-path="url(#clip0_83_471)"><path d="M41.3823 44.0887H55.2974C55.4337 44.0944 55.5687 44.0601 55.6857 43.9899C55.8027 43.9197 55.8966 43.8167 55.9557 43.6937C56.015 43.5741 56.0391 43.44 56.0251 43.3071C56.0111 43.1742 55.9597 43.0481 55.8767 42.9434L44.6867 28.5872C44.6199 28.5028 44.5349 28.4347 44.4379 28.3879C44.341 28.3412 44.2348 28.3171 44.1272 28.3173C44.0196 28.3175 43.9135 28.3419 43.8167 28.3886C43.7198 28.4353 43.6347 28.5032 43.5677 28.5872L41.4284 31.3255C41.0213 30.5381 40.422 29.8663 39.6861 29.3722C38.9503 28.8781 38.1016 28.5777 37.2187 28.4989C36.3358 28.4202 35.4474 28.5655 34.6356 28.9216C33.8239 29.2776 33.1152 29.8327 32.5751 30.5356L28.6257 25.2697C28.5569 25.1826 28.4687 25.1129 28.3681 25.066C28.2675 25.0192 28.1574 24.9965 28.0464 24.9998C27.9365 24.9996 27.8281 25.025 27.7298 25.0742C27.6315 25.1233 27.5461 25.1948 27.4804 25.2829L14.1445 42.9631C14.0644 43.0668 14.0152 43.1909 14.0024 43.3213C13.9896 43.4517 14.0137 43.583 14.0721 43.7003C14.1318 43.8228 14.2258 43.9253 14.3427 43.9954C14.4595 44.0655 14.5942 44.1002 14.7303 44.0953H41.3823V44.0887ZM28.0464 26.8824L39.9671 42.6801H16.1258L28.0464 26.8824ZM40.4279 32.6025L37.2288 36.7099L33.4703 31.7204C33.8565 31.088 34.4173 30.5807 35.0851 30.2596C35.7529 29.9385 36.4993 29.8172 37.2345 29.9104C37.9696 30.0036 38.6621 30.3073 39.2287 30.7849C39.7952 31.2625 40.2117 31.8937 40.4279 32.6025ZM41.7443 42.6801L38.1175 37.8749L44.1074 30.1802L53.8493 42.6866L41.7443 42.6801Z" fill="#231F20"></path></g><defs><clipPath id="clip0_83_471"><rect width="42.0021" height="19.0954" fill="white" transform="translate(14 25)"></rect></clipPath></defs></svg>