<svg xmlns="http://www.w3.org/2000/svg" width="70" height="70" viewBox="0 0 70 70" fill="none"><rect width="70" height="70" rx="35" fill="white"></rect><g clip-path="url(#clip0_83_472)"><path d="M40.6978 27.9716C40.6978 26.6749 40.3133 25.4074 39.5929 24.3293C38.8725 23.2512 37.8486 22.4109 36.6507 21.9147C35.4528 21.4185 34.1346 21.2887 32.8629 21.5416C31.5911 21.7946 30.423 22.419 29.5061 23.3358C28.5893 24.2527 27.9649 25.4209 27.7119 26.6926C27.4589 27.9643 27.5888 29.2825 28.085 30.4804C28.5812 31.6784 29.4215 32.7023 30.4996 33.4226C31.5777 34.143 32.8452 34.5275 34.1419 34.5275C35.8793 34.5231 37.5443 33.831 38.7728 32.6025C40.0013 31.374 40.6934 29.709 40.6978 27.9716ZM28.9632 27.9716C28.9632 26.9473 29.267 25.9461 29.836 25.0945C30.405 24.2429 31.2138 23.5791 32.1601 23.1871C33.1064 22.7952 34.1476 22.6926 35.1522 22.8925C36.1567 23.0923 37.0795 23.5855 37.8037 24.3097C38.528 25.034 39.0212 25.9567 39.221 26.9613C39.4208 27.9658 39.3183 29.0071 38.9263 29.9534C38.5343 30.8996 37.8706 31.7084 37.019 32.2775C36.1673 32.8465 35.1661 33.1502 34.1419 33.1502C33.4616 33.1509 32.7879 33.0175 32.1592 32.7575C31.5306 32.4975 30.9594 32.1161 30.4784 31.635C29.9974 31.154 29.616 30.5828 29.356 29.9542C29.096 29.3256 28.9625 28.6518 28.9632 27.9716Z" fill="black"></path><path d="M46.8681 44.0583C44.2077 43.4362 41.4978 43.0491 38.7696 42.9014C42.3506 35.6844 44.1686 30.671 44.1135 27.9715C44.0863 25.3353 43.0269 22.8148 41.1628 20.9506C39.2986 19.0865 36.7781 18.0272 34.1419 17.9999C32.8304 17.9926 31.5304 18.2455 30.3173 18.7441C29.1042 19.2426 28.002 19.9768 27.0746 20.9042C26.1472 21.8316 25.413 22.9338 24.9144 24.1469C24.4159 25.36 24.163 26.66 24.1703 27.9715C24.1703 30.671 25.9332 35.7395 29.4591 42.9565C26.8943 43.1041 24.349 43.4914 21.8564 44.1134C19.2671 44.8296 18 45.7662 18 46.9231C18 48.2453 19.6528 49.237 23.0134 50.0083C26.6391 50.7436 30.3323 51.0944 34.0317 51.055H34.4725C38.2813 51.0951 42.0842 50.7444 45.8214 50.0083C49.2922 49.237 51 48.2453 51 46.9231C51 45.7111 49.6778 44.7745 46.8681 44.0583ZM34.1419 19.3772C36.4204 19.3801 38.6047 20.2865 40.2158 21.8976C41.8269 23.5088 42.7333 25.6931 42.7362 27.9715C42.8464 32.5992 36.2905 44.8296 34.0317 48.9064C31.773 44.7194 25.5476 32.5992 25.5476 27.9164C25.5454 26.7898 25.7665 25.6739 26.1983 24.6332C26.6301 23.5926 27.264 22.6479 28.0632 21.8538C28.8624 21.0597 29.8112 20.4319 30.8546 20.0068C31.898 19.5817 33.0153 19.3677 34.1419 19.3772ZM19.3222 46.9231C19.3222 46.7578 19.8731 46.0967 22.187 45.4356C24.7717 44.8075 27.409 44.4202 30.0651 44.2787C31.222 46.5926 32.2137 48.5208 32.8197 49.6226C29.6003 49.5934 26.3909 49.2614 23.2337 48.631C19.9833 47.9148 19.3222 47.0884 19.3222 46.9231ZM45.5459 48.6861C42.1516 49.346 38.7016 49.6781 35.2437 49.6777C36.4558 47.5291 37.7229 45.05 38.1636 44.2787C41.0062 44.3663 43.8316 44.7541 46.5927 45.4356C49.1269 46.0967 49.6778 46.7578 49.6778 46.9782C49.6227 47.0884 48.9065 47.9699 45.5459 48.6861Z" fill="black"></path></g><defs><clipPath id="clip0_83_472"><rect width="33" height="33.0551" fill="white" transform="translate(18 18)"></rect></clipPath></defs></svg>