<svg xmlns="http://www.w3.org/2000/svg" width="70" height="70" viewBox="0 0 70 70" fill="none"><rect width="70" height="70" rx="35" fill="white"></rect><g clip-path="url(#clip0_83_473)"><path d="M51.91 40.5001C51.851 40.4201 51.7742 40.3549 51.6857 40.3098C51.5972 40.2647 51.4993 40.2408 51.4 40.2401C49.65 40.2401 48.47 39.37 47.11 38.35L46.21 37.7C44.7476 36.5797 42.9621 35.9624 41.12 35.9401C40.12 35.9401 39.39 35.9401 38.76 35.9401H33.95C33.4434 35.9401 32.9576 36.1413 32.5994 36.4995C32.2412 36.8576 32.04 37.3435 32.04 37.85C32.04 38.3566 32.2412 38.8424 32.5994 39.2006C32.9576 39.5588 33.4434 39.7601 33.95 39.7601H38.38C38.6312 39.809 38.8619 39.9326 39.0416 40.1149C39.2213 40.2971 39.3418 40.5295 39.3872 40.7814C39.4326 41.0333 39.4008 41.293 39.296 41.5266C39.1913 41.7601 39.0184 41.9565 38.8 42.09L37.15 42.53C36.58 42.67 36 42.82 35.45 42.98H35.33C32.24 43.8 31.2 44.07 30.89 44.14C30.7703 44.1508 30.6497 44.1508 30.53 44.14L23.53 39.6L22.26 38.6801H22.18L21.98 38.5701C21.849 38.5007 21.7117 38.4437 21.57 38.4L21.24 38.33C20.9623 38.2796 20.6777 38.2796 20.4 38.33C19.7342 38.3901 19.1153 38.6977 18.6653 39.1921C18.2154 39.6864 17.9673 40.3316 17.97 41.0001C17.9693 41.3503 18.0389 41.6972 18.1746 42.0201C18.3103 42.343 18.5093 42.6354 18.76 42.8801C18.9428 43.056 19.1479 43.2073 19.37 43.33L30.98 51.7401C31.0311 51.7796 31.0886 51.81 31.15 51.83H31.25C31.571 51.9451 31.909 52.006 32.25 52.0101C32.4548 52.0095 32.659 51.9893 32.86 51.95H32.95C40.3 50.07 45.57 48.74 48.18 48.1H48.26L48.48 48.0101C49.401 47.7534 50.346 47.5925 51.3 47.53C51.468 47.5274 51.6282 47.4589 51.7461 47.3391C51.864 47.2194 51.93 47.058 51.93 46.89V46.47C51.9349 46.4302 51.9349 46.3899 51.93 46.35V40.9301C51.9708 40.7884 51.9638 40.6373 51.91 40.5001ZM50.75 46.35C49.9007 46.4614 49.0591 46.625 48.23 46.84H48.15L47.93 46.92C45.31 47.57 40.05 48.9201 32.72 50.7601C32.416 50.8206 32.1012 50.7964 31.81 50.6901L20.18 42.28L20.1 42.23C19.9765 42.1615 19.8622 42.0775 19.76 41.98C19.5695 41.7911 19.4372 41.5513 19.3791 41.2893C19.321 41.0273 19.3394 40.7542 19.4321 40.5023C19.5248 40.2505 19.688 40.0306 19.9021 39.8688C20.1163 39.7071 20.3724 39.6103 20.64 39.59H20.71C20.8484 39.5603 20.9916 39.5603 21.13 39.59H21.29L21.5 39.6801L21.62 39.7501L22.87 40.65L29.99 45.2601C30.0481 45.3 30.1122 45.3304 30.18 45.35C30.4722 45.4126 30.772 45.4328 31.07 45.41H31.18L35.7 44.23H35.83C36.39 44.07 36.95 43.92 37.51 43.79L39.27 43.3201C39.3199 43.3088 39.3674 43.2884 39.41 43.2601C39.8745 43.0041 40.2477 42.6095 40.4775 42.1315C40.7073 41.6534 40.7823 41.1156 40.692 40.593C40.6018 40.0703 40.3508 39.5887 39.9741 39.2154C39.5973 38.8421 39.1135 38.5955 38.59 38.5101H33.97C33.8003 38.5101 33.6375 38.4426 33.5174 38.3226C33.3974 38.2025 33.33 38.0398 33.33 37.8701C33.33 37.7003 33.3974 37.5375 33.5174 37.4175C33.6375 37.2975 33.8003 37.23 33.97 37.23H38.8C39.43 37.23 40.2 37.23 41.14 37.23C42.7227 37.2523 44.2544 37.7933 45.5 38.77C45.79 38.97 46.08 39.19 46.36 39.4C47.6057 40.4972 49.1331 41.2245 50.77 41.5001V46.3701L50.75 46.35Z" fill="black"></path><path d="M39.94 18.66C39.9329 18.4996 39.8667 18.3475 39.754 18.233C39.6414 18.1185 39.4904 18.0498 39.33 18.04H39.26C37.1153 18.0392 35.0189 18.6769 33.238 19.8719C31.457 21.0669 30.0722 22.7651 29.26 24.7501C28.962 22.946 28.105 21.281 26.81 19.9901L26.67 19.86L26.61 19.8101C26.4913 19.7053 26.3384 19.6475 26.18 19.6475C26.0217 19.6475 25.8688 19.7053 25.75 19.8101C24.1705 21.3981 23.2559 23.5287 23.1927 25.7677C23.1295 28.0067 23.9225 30.1855 25.41 31.86L21.53 35.7401L22.2 36.4L26.08 32.52C27.7484 33.9988 29.9167 34.7875 32.1452 34.7263C34.3737 34.665 36.4955 33.7583 38.08 32.1901C38.1855 32.0697 38.2437 31.9151 38.2437 31.7551C38.2437 31.595 38.1855 31.4404 38.08 31.3201C36.6913 29.9341 34.878 29.0539 32.93 28.8201C34.9998 28.0505 36.7827 26.6628 38.0368 24.8452C39.2909 23.0276 39.9553 20.8682 39.94 18.66ZM36.7701 31.73C35.3909 32.8934 33.6381 33.5199 31.8339 33.4941C30.0297 33.4684 28.2955 32.7923 26.95 31.59L26.86 31.5101C26.8403 31.5141 26.8198 31.5141 26.8 31.5101L26.7 31.42L26.61 31.34L26.43 31.14L26.33 31.03C25.1297 29.6792 24.4559 27.9413 24.432 26.1343C24.4081 24.3273 25.0358 22.5722 26.2 21.1901C27.3271 22.4434 27.9985 24.0403 28.1056 25.7225C28.2126 27.4047 27.7491 29.0739 26.79 30.46C26.7079 30.5829 26.67 30.7301 26.6828 30.8773C26.6955 31.0246 26.758 31.1631 26.86 31.27C26.9667 31.3762 27.1073 31.4415 27.2573 31.4543C27.4073 31.4671 27.5569 31.4266 27.68 31.34C29.0291 30.4015 30.6489 29.9314 32.2908 30.0018C33.9328 30.0723 35.5063 30.6794 36.7701 31.73ZM29.7701 28.16C29.7701 27.81 29.85 27.4501 29.92 27.0701C30.2996 24.9839 31.3662 23.0846 32.9501 21.6747C34.5339 20.2649 36.5439 19.4254 38.66 19.29C38.5215 21.605 37.5375 23.7885 35.8949 25.4256C34.2522 27.0627 32.0655 28.0394 29.75 28.17L29.7701 28.16Z" fill="black"></path></g><defs><clipPath id="clip0_83_473"><rect width="34.03" height="34.11" fill="white" transform="translate(18 18)"></rect></clipPath></defs></svg>