<svg xmlns="http://www.w3.org/2000/svg" width="1087" height="52" viewBox="0 0 1087 52" fill="none"><path d="M547.423 23.9101C547.319 23.4981 547.167 23.0997 546.971 22.7231V22.5535L546.349 21.7339C545.983 21.3588 545.552 21.0524 545.077 20.8295C545.019 20.7473 544.953 20.6716 544.879 20.6034L544.512 20.3208C543.951 19.9739 543.306 19.7881 542.647 19.7838C542.207 19.7807 541.77 19.8377 541.346 19.9534C540.933 20.0525 540.534 20.2045 540.159 20.4056C539.675 20.6511 539.236 20.9759 538.859 21.3665C538.587 21.6918 538.332 22.0314 538.096 22.3839C538.014 22.4763 537.947 22.5813 537.898 22.6948C537.631 23.1735 537.431 23.6872 537.305 24.221C537.221 24.6598 537.164 25.1035 537.135 25.5494C537.121 25.6714 537.121 25.7946 537.135 25.9167C537.176 26.7892 537.417 27.6405 537.842 28.4038C538.274 29.1371 538.875 29.7571 539.594 30.2126C540.332 30.676 541.182 30.9299 542.053 30.9474H542.392C542.83 30.9188 543.265 30.8527 543.692 30.7496L544.286 30.4953L544.879 30.2408L545.19 30.0148C545.539 29.7754 545.869 29.511 546.179 29.2234C546.477 28.8944 546.75 28.545 546.999 28.1777L547.168 27.8668C547.358 27.4738 547.518 27.0677 547.649 26.6515C547.8 25.7331 547.723 24.7913 547.423 23.9101Z" fill="black"></path><path d="M0.406749 26.1994C137.196 29.3648 274.212 27.5277 411.059 27.1603C438.19 27.1603 465.351 26.9059 492.482 26.3407C492.614 26.3114 492.732 26.238 492.817 26.1327C492.901 26.0273 492.947 25.8963 492.947 25.7613C492.947 25.6263 492.901 25.4953 492.817 25.3899C492.732 25.2846 492.614 25.2112 492.482 25.1819C363.634 22.3557 234.475 23.9666 105.571 24.4754C70.5256 24.4754 35.4521 24.8145 0.406749 25.4928C0.329975 25.5147 0.262442 25.5611 0.214358 25.6248C0.166274 25.6886 0.140259 25.7663 0.140259 25.8461C0.140259 25.9259 0.166274 26.0036 0.214358 26.0674C0.262442 26.1311 0.329975 26.1774 0.406749 26.1994Z" fill="black"></path><path d="M441.808 9.1572C458.002 16.675 476.203 21.2535 493.274 26.369L492.85 23.2601C475.044 31.2301 455.289 38.0413 438.84 48.6962C438.644 48.8159 438.497 49.002 438.426 49.2207C438.356 49.4394 438.366 49.6762 438.455 49.8882C438.543 50.1002 438.705 50.2733 438.911 50.3761C439.117 50.4789 439.352 50.5046 439.575 50.4485C458.483 44.9656 476.74 34.5368 494.574 26.3407C495.987 25.6907 495.478 23.5145 494.178 23.2036C477.221 18.2859 459.641 10.3442 442.034 8.45064C441.61 8.45064 441.412 9.10068 441.808 9.29852L441.808 9.1572Z" fill="black"></path><path d="M34.6888 25.1253C24.0056 17.0423 12.2768 10.2311 1.28272 2.91112C0.802256 2.57197 0.208744 3.33506 0.660941 3.73073C10.5502 12.8685 21.936 20.2391 34.3214 25.521C34.6323 25.521 34.7736 25.1536 34.5475 24.984L34.6888 25.1253Z" fill="black"></path><path d="M33.2756 26.2841C28.3768 29.8708 23.6605 33.7005 19.1444 37.7586C13.1528 42.535 6.90685 46.9156 0.576087 51.2115C0.498228 51.2814 0.446998 51.3761 0.431134 51.4795C0.415269 51.5829 0.435751 51.6886 0.489083 51.7786C0.542415 51.8686 0.625299 51.9373 0.723618 51.973C0.821937 52.0088 0.929609 52.0093 1.02828 51.9746C12.3332 45.6156 26.097 37.476 34.0104 26.9907C34.3213 26.5667 33.7278 26.0297 33.3039 26.2841L33.2756 26.2841Z" fill="black"></path><path d="M59.2487 25.5211C48.8482 18.0881 38.8151 10.0616 28.1602 2.91124C27.8493 2.68514 27.4536 3.19387 27.7362 3.44823C37.5211 11.8088 47.9125 19.4322 58.8248 26.2559C59.3053 26.5668 59.7009 25.832 59.277 25.5211L59.2487 25.5211Z" fill="black"></path><path d="M55.6875 26.0865C45.9935 33.152 37.5148 41.9982 28.1317 49.2899C27.623 49.6855 28.1317 50.5051 28.6405 50.166C38.5323 44.0896 49.6394 36.4022 56.1962 26.5952C56.3941 26.2843 55.9984 25.8604 55.6875 26.0865Z" fill="black"></path><path d="M70.1298 9.10096C69.4889 9.22625 68.882 9.48635 68.3493 9.86403L67.7275 10.4575C67.3731 10.8993 67.1744 11.4457 67.1623 12.012C67.1225 12.4408 67.2323 12.8702 67.4731 13.2273C67.6232 13.6413 67.9002 13.9973 68.2645 14.2447C68.6219 14.5627 69.0472 14.7947 69.508 14.923C69.9805 15.129 70.4905 15.2348 71.0059 15.2339L72.0517 15.2339C72.6925 15.1086 73.2995 14.8485 73.8322 14.4708L74.454 13.849C74.8033 13.4022 75.0101 12.8606 75.0475 12.2946C75.0723 11.876 74.9634 11.4603 74.7366 11.1076C74.5668 10.7048 74.2938 10.3538 73.9452 10.0901C73.5738 9.77696 73.1404 9.54582 72.6734 9.41184C72.201 9.20585 71.6909 9.1 71.1755 9.10096L70.1298 9.10096Z" fill="black"></path><path d="M96.8658 9.55307C96.3111 9.64008 95.7867 9.86345 95.3396 10.2031L94.7744 10.7401C94.463 11.1236 94.2933 11.6027 94.2939 12.0967C94.2669 12.4633 94.3559 12.8291 94.5483 13.1424C94.6981 13.4943 94.9427 13.7976 95.2549 14.0185C95.5538 14.3081 95.9245 14.513 96.3288 14.612C96.7498 14.7859 97.2017 14.8724 97.6571 14.8664C97.968 14.8664 98.2507 14.8664 98.5615 14.8664C99.1185 14.7699 99.6429 14.5368 100.088 14.1881L100.653 13.6794C100.952 13.2869 101.129 12.8151 101.162 12.3228C101.182 11.9529 101.083 11.5862 100.879 11.2771C100.731 10.9242 100.498 10.6135 100.201 10.3727C99.8726 10.1092 99.4991 9.9081 99.0985 9.77917C98.6865 9.6083 98.2445 9.5218 97.7985 9.5248L96.8658 9.55307Z" fill="black"></path><path d="M122.924 10.6552C122.682 10.8348 122.482 11.0637 122.335 11.3269C122.189 11.5901 122.101 11.8813 122.076 12.1813C122.053 12.4726 122.133 12.7628 122.302 13.0009C122.419 13.2859 122.603 13.5381 122.839 13.7358C123.096 13.9469 123.394 14.101 123.715 14.188C124.055 14.3328 124.42 14.4096 124.789 14.4141C125.488 14.4432 126.175 14.234 126.739 13.8206C126.984 13.6509 127.188 13.428 127.335 13.1686C127.481 12.9093 127.568 12.6201 127.587 12.3227C127.61 12.0264 127.541 11.7302 127.389 11.4748C127.268 11.1924 127.073 10.9482 126.824 10.7682C126.576 10.5387 126.275 10.3737 125.948 10.2878C125.619 10.1399 125.263 10.0629 124.902 10.0617C124.198 10.0545 123.508 10.2615 122.924 10.6552Z" fill="black"></path><path d="M1085.84 25.8011C949.048 22.6357 812.032 24.4728 675.186 24.8402C648.054 24.8402 620.894 25.0945 593.762 25.6598C593.63 25.6891 593.512 25.7624 593.427 25.8678C593.343 25.9731 593.297 26.1041 593.297 26.2392C593.297 26.3742 593.343 26.5052 593.427 26.6105C593.512 26.7159 593.63 26.7892 593.762 26.8185C722.61 29.6448 851.769 28.0338 980.673 27.5251C1015.72 27.5251 1050.79 27.186 1085.84 26.5077C1085.91 26.4857 1085.98 26.4394 1086.03 26.3756C1086.08 26.3119 1086.1 26.2342 1086.1 26.1544C1086.1 26.0745 1086.08 25.9969 1086.03 25.9331C1085.98 25.8694 1085.91 25.823 1085.84 25.8011Z" fill="black"></path><path d="M644.436 42.843C628.242 35.3253 610.041 30.7468 592.97 25.6313L593.394 28.7401C611.2 20.7702 630.955 13.9589 647.404 3.30404C647.6 3.18435 647.747 2.99826 647.818 2.77955C647.888 2.56084 647.878 2.32401 647.79 2.11202C647.701 1.90003 647.539 1.72692 647.333 1.62413C647.127 1.52133 646.892 1.49566 646.669 1.55176C627.761 7.03466 609.504 17.4635 591.67 25.6595C590.257 26.3096 590.766 28.4858 592.066 28.7967C609.023 33.7143 626.603 41.656 644.21 43.5496C644.634 43.5496 644.832 42.8996 644.436 42.7017L644.436 42.843Z" fill="black"></path><path d="M1051.56 26.8752C1062.24 34.9582 1073.97 41.7694 1084.96 49.0894C1085.44 49.4285 1086.04 48.6654 1085.58 48.2698C1075.69 39.132 1064.31 31.7614 1051.92 26.4795C1051.61 26.4795 1051.47 26.8469 1051.7 27.0165L1051.56 26.8752Z" fill="black"></path><path d="M1052.97 25.7161C1057.87 22.1294 1062.58 18.2998 1067.1 14.2416C1073.09 9.46528 1079.34 5.08463 1085.67 0.788756C1085.75 0.718886 1085.8 0.624181 1085.81 0.520778C1085.83 0.417374 1085.81 0.311661 1085.75 0.221663C1085.7 0.131665 1085.62 0.0629519 1085.52 0.0272129C1085.42 -0.00852616 1085.31 -0.00908254 1085.22 0.0256604C1073.91 6.38469 1060.15 14.5243 1052.23 25.0096C1051.92 25.4335 1052.52 25.9705 1052.94 25.7161L1052.97 25.7161Z" fill="black"></path><path d="M1027 26.4794C1037.4 33.9124 1047.43 41.9389 1058.08 49.0892C1058.39 49.3153 1058.79 48.8066 1058.51 48.5523C1048.72 40.1917 1038.33 32.5683 1027.42 25.7445C1026.94 25.4337 1026.54 26.1685 1026.97 26.4794L1027 26.4794Z" fill="black"></path><path d="M1030.56 25.9138C1040.25 18.8482 1048.73 10.0021 1058.11 2.71038C1058.62 2.31471 1058.11 1.49511 1057.6 1.83425C1047.71 7.91066 1036.6 15.598 1030.05 25.4051C1029.85 25.7159 1030.25 26.1399 1030.56 25.9138Z" fill="black"></path><path d="M1016.11 42.8995C1016.76 42.7742 1017.36 42.5141 1017.89 42.1365L1018.52 41.543C1018.87 41.1012 1019.07 40.5548 1019.08 39.9885C1019.12 39.5597 1019.01 39.1303 1018.77 38.7732C1018.62 38.3592 1018.34 38.0032 1017.98 37.7558C1017.62 37.4378 1017.2 37.2058 1016.74 37.0775C1016.26 36.8715 1015.75 36.7656 1015.24 36.7666L1014.19 36.7666C1013.55 36.8919 1012.94 37.152 1012.41 37.5297L1011.79 38.1515C1011.44 38.5983 1011.23 39.1399 1011.2 39.7059C1011.17 40.1245 1011.28 40.5402 1011.51 40.8929C1011.68 41.2957 1011.95 41.6466 1012.3 41.9104C1012.67 42.2235 1013.1 42.4547 1013.57 42.5886C1014.04 42.7946 1014.55 42.9005 1015.07 42.8995L1016.11 42.8995Z" fill="black"></path><path d="M989.378 42.4472C989.933 42.3602 990.457 42.1368 990.904 41.7971L991.47 41.2602C991.781 40.8767 991.951 40.3976 991.95 39.9036C991.977 39.5369 991.888 39.1711 991.696 38.8578C991.546 38.506 991.301 38.2026 990.989 37.9817C990.69 37.6921 990.32 37.4873 989.915 37.3882C989.494 37.2144 989.042 37.1278 988.587 37.1338C988.276 37.1338 987.993 37.1338 987.683 37.1338C987.126 37.2303 986.601 37.4634 986.156 37.8122L985.591 38.3209C985.292 38.7134 985.115 39.1852 985.082 39.6775C985.062 40.0473 985.161 40.414 985.365 40.7232C985.513 41.076 985.746 41.3867 986.043 41.6276C986.371 41.891 986.745 42.0921 987.146 42.2211C987.558 42.3919 988 42.4784 988.446 42.4754L989.378 42.4472Z" fill="black"></path><path d="M963.32 41.3451C963.562 41.1655 963.762 40.9365 963.909 40.6733C964.055 40.4102 964.143 40.1189 964.168 39.8189C964.191 39.5276 964.111 39.2375 963.942 38.9993C963.825 38.7143 963.641 38.4621 963.405 38.2645C963.148 38.0534 962.85 37.8993 962.529 37.8123C962.189 37.6675 961.824 37.5906 961.455 37.5862C960.756 37.557 960.069 37.7663 959.505 38.1797C959.26 38.3494 959.056 38.5722 958.909 38.8316C958.763 39.091 958.676 39.3802 958.657 39.6776C958.634 39.9739 958.703 40.27 958.855 40.5255C958.976 40.8078 959.171 41.0521 959.42 41.232C959.668 41.4616 959.969 41.6265 960.296 41.7125C960.625 41.8603 960.981 41.9374 961.342 41.9386C962.046 41.9458 962.736 41.7388 963.32 41.3451Z" fill="black"></path></svg>