<svg xmlns="http://www.w3.org/2000/svg" width="389" height="115" viewBox="0 0 389 115" fill="none"><path fill-rule="evenodd" clip-rule="evenodd" d="M34.0481 45.1163C35.4281 35.8263 42.7881 33.6461 47.0481 34.2662C53.6881 35.2462 57.968 40.4464 58.388 48.0363C58.8081 55.6266 58.358 62.7462 46.0481 63.8263C33.738 64.9064 32.0481 57.9464 34.0481 45.1163ZM39.848 47.0558C40.568 42.3458 44.308 41.236 46.468 41.5558C49.838 42.046 51.968 44.7062 52.188 48.546C52.4079 52.3859 52.1579 56.0358 45.928 56.546C39.698 57.0558 38.848 53.566 39.848 47.0558Z" fill="black"></path><path d="M31.6181 20.6858L25.5681 4.3658C25.462 4.0499 25.4764 3.70591 25.6087 3.40004C25.741 3.09417 25.9818 2.84802 26.2846 2.709C26.5875 2.56998 26.9311 2.54792 27.2493 2.64702C27.5674 2.74612 27.8377 2.95939 28.0081 3.24581L36.3981 18.4958C36.5538 18.8112 36.6446 19.1547 36.6652 19.5059C36.6858 19.857 36.6358 20.2088 36.518 20.5403C36.4003 20.8717 36.2172 21.1762 35.9797 21.4357C35.7422 21.6952 35.455 21.9044 35.1352 22.0509C34.8154 22.1974 34.4694 22.2783 34.1178 22.2887C33.7662 22.2992 33.4161 22.239 33.0881 22.1117C32.7602 21.9844 32.4611 21.7926 32.2086 21.5477C31.9561 21.3028 31.7553 21.0097 31.6181 20.6858Z" fill="black"></path><path d="M45.828 18.3662L48.828 1.07626C48.8979 0.74882 49.086 0.458647 49.3565 0.261319C49.627 0.0639901 49.9607 -0.0266352 50.2939 0.00680211C50.627 0.0402395 50.9361 0.195385 51.162 0.442532C51.3878 0.68968 51.5146 1.01146 51.518 1.34625L51.038 18.8863C51.0171 19.2399 50.9249 19.5856 50.7671 19.9027C50.6093 20.2199 50.389 20.5019 50.1195 20.7318C49.85 20.9617 49.5369 21.1348 49.1988 21.2407C48.8608 21.3466 48.5049 21.3831 48.1524 21.348C47.7999 21.313 47.4581 21.2071 47.1475 21.0367C46.837 20.8663 46.564 20.635 46.3451 20.3565C46.1261 20.078 45.9657 19.7582 45.8734 19.4162C45.7811 19.0742 45.7589 18.7171 45.808 18.3662H45.828Z" fill="black"></path><path d="M59.7981 21.2264L69.0981 5.63637C69.3459 5.26363 69.7238 4.99661 70.1579 4.8874C70.5919 4.7782 71.0511 4.83463 71.4458 5.04573C71.8406 5.25683 72.1425 5.60742 72.2927 6.0291C72.4428 6.45077 72.4305 6.91329 72.2581 7.32637L64.4281 23.6864C64.2714 24.0024 64.0528 24.2837 63.7852 24.5135C63.5176 24.7434 63.2065 24.917 62.8705 25.0242C62.5344 25.1313 62.1802 25.1697 61.829 25.1372C61.4777 25.1046 61.1366 25.0017 60.826 24.8347C60.5153 24.6676 60.2414 24.4397 60.0206 24.1647C59.7998 23.8896 59.6366 23.5729 59.5407 23.2334C59.4448 22.894 59.4182 22.5387 59.4624 22.1887C59.5066 21.8388 59.6208 21.5013 59.7981 21.1964V21.2264Z" fill="black"></path><path d="M70.768 29.8359L85.768 24.8359C86.0285 24.7426 86.3147 24.7509 86.5694 24.8592C86.824 24.9674 87.0286 25.1677 87.1421 25.4201C87.2557 25.6724 87.27 25.9584 87.1821 26.2208C87.0942 26.4832 86.9106 26.7029 86.668 26.8359L72.918 34.6859C72.5982 34.8645 72.2447 34.9746 71.8801 35.0091C71.5154 35.0437 71.1476 35.002 70.8 34.8867C70.4523 34.7714 70.1324 34.5851 69.8607 34.3394C69.589 34.0938 69.3713 33.7944 69.2216 33.4601C69.0719 33.1258 68.9934 32.7641 68.991 32.3978C68.9887 32.0315 69.0626 31.6688 69.208 31.3326C69.3535 30.9965 69.5673 30.6943 69.8358 30.4452C70.1044 30.1961 70.4218 30.0057 70.768 29.886V29.8359Z" fill="black"></path><path d="M74.198 46.3464L89.198 49.0564C89.5166 49.1249 89.799 49.3079 89.9916 49.5708C90.1842 49.8337 90.2735 50.1582 90.2427 50.4826C90.2118 50.807 90.063 51.1088 89.8243 51.3307C89.5857 51.5527 89.2738 51.6792 88.948 51.6864L73.668 51.5864C73.3035 51.5818 72.9438 51.5018 72.6117 51.3513C72.2796 51.2008 71.9823 50.9831 71.7385 50.712C71.4947 50.4409 71.3096 50.1223 71.1951 49.7761C71.0805 49.43 71.0389 49.0639 71.0729 48.7008C71.1068 48.3378 71.2156 47.9858 71.3923 47.6669C71.5691 47.348 71.81 47.0692 72.0998 46.848C72.3897 46.6268 72.7222 46.468 73.0764 46.3817C73.4306 46.2954 73.7989 46.2834 74.158 46.3464H74.198Z" fill="black"></path><path d="M71.888 62.7462L83.4981 70.4162C83.6981 70.5876 83.8339 70.822 83.883 71.0808C83.9321 71.3397 83.8916 71.6075 83.7682 71.8403C83.6449 72.0731 83.4459 72.2569 83.2042 72.3616C82.9624 72.4662 82.6922 72.4855 82.438 72.4162L69.438 67.4162C69.0995 67.2768 68.7936 67.0685 68.5399 66.8045C68.2861 66.5405 68.09 66.2267 67.9641 65.8828C67.8382 65.539 67.7852 65.1728 67.8084 64.8074C67.8317 64.442 67.9307 64.0854 68.0991 63.7603C68.2676 63.4352 68.5018 63.1487 68.787 62.919C69.0721 62.6894 69.4019 62.5215 69.7554 62.4261C70.109 62.3307 70.4784 62.3099 70.8404 62.365C71.2024 62.4201 71.5489 62.5499 71.858 62.7462H71.888Z" fill="black"></path><path d="M64.328 74.3762L71.728 88.6162C71.8791 88.8964 71.9184 89.2234 71.8382 89.5315C71.758 89.8395 71.5642 90.1058 71.2957 90.2768C71.0271 90.4478 70.7039 90.5108 70.3908 90.4532C70.0777 90.3956 69.7981 90.2216 69.608 89.9662L59.888 77.1962C59.6655 76.9054 59.5059 76.5716 59.4193 76.2159C59.3328 75.8601 59.3211 75.4903 59.3852 75.1298C59.4492 74.7693 59.5876 74.4261 59.7914 74.122C59.9952 73.8179 60.26 73.5594 60.5691 73.3631C60.8781 73.1669 61.2246 73.037 61.5866 72.9818C61.9485 72.9266 62.3179 72.9473 62.6714 73.0426C63.0249 73.1379 63.3548 73.3056 63.64 73.5352C63.9251 73.7648 64.1595 74.0512 64.328 74.3762Z" fill="black"></path><path d="M51.0681 79.686L49.6381 94.896C49.6004 95.1876 49.4578 95.4555 49.2369 95.6496C49.0161 95.8437 48.7321 95.9507 48.4381 95.9507C48.144 95.9507 47.8601 95.8437 47.6392 95.6496C47.4184 95.4555 47.2758 95.1876 47.2381 94.896L45.8081 79.686C45.7763 79.3213 45.8206 78.954 45.9383 78.6074C46.056 78.2608 46.2445 77.9425 46.4918 77.6727C46.7392 77.4028 47.0399 77.1874 47.375 77.0399C47.71 76.8925 48.072 76.8164 48.4381 76.8164C48.8041 76.8164 49.1662 76.8925 49.5012 77.0399C49.8363 77.1874 50.137 77.4028 50.3843 77.6727C50.6317 77.9425 50.8201 78.2608 50.9379 78.6074C51.0556 78.954 51.0999 79.3213 51.0681 79.686Z" fill="black"></path><path d="M32.868 77.2762L25.608 92.9362C25.4686 93.2068 25.2353 93.4172 24.9519 93.528C24.6684 93.6388 24.3543 93.6423 24.0684 93.538C23.7825 93.4337 23.5445 93.2287 23.399 92.9614C23.2534 92.6942 23.2105 92.383 23.278 92.0862L27.928 75.4662C28.0243 75.1137 28.1928 74.785 28.4227 74.5009C28.6527 74.2168 28.9391 73.9836 29.2639 73.816C29.5887 73.6484 29.9447 73.55 30.3095 73.5271C30.6742 73.5043 31.0398 73.5574 31.3829 73.6831C31.7261 73.8089 32.0394 74.0045 32.3031 74.2576C32.5667 74.5107 32.7749 74.8158 32.9145 75.1536C33.0541 75.4913 33.1221 75.8544 33.1141 76.2198C33.1061 76.5852 33.0223 76.9449 32.868 77.2762Z" fill="black"></path><path d="M21.5881 68.7861L6.92811 75.2261C6.62468 75.375 6.27545 75.4009 5.95341 75.2983C5.63136 75.1957 5.36142 74.9726 5.20002 74.6756C5.03863 74.3787 4.99826 74.0308 5.08735 73.7048C5.17644 73.3787 5.38812 73.0997 5.67811 72.9261L19.0881 64.1661C19.3927 63.9804 19.7319 63.8586 20.0851 63.8082C20.4383 63.7577 20.7981 63.7797 21.1425 63.8726C21.4869 63.9656 21.8089 64.1277 22.0887 64.349C22.3685 64.5704 22.6004 64.8463 22.7701 65.1601C22.9399 65.4739 23.0441 65.8189 23.0763 66.1742C23.1086 66.5295 23.0681 66.8877 22.9576 67.2269C22.847 67.5661 22.6686 67.8792 22.4331 68.1473C22.1977 68.4153 21.9102 68.6327 21.5881 68.7861Z" fill="black"></path><path d="M17.328 52.2962L0.948014 50.0962C0.674249 50.0494 0.426992 49.9043 0.252641 49.6881C0.07829 49.4719 -0.0111621 49.1995 0.00111495 48.9221C0.013392 48.6446 0.126528 48.3812 0.319291 48.1812C0.512055 47.9813 0.771194 47.8586 1.04802 47.8362L17.548 47.0462C17.9159 47.0255 18.2841 47.082 18.6289 47.2122C18.9736 47.3423 19.2873 47.5432 19.5497 47.8019C19.8121 48.0606 20.0175 48.3714 20.1526 48.7142C20.2877 49.057 20.3495 49.4244 20.3341 49.7925C20.3187 50.1607 20.2263 50.5216 20.063 50.8519C19.8997 51.1823 19.6691 51.4748 19.3859 51.7106C19.1028 51.9464 18.7734 52.1204 18.419 52.2212C18.0645 52.3221 17.6929 52.3476 17.328 52.2962Z" fill="black"></path><path d="M20.258 31.256L5.69804 20.616C5.56671 20.5366 5.45232 20.432 5.3614 20.3084C5.27048 20.1847 5.20481 20.0444 5.16813 19.8954C5.13145 19.7463 5.1245 19.5915 5.14765 19.4398C5.1708 19.288 5.2236 19.1424 5.30305 19.011C5.3825 18.8797 5.48704 18.7653 5.61069 18.6744C5.73435 18.5835 5.87468 18.5178 6.02372 18.4811C6.17276 18.4445 6.32759 18.4375 6.47932 18.4606C6.63105 18.4838 6.77671 18.5366 6.90803 18.616L23.008 26.746C23.3154 26.92 23.5846 27.1542 23.7995 27.4345C24.0145 27.7148 24.1707 28.0355 24.259 28.3775C24.3472 28.7195 24.3657 29.0758 24.3133 29.4251C24.2609 29.7744 24.1386 30.1096 23.9538 30.4106C23.7691 30.7116 23.5255 30.9724 23.2378 31.1772C22.95 31.3821 22.624 31.5269 22.2791 31.603C21.9341 31.6791 21.5774 31.6849 21.2302 31.6202C20.883 31.5554 20.5523 31.4214 20.258 31.226V31.256Z" fill="black"></path><path d="M48.188 20.3259C37.188 18.8859 24.598 22.9959 21.698 34.7559C20.854 38.4913 20.3287 42.2916 20.128 46.1159C19.748 53.4559 19.908 61.5359 23.918 67.7559C29.158 75.4859 39.478 78.7559 48.568 78.0359C63.908 76.5759 69.988 65.6759 71.158 51.3959C71.4247 48.0323 71.4615 44.6545 71.268 41.2859C71.068 37.2359 70.118 33.1059 67.798 29.9159C63.358 23.6759 55.518 21.4759 48.188 20.3259ZM48.478 18.3259C56.398 19.6559 65.478 20.9159 70.958 27.4759C77.018 34.0459 77.028 43.4759 76.508 51.8159C75.418 67.9559 66.398 82.1359 48.658 81.3659C36.508 81.0059 22.598 76.5859 18.118 64.0859C15.788 58.2959 15.308 51.8859 15.458 45.7359C15.5522 41.5619 16.1532 37.4149 17.248 33.3859C21.248 19.7559 35.958 16.1959 48.478 18.3259Z" fill="black"></path><path d="M211.901 76.1787C200.651 55.9987 191.181 35.9187 181.531 14.4887H183.311L150.811 82.3987L148.901 79.4887C170.331 77.4887 190.581 76.2987 211.901 76.1787ZM217.901 79.6587C197.591 80.8887 169.111 82.7787 149.081 83.4887C148.819 83.4994 148.556 83.4583 148.31 83.3675C148.063 83.2768 147.836 83.1383 147.643 82.96C147.45 82.7817 147.294 82.567 147.184 82.3283C147.074 82.0895 147.012 81.8315 147.001 81.5687C146.989 81.2233 147.061 80.88 147.211 80.5687L180.601 13.1087C180.838 12.6342 181.253 12.2728 181.755 12.1041C182.258 11.9353 182.807 11.9729 183.281 12.2087C183.661 12.3917 183.97 12.6937 184.161 13.0687C194.281 32.1287 208.101 60.0687 217.901 79.6287V79.6587Z" fill="black"></path><path fill-rule="evenodd" clip-rule="evenodd" d="M164.651 72.1585L200.651 70.8284C200.936 70.825 201.216 70.7484 201.463 70.6063C201.71 70.4637 201.916 70.2606 202.063 70.0159C202.209 69.7718 202.29 69.4935 202.299 69.2088C202.307 68.9237 202.243 68.6414 202.111 68.3885L183.061 31.9285C182.916 31.6517 182.695 31.4212 182.425 31.2635C182.155 31.1058 181.846 31.0272 181.533 31.0369C181.221 31.0462 180.917 31.1429 180.657 31.3167C180.396 31.4901 180.19 31.7332 180.061 32.0184L163.061 69.8084C162.946 70.0677 162.898 70.3524 162.923 70.6356C162.947 70.9183 163.044 71.1903 163.203 71.4256C163.362 71.661 163.579 71.8519 163.832 71.9798C164.086 72.1082 164.368 72.1698 164.651 72.1585ZM189.681 61.8983L182.901 48.8983C182.828 48.7264 182.705 48.5809 182.547 48.4803C182.39 48.3797 182.206 48.3289 182.019 48.3343C181.833 48.3397 181.652 48.4012 181.501 48.5106C181.35 48.62 181.235 48.7728 181.171 48.9481L175.171 62.4183C175.107 62.5638 175.081 62.723 175.095 62.8817C175.109 63.0399 175.163 63.1922 175.252 63.3241C175.314 63.4168 175.392 63.4974 175.482 63.5623C175.521 63.5897 175.561 63.6141 175.603 63.6356C175.745 63.7083 175.902 63.7435 176.061 63.7381L188.891 63.2581C189.048 63.2528 189.201 63.2069 189.336 63.1263C189.47 63.0452 189.582 62.932 189.661 62.7962C189.74 62.6605 189.783 62.5067 189.787 62.3499C189.79 62.1927 189.754 62.0374 189.681 61.8983Z" fill="black"></path><path d="M155.541 81.1187L151.621 98.4886H160.661L159.311 81.1187H155.541Z" fill="black"></path><path d="M206.761 79.4487L207.591 95.6887L216.131 94.3387L210.531 79.4487H206.761Z" fill="black"></path><path d="M182.131 79.8184L180.321 97.1884L189.561 98.1184L185.901 79.8184H182.131Z" fill="black"></path><path d="M168.851 79.8184L167.011 98.4884L175.691 97.6984L172.271 79.8184H168.851Z" fill="black"></path><path d="M196.141 79.4487L194.301 98.1187L202.971 97.3287L199.561 79.4487H196.141Z" fill="black"></path><path d="M353.929 32.6431C347.43 27.0564 339.076 24.1029 330.509 24.3631C320.049 24.8231 311.599 33.3631 305.939 41.7131C302.367 46.963 300.519 53.1946 300.649 59.543C301.209 75.963 317.579 93.3731 334.789 92.2131C343.649 91.6231 351.629 86.463 357.239 79.673C362.979 72.383 367.699 63.0531 366.539 53.5731C365.489 45.1631 360.189 38.173 353.969 32.623L353.929 32.6431ZM357.469 28.7531C364.869 35.4331 371.119 44.6531 371.549 54.9631C371.979 65.2731 367.199 74.8131 361.099 82.8331C351.419 95.1031 334.929 101.493 320.039 94.9931C310.764 90.7766 303.148 83.6065 298.379 74.6031C295.37 68.9313 293.933 62.558 294.216 56.1438C294.499 49.7295 296.492 43.5076 299.989 38.123C314.669 15.043 336.569 9.51305 357.469 28.7531Z" fill="black"></path><path d="M325.509 67.2632C328.199 69.3832 335.509 74.2632 342.299 65.6532C349.089 57.0432 344.449 49.0932 338.139 45.4932C331.829 41.8932 324.069 45.0532 320.899 53.8632C318.929 59.4232 321.229 63.8832 325.509 67.2632Z" fill="black"></path><path d="M322.049 72.0033C328.049 77.2533 335.679 79.9433 342.489 74.4133C348.149 69.8533 352.549 61.9433 351.229 54.7533C349.719 45.9033 339.839 37.3233 330.609 38.7533C321.669 40.0633 314.169 50.8133 314.609 59.7533C315.029 64.7533 318.239 68.8233 321.999 72.0033H322.049ZM319.999 74.5933C312.479 69.2233 308.179 60.4333 311.299 51.3033C313.119 45.7033 316.299 40.4333 321.299 37.0033C337.649 25.1033 360.659 44.7633 354.099 63.0033C352.231 68.0396 349.039 72.4788 344.859 75.8533C337.539 82.0733 327.119 80.1433 319.999 74.6233V74.5933Z" fill="black"></path><path d="M298.299 66.5833C293.207 67.5066 288.247 69.048 283.529 71.1733C281.95 71.8599 280.414 72.6413 278.929 73.5132C278.589 73.6925 278.214 73.7964 277.83 73.8179C277.446 73.8395 277.062 73.7781 276.704 73.638C276.346 73.4979 276.022 73.2824 275.754 73.006C275.487 72.7297 275.282 72.399 275.154 72.0365C275.025 71.6739 274.976 71.288 275.011 70.905C275.045 70.5219 275.161 70.1506 275.351 69.8164C275.541 69.4821 275.801 69.1928 276.113 68.9679C276.425 68.7431 276.782 68.588 277.159 68.5132C283.965 67.2946 290.521 64.9526 296.559 61.5833C296.899 61.3796 297.28 61.2538 297.674 61.215C298.069 61.1762 298.467 61.2254 298.84 61.359C299.213 61.4925 299.552 61.7072 299.832 61.9875C300.112 62.2677 300.327 62.6066 300.46 62.9798C300.594 63.353 300.643 63.7511 300.604 64.1454C300.565 64.5398 300.439 64.9206 300.235 65.2605C300.031 65.6004 299.754 65.8908 299.425 66.1109C299.095 66.331 298.721 66.4752 298.329 66.5333L298.299 66.5833Z" fill="black"></path><path d="M300.629 41.7832C296.563 37.3953 291.647 33.8806 286.179 31.4532C285.516 31.1734 284.991 30.6417 284.72 29.975C284.449 29.3083 284.454 28.5613 284.734 27.8982C285.014 27.2352 285.546 26.7105 286.212 26.4395C286.879 26.1685 287.626 26.1734 288.289 26.4532C289.719 27.2932 291.019 29.1832 292.479 30.2432C295.909 33.1032 299.479 35.8332 303.689 37.4732C304.086 37.6163 304.445 37.8494 304.736 38.1543C305.028 38.4592 305.245 38.8277 305.371 39.2307C305.496 39.6337 305.526 40.0602 305.459 40.4769C305.392 40.8935 305.229 41.2889 304.983 41.6319C304.737 41.975 304.415 42.2564 304.042 42.454C303.669 42.6516 303.256 42.76 302.834 42.7708C302.412 42.7816 301.993 42.6944 301.611 42.5161C301.228 42.3378 300.892 42.0733 300.629 41.7432V41.7832Z" fill="black"></path><path d="M324.929 20.2433C325.381 16.1471 325.267 12.0082 324.589 7.94326C324.351 6.56781 323.952 5.22522 323.399 3.94326C323.091 3.27226 323.063 2.50653 323.32 1.81452C323.577 1.12251 324.098 0.560905 324.769 0.253254C325.44 -0.0543971 326.206 -0.0828945 326.898 0.17403C327.59 0.430955 328.151 0.952251 328.459 1.62325C328.722 2.19278 328.782 2.83495 328.629 3.44326C328.328 4.8089 328.187 6.20499 328.209 7.60326C328.28 10.3347 328.588 13.0549 329.129 15.7332C329.376 17.0866 329.71 18.4227 330.129 19.7332C330.264 20.1215 330.309 20.5353 330.26 20.9434C330.212 21.3516 330.071 21.7433 329.849 22.089C329.627 22.4347 329.329 22.7253 328.977 22.9388C328.626 23.1524 328.231 23.2832 327.822 23.3215C327.413 23.3598 327 23.3044 326.615 23.1597C326.231 23.015 325.884 22.7847 325.601 22.4862C325.319 22.1877 325.108 21.8289 324.984 21.4368C324.861 21.0447 324.828 20.6298 324.889 20.2233L324.929 20.2433Z" fill="black"></path><path d="M356.929 31.6829C362.549 29.0629 366.769 24.2829 370.229 19.2629C370.617 18.6696 371.221 18.2506 371.912 18.0944C372.604 17.9382 373.329 18.0572 373.934 18.4262C374.54 18.7951 374.978 19.3851 375.156 20.0713C375.334 20.7575 375.239 21.4861 374.889 22.1029C374.629 22.5262 374.259 22.8716 373.819 23.1029C372.457 23.8315 371.153 24.6639 369.919 25.5929C366.279 28.4029 362.669 31.3529 360.519 35.5329C360.319 35.9444 360.021 36.3009 359.652 36.5717C359.283 36.8425 358.854 37.0194 358.401 37.0872C357.949 37.155 357.486 37.1116 357.054 36.9607C356.622 36.8099 356.233 36.5562 355.921 36.2215C355.609 35.8867 355.383 35.4811 355.263 35.0395C355.143 34.598 355.132 34.1337 355.231 33.687C355.33 33.2402 355.536 32.8243 355.832 32.4751C356.128 32.126 356.505 31.8541 356.929 31.6829Z" fill="black"></path><path d="M369.159 55.6232C373.239 57.1232 377.439 56.9332 381.659 57.0232C383.059 57.0232 384.469 56.9632 385.879 56.8132C386.571 56.7647 387.255 56.9873 387.786 57.434C388.316 57.8807 388.652 58.5164 388.722 59.2066C388.793 59.8967 388.591 60.587 388.161 61.1314C387.732 61.6758 387.107 62.0315 386.419 62.1232C384.709 62.0532 383.059 61.4232 381.359 61.2632C377.169 60.7532 373.029 59.9632 368.779 60.8732C368.357 60.9736 367.918 60.9732 367.496 60.872C367.074 60.7708 366.683 60.5717 366.352 60.2908C366.022 60.0099 365.762 59.6551 365.595 59.2552C365.427 58.8553 365.356 58.4215 365.387 57.989C365.419 57.5565 365.551 57.1374 365.775 56.7658C365.998 56.3942 366.306 56.0805 366.674 55.8501C367.041 55.6197 367.457 55.4791 367.889 55.4396C368.321 55.4002 368.756 55.4631 369.159 55.6232Z" fill="black"></path><path d="M360.479 79.7229C362.669 83.4329 366.019 86.1229 369.369 88.7229C370.502 89.5806 371.687 90.3655 372.919 91.0729C373.229 91.2456 373.502 91.4777 373.722 91.7558C373.942 92.034 374.106 92.3528 374.203 92.694C374.3 93.0353 374.329 93.3923 374.288 93.7447C374.247 94.0971 374.137 94.438 373.964 94.7479C373.791 95.0579 373.559 95.3307 373.281 95.551C373.003 95.7712 372.684 95.9345 372.343 96.0315C372.002 96.1286 371.645 96.1575 371.292 96.1165C370.94 96.0756 370.599 95.9656 370.289 95.7929C369.019 94.8929 367.969 92.7929 366.709 91.6229C364.841 89.5224 362.793 87.5884 360.589 85.8429C359.463 84.9557 358.238 84.2008 356.939 83.5929C356.537 83.4154 356.183 83.1449 355.907 82.8036C355.63 82.4623 355.438 82.0601 355.348 81.6301C355.257 81.2002 355.27 80.7549 355.386 80.331C355.501 79.907 355.716 79.5167 356.012 79.1921C356.308 78.8675 356.677 78.618 357.089 78.4643C357.5 78.3105 357.943 78.2568 358.379 78.3077C358.815 78.3586 359.233 78.5125 359.599 78.7569C359.964 79.0012 360.266 79.3289 360.479 79.7129V79.7229Z" fill="black"></path><path d="M339.409 94.4631C339.055 98.743 339.243 103.05 339.969 107.283C340.179 108.705 340.483 110.111 340.879 111.493C340.978 111.831 341.01 112.186 340.972 112.536C340.934 112.886 340.828 113.226 340.659 113.535C340.49 113.844 340.262 114.117 339.987 114.338C339.713 114.559 339.397 114.724 339.059 114.823C338.721 114.922 338.367 114.954 338.016 114.916C337.666 114.878 337.326 114.772 337.017 114.603C336.708 114.434 336.435 114.206 336.214 113.931C335.993 113.657 335.828 113.341 335.729 113.003C335.489 111.233 335.969 109.413 335.809 107.643C335.775 104.789 335.534 101.942 335.089 99.1231C334.879 97.7004 334.572 96.2937 334.169 94.9131C334.051 94.5294 334.021 94.1243 334.08 93.7273C334.139 93.3303 334.286 92.9516 334.511 92.6189C334.735 92.2862 335.031 92.008 335.377 91.8046C335.723 91.6012 336.111 91.4778 336.511 91.4435C336.91 91.4091 337.313 91.4647 337.689 91.6061C338.064 91.7475 338.403 91.9712 338.681 92.2608C338.959 92.5503 339.169 92.8984 339.295 93.2795C339.421 93.6605 339.46 94.065 339.409 94.4631Z" fill="black"></path><path d="M316.039 90.1432C311.151 94.2053 307.128 99.2075 304.209 104.853C304.035 105.226 303.779 105.554 303.46 105.813C303.141 106.071 302.767 106.254 302.367 106.347C301.966 106.44 301.55 106.441 301.149 106.349C300.749 106.258 300.374 106.076 300.054 105.819C299.734 105.561 299.477 105.234 299.301 104.862C299.126 104.49 299.038 104.083 299.043 103.673C299.049 103.262 299.147 102.857 299.332 102.49C299.517 102.123 299.782 101.803 300.109 101.553C301.379 100.59 302.563 99.5194 303.649 98.3532C306.928 94.9194 309.718 91.0496 311.939 86.8532C312.118 86.4934 312.376 86.1784 312.692 85.9312C313.009 85.6839 313.377 85.5108 313.77 85.4245C314.162 85.3383 314.569 85.341 314.96 85.4326C315.352 85.5242 315.717 85.7023 316.031 85.9538C316.344 86.2053 316.597 86.5238 316.772 86.8859C316.946 87.2481 317.037 87.6447 317.037 88.0465C317.038 88.4484 316.949 88.8453 316.776 89.2081C316.603 89.5709 316.352 89.8905 316.039 90.1432Z" fill="black"></path></svg>