<?xml version="1.0" encoding="UTF-8"?> <svg xmlns="http://www.w3.org/2000/svg" width="194" height="77" viewBox="0 0 194 77" fill="none"><path d="M76.3602 71.376H74.3C74.0711 71.376 73.8737 71.3168 73.708 71.1984C73.5501 71.0721 73.4001 70.8905 73.258 70.6537L68.7706 64.4376C68.5654 64.1298 68.3443 63.9166 68.1075 63.7982C67.8707 63.6719 67.5471 63.6088 67.1366 63.6088H65.1001V71.376H62.815V54.4089H65.1001V61.8446H66.8643C67.2195 61.8446 67.5195 61.7893 67.7642 61.6788C68.0168 61.5683 68.2654 61.3512 68.5101 61.0276L72.9502 55.0601C73.0686 54.8707 73.2107 54.7168 73.3764 54.5984C73.5501 54.4721 73.7514 54.4089 73.9803 54.4089H75.9103L70.7834 61.3828C70.3967 61.9275 69.8994 62.3024 69.2916 62.5076C69.7099 62.6182 70.0612 62.7958 70.3453 63.0405C70.6374 63.2773 70.9137 63.6088 71.1742 64.035L76.3602 71.376ZM87.3276 59.3818L80.6378 74.9162C80.5668 75.0741 80.476 75.2004 80.3655 75.2951C80.2629 75.3898 80.1011 75.4372 79.8801 75.4372H78.3172L80.5076 70.6774L75.5584 59.3818H77.3818C77.5633 59.3818 77.7054 59.4292 77.808 59.5239C77.9185 59.6107 77.9935 59.7094 78.033 59.8199L81.2417 67.374C81.368 67.7055 81.4745 68.0528 81.5614 68.4159C81.6719 68.0449 81.7903 67.6937 81.9166 67.3621L85.0306 59.8199C85.0779 59.6936 85.1569 59.591 85.2674 59.5121C85.3858 59.4252 85.516 59.3818 85.6581 59.3818H87.3276ZM91.3088 68.487C91.6956 69.0079 92.1179 69.375 92.5758 69.5881C93.0336 69.8012 93.5467 69.9078 94.115 69.9078C95.2359 69.9078 96.0962 69.5092 96.6962 68.7119C97.2961 67.9147 97.596 66.778 97.596 65.3019C97.596 64.5205 97.525 63.8495 97.3829 63.2891C97.2487 62.7287 97.0514 62.2708 96.7909 61.9156C96.5304 61.5525 96.2107 61.2881 95.8318 61.1223C95.4529 60.9566 95.0227 60.8737 94.5412 60.8737C93.8545 60.8737 93.2506 61.0316 92.7297 61.3473C92.2166 61.663 91.743 62.109 91.3088 62.6852V68.487ZM91.2023 61.2407C91.7075 60.6172 92.2916 60.1159 92.9546 59.737C93.6177 59.3581 94.3755 59.1687 95.228 59.1687C95.9226 59.1687 96.5501 59.3029 97.1106 59.5713C97.671 59.8317 98.1486 60.2225 98.5432 60.7434C98.9379 61.2565 99.2418 61.8959 99.4549 62.6616C99.6681 63.4272 99.7746 64.3074 99.7746 65.3019C99.7746 66.186 99.6562 67.0109 99.4194 67.7765C99.1826 68.5343 98.8392 69.1934 98.3893 69.7539C97.9473 70.3064 97.4026 70.7445 96.7554 71.0681C96.116 71.3839 95.3937 71.5417 94.5886 71.5417C93.8545 71.5417 93.223 71.4194 92.6942 71.1747C92.1732 70.9221 91.7114 70.5748 91.3088 70.1328V75.4372H89.1894V59.3818H90.4563C90.7563 59.3818 90.9418 59.5278 91.0128 59.8199L91.2023 61.2407ZM108.941 65.9768C107.97 66.0084 107.141 66.0873 106.454 66.2136C105.775 66.332 105.219 66.4899 104.785 66.6872C104.358 66.8846 104.047 67.1174 103.849 67.3858C103.66 67.6542 103.565 67.9541 103.565 68.2857C103.565 68.6014 103.616 68.8737 103.719 69.1027C103.822 69.3316 103.96 69.521 104.133 69.671C104.315 69.8131 104.524 69.9196 104.761 69.9907C105.006 70.0538 105.266 70.0854 105.542 70.0854C105.913 70.0854 106.253 70.0499 106.561 69.9788C106.869 69.8999 107.157 69.7894 107.425 69.6473C107.701 69.5052 107.962 69.3355 108.207 69.1382C108.459 68.9408 108.704 68.7159 108.941 68.4633V65.9768ZM102.132 61.075C102.796 60.4356 103.51 59.958 104.276 59.6423C105.041 59.3266 105.89 59.1687 106.821 59.1687C107.492 59.1687 108.088 59.2792 108.609 59.5002C109.13 59.7212 109.568 60.0291 109.923 60.4238C110.279 60.8184 110.547 61.296 110.728 61.8564C110.91 62.4169 111.001 63.0326 111.001 63.7035V71.376H110.065C109.86 71.376 109.702 71.3444 109.592 71.2813C109.481 71.2102 109.394 71.076 109.331 70.8787L109.095 69.742C108.779 70.0341 108.471 70.2946 108.171 70.5235C107.871 70.7445 107.555 70.9339 107.224 71.0918C106.892 71.2418 106.537 71.3562 106.158 71.4352C105.787 71.522 105.373 71.5654 104.915 71.5654C104.449 71.5654 104.011 71.5023 103.601 71.376C103.19 71.2418 102.831 71.0445 102.523 70.784C102.223 70.5235 101.983 70.1959 101.801 69.8012C101.627 69.3987 101.54 68.925 101.54 68.3804C101.54 67.9068 101.671 67.4529 101.931 67.0188C102.192 66.5767 102.614 66.186 103.198 65.8466C103.782 65.5072 104.544 65.2309 105.483 65.0178C106.423 64.7968 107.575 64.6705 108.941 64.6389V63.7035C108.941 62.7721 108.739 62.0696 108.337 61.5959C107.934 61.1144 107.346 60.8737 106.573 60.8737C106.052 60.8737 105.614 60.9408 105.258 61.075C104.911 61.2013 104.607 61.3473 104.347 61.5131C104.094 61.6709 103.873 61.817 103.684 61.9512C103.502 62.0774 103.32 62.1406 103.139 62.1406C102.997 62.1406 102.874 62.1051 102.772 62.034C102.669 61.9551 102.582 61.8604 102.511 61.7499L102.132 61.075ZM124.204 59.3818V71.376H122.085V65.7637H116.331V71.376H114.211V59.3818H116.331V64.1653H122.085V59.3818H124.204ZM135.819 69.8367V61.0395H132.018C131.939 62.2708 131.829 63.3601 131.687 64.3074C131.545 65.2546 131.379 66.0873 131.19 66.8056C131.008 67.5161 130.803 68.1199 130.574 68.6172C130.353 69.1145 130.12 69.521 129.875 69.8367H135.819ZM140.058 69.7775V74.857C140.058 75.0622 139.999 75.2201 139.88 75.3306C139.77 75.449 139.624 75.5082 139.442 75.5082H138.152V71.376H128.064V74.9044C128.064 75.0543 128.016 75.1925 127.922 75.3188C127.835 75.4451 127.689 75.5082 127.484 75.5082H126.157V69.8367H126.548C126.824 69.8367 127.097 69.7894 127.365 69.6947C127.641 69.5999 127.906 69.4223 128.158 69.1619C128.411 68.8935 128.648 68.5185 128.869 68.037C129.098 67.5555 129.303 66.928 129.485 66.1544C129.666 65.3809 129.824 64.4415 129.958 63.3365C130.092 62.2235 130.199 60.9053 130.278 59.3818H137.867V69.7775H140.058ZM150.013 64.0706C150.013 63.5812 149.941 63.1352 149.799 62.7326C149.665 62.3221 149.464 61.9709 149.196 61.6788C148.935 61.3789 148.615 61.15 148.237 60.9921C147.858 60.8263 147.427 60.7434 146.946 60.7434C145.936 60.7434 145.134 61.0395 144.542 61.6315C143.958 62.2156 143.595 63.0286 143.453 64.0706H150.013ZM151.718 69.6947C151.457 70.0104 151.145 70.2867 150.782 70.5235C150.419 70.7524 150.028 70.9418 149.61 71.0918C149.2 71.2418 148.773 71.3523 148.331 71.4233C147.889 71.5023 147.451 71.5417 147.017 71.5417C146.188 71.5417 145.422 71.4036 144.72 71.1273C144.025 70.8432 143.421 70.4327 142.908 69.8959C142.403 69.3513 142.009 68.6804 141.724 67.8831C141.44 67.0859 141.298 66.1702 141.298 65.1362C141.298 64.2995 141.424 63.518 141.677 62.7918C141.937 62.0656 142.308 61.4381 142.79 60.9092C143.271 60.3725 143.86 59.9541 144.554 59.6541C145.249 59.3463 146.03 59.1924 146.899 59.1924C147.617 59.1924 148.28 59.3147 148.888 59.5594C149.503 59.7962 150.032 60.1435 150.474 60.6014C150.924 61.0513 151.275 61.6117 151.528 62.2827C151.781 62.9457 151.907 63.7035 151.907 64.556C151.907 64.8875 151.871 65.1085 151.8 65.2191C151.729 65.3296 151.595 65.3848 151.398 65.3848H143.382C143.406 66.1426 143.508 66.8017 143.69 67.3621C143.879 67.9226 144.14 68.3922 144.471 68.7711C144.803 69.1421 145.198 69.4223 145.655 69.6118C146.113 69.7933 146.626 69.8841 147.195 69.8841C147.723 69.8841 148.177 69.8249 148.556 69.7065C148.943 69.5802 149.274 69.446 149.551 69.3039C149.827 69.1619 150.056 69.0316 150.237 68.9132C150.427 68.7869 150.589 68.7238 150.723 68.7238C150.897 68.7238 151.031 68.7909 151.126 68.925L151.718 69.6947ZM156.615 68.487C157.002 69.0079 157.424 69.375 157.882 69.5881C158.34 69.8012 158.853 69.9078 159.421 69.9078C160.542 69.9078 161.403 69.5092 162.002 68.7119C162.602 67.9147 162.902 66.778 162.902 65.3019C162.902 64.5205 162.831 63.8495 162.689 63.2891C162.555 62.7287 162.358 62.2708 162.097 61.9156C161.837 61.5525 161.517 61.2881 161.138 61.1223C160.759 60.9566 160.329 60.8737 159.848 60.8737C159.161 60.8737 158.557 61.0316 158.036 61.3473C157.523 61.663 157.049 62.109 156.615 62.6852V68.487ZM156.509 61.2407C157.014 60.6172 157.598 60.1159 158.261 59.737C158.924 59.3581 159.682 59.1687 160.534 59.1687C161.229 59.1687 161.856 59.3029 162.417 59.5713C162.977 59.8317 163.455 60.2225 163.85 60.7434C164.244 61.2565 164.548 61.8959 164.761 62.6616C164.974 63.4272 165.081 64.3074 165.081 65.3019C165.081 66.186 164.962 67.0109 164.726 67.7765C164.489 68.5343 164.146 69.1934 163.696 69.7539C163.254 70.3064 162.709 70.7445 162.062 71.0681C161.422 71.3839 160.7 71.5417 159.895 71.5417C159.161 71.5417 158.529 71.4194 158 71.1747C157.479 70.9221 157.018 70.5748 156.615 70.1328V75.4372H154.496V59.3818H155.763C156.063 59.3818 156.248 59.5278 156.319 59.8199L156.509 61.2407ZM172.802 59.1924C173.679 59.1924 174.468 59.3384 175.17 59.6305C175.873 59.9225 176.473 60.3369 176.97 60.8737C177.467 61.4104 177.846 62.0617 178.107 62.8273C178.375 63.5851 178.509 64.4337 178.509 65.373C178.509 66.3202 178.375 67.1727 178.107 67.9305C177.846 68.6882 177.467 69.3355 176.97 69.8723C176.473 70.409 175.873 70.8234 175.17 71.1155C174.468 71.3997 173.679 71.5417 172.802 71.5417C171.918 71.5417 171.121 71.3997 170.411 71.1155C169.708 70.8234 169.108 70.409 168.611 69.8723C168.114 69.3355 167.731 68.6882 167.462 67.9305C167.202 67.1727 167.072 66.3202 167.072 65.373C167.072 64.4337 167.202 63.5851 167.462 62.8273C167.731 62.0617 168.114 61.4104 168.611 60.8737C169.108 60.3369 169.708 59.9225 170.411 59.6305C171.121 59.3384 171.918 59.1924 172.802 59.1924ZM172.802 69.8959C173.986 69.8959 174.87 69.5013 175.455 68.7119C176.039 67.9147 176.331 66.8056 176.331 65.3848C176.331 63.9561 176.039 62.8431 175.455 62.0459C174.87 61.2486 173.986 60.85 172.802 60.85C172.202 60.85 171.678 60.9526 171.228 61.1579C170.786 61.3631 170.415 61.6591 170.115 62.0459C169.823 62.4327 169.602 62.9102 169.452 63.4785C169.31 64.039 169.238 64.6744 169.238 65.3848C169.238 66.8056 169.531 67.9147 170.115 68.7119C170.707 69.5013 171.603 69.8959 172.802 69.8959ZM189.53 61.5131C189.467 61.5999 189.404 61.667 189.34 61.7143C189.277 61.7617 189.19 61.7854 189.08 61.7854C188.962 61.7854 188.831 61.738 188.689 61.6433C188.547 61.5407 188.37 61.4302 188.156 61.3118C187.951 61.1934 187.695 61.0868 187.387 60.9921C187.087 60.8895 186.716 60.8382 186.274 60.8382C185.682 60.8382 185.161 60.9447 184.711 61.1579C184.261 61.3631 183.882 61.663 183.574 62.0577C183.274 62.4524 183.045 62.9299 182.887 63.4904C182.738 64.0508 182.663 64.6784 182.663 65.373C182.663 66.0992 182.745 66.7464 182.911 67.3148C183.077 67.8752 183.31 68.3488 183.61 68.7356C183.918 69.1145 184.285 69.4066 184.711 69.6118C185.145 69.8091 185.63 69.9078 186.167 69.9078C186.68 69.9078 187.103 69.8486 187.434 69.7302C187.766 69.6039 188.038 69.4658 188.251 69.3158C188.472 69.1658 188.654 69.0316 188.796 68.9132C188.946 68.7869 189.092 68.7238 189.234 68.7238C189.408 68.7238 189.542 68.7909 189.636 68.925L190.228 69.6947C189.968 70.0183 189.672 70.2946 189.34 70.5235C189.009 70.7524 188.65 70.9458 188.263 71.1037C187.884 71.2536 187.485 71.3641 187.067 71.4352C186.649 71.5062 186.222 71.5417 185.788 71.5417C185.038 71.5417 184.34 71.4036 183.693 71.1273C183.053 70.8511 182.497 70.4524 182.023 69.9315C181.55 69.4026 181.179 68.7553 180.91 67.9897C180.642 67.224 180.508 66.3518 180.508 65.373C180.508 64.481 180.63 63.6561 180.875 62.8984C181.127 62.1406 181.49 61.4894 181.964 60.9447C182.445 60.3922 183.034 59.962 183.728 59.6541C184.431 59.3463 185.236 59.1924 186.144 59.1924C186.988 59.1924 187.73 59.3305 188.37 59.6068C189.017 59.8752 189.589 60.258 190.086 60.7553L189.53 61.5131Z" fill="#1F1F1F"></path><path d="M85.4759 51L72.2343 32.4205H65.885V51H63.5439V12.6424H65.885V30.2667H70.8108L83.7153 12.6424H86.5247L73.5828 30.3416L88.2853 51H85.4759ZM91.5254 51V48.7712H92.4619C94.0351 48.7712 95.2962 48.2281 96.2452 47.1418C97.2066 46.0555 97.9246 44.3261 98.3991 41.9538C98.886 39.5814 99.1919 36.4598 99.3168 32.5891L100.029 12.6424H121.642V51H119.301V14.815H102.276L101.621 33.2446C101.483 37.3276 101.102 40.6802 100.478 43.3023C99.8662 45.9244 98.9048 47.866 97.5937 49.1271C96.2827 50.3757 94.5034 51 92.2559 51H91.5254ZM133.334 51.5244V49.2956H134.795C136.006 49.2956 137.011 49.1396 137.81 48.8274C138.622 48.5152 139.296 48.0283 139.833 47.3665C140.37 46.6923 140.851 45.8307 141.275 44.7819L141.949 43.1337L128.82 12.6424H131.349L143.148 40.2119L154.161 12.6424H156.633L143.429 45.531C142.88 46.8671 142.261 47.9783 141.575 48.8649C140.888 49.7514 140.014 50.4194 138.953 50.8689C137.904 51.3059 136.549 51.5244 134.888 51.5244H133.334ZM163.825 51V12.6424H185.42V14.815H166.166V30.248H178.209C180.569 30.248 182.598 30.6662 184.296 31.5028C186.007 32.3269 187.318 33.4881 188.229 34.9865C189.141 36.4848 189.597 38.2516 189.597 40.2868C189.597 42.447 189.141 44.3324 188.229 45.9431C187.33 47.5413 186.032 48.7837 184.334 49.6702C182.636 50.5567 180.594 51 178.209 51H163.825ZM166.166 48.8461H178.209C180.12 48.8461 181.749 48.484 183.098 47.7598C184.459 47.0356 185.495 46.0243 186.207 44.7257C186.918 43.4271 187.274 41.9225 187.274 40.2119C187.274 37.927 186.463 36.0603 184.839 34.6119C183.216 33.151 181.006 32.4205 178.209 32.4205H166.166V48.8461Z" fill="#1F1F1F"></path><path d="M0 36.0044V35.6982C0.063798 35.5706 0.0153115 35.443 0.0306231 35.3027V34.1441C0.0306231 34.0088 0.063798 33.8685 0 33.7383V33.6158C0.0260254 33.5572 0.0394714 33.4937 0.0394714 33.4296C0.0394714 33.3654 0.0260254 33.3019 0 33.2433L0 33.182C0.0867653 32.7227 0.0459346 32.2531 0.0944211 31.7887C0.681451 26.5163 2.88501 21.5546 6.40296 17.5839C9.9209 13.6132 14.581 10.8279 19.7442 9.60991C21.1804 9.24966 22.6531 9.05529 24.1335 9.03062C24.1948 9.03062 24.2586 9.04849 24.3096 9H24.4321C24.552 9.06635 24.6873 9.01531 24.8098 9.03062H26.4354C26.563 9.01531 26.6905 9.06635 26.8207 9H26.8819C27.4127 9.07656 27.9537 9.03828 28.4897 9.09697C34.6625 9.79698 40.3733 12.7077 44.5668 17.2912C45.8055 18.6501 46.8985 20.1349 47.8281 21.7213C49.3214 24.2731 50.3577 27.066 50.8904 29.9742C51.1024 31.0554 51.2118 32.1542 51.2171 33.256C51.2324 33.3964 51.1813 33.5418 51.2477 33.6771V33.7383C51.1839 33.8685 51.2324 33.9935 51.2171 34.1415V35.3001C51.2324 35.4328 51.1839 35.5706 51.2477 35.6982V36.0044C51.1686 36.4765 51.2069 36.9563 51.1558 37.4284C50.8947 39.8988 50.2695 42.317 49.3006 44.6044C47.8219 48.0814 45.5988 51.192 42.7881 53.7171C39.9773 56.2421 36.6471 58.1203 33.0321 59.2193C32.6799 59.3265 32.662 59.3622 32.805 59.7297C33.5826 61.665 34.6723 63.4599 36.0306 65.0428C36.3087 65.3694 36.5946 65.6884 36.8753 66.0125C36.9609 66.1127 37.0686 66.1916 37.19 66.2429C37.3113 66.2943 37.443 66.3168 37.5745 66.3085C40.2285 66.3085 42.8825 66.3085 45.5339 66.3085C46.2383 66.3085 46.2561 66.3366 45.9652 66.9797C45.4301 68.2396 45.1085 69.5798 45.0133 70.9454C44.9585 71.8803 44.9585 72.8176 45.0133 73.7525C44.9444 74.0332 44.896 74.0638 44.6459 73.9439C44.3958 73.8239 44.1661 73.6734 43.9313 73.533C42.041 72.4192 40.2369 71.1652 38.534 69.7817C37.9216 69.2713 37.3346 68.7405 36.7477 68.202C36.6516 68.1132 36.5385 68.0448 36.4153 68.0009C36.292 67.9571 36.1612 67.9387 36.0306 67.9468C32.0751 67.9468 28.1188 67.9468 24.1616 67.9468C21.1741 67.9468 18.1858 67.9468 15.1967 67.9468C15.0606 67.9398 14.9246 67.9611 14.7971 68.0094C14.6697 68.0577 14.5538 68.132 14.4566 68.2276C12.9423 69.6434 11.3147 70.933 9.59012 72.0835C8.64081 72.7189 7.66852 73.3161 6.67838 73.8877C6.36704 74.0664 6.30069 74.0408 6.22414 73.7499C6.19096 73.2395 6.29559 72.7291 6.29049 72.2188C6.26752 70.3227 6.01233 68.4776 5.1855 66.7449C5.01453 66.3876 5.09108 66.2906 5.52236 66.2906C8.24441 66.2906 10.9588 66.2906 13.6655 66.2906C13.792 66.3005 13.919 66.2815 14.0371 66.2351C14.1551 66.1887 14.2611 66.1161 14.3469 66.0227C16.072 64.1547 17.5087 62.1029 18.43 59.7194C18.5729 59.3596 18.555 59.3188 18.208 59.2091C13.522 57.7908 9.33761 55.0657 6.14561 51.3535C2.9536 47.6412 0.886336 43.0957 0.18629 38.2501C0.10134 37.605 0.0493838 36.956 0.0306231 36.3056C0.0255192 36.2035 0.063798 36.0989 0 36.0044Z" fill="black"></path><path d="M25.6009 18.307H20.8543C20.0606 18.307 19.5962 18.7689 19.5936 19.5574C19.5936 20.7211 19.5936 21.8848 19.5936 23.0485C19.5936 23.3037 19.5426 23.3955 19.2619 23.393C18.0574 23.3751 16.8529 23.393 15.6509 23.393C14.8369 23.393 14.375 23.8498 14.375 24.6689C14.375 25.853 14.375 27.0371 14.375 28.2212C14.375 28.5172 14.3239 28.6193 13.9973 28.6142C12.8438 28.5912 11.7005 28.6142 10.5394 28.6142C9.75088 28.6142 9.28898 29.0812 9.28898 29.8749V39.368C9.28898 40.1693 9.76109 40.644 10.5649 40.644C11.7388 40.644 12.9127 40.644 14.0866 40.644C14.3137 40.644 14.3801 40.7001 14.3775 40.9323C14.3775 42.1266 14.3775 43.3209 14.3775 44.505C14.3775 45.4033 14.8164 45.8448 15.7071 45.8448C16.9014 45.8448 18.0957 45.8448 19.2798 45.8448C19.5349 45.8448 19.5809 45.9213 19.5809 46.1561C19.5809 47.5418 19.563 48.9301 19.5809 50.3183C19.6039 51.3569 19.7008 52.3956 19.6728 53.4368C19.6498 54.8226 19.4865 56.2026 19.1853 57.5556C19.1292 57.8107 19.0552 57.8797 18.7821 57.7954C14.5887 56.5601 10.8122 54.2033 7.85991 50.9793C4.78344 47.6711 2.713 43.555 1.89096 39.1128C1.54119 37.3122 1.405 35.4766 1.48521 33.644C1.69772 28.5734 3.49889 23.6978 6.634 19.7068C9.76911 15.7157 14.0795 12.8113 18.9557 11.404C20.6599 10.9158 22.4141 10.623 24.1845 10.5313C28.4595 10.2435 32.7321 11.1257 36.5435 13.0832C41.7272 15.6787 45.7904 20.0703 47.9761 25.4396C48.8977 27.6538 49.4727 29.9967 49.6808 32.386C50.1983 37.9718 48.7568 43.5638 45.6034 48.2034C42.4499 52.843 37.7809 56.2413 32.3966 57.8159C32.1899 57.8771 32.1185 57.8516 32.0674 57.6321C31.8095 56.5622 31.654 55.4701 31.603 54.3708C31.4984 51.607 31.7561 48.8458 31.6617 46.0821C31.6617 45.8703 31.7587 45.8601 31.9169 45.8601H35.5916C36.4032 45.8601 36.8676 45.3982 36.8676 44.5841C36.8676 43.4 36.8676 42.216 36.8676 41.0344C36.8676 40.7384 36.9186 40.6338 37.2453 40.6414C38.386 40.6644 39.542 40.6414 40.6725 40.6414C41.4764 40.6414 41.9485 40.1668 41.9485 39.3655V29.834C41.9633 29.6674 41.9414 29.4996 41.8844 29.3424C41.8273 29.1852 41.7364 29.0424 41.6181 28.9241C41.4999 28.8059 41.3571 28.715 41.1999 28.6579C41.0427 28.6008 40.8748 28.5789 40.7082 28.5938C39.5242 28.5938 38.3426 28.5938 37.1585 28.5938C36.9314 28.5938 36.8625 28.5402 36.8651 28.308C36.8651 27.0831 36.8651 25.8581 36.8651 24.6332C36.8651 23.8421 36.4032 23.3853 35.607 23.3828C34.3922 23.3828 33.1775 23.3828 31.9628 23.3828C31.728 23.3828 31.6489 23.3292 31.6515 23.0816C31.6668 21.918 31.6515 20.7543 31.6515 19.5906C31.6515 18.7561 31.1998 18.2993 30.3755 18.2993L25.6009 18.307Z" fill="#01AF34"></path><path d="M10.7588 34.6265C10.7588 33.1999 10.7588 31.7709 10.7588 30.3418C10.7588 30.107 10.8098 30.033 11.0574 30.0356C12.5477 30.0356 14.038 30.0356 15.5258 30.0356C15.781 30.0356 15.8499 29.9641 15.8473 29.7115C15.8473 28.1803 15.8473 26.6721 15.8473 25.1512C15.8473 24.896 15.8984 24.8041 16.1791 24.8067C17.6796 24.8245 19.1776 24.8067 20.6781 24.8067C21.0634 24.8067 21.0634 24.8067 21.0634 24.4086C21.0634 22.9591 21.0634 21.5096 21.0634 20.0703C21.0634 19.7896 21.1451 19.7437 21.4029 19.7437C24.2406 19.7539 27.0775 19.7539 29.9135 19.7437C30.1687 19.7437 30.2402 19.7921 30.2376 20.055C30.2223 21.5147 30.2376 22.9744 30.2376 24.4315C30.2376 24.8169 30.2376 24.8169 30.6383 24.8169C32.1388 24.8169 33.6393 24.8169 35.1373 24.8169C35.3925 24.8169 35.4563 24.896 35.4537 25.1435C35.4537 26.6747 35.4537 28.2058 35.4537 29.737C35.4537 29.9769 35.5124 30.0458 35.7574 30.0458C37.2579 30.0458 38.7559 30.0458 40.2565 30.0458C40.4912 30.0458 40.5397 30.1147 40.5397 30.3367C40.5397 33.205 40.5397 36.0725 40.5397 38.9392C40.5397 39.1944 40.4529 39.2148 40.2437 39.2123C38.7534 39.2123 37.263 39.2123 35.7727 39.2123C35.5175 39.2123 35.4461 39.271 35.4486 39.5313C35.4614 41.0624 35.4486 42.5706 35.4639 44.0915C35.4639 44.3825 35.3746 44.436 35.1067 44.4335C33.5883 44.4207 32.0673 44.4335 30.5464 44.4335C30.3065 44.4335 30.2376 44.4922 30.2402 44.7372C30.2402 46.2173 30.2402 47.6948 30.2402 49.175C30.2402 49.471 30.1483 49.5144 29.8854 49.5144C27.0681 49.5042 24.2516 49.5042 21.436 49.5144C21.1094 49.5144 21.0634 49.4148 21.066 49.1265C21.0813 47.6566 21.066 46.1892 21.066 44.7193C21.066 44.4871 21.0048 44.4284 20.7751 44.4309C19.2439 44.4309 17.7128 44.4309 16.1816 44.4309C15.9264 44.4309 15.8371 44.3876 15.8397 44.1043C15.8575 42.5731 15.8397 41.042 15.855 39.5108C15.855 39.2556 15.781 39.2072 15.5462 39.2097C14.0559 39.2097 12.5655 39.2097 11.0778 39.2097C10.8226 39.2097 10.7639 39.1332 10.7664 38.8882C10.7639 37.4642 10.7588 36.0504 10.7588 34.6265Z" fill="#F7F300"></path><path d="M16.1152 66.3597C16.834 65.5357 17.4933 64.6616 18.0879 63.744C19.5919 61.4325 20.5702 58.8191 20.9537 56.0882C21.1834 54.4652 21.1349 52.8345 21.1068 51.2064C21.1068 50.9741 21.1706 50.9512 21.362 50.9512C24.1997 50.9512 27.0358 50.9512 29.8701 50.9512C30.0794 50.9512 30.1253 50.992 30.1253 51.2064C30.1074 52.2986 30.0666 53.3908 30.1253 54.4805C30.2342 56.6789 30.7373 58.8398 31.6105 60.8603C32.4653 62.8156 33.6151 64.6282 35.0199 66.2346C35.0511 66.2729 35.0801 66.3129 35.1066 66.3546L16.1152 66.3597Z" fill="#774926"></path><path d="M7.79589 71.4125C7.75345 70.2732 7.58223 69.1423 7.2855 68.0414C7.24978 67.9138 7.25233 67.8398 7.42841 67.8398C9.09907 67.8398 10.7723 67.8398 12.448 67.8398C12.4634 67.8398 12.4787 67.8577 12.5297 67.8832C11.0478 69.1833 9.4649 70.3635 7.79589 71.4125Z" fill="#784926"></path><path d="M38.751 67.8423H40.0882C41.3131 67.8423 42.538 67.8423 43.7604 67.8423C43.9135 67.8423 44.0156 67.8423 43.962 68.049C43.6634 69.146 43.4921 70.2737 43.4516 71.4099C41.7753 70.3722 40.2014 69.1776 38.751 67.8423Z" fill="#784926"></path><path d="M25.616 29.6401C26.6011 29.6386 27.5646 29.9292 28.3845 30.4752C29.2045 31.0212 29.8442 31.7981 30.2227 32.7076C30.6012 33.617 30.7015 34.6183 30.511 35.5849C30.3205 36.5514 29.8477 37.4397 29.1523 38.1375C28.457 38.8353 27.5704 39.3113 26.6046 39.5053C25.6387 39.6993 24.6371 39.6025 23.7262 39.2273C22.8154 38.8521 22.0363 38.2152 21.4873 37.3972C20.9384 36.5792 20.6444 35.6168 20.6423 34.6317C20.643 33.3112 21.1667 32.0446 22.0988 31.1092C23.0308 30.1737 24.2955 29.6455 25.616 29.6401Z" fill="black"></path><path d="M29.1504 34.6392C29.1474 35.3365 28.9375 36.0173 28.5474 36.5953C28.1573 37.1733 27.6045 37.6226 26.9589 37.8863C26.3134 38.15 25.6041 38.2163 24.9209 38.0767C24.2376 37.9371 23.6112 37.598 23.1208 37.1022C22.6303 36.6064 22.298 35.9763 22.1659 35.2916C22.0338 34.6069 22.1077 33.8984 22.3784 33.2557C22.6491 32.6131 23.1044 32.0652 23.6866 31.6814C24.2689 31.2976 24.9519 31.0951 25.6492 31.0997C26.5821 31.1071 27.4742 31.4836 28.1303 32.1469C28.7864 32.8102 29.1532 33.7062 29.1504 34.6392Z" fill="#FEFEFE"></path></svg> 