<?xml version="1.0" encoding="UTF-8"?> <svg xmlns="http://www.w3.org/2000/svg" width="201" height="255" viewBox="0 0 201 255" fill="none"><g clip-path="url(#clip0_125_2)"><path d="M-0.0300293 105.82V104.62C0.219971 104.12 0.0299707 103.62 0.0899707 103.08V98.53C0.0599707 97.98 0.249971 97.46 -0.0300293 96.98V96.5C0.159992 96.0388 0.159992 95.5212 -0.0300293 95.06L-0.0300293 94.82C0.329971 92.98 0.169971 91.14 0.369971 89.33C2.52678 69.6502 10.46 51.049 23.17 35.87C37.1599 19.1589 56.18 7.42136 77.39 2.41C83.0116 0.999334 88.7751 0.231087 94.57 0.12C94.8 0.12 95.05 0.19 95.25 0H95.73C96.21 0.26 96.73 0.06 97.22 0.13H103.59C104.09 0.06 104.59 0.26 105.09 0H105.33C107.42 0.31 109.54 0.16 111.63 0.39C135.841 3.10815 158.243 14.5173 174.68 32.5C179.533 37.8197 183.813 43.6351 187.45 49.85C193.304 59.8484 197.365 70.7931 199.45 82.19C200.277 86.4271 200.703 90.7329 200.72 95.05C200.79 95.6 200.58 96.17 200.85 96.71V96.98C200.6 97.48 200.78 97.98 200.72 98.55V103.09C200.78 103.61 200.6 104.15 200.85 104.65V105.85C200.53 107.7 200.68 109.58 200.49 111.44C198.243 132.151 189.599 151.648 175.76 167.22C167.418 176.651 157.364 184.415 146.13 190.1C140.785 192.828 135.21 195.08 129.47 196.83C128.09 197.24 128.02 197.38 128.58 198.83C131.622 206.42 135.892 213.457 141.22 219.66C142.3 220.94 143.42 222.19 144.52 223.45C144.857 223.844 145.28 224.154 145.758 224.355C146.235 224.557 146.753 224.644 147.27 224.61C157.657 224.61 168.053 224.61 178.46 224.61C181.22 224.61 181.28 224.73 180.14 227.24C178.047 232.182 176.786 237.436 176.41 242.79C176.217 246.455 176.234 250.127 176.46 253.79C176.18 254.88 175.99 255.01 175.02 254.53C174.05 254.05 173.14 253.48 172.21 252.92C164.808 248.555 157.742 243.645 151.07 238.23C148.66 236.23 146.36 234.14 144.07 232.03C143.694 231.684 143.253 231.417 142.772 231.245C142.291 231.073 141.78 231 141.27 231.03C125.757 231.03 110.25 231.03 94.75 231.03C83.0366 231.03 71.3266 231.03 59.62 231.03C59.0886 231.005 58.5578 231.09 58.0607 231.28C57.5635 231.469 57.1105 231.758 56.73 232.13C50.7826 237.709 44.3841 242.786 37.6 247.31C33.88 249.8 30.06 252.15 26.18 254.38C24.97 255.08 24.71 254.98 24.41 253.85C24.27 251.85 24.69 249.85 24.66 247.85C24.57 240.42 23.58 233.19 20.33 226.4C19.66 224.99 19.96 224.62 21.66 224.61C32.2866 224.61 42.9233 224.61 53.57 224.61C54.0615 224.654 54.5567 224.587 55.0189 224.414C55.4811 224.241 55.8984 223.966 56.24 223.61C62.99 216.29 68.63 208.24 72.24 198.91C72.79 197.49 72.72 197.33 71.36 196.91C52.9706 191.348 36.553 180.647 24.0401 166.069C11.5272 151.49 3.43979 133.64 0.729971 114.62C0.388171 112.086 0.181213 109.536 0.109971 106.98C0.0999707 106.6 0.239971 106.19 -0.0300293 105.82Z" fill="black"></path><path d="M100.31 36.47H81.7201C78.6101 36.47 76.7801 38.28 76.7201 41.37C76.7201 45.93 76.7201 50.49 76.7201 55.05C76.7201 56.05 76.5301 56.42 75.4301 56.4C70.7101 56.33 65.9901 56.4 61.2701 56.4C58.0801 56.4 56.2701 58.19 56.2701 61.4C56.2701 66.04 56.2701 70.68 56.2701 75.32C56.2701 76.48 56.0601 76.89 54.7901 76.86C50.2701 76.77 45.7901 76.86 41.2301 76.86C38.1401 76.86 36.3401 78.7 36.3401 81.8C36.3401 94.24 36.3401 106.68 36.3401 119.12C36.3401 122.26 38.1901 124.12 41.3401 124.12C45.9401 124.12 50.5401 124.12 55.1301 124.12C56.0201 124.12 56.2901 124.34 56.2801 125.25C56.2301 129.93 56.2801 134.61 56.2801 139.25C56.2801 142.77 58.0001 144.5 61.4901 144.5C66.1601 144.5 70.8401 144.5 75.4901 144.5C76.4901 144.5 76.6801 144.79 76.6701 145.71C76.6701 151.15 76.6001 156.59 76.7201 162.02C76.8101 166.1 77.1901 170.16 77.0801 174.24C76.9846 179.674 76.3447 185.084 75.1701 190.39C74.9401 191.39 74.6601 191.65 73.5901 191.33C57.1151 186.493 42.2766 177.243 30.6801 164.58C18.6575 151.59 10.5856 135.443 7.41008 118.03C6.02891 110.965 5.49181 103.761 5.81008 96.57C6.81008 75.91 13.5901 57.37 26.5701 41.23C38.7433 25.8896 55.4292 14.7622 74.2701 9.42C80.949 7.5064 87.8225 6.35244 94.7601 5.98C111.516 4.84692 128.263 8.30427 143.2 15.98C163.515 26.1535 179.43 43.3765 187.97 64.43C191.581 73.1029 193.835 82.2807 194.65 91.64C196.675 113.523 191.032 135.429 178.685 153.609C166.339 171.789 148.057 185.113 126.97 191.3C126.16 191.53 125.87 191.44 125.67 190.58C124.659 186.388 124.053 182.108 123.86 177.8C123.45 166.97 124.46 156.15 124.09 145.32C124.09 144.48 124.47 144.44 125.09 144.44C129.89 144.44 134.68 144.44 139.48 144.44C142.66 144.44 144.48 142.63 144.48 139.44C144.48 134.81 144.48 130.17 144.48 125.53C144.48 124.37 144.68 123.96 145.95 123.99C150.43 124.08 154.95 123.99 159.39 123.99C162.54 123.99 164.39 122.13 164.39 118.99C164.39 106.51 164.39 94.0333 164.39 81.56C164.446 80.9085 164.359 80.2526 164.136 79.6381C163.912 79.0236 163.557 78.4654 163.095 78.0025C162.633 77.5397 162.075 77.1833 161.461 76.9583C160.847 76.7333 160.192 76.6451 159.54 76.7C154.9 76.7 150.26 76.7 145.62 76.7C144.74 76.7 144.46 76.48 144.47 75.57C144.47 70.77 144.47 65.97 144.47 61.17C144.47 58.07 142.66 56.28 139.54 56.28C134.78 56.28 130.02 56.28 125.26 56.28C124.35 56.28 124.04 56.08 124.05 55.1C124.05 50.54 124.05 45.98 124.05 41.42C124.05 38.15 122.27 36.36 119.05 36.36L100.31 36.47Z" fill="#01AF34"></path><path d="M42.1599 100.43C42.1599 94.8298 42.1599 89.2298 42.1599 83.6298C42.1599 82.7098 42.3699 82.4298 43.3399 82.4298C49.1699 82.4298 55.0099 82.4298 60.8499 82.4298C61.8499 82.4298 62.1099 82.1498 62.0999 81.1598C62.0999 75.1598 62.0999 69.2498 62.0999 63.2898C62.0999 62.2898 62.2999 61.9398 63.3899 61.9498C69.2699 62.0098 75.1499 61.9498 81.0299 61.9498C82.5399 61.9498 82.5399 61.9498 82.5399 60.3798C82.5399 54.6998 82.5399 49.0198 82.5399 43.3798C82.5399 42.2698 82.8599 42.0898 83.8699 42.0898C94.9832 42.1298 106.097 42.1298 117.21 42.0898C118.21 42.0898 118.49 42.2798 118.48 43.3198C118.48 49.0298 118.48 54.7498 118.48 60.4698C118.48 61.9798 118.48 61.9798 120.05 61.9798C125.92 61.9798 131.8 61.9798 137.68 61.9798C138.68 61.9798 138.92 62.2898 138.91 63.2598C138.91 69.2598 138.91 75.2598 138.91 81.2598C138.91 82.1998 139.14 82.4798 140.1 82.4698C145.98 82.4698 151.86 82.4698 157.74 82.4698C158.66 82.4698 158.85 82.7298 158.85 83.5998C158.85 94.8398 158.85 106.077 158.85 117.31C158.85 118.31 158.52 118.39 157.69 118.39C151.85 118.39 146.02 118.39 140.18 118.39C139.18 118.39 138.9 118.62 138.91 119.63C138.96 125.63 138.91 131.55 138.96 137.5C138.96 138.65 138.61 138.85 137.57 138.84C131.57 138.84 125.65 138.84 119.7 138.84C118.75 138.84 118.49 139.08 118.49 140.03C118.49 145.83 118.49 151.63 118.55 157.42C118.55 158.58 118.18 158.75 117.15 158.75C106.117 158.71 95.0832 158.71 84.0499 158.75C82.7699 158.75 82.5899 158.37 82.5999 157.23C82.6599 151.48 82.5999 145.72 82.5999 139.96C82.5999 139.06 82.3499 138.82 81.4599 138.83C75.4599 138.83 69.4599 138.83 63.4599 138.83C62.4599 138.83 62.1199 138.66 62.1299 137.55C62.1899 131.55 62.1299 125.55 62.1799 119.55C62.1799 118.55 61.8999 118.36 60.9699 118.37C55.1399 118.37 49.2999 118.37 43.4599 118.37C42.4599 118.37 42.2299 118.06 42.2399 117.1C42.1799 111.54 42.1599 105.98 42.1599 100.43Z" fill="#F7F300"></path><path d="M63.1499 224.78C65.9588 221.547 68.5384 218.122 70.8699 214.53C76.7622 205.471 80.5988 195.231 82.1099 184.53C82.9999 178.16 82.8099 171.78 82.7099 165.39C82.7099 164.48 82.9599 164.39 83.7099 164.39C94.8166 164.39 105.93 164.39 117.05 164.39C117.87 164.39 118.05 164.55 118.05 165.39C117.98 169.67 117.83 173.96 118.05 178.22C118.48 186.834 120.451 195.302 123.87 203.22C127.222 210.883 131.731 217.986 137.24 224.28C137.33 224.4 137.41 224.53 137.57 224.76L63.1499 224.78Z" fill="#774926"></path><path d="M30.54 244.58C30.3794 240.115 29.7084 235.682 28.54 231.37C28.41 230.86 28.42 230.57 29.1 230.57C35.66 230.57 42.22 230.57 48.77 230.57C48.83 230.57 48.9 230.63 49.1 230.74C43.2856 235.832 37.0798 240.46 30.54 244.58Z" fill="#784926"></path><path d="M151.85 230.58H157.09C161.88 230.58 166.68 230.58 171.48 230.58C172.08 230.58 172.48 230.58 172.26 231.39C171.089 235.689 170.418 240.108 170.26 244.56C163.695 240.493 157.531 235.812 151.85 230.58Z" fill="#784926"></path><path d="M100.37 80.8902C104.231 80.8823 108.008 82.0196 111.222 84.1584C114.437 86.2971 116.945 89.3412 118.43 92.9055C119.914 96.4699 120.308 100.394 119.562 104.183C118.816 107.971 116.963 111.453 114.237 114.188C111.512 116.923 108.037 118.789 104.251 119.548C100.466 120.308 96.5396 119.928 92.9699 118.457C89.4003 116.985 86.3472 114.488 84.197 111.281C82.0467 108.074 80.8958 104.301 80.8899 100.44C80.8951 95.2689 82.9469 90.3099 86.597 86.6467C90.2471 82.9835 95.1987 80.914 100.37 80.8902Z" fill="black"></path><path d="M114.22 100.47C114.208 103.203 113.385 105.871 111.856 108.136C110.327 110.401 108.16 112.162 105.63 113.195C103.1 114.228 100.32 114.487 97.6422 113.939C94.9646 113.392 92.5098 112.062 90.5885 110.118C88.6672 108.174 87.3658 105.704 86.8491 103.02C86.3325 100.337 86.6237 97.5599 87.686 95.0417C88.7484 92.5236 90.534 90.3773 92.8168 88.8745C95.0996 87.3718 97.777 86.5802 100.51 86.6C104.165 86.629 107.659 88.1048 110.229 90.7042C112.798 93.3036 114.233 96.815 114.22 100.47Z" fill="#FEFEFE"></path></g><defs><clipPath id="clip0_125_2"><rect width="200.83" height="254.71" fill="white"></rect></clipPath></defs></svg> 