<?xml version="1.0" encoding="UTF-8"?> <svg xmlns="http://www.w3.org/2000/svg" width="52" height="66" viewBox="0 0 52 66" fill="none"><path d="M0 27.0044V26.6982C0.063798 26.5706 0.0153115 26.443 0.0306231 26.3027V25.1441C0.0306231 25.0088 0.063798 24.8685 0 24.7383V24.6158C0.0260254 24.5572 0.0394714 24.4937 0.0394714 24.4295C0.0394714 24.3654 0.0260254 24.3019 0 24.2433L0 24.182C0.0867653 23.7227 0.0459346 23.2531 0.0944211 22.7887C0.681451 17.5163 2.88501 12.5546 6.40296 8.58388C9.9209 4.61317 14.581 1.82788 19.7442 0.609909C21.1804 0.24966 22.6531 0.0552945 24.1335 0.0306231C24.1948 0.0306231 24.2586 0.0484865 24.3096 0H24.4321C24.552 0.06635 24.6873 0.0153115 24.8098 0.0306231H26.4354C26.563 0.0153115 26.6905 0.06635 26.8207 0H26.8819C27.4127 0.0765577 27.9537 0.0382788 28.4897 0.096973C34.6625 0.796975 40.3733 3.70768 44.5668 8.29119C45.8055 9.65008 46.8985 11.1349 47.8281 12.7213C49.3213 15.2731 50.3577 18.066 50.8904 20.9742C51.1024 22.0554 51.2118 23.1542 51.2171 24.256C51.2324 24.3964 51.1813 24.5418 51.2477 24.6771V24.7383C51.1839 24.8685 51.2324 24.9935 51.2171 25.1415V26.3001C51.2324 26.4328 51.1839 26.5706 51.2477 26.6982V27.0044C51.1686 27.4765 51.2069 27.9563 51.1558 28.4284C50.8947 30.8988 50.2695 33.317 49.3006 35.6044C47.8219 39.0814 45.5988 42.192 42.7881 44.7171C39.9773 47.2421 36.6471 49.1203 33.0321 50.2193C32.6799 50.3265 32.662 50.3622 32.805 50.7297C33.5826 52.665 34.6723 54.4599 36.0306 56.0428C36.3087 56.3694 36.5946 56.6884 36.8753 57.0125C36.9609 57.1127 37.0686 57.1916 37.19 57.2429C37.3113 57.2943 37.443 57.3168 37.5745 57.3085C40.2285 57.3085 42.8825 57.3085 45.5339 57.3085C46.2383 57.3085 46.2561 57.3366 45.9652 57.9797C45.4301 59.2396 45.1085 60.5798 45.0133 61.9454C44.9585 62.8803 44.9585 63.8176 45.0133 64.7525C44.9444 65.0332 44.896 65.0638 44.6459 64.9439C44.3958 64.8239 44.1661 64.6734 43.9313 64.533C42.041 63.4192 40.2369 62.1652 38.534 60.7817C37.9216 60.2713 37.3346 59.7405 36.7477 59.202C36.6516 59.1132 36.5385 59.0448 36.4153 59.0009C36.292 58.9571 36.1612 58.9387 36.0306 58.9468C32.0751 58.9468 28.1188 58.9468 24.1616 58.9468C21.1741 58.9468 18.1858 58.9468 15.1967 58.9468C15.0606 58.9398 14.9246 58.9611 14.7971 59.0094C14.6697 59.0577 14.5538 59.132 14.4566 59.2276C12.9423 60.6434 11.3147 61.933 9.59012 63.0835C8.64081 63.7189 7.66852 64.3161 6.67838 64.8877C6.36704 65.0664 6.30069 65.0408 6.22414 64.7499C6.19096 64.2395 6.29559 63.7291 6.29049 63.2188C6.26752 61.3227 6.01233 59.4776 5.1855 57.7449C5.01453 57.3876 5.09108 57.2906 5.52236 57.2906C8.24441 57.2906 10.9588 57.2906 13.6655 57.2906C13.792 57.3005 13.919 57.2815 14.0371 57.2351C14.1551 57.1887 14.2611 57.1161 14.3469 57.0227C16.072 55.1547 17.5087 53.1029 18.43 50.7194C18.5729 50.3596 18.555 50.3188 18.208 50.2091C13.522 48.7908 9.33761 46.0657 6.14561 42.3535C2.9536 38.6412 0.886336 34.0957 0.18629 29.2501C0.10134 28.605 0.0493838 27.956 0.0306231 27.3056C0.0255192 27.2035 0.063798 27.0989 0 27.0044Z" fill="black"></path><path d="M25.6007 9.307H20.8542C20.0605 9.307 19.5961 9.7689 19.5935 10.5574C19.5935 11.7211 19.5935 12.8848 19.5935 14.0485C19.5935 14.3037 19.5425 14.3955 19.2618 14.393C18.0573 14.3751 16.8528 14.393 15.6508 14.393C14.8367 14.393 14.3748 14.8498 14.3748 15.6689C14.3748 16.853 14.3748 18.0371 14.3748 19.2212C14.3748 19.5172 14.3238 19.6193 13.9972 19.6142C12.8437 19.5912 11.7004 19.6142 10.5393 19.6142C9.75076 19.6142 9.28886 20.0812 9.28886 20.8749V30.368C9.28886 31.1693 9.76097 31.644 10.5648 31.644C11.7387 31.644 12.9126 31.644 14.0865 31.644C14.3136 31.644 14.3799 31.7001 14.3774 31.9323C14.3774 33.1266 14.3774 34.3209 14.3774 35.505C14.3774 36.4033 14.8163 36.8448 15.7069 36.8448C16.9012 36.8448 18.0955 36.8448 19.2796 36.8448C19.5348 36.8448 19.5808 36.9213 19.5808 37.1561C19.5808 38.5418 19.5629 39.9301 19.5808 41.3183C19.6037 42.3569 19.7007 43.3956 19.6726 44.4368C19.6497 45.8226 19.4864 47.2026 19.1852 48.5556C19.1291 48.8108 19.0551 48.8797 18.782 48.7954C14.5886 47.5601 10.8121 45.2033 7.85978 41.9793C4.78331 38.6711 2.71288 34.555 1.89084 30.1128C1.54107 28.3122 1.40487 26.4766 1.48508 24.644C1.6976 19.5734 3.49877 14.6978 6.63388 10.7068C9.76899 6.71574 14.0794 3.81126 18.9555 2.40405C20.6598 1.91579 22.414 1.62299 24.1844 1.53129C28.4594 1.24352 32.732 2.12574 36.5434 4.08321C41.727 6.67872 45.7903 11.0703 47.976 16.4396C48.8976 18.6538 49.4726 20.9967 49.6807 23.3859C50.1982 28.9718 48.7567 34.5638 45.6032 39.2034C42.4498 43.843 37.7808 47.2413 32.3965 48.8159C32.1898 48.8771 32.1184 48.8516 32.0673 48.6321C31.8094 47.5622 31.6539 46.4701 31.6029 45.3708C31.4982 42.607 31.756 39.8458 31.6616 37.0821C31.6616 36.8703 31.7585 36.8601 31.9168 36.8601H35.5915C36.403 36.8601 36.8675 36.3982 36.8675 35.5841C36.8675 34.4 36.8675 33.216 36.8675 32.0344C36.8675 31.7384 36.9185 31.6338 37.2452 31.6414C38.3859 31.6644 39.5419 31.6414 40.6724 31.6414C41.4763 31.6414 41.9484 31.1668 41.9484 30.3655V20.834C41.9632 20.6674 41.9413 20.4996 41.8842 20.3424C41.8272 20.1852 41.7363 20.0424 41.618 19.9241C41.4997 19.8059 41.357 19.715 41.1998 19.6579C41.0425 19.6008 40.8747 19.5789 40.7081 19.5938C39.524 19.5938 38.3425 19.5938 37.1584 19.5938C36.9313 19.5938 36.8624 19.5402 36.8649 19.308C36.8649 18.0831 36.8649 16.8581 36.8649 15.6332C36.8649 14.8421 36.403 14.3853 35.6068 14.3828C34.3921 14.3828 33.1774 14.3828 31.9627 14.3828C31.7279 14.3828 31.6488 14.3292 31.6514 14.0816C31.6667 12.918 31.6514 11.7543 31.6514 10.5906C31.6514 9.75614 31.1997 9.29934 30.3754 9.29934L25.6007 9.307Z" fill="#01AF34"></path><path d="M10.7587 25.6265C10.7587 24.1999 10.7587 22.7709 10.7587 21.3418C10.7587 21.107 10.8097 21.033 11.0572 21.0356C12.5476 21.0356 14.0379 21.0356 15.5257 21.0356C15.7808 21.0356 15.8498 20.9641 15.8472 20.7115C15.8472 19.1803 15.8472 17.6721 15.8472 16.1512C15.8472 15.896 15.8982 15.8041 16.1789 15.8067C17.6795 15.8245 19.1775 15.8067 20.678 15.8067C21.0633 15.8067 21.0633 15.8067 21.0633 15.4086C21.0633 13.9591 21.0633 12.5096 21.0633 11.0703C21.0633 10.7896 21.145 10.7437 21.4027 10.7437C24.2405 10.7539 27.0774 10.7539 29.9134 10.7437C30.1686 10.7437 30.24 10.7921 30.2375 11.055C30.2222 12.5147 30.2375 13.9744 30.2375 15.4315C30.2375 15.8169 30.2375 15.8169 30.6381 15.8169C32.1387 15.8169 33.6392 15.8169 35.1372 15.8169C35.3924 15.8169 35.4562 15.896 35.4536 16.1435C35.4536 17.6747 35.4536 19.2058 35.4536 20.737C35.4536 20.9769 35.5123 21.0458 35.7573 21.0458C37.2578 21.0458 38.7558 21.0458 40.2563 21.0458C40.4911 21.0458 40.5396 21.1147 40.5396 21.3367C40.5396 24.205 40.5396 27.0725 40.5396 29.9392C40.5396 30.1944 40.4528 30.2148 40.2436 30.2123C38.7532 30.2123 37.2629 30.2123 35.7726 30.2123C35.5174 30.2123 35.446 30.271 35.4485 30.5313C35.4613 32.0624 35.4485 33.5706 35.4638 35.0915C35.4638 35.3825 35.3745 35.436 35.1066 35.4335C33.5882 35.4207 32.0672 35.4335 30.5463 35.4335C30.3064 35.4335 30.2375 35.4922 30.24 35.7372C30.24 37.2173 30.24 38.6948 30.24 40.175C30.24 40.471 30.1482 40.5144 29.8853 40.5144C27.068 40.5042 24.2515 40.5042 21.4359 40.5144C21.1093 40.5144 21.0633 40.4148 21.0659 40.1265C21.0812 38.6566 21.0659 37.1892 21.0659 35.7193C21.0659 35.4871 21.0046 35.4284 20.775 35.4309C19.2438 35.4309 17.7127 35.4309 16.1815 35.4309C15.9263 35.4309 15.837 35.3876 15.8395 35.1043C15.8574 33.5731 15.8395 32.042 15.8549 30.5108C15.8549 30.2556 15.7808 30.2072 15.5461 30.2097C14.0557 30.2097 12.5654 30.2097 11.0777 30.2097C10.8225 30.2097 10.7638 30.1332 10.7663 29.8882C10.7638 28.4642 10.7587 27.0504 10.7587 25.6265Z" fill="#F7F300"></path><path d="M16.1152 57.3594C16.834 56.5355 17.4932 55.6613 18.0878 54.7437C19.5918 52.4323 20.5701 49.8188 20.9536 47.0879C21.1833 45.4649 21.1348 43.8342 21.1067 42.2061C21.1067 41.9739 21.1705 41.9509 21.3619 41.9509C24.1997 41.9509 27.0357 41.9509 29.87 41.9509C30.0793 41.9509 30.1252 41.9918 30.1252 42.2061C30.1074 43.2983 30.0665 44.3906 30.1252 45.4802C30.2342 47.6786 30.7372 49.8396 31.6104 51.86C32.4652 53.8154 33.615 55.628 35.0198 57.2344C35.051 57.2727 35.08 57.3127 35.1066 57.3543L16.1152 57.3594Z" fill="#774926"></path><path d="M7.79595 62.4123C7.75351 61.2729 7.58229 60.1421 7.28557 59.0412C7.24984 58.9136 7.25239 58.8396 7.42847 58.8396C9.09913 58.8396 10.7723 58.8396 12.4481 58.8396C12.4634 58.8396 12.4787 58.8575 12.5298 58.883C11.0479 60.1831 9.46497 61.3632 7.79595 62.4123Z" fill="#784926"></path><path d="M38.7509 58.8423H40.0881C41.313 58.8423 42.538 58.8423 43.7603 58.8423C43.9135 58.8423 44.0155 58.8423 43.9619 59.049C43.6633 60.146 43.492 61.2737 43.4516 62.4099C41.7753 61.3722 40.2013 60.1776 38.7509 58.8423Z" fill="#784926"></path><path d="M25.616 20.6401C26.6011 20.6386 27.5646 20.9292 28.3845 21.4752C29.2045 22.0212 29.8442 22.7981 30.2227 23.7076C30.6012 24.617 30.7015 25.6183 30.511 26.5849C30.3205 27.5514 29.8477 28.4397 29.1523 29.1375C28.457 29.8353 27.5704 30.3113 26.6046 30.5053C25.6387 30.6993 24.6371 30.6025 23.7262 30.2273C22.8154 29.8521 22.0363 29.2152 21.4873 28.3972C20.9384 27.5792 20.6444 26.6168 20.6423 25.6317C20.643 24.3112 21.1667 23.0446 22.0988 22.1092C23.0308 21.1737 24.2955 20.6455 25.616 20.6401Z" fill="black"></path><path d="M29.1505 25.6392C29.1474 26.3365 28.9376 27.0173 28.5475 27.5953C28.1574 28.1733 27.6046 28.6226 26.959 28.8863C26.3134 29.15 25.6042 29.2163 24.9209 29.0767C24.2377 28.9371 23.6112 28.598 23.1208 28.1022C22.6304 27.6064 22.2981 26.9763 22.166 26.2916C22.0338 25.6069 22.1078 24.8984 22.3785 24.2557C22.6492 23.6131 23.1045 23.0652 23.6867 22.6814C24.2689 22.2976 24.9519 22.0951 25.6493 22.0997C26.5822 22.1071 27.4742 22.4836 28.1303 23.1469C28.7864 23.8102 29.1532 24.7062 29.1505 25.6392Z" fill="#FEFEFE"></path></svg> 