<svg xmlns="http://www.w3.org/2000/svg" width="1440" height="82" viewBox="0 0 1440 82" fill="none"><path d="M1440 0H0V77.4242C9.06294 77.3982 22.8252 79.9721 25.1748 79.9461C37.5944 80.1281 51.0209 79.5041 64.7832 79.5041C78.5454 79.2441 92.3078 81.168 104.392 81.064C116.476 80.882 127.217 81.168 134.937 80.83C142.322 80.0501 147.357 81.09 147.021 80.752C148.364 79.9461 153.734 80.2061 161.119 80.5961C168.839 81.064 178.238 80.83 187.636 80.5701C197.371 81.506 206.769 80.2581 214.825 80.96C222.881 81.272 228.923 81.584 230.937 81.61C232.951 81.142 248.392 81.766 263.832 81.168C279.273 81.09 295.049 81.532 297.399 80.96C297.399 81.194 302.769 80.934 311.161 81.038C319.552 81.064 330.629 81.168 341.706 81.298C352.783 81.584 364.196 82.338 372.252 81.714C380.643 81.87 386.014 81.116 386.014 81.61C392.392 81.636 399.105 80.6221 405.147 80.2061C411.189 80.4141 415.552 79.0881 417.231 79.3221C424.951 80.0241 432.336 80.778 440.392 81.272C444.755 80.804 459.189 80.7001 463.888 80.5961C468.587 80.2581 490.741 82.078 495.776 81.87C516.923 81.038 514.573 80.7261 538.07 82C555.189 81.584 559.888 79.2441 588.419 80.0241C611.245 78.7501 602.517 78.8801 634.07 80.0761C641.119 79.7121 635.413 78.9841 646.825 78.7761C651.86 79.8421 659.58 80.1541 667.301 81.012L691.804 80.1801C696.168 79.3221 700.867 79.5561 702.21 78.8021C726.378 79.8161 755.916 79.7641 780.419 80.674H785.119C825.063 80.2321 840.839 81.324 858.629 80.0501L938.517 80.4401C938.517 80.4401 997.93 81.194 1037.54 81.688C1057.34 81.948 1072.11 81.688 1072.11 81.87C1072.11 81.662 1085.2 81.038 1105.34 81.376C1115.41 81.064 1126.82 80.3881 1139.24 80.3101C1151.66 80.3881 1165.43 81.532 1178.85 81.428C1192.28 81.428 1205.03 78.9581 1217.45 78.5681C1229.87 78.4122 1241.96 79.5821 1252.03 79.3221C1271.83 78.4901 1257.06 80.0241 1285.93 80.4661C1290.63 79.7121 1296.34 79.8421 1302.04 79.6861C1307.75 79.4261 1314.13 79.5821 1320.17 78.9321C1326.55 78.8541 1333.26 78.9321 1339.97 79.0361C1346.69 79.1921 1353.73 79.6601 1360.45 79.5301C1368.17 79.1661 1372.87 78.9061 1378.91 78.7501C1385.29 78.6201 1393.01 78.5941 1406.1 78.7501C1423.22 77.2422 1418.85 77.2942 1438.99 77.7882L1440 0Z" fill="white"></path></svg>