<svg xmlns="http://www.w3.org/2000/svg" width="40" height="278" viewBox="0 0 40 278" fill="none"><path d="M20.5721 171.894C20.1721 181.624 19.982 191.354 19.802 201.094C19.8039 201.15 19.822 201.204 19.8539 201.25C19.8859 201.296 19.9305 201.331 19.9823 201.353C20.0341 201.374 20.0909 201.379 20.1458 201.369C20.2008 201.359 20.2516 201.332 20.2921 201.294C26.0654 196.207 31.9821 191.291 38.0421 186.544C38.1111 186.473 38.1497 186.378 38.1497 186.279C38.1497 186.18 38.1111 186.085 38.0421 186.014C32.5313 180.93 26.7423 176.156 20.702 171.714C20.512 171.574 20.272 171.894 20.452 172.044C23.452 174.664 26.452 177.214 29.452 179.764C31.372 181.374 33.302 182.964 35.202 184.584C36.732 185.894 37.002 185.424 35.952 187.214C35.162 188.574 32.652 189.884 31.472 190.864C28.542 193.284 25.802 196.164 22.702 198.344C20.522 199.884 20.342 200.414 20.372 197.584L20.432 192.194C20.512 185.424 20.542 178.664 20.582 171.894L20.5721 171.894Z" fill="black"></path><path d="M34.2821 178.964L25.8021 170.904C24.9721 170.104 21.8021 167.974 22.1421 166.794C22.2621 166.304 23.6621 165.584 24.0321 165.284C28.2421 161.974 32.5521 158.804 36.8021 155.554C39.3221 153.624 38.8021 154.734 38.7321 157.784C38.6821 161.064 38.5921 164.334 38.5521 167.614C38.5521 171.184 38.4921 174.744 38.5521 178.314C38.5521 179.484 39.3321 181.784 37.9521 182.204C37.5221 182.344 34.6321 179.144 34.3421 178.884C34.0521 178.624 33.8421 178.994 34.0421 179.174C35.6288 180.674 37.2221 182.167 38.8221 183.654C38.8561 183.684 38.898 183.704 38.943 183.712C38.988 183.719 39.0342 183.714 39.0761 183.696C39.1181 183.678 39.1541 183.649 39.18 183.611C39.2058 183.574 39.2204 183.529 39.2221 183.484C38.8221 173.484 39.2721 163.484 39.3721 153.414C39.3713 153.355 39.3532 153.298 39.3202 153.249C39.2872 153.201 39.2407 153.163 39.1864 153.141C39.1321 153.118 39.0724 153.112 39.0147 153.124C38.9571 153.135 38.904 153.163 38.8621 153.204C32.9821 157.794 26.8621 162.124 21.1321 166.884C21.1042 166.909 21.0819 166.94 21.0666 166.974C21.0514 167.009 21.0435 167.046 21.0435 167.084C21.0435 167.122 21.0514 167.159 21.0666 167.193C21.0819 167.228 21.1042 167.259 21.1321 167.284C25.4321 171.284 29.7921 175.164 34.1321 179.094C34.2321 179.174 34.3621 179.044 34.2821 178.964Z" fill="black"></path><path d="M20.902 149.204C20.782 153.914 20.662 158.624 20.902 163.324C20.902 163.534 21.172 163.744 21.372 163.594C27.4876 159.117 33.2941 154.232 38.752 148.974C38.8204 148.905 38.8588 148.811 38.8588 148.714C38.8588 148.616 38.8204 148.523 38.752 148.454C32.932 143.904 27.242 139.194 21.752 134.264C21.7014 134.218 21.6389 134.188 21.5719 134.177C21.5048 134.165 21.4359 134.173 21.3731 134.199C21.3103 134.226 21.2562 134.269 21.2171 134.325C21.178 134.38 21.1554 134.446 21.152 134.514C21.072 139.414 20.962 144.304 20.932 149.204C20.932 149.504 21.382 149.504 21.402 149.204C21.512 146.024 21.662 142.844 21.752 139.664C21.852 135.904 21.542 135.074 24.632 137.754C26.702 139.564 28.802 141.334 30.922 143.084C32.332 144.244 37.072 146.974 37.192 148.744C37.312 150.514 33.542 152.854 32.272 153.954C30.072 155.854 27.8354 157.714 25.562 159.534C24.682 160.234 23.502 161.694 22.332 161.754C20.792 161.834 21.402 160.884 21.332 159.324C21.262 155.954 21.332 152.574 21.332 149.204C21.3122 149.164 21.2815 149.13 21.2435 149.106C21.2055 149.083 21.1617 149.07 21.117 149.07C21.0723 149.07 21.0285 149.083 20.9905 149.106C20.9525 149.13 20.9219 149.164 20.902 149.204Z" fill="black"></path><path d="M34.2821 140.504L25.8021 132.434C24.9721 131.644 21.8021 129.514 22.1421 128.334C22.2621 127.844 23.6621 127.124 24.0321 126.824C28.2421 123.514 32.5521 120.344 36.8021 117.094C39.3221 115.164 38.8021 116.264 38.7321 119.324C38.6821 122.604 38.5921 125.874 38.5521 129.154C38.5521 132.724 38.4921 136.284 38.5521 139.854C38.5521 141.024 39.3321 143.314 37.9521 143.744C37.5221 143.884 34.6321 140.684 34.3421 140.424C34.0521 140.164 33.8421 140.534 34.0421 140.714C35.6288 142.214 37.2221 143.707 38.8221 145.194C38.8561 145.224 38.898 145.244 38.943 145.252C38.988 145.259 39.0342 145.254 39.0761 145.236C39.1181 145.218 39.1541 145.189 39.18 145.151C39.2058 145.114 39.2204 145.069 39.2221 145.024C38.8221 135.024 39.2721 124.974 39.3721 114.954C39.3713 114.895 39.3532 114.838 39.3202 114.789C39.2872 114.741 39.2407 114.703 39.1864 114.681C39.1321 114.658 39.0724 114.652 39.0147 114.664C38.9571 114.675 38.904 114.703 38.8621 114.744C32.9821 119.334 26.8621 123.664 21.1321 128.424C21.1042 128.449 21.0819 128.48 21.0666 128.514C21.0514 128.549 21.0435 128.586 21.0435 128.624C21.0435 128.662 21.0514 128.699 21.0666 128.733C21.0819 128.768 21.1042 128.799 21.1321 128.824C25.4321 132.824 29.7921 136.704 34.1321 140.634C34.2321 140.714 34.3621 140.584 34.2821 140.504Z" fill="black"></path><path d="M20.902 110.744C20.782 115.454 20.662 120.164 20.902 124.864C20.902 125.074 21.172 125.284 21.372 125.134C27.4876 120.657 33.2941 115.773 38.752 110.514C38.8204 110.445 38.8588 110.351 38.8588 110.254C38.8588 110.156 38.8204 110.063 38.752 109.994C32.932 105.444 27.242 100.734 21.752 95.8038C21.7014 95.7584 21.6389 95.7282 21.5719 95.7168C21.5048 95.7054 21.4359 95.7132 21.3731 95.7394C21.3103 95.7656 21.2562 95.809 21.2171 95.8646C21.178 95.9203 21.1554 95.9859 21.152 96.0538C21.072 100.954 20.962 105.844 20.932 110.744C20.932 111.044 21.382 111.044 21.402 110.744C21.512 107.564 21.662 104.384 21.752 101.204C21.852 97.4338 21.542 96.6138 24.632 99.2938C26.702 101.104 28.802 102.874 30.922 104.624C32.332 105.784 37.072 108.514 37.192 110.284C37.312 112.054 33.542 114.394 32.272 115.494C30.072 117.394 27.832 119.244 25.562 121.074C24.682 121.774 23.502 123.234 22.332 123.294C20.792 123.374 21.402 122.424 21.332 120.864C21.262 117.494 21.332 114.114 21.332 110.744C21.3122 110.704 21.2815 110.67 21.2435 110.646C21.2055 110.623 21.1617 110.61 21.117 110.61C21.0723 110.61 21.0285 110.623 20.9905 110.646C20.9525 110.67 20.9219 110.704 20.902 110.744Z" fill="black"></path><path d="M34.2823 102.044L25.8022 93.9739C24.9722 93.1839 21.8022 91.0439 22.1422 89.8739C22.2622 89.3839 23.6623 88.6539 24.0323 88.3639C28.2423 85.0539 32.5522 81.8839 36.8022 78.6339C39.3222 76.7039 38.8023 77.8039 38.7323 80.8639C38.6823 84.1439 38.5922 87.4139 38.5522 90.6939C38.5522 94.2639 38.4922 97.8239 38.5522 101.394C38.5522 102.564 39.3322 104.854 37.9522 105.284C37.5222 105.414 34.6323 102.224 34.3423 101.954C34.0523 101.684 33.8423 102.074 34.0423 102.254C35.6323 103.744 37.2223 105.254 38.8223 106.734C38.8562 106.764 38.8982 106.784 38.9431 106.792C38.9881 106.799 39.0343 106.794 39.0763 106.776C39.1183 106.758 39.1543 106.729 39.1801 106.691C39.206 106.654 39.2206 106.609 39.2223 106.564C38.8223 96.5639 39.2723 86.5639 39.3723 76.4939C39.3714 76.4352 39.3534 76.378 39.3204 76.3294C39.2874 76.2809 39.2408 76.2431 39.1865 76.2207C39.1322 76.1984 39.0725 76.1924 39.0149 76.2037C38.9573 76.2149 38.9042 76.2428 38.8622 76.2839C32.9822 80.8739 26.8623 85.2039 21.1323 89.9639C21.1046 89.9883 21.0824 90.0183 21.0673 90.0519C21.0521 90.0856 21.0442 90.122 21.0442 90.1589C21.0442 90.1958 21.0521 90.2323 21.0673 90.2659C21.0824 90.2995 21.1046 90.3295 21.1323 90.3539C25.4323 94.3539 29.7923 98.2339 34.1323 102.174C34.2323 102.254 34.3623 102.124 34.2823 102.044Z" fill="black"></path><path d="M20.902 72.2838C20.782 76.9838 20.662 81.7038 20.902 86.4038C20.902 86.6138 21.172 86.8238 21.372 86.6738C27.4876 82.197 33.2941 77.3126 38.752 72.0538C38.8211 71.9829 38.8597 71.8878 38.8597 71.7888C38.8597 71.6898 38.8211 71.5948 38.752 71.5238C32.932 66.9838 27.242 62.2738 21.752 57.3438C21.7014 57.2984 21.6389 57.2682 21.5719 57.2568C21.5048 57.2454 21.4359 57.2533 21.3731 57.2795C21.3103 57.3056 21.2562 57.349 21.2171 57.4047C21.178 57.4603 21.1554 57.5259 21.152 57.5938C21.072 62.4938 20.962 67.3838 20.932 72.2838C20.932 72.5838 21.382 72.5838 21.402 72.2838C21.512 69.1038 21.662 65.9238 21.752 62.7438C21.852 58.9738 21.542 58.1538 24.632 60.8338C26.7054 62.6338 28.802 64.4105 30.922 66.1638C32.332 67.3238 37.072 70.0538 37.192 71.8238C37.312 73.5938 33.542 75.9338 32.272 77.0238C30.072 78.9338 27.832 80.7838 25.562 82.6138C24.682 83.3138 23.502 84.7738 22.332 84.8338C20.792 84.9038 21.402 83.9638 21.332 82.4038C21.262 79.0338 21.332 75.6538 21.332 72.2838C21.3122 72.2438 21.2815 72.2101 21.2435 72.1865C21.2055 72.163 21.1617 72.1505 21.117 72.1505C21.0723 72.1505 21.0285 72.163 20.9905 72.1865C20.9525 72.2101 20.9219 72.2438 20.902 72.2838Z" fill="black"></path><path d="M20.5721 247.904C20.1721 257.634 19.982 267.364 19.802 277.094C19.806 277.149 19.825 277.202 19.8569 277.246C19.8888 277.291 19.9325 277.326 19.9831 277.348C20.0337 277.37 20.0893 277.377 20.1438 277.369C20.1983 277.361 20.2496 277.339 20.2921 277.304C26.0654 272.217 31.9821 267.301 38.0421 262.554C38.1117 262.481 38.1506 262.384 38.1506 262.284C38.1506 262.183 38.1117 262.086 38.0421 262.014C32.5286 256.936 26.7399 252.165 20.702 247.724C20.512 247.584 20.272 247.894 20.452 248.054C23.452 250.674 26.452 253.224 29.452 255.774C31.372 257.374 33.302 258.964 35.202 260.594C36.732 261.904 37.002 261.434 35.952 263.224C35.162 264.584 32.652 265.894 31.472 266.874C28.542 269.294 25.802 272.164 22.702 274.354C20.522 275.894 20.342 276.414 20.372 273.594L20.432 268.204C20.512 261.434 20.542 254.674 20.582 247.904L20.5721 247.904Z" fill="black"></path><path d="M34.2821 254.964C31.4554 252.297 28.6288 249.611 25.8021 246.904C24.9721 246.114 21.8021 243.974 22.1421 242.794C22.2621 242.304 23.6621 241.584 24.0321 241.294C28.2421 237.984 32.5521 234.804 36.8021 231.554C39.3221 229.634 38.8021 230.734 38.7321 233.794C38.6821 237.064 38.5921 240.344 38.5521 243.624C38.5521 247.184 38.4921 250.754 38.5521 254.314C38.5521 255.494 39.3321 257.784 37.9521 258.214C37.5221 258.344 34.6321 255.154 34.3421 254.884C34.0521 254.614 33.8421 254.994 34.0421 255.184L38.8221 259.654C38.8537 259.688 38.895 259.713 38.9407 259.723C38.9863 259.734 39.0341 259.73 39.0776 259.713C39.1211 259.695 39.1582 259.665 39.1841 259.626C39.2099 259.587 39.2232 259.541 39.2221 259.494C38.8221 249.494 39.2721 239.494 39.3721 229.424C39.3713 229.365 39.3532 229.308 39.3202 229.259C39.2872 229.211 39.2407 229.173 39.1864 229.151C39.1321 229.128 39.0724 229.122 39.0147 229.134C38.9571 229.145 38.904 229.173 38.8621 229.214C32.9821 233.804 26.8621 238.124 21.1321 242.884C21.1042 242.909 21.0819 242.94 21.0666 242.974C21.0514 243.009 21.0435 243.046 21.0435 243.084C21.0435 243.122 21.0514 243.159 21.0666 243.193C21.0819 243.228 21.1042 243.259 21.1321 243.284C25.4321 247.284 29.7921 251.164 34.1321 255.104C34.1507 255.124 34.1764 255.135 34.2036 255.136C34.2307 255.137 34.2572 255.127 34.2771 255.109C34.297 255.09 34.3087 255.065 34.3096 255.037C34.3106 255.01 34.3007 254.984 34.2821 254.964Z" fill="black"></path><path d="M20.902 225.214C20.782 229.914 20.662 234.624 20.902 239.334C20.902 239.544 21.172 239.754 21.372 239.604C27.4878 235.123 33.2943 230.236 38.752 224.974C38.8204 224.905 38.8588 224.811 38.8588 224.714C38.8588 224.616 38.8204 224.523 38.752 224.454C32.932 219.914 27.242 215.194 21.752 210.274C21.7014 210.228 21.6389 210.198 21.5719 210.187C21.5048 210.175 21.4359 210.183 21.3731 210.209C21.3103 210.236 21.2562 210.279 21.2171 210.335C21.178 210.39 21.1554 210.456 21.152 210.524C21.072 215.424 20.962 220.314 20.932 225.214C20.932 225.514 21.382 225.514 21.402 225.214C21.512 222.034 21.662 218.854 21.752 215.674C21.852 211.904 21.542 211.074 24.632 213.764C26.7054 215.564 28.802 217.337 30.922 219.084C32.332 220.254 37.072 222.984 37.192 224.754C37.312 226.524 33.542 228.854 32.272 229.954C30.072 231.854 27.8354 233.714 25.562 235.534C24.682 236.244 23.502 237.704 22.332 237.764C20.792 237.834 21.402 236.894 21.332 235.334C21.262 231.964 21.332 228.584 21.332 225.214C21.3122 225.174 21.2815 225.14 21.2435 225.116C21.2055 225.093 21.1617 225.08 21.117 225.08C21.0723 225.08 21.0285 225.093 20.9905 225.116C20.9525 225.14 20.9219 225.174 20.902 225.214Z" fill="black"></path><path d="M34.2822 216.504C31.4555 213.837 28.6288 211.151 25.8022 208.444C24.9722 207.654 21.8022 205.514 22.1422 204.334C22.2622 203.844 23.6622 203.124 24.0322 202.834C28.2422 199.524 32.5522 196.344 36.8022 193.094C39.3222 191.174 38.8022 192.274 38.7322 195.334C38.6822 198.604 38.5922 201.884 38.5522 205.164C38.5522 208.724 38.4922 212.294 38.5522 215.854C38.5522 217.034 39.3321 219.324 37.9521 219.754C37.5221 219.884 34.6322 216.694 34.3422 216.424C34.0522 216.154 33.8422 216.534 34.0422 216.724L38.8222 221.194C38.8537 221.229 38.8951 221.253 38.9407 221.263C38.9864 221.274 39.0341 221.27 39.0776 221.253C39.1211 221.235 39.1583 221.205 39.1841 221.166C39.2099 221.127 39.2232 221.081 39.2222 221.034C38.8222 211.034 39.2722 200.984 39.3722 190.964C39.3713 190.905 39.3533 190.848 39.3203 190.799C39.2873 190.751 39.2407 190.713 39.1864 190.691C39.1321 190.668 39.0724 190.662 39.0148 190.674C38.9572 190.685 38.9041 190.713 38.8622 190.754C32.9822 195.334 26.8622 199.664 21.1322 204.424C21.1056 204.45 21.0844 204.481 21.07 204.515C21.0555 204.55 21.0481 204.587 21.0481 204.624C21.0481 204.661 21.0555 204.698 21.07 204.732C21.0844 204.767 21.1056 204.798 21.1322 204.824C25.4322 208.824 29.7922 212.704 34.1322 216.644C34.1507 216.664 34.1764 216.676 34.2036 216.676C34.2308 216.677 34.2573 216.667 34.2772 216.649C34.2971 216.63 34.3088 216.605 34.3097 216.577C34.3106 216.55 34.3007 216.524 34.2822 216.504Z" fill="black"></path><path d="M20.5721 18.9737C20.1721 28.7037 19.982 38.4337 19.802 48.1637C19.8039 48.2196 19.822 48.2738 19.8539 48.3197C19.8859 48.3656 19.9305 48.4012 19.9823 48.4224C20.0341 48.4435 20.0909 48.4492 20.1458 48.4388C20.2008 48.4284 20.2516 48.4023 20.2921 48.3637C26.0654 43.277 31.9821 38.3604 38.0421 33.6137C38.1111 33.5428 38.1497 33.4477 38.1497 33.3487C38.1497 33.2497 38.1111 33.1546 38.0421 33.0837C32.5285 28.006 26.7397 23.2354 20.702 18.7937C20.512 18.6637 20.272 18.9737 20.452 19.1337C23.452 21.7537 26.452 24.3037 29.452 26.8437C31.372 28.4537 33.302 30.0437 35.202 31.6637C36.732 32.9837 37.002 32.5037 35.952 34.2937C35.162 35.6637 32.652 36.9737 31.472 37.9437C28.542 40.3737 25.802 43.2437 22.702 45.4237C20.522 46.9637 20.342 47.4937 20.372 44.6737L20.432 39.2737C20.512 32.5137 20.542 25.7437 20.582 18.9837L20.5721 18.9737Z" fill="black"></path><path d="M34.2821 26.0339C31.4554 23.3672 28.6288 20.6805 25.8021 17.9739C24.9721 17.1839 21.8021 15.0439 22.1421 13.8639C22.2621 13.3739 23.6621 12.6539 24.0321 12.3539C28.2421 9.05388 32.5521 5.87387 36.8021 2.62387C39.3221 0.69387 38.8021 1.80388 38.7321 4.85388C38.6821 8.13388 38.5921 11.4139 38.5521 14.6939C38.5521 18.2539 38.4921 21.8239 38.5521 25.3839C38.5521 26.5639 39.3321 28.8539 37.9521 29.2839C37.5221 29.4139 34.6321 26.2139 34.3421 25.9539C34.0521 25.6939 33.8421 26.0639 34.0421 26.2539L38.8221 30.7239C38.8542 30.7593 38.8965 30.7839 38.9432 30.7942C38.9899 30.8045 39.0386 30.7999 39.0826 30.7812C39.1266 30.7625 39.1637 30.7306 39.1887 30.6898C39.2137 30.6491 39.2254 30.6016 39.2221 30.5539C38.8221 20.5539 39.2721 10.5539 39.3721 0.493896C39.3713 0.435178 39.3532 0.377968 39.3202 0.329406C39.2872 0.280844 39.2407 0.243061 39.1864 0.220702C39.1321 0.198343 39.0724 0.19241 39.0147 0.203643C38.9571 0.214876 38.904 0.242761 38.8621 0.283874C32.9821 4.86387 26.8621 9.19389 21.1321 13.9539C21.1042 13.9792 21.0819 14.01 21.0666 14.0445C21.0514 14.0789 21.0435 14.1162 21.0435 14.1539C21.0435 14.1915 21.0514 14.2288 21.0666 14.2633C21.0819 14.2977 21.1042 14.3286 21.1321 14.3539C25.4321 18.3539 29.7921 22.2339 34.1321 26.1639C34.1502 26.1802 34.1737 26.1894 34.1981 26.1896C34.2225 26.1899 34.2461 26.1812 34.2646 26.1652C34.283 26.1492 34.295 26.1271 34.2982 26.1029C34.3014 26.0787 34.2957 26.0541 34.2821 26.0339Z" fill="black"></path><path d="M34.2823 102.044L25.8022 93.9739C24.9722 93.1839 21.8022 91.0439 22.1422 89.8739C22.2622 89.3839 23.6623 88.6539 24.0323 88.3639C28.2423 85.0539 32.5522 81.8839 36.8022 78.6339C39.3222 76.7039 38.8023 77.8039 38.7323 80.8639C38.6823 84.1439 38.5922 87.4139 38.5522 90.6939C38.5522 94.2639 38.4922 97.8239 38.5522 101.394C38.5522 102.564 39.3322 104.854 37.9522 105.284C37.5222 105.414 34.6323 102.224 34.3423 101.954C34.0523 101.684 33.8423 102.074 34.0423 102.254C35.6323 103.744 37.2223 105.254 38.8223 106.734C38.8562 106.764 38.8982 106.784 38.9431 106.792C38.9881 106.799 39.0343 106.794 39.0763 106.776C39.1183 106.758 39.1543 106.729 39.1801 106.691C39.206 106.654 39.2206 106.609 39.2223 106.564C38.8223 96.5639 39.2723 86.5639 39.3723 76.4939C39.3714 76.4352 39.3534 76.378 39.3204 76.3294C39.2874 76.2809 39.2408 76.2431 39.1865 76.2207C39.1322 76.1984 39.0725 76.1924 39.0149 76.2037C38.9573 76.2149 38.9042 76.2428 38.8622 76.2839C32.9822 80.8739 26.8623 85.2039 21.1323 89.9639C21.1046 89.9883 21.0824 90.0183 21.0673 90.0519C21.0521 90.0856 21.0442 90.122 21.0442 90.1589C21.0442 90.1958 21.0521 90.2323 21.0673 90.2659C21.0824 90.2995 21.1046 90.3295 21.1323 90.3539C25.4323 94.3539 29.7923 98.2339 34.1323 102.174C34.2323 102.254 34.3623 102.124 34.2823 102.044Z" fill="black"></path><path d="M34.2821 63.5837L25.8021 55.5137C24.9721 54.7237 21.8021 52.5837 22.1421 51.4137C22.2621 50.9237 23.6621 50.1937 24.0321 49.9037C28.2421 46.5937 32.5521 43.4137 36.8021 40.1737C39.3221 38.2437 38.8021 39.3437 38.7321 42.4037C38.6821 45.6837 38.5921 48.9537 38.5521 52.2337C38.5521 55.7937 38.4921 59.3637 38.5521 62.9237C38.5521 64.1037 39.3321 66.3937 37.9521 66.8237C37.5221 66.9537 34.6321 63.7637 34.3421 63.4937C34.0521 63.2237 33.8421 63.6137 34.0421 63.7937C35.6321 65.2837 37.2221 66.7937 38.8221 68.2737C38.8561 68.3041 38.898 68.3243 38.943 68.3317C38.988 68.3392 39.0342 68.3337 39.0761 68.3158C39.1181 68.298 39.1541 68.2686 39.18 68.231C39.2058 68.1934 39.2204 68.1493 39.2221 68.1037C38.8221 58.1037 39.2721 48.0537 39.3721 38.0337C39.3713 37.975 39.3532 37.9178 39.3202 37.8692C39.2872 37.8207 39.2407 37.7829 39.1864 37.7605C39.1321 37.7381 39.0724 37.7322 39.0147 37.7435C38.9571 37.7547 38.904 37.7826 38.8621 37.8237C32.9821 42.4137 26.8621 46.7337 21.1321 51.4937C21.1042 51.519 21.0819 51.5499 21.0666 51.5843C21.0514 51.6188 21.0435 51.656 21.0435 51.6937C21.0435 51.7314 21.0514 51.7686 21.0666 51.8031C21.0819 51.8375 21.1042 51.8684 21.1321 51.8937C25.4321 55.8937 29.7921 59.7737 34.1321 63.7137C34.2321 63.7937 34.3621 63.6637 34.2821 63.5837Z" fill="black"></path><path d="M0.770018 171.696C0.370019 181.426 0.18 191.156 -1.22469e-08 200.896C0.00189813 200.952 0.0199302 201.006 0.0519104 201.052C0.0838906 201.098 0.128448 201.133 0.180237 201.155C0.232025 201.176 0.288851 201.181 0.343811 201.171C0.398771 201.161 0.449546 201.134 0.490021 201.096C6.26335 196.009 12.18 191.093 18.24 186.346C18.309 186.275 18.3477 186.18 18.3477 186.081C18.3477 185.982 18.309 185.887 18.24 185.816C12.7293 180.732 6.94031 175.958 0.899993 171.516C0.709993 171.376 0.469993 171.696 0.649993 171.846C3.64999 174.466 6.64999 177.016 9.64999 179.566C11.57 181.176 13.5 182.766 15.4 184.386C16.93 185.696 17.2 185.226 16.15 187.016C15.36 188.376 12.85 189.686 11.67 190.666C8.74001 193.086 5.99999 195.966 2.89999 198.146C0.719994 199.686 0.540007 200.216 0.570007 197.386L0.630004 191.996C0.710004 185.226 0.739998 178.466 0.779997 171.696L0.770018 171.696Z" fill="black"></path><path d="M14.4801 178.766L6.00006 170.706C5.17006 169.906 2.00006 167.776 2.34006 166.596C2.46006 166.106 3.86007 165.386 4.23007 165.086C8.44007 161.776 12.7501 158.606 17.0001 155.356C19.5201 153.426 19.0001 154.536 18.9301 157.586C18.8801 160.866 18.7901 164.136 18.7501 167.416C18.7501 170.986 18.6901 174.546 18.7501 178.116C18.7501 179.286 19.5301 181.586 18.1501 182.006C17.7201 182.146 14.8301 178.946 14.5401 178.686C14.2501 178.426 14.0401 178.796 14.2401 178.976C15.8267 180.476 17.4201 181.969 19.0201 183.456C19.054 183.486 19.096 183.506 19.141 183.514C19.186 183.521 19.2321 183.516 19.2741 183.498C19.3161 183.48 19.3521 183.451 19.378 183.413C19.4038 183.376 19.4184 183.331 19.4201 183.286C19.0201 173.286 19.4701 163.286 19.5701 153.216C19.5692 153.157 19.5512 153.1 19.5182 153.051C19.4852 153.003 19.4386 152.965 19.3843 152.943C19.33 152.92 19.2703 152.914 19.2127 152.926C19.1551 152.937 19.102 152.965 19.0601 153.006C13.1801 157.596 7.06008 161.926 1.33008 166.686C1.30217 166.711 1.27985 166.742 1.26459 166.776C1.24932 166.811 1.24145 166.848 1.24145 166.886C1.24145 166.924 1.24932 166.961 1.26459 166.995C1.27985 167.03 1.30217 167.061 1.33008 167.086C5.63008 171.086 9.99008 174.966 14.3301 178.896C14.4301 178.976 14.5601 178.846 14.4801 178.766Z" fill="black"></path><path d="M1.09999 149.006C0.979989 153.716 0.85999 158.426 1.09999 163.126C1.09999 163.336 1.36999 163.546 1.56999 163.396C7.68559 158.919 13.4921 154.034 18.95 148.776C19.0184 148.707 19.0567 148.613 19.0567 148.516C19.0567 148.418 19.0184 148.325 18.95 148.256C13.13 143.706 7.43999 138.996 1.94999 134.066C1.89937 134.02 1.83691 133.99 1.76985 133.979C1.70279 133.967 1.63388 133.975 1.57109 134.001C1.5083 134.028 1.45421 134.071 1.41508 134.127C1.37595 134.182 1.35338 134.248 1.34999 134.316C1.26999 139.216 1.15999 144.106 1.12999 149.006C1.12999 149.306 1.57999 149.306 1.59999 149.006C1.70999 145.826 1.86 142.646 1.94999 139.466C2.04999 135.706 1.74 134.876 4.83 137.556C6.9 139.366 8.99998 141.136 11.12 142.886C12.53 144.046 17.27 146.776 17.39 148.546C17.51 150.316 13.74 152.656 12.47 153.756C10.27 155.656 8.03333 157.516 5.75999 159.336C4.87999 160.036 3.69998 161.496 2.52998 161.556C0.989983 161.636 1.59998 160.686 1.52998 159.126C1.45998 155.756 1.52998 152.376 1.52998 149.006C1.51012 148.966 1.47947 148.932 1.44148 148.908C1.40349 148.885 1.35969 148.872 1.31499 148.872C1.27029 148.872 1.22648 148.885 1.18849 148.908C1.1505 148.932 1.11985 148.966 1.09999 149.006Z" fill="black"></path><path d="M14.4801 140.306L6.00006 132.236C5.17006 131.446 2.00006 129.316 2.34006 128.136C2.46006 127.646 3.86007 126.926 4.23007 126.626C8.44007 123.316 12.7501 120.146 17.0001 116.896C19.5201 114.966 19.0001 116.066 18.9301 119.126C18.8801 122.406 18.7901 125.676 18.7501 128.956C18.7501 132.526 18.6901 136.086 18.7501 139.656C18.7501 140.826 19.5301 143.116 18.1501 143.546C17.7201 143.686 14.8301 140.486 14.5401 140.226C14.2501 139.966 14.0401 140.336 14.2401 140.516C15.8267 142.016 17.4201 143.509 19.0201 144.996C19.054 145.026 19.096 145.046 19.141 145.054C19.186 145.061 19.2321 145.056 19.2741 145.038C19.3161 145.02 19.3521 144.991 19.378 144.953C19.4038 144.916 19.4184 144.871 19.4201 144.826C19.0201 134.826 19.4701 124.776 19.5701 114.756C19.5692 114.697 19.5512 114.64 19.5182 114.591C19.4852 114.543 19.4386 114.505 19.3843 114.483C19.33 114.46 19.2703 114.454 19.2127 114.466C19.1551 114.477 19.102 114.505 19.0601 114.546C13.1801 119.136 7.06008 123.466 1.33008 128.226C1.30217 128.251 1.27985 128.282 1.26459 128.316C1.24932 128.351 1.24145 128.388 1.24145 128.426C1.24145 128.464 1.24932 128.501 1.26459 128.535C1.27985 128.57 1.30217 128.601 1.33008 128.626C5.63008 132.626 9.99008 136.506 14.3301 140.436C14.4301 140.516 14.5601 140.386 14.4801 140.306Z" fill="black"></path><path d="M1.09999 110.546C0.979989 115.256 0.85999 119.966 1.09999 124.666C1.09999 124.876 1.36999 125.086 1.56999 124.936C7.68559 120.459 13.4921 115.575 18.95 110.316C19.0184 110.247 19.0567 110.153 19.0567 110.056C19.0567 109.958 19.0184 109.865 18.95 109.796C13.13 105.246 7.43999 100.536 1.94999 95.6058C1.89937 95.5604 1.83691 95.5302 1.76985 95.5188C1.70279 95.5074 1.63388 95.5153 1.57109 95.5414C1.5083 95.5676 1.45421 95.611 1.41508 95.6666C1.37595 95.7223 1.35338 95.7879 1.34999 95.8558C1.26999 100.756 1.15999 105.646 1.12999 110.546C1.12999 110.846 1.57999 110.846 1.59999 110.546C1.70999 107.366 1.86 104.186 1.94999 101.006C2.04999 97.2358 1.74 96.4158 4.83 99.0958C6.9 100.906 8.99998 102.676 11.12 104.426C12.53 105.586 17.27 108.316 17.39 110.086C17.51 111.856 13.74 114.196 12.47 115.296C10.27 117.196 8.02999 119.046 5.75999 120.876C4.87999 121.576 3.69998 123.036 2.52998 123.096C0.989983 123.176 1.59998 122.226 1.52998 120.666C1.45998 117.296 1.52998 113.916 1.52998 110.546C1.51012 110.506 1.47947 110.472 1.44148 110.448C1.40349 110.425 1.35969 110.412 1.31499 110.412C1.27029 110.412 1.22648 110.425 1.18849 110.448C1.1505 110.472 1.11985 110.506 1.09999 110.546Z" fill="black"></path><path d="M14.4802 101.846L6.00021 93.7759C5.17021 92.9859 2.00021 90.8459 2.34021 89.6759C2.46021 89.1859 3.86022 88.4559 4.23022 88.1659C8.44022 84.8559 12.7502 81.6859 17.0002 78.4359C19.5202 76.5059 19.0002 77.6059 18.9302 80.6659C18.8802 83.9459 18.7902 87.2159 18.7502 90.4959C18.7502 94.0659 18.6902 97.6259 18.7502 101.196C18.7502 102.366 19.5302 104.656 18.1502 105.086C17.7202 105.216 14.8302 102.026 14.5402 101.756C14.2502 101.486 14.0402 101.876 14.2402 102.056C15.8302 103.546 17.4202 105.056 19.0202 106.536C19.0542 106.566 19.0961 106.586 19.1411 106.594C19.1861 106.601 19.2323 106.596 19.2743 106.578C19.3162 106.56 19.3523 106.531 19.3781 106.493C19.404 106.456 19.4186 106.411 19.4202 106.366C19.0202 96.3659 19.4702 86.3659 19.5702 76.2959C19.5694 76.2372 19.5514 76.18 19.5183 76.1314C19.4853 76.0829 19.4388 76.0451 19.3845 76.0227C19.3302 76.0004 19.2705 75.9944 19.2129 76.0057C19.1552 76.0169 19.1021 76.0448 19.0602 76.0859C13.1802 80.6759 7.06023 85.0059 1.33023 89.7659C1.30256 89.7903 1.2804 89.8203 1.26523 89.8539C1.25005 89.8876 1.24219 89.924 1.24219 89.9609C1.24219 89.9978 1.25005 90.0343 1.26523 90.0679C1.2804 90.1015 1.30256 90.1315 1.33023 90.1559C5.63023 94.1559 9.99023 98.0359 14.3302 101.976C14.4302 102.056 14.5602 101.926 14.4802 101.846Z" fill="black"></path><path d="M1.09999 72.0858C0.979989 76.7858 0.85999 81.5058 1.09999 86.2058C1.09999 86.4158 1.36999 86.6258 1.56999 86.4758C7.68559 81.999 13.4921 77.1146 18.95 71.8558C19.019 71.7849 19.0576 71.6898 19.0576 71.5908C19.0576 71.4918 19.019 71.3968 18.95 71.3258C13.13 66.7858 7.43999 62.0758 1.94999 57.1458C1.89937 57.1004 1.83691 57.0702 1.76985 57.0588C1.70279 57.0474 1.63388 57.0553 1.57109 57.0815C1.5083 57.1076 1.45421 57.151 1.41508 57.2067C1.37595 57.2623 1.35338 57.3279 1.34999 57.3958C1.26999 62.2958 1.15999 67.1858 1.12999 72.0858C1.12999 72.3858 1.57999 72.3858 1.59999 72.0858C1.70999 68.9058 1.86 65.7258 1.94999 62.5458C2.04999 58.7758 1.74 57.9558 4.83 60.6358C6.90333 62.4358 8.99998 64.2125 11.12 65.9658C12.53 67.1258 17.27 69.8558 17.39 71.6258C17.51 73.3958 13.74 75.7358 12.47 76.8258C10.27 78.7358 8.02999 80.5858 5.75999 82.4158C4.87999 83.1158 3.69998 84.5758 2.52998 84.6358C0.989983 84.7058 1.59998 83.7658 1.52998 82.2058C1.45998 78.8358 1.52998 75.4558 1.52998 72.0858C1.51012 72.0458 1.47947 72.0121 1.44148 71.9885C1.40349 71.965 1.35969 71.9525 1.31499 71.9525C1.27029 71.9525 1.22648 71.965 1.18849 71.9885C1.1505 72.0121 1.11985 72.0458 1.09999 72.0858Z" fill="black"></path><path d="M0.770018 247.706C0.370019 257.436 0.18 267.166 -1.2172e-08 276.896C0.00395032 276.951 0.0229369 277.004 0.0548706 277.048C0.0868043 277.093 0.130464 277.128 0.181061 277.15C0.231658 277.172 0.287243 277.179 0.341736 277.171C0.396228 277.163 0.447537 277.141 0.490021 277.106C6.26335 272.019 12.18 267.103 18.24 262.356C18.3097 262.283 18.3486 262.186 18.3486 262.086C18.3486 261.985 18.3097 261.888 18.24 261.816C12.7266 256.738 6.93782 251.967 0.899993 247.526C0.709993 247.386 0.469993 247.696 0.649993 247.856C3.64999 250.476 6.64999 253.026 9.64999 255.576C11.57 257.176 13.5 258.766 15.4 260.396C16.93 261.706 17.2 261.236 16.15 263.026C15.36 264.386 12.85 265.696 11.67 266.676C8.74001 269.096 5.99999 271.966 2.89999 274.156C0.719994 275.696 0.540007 276.216 0.570007 273.396L0.630004 268.006C0.710004 261.236 0.739998 254.476 0.779997 247.706L0.770018 247.706Z" fill="black"></path><path d="M14.4801 254.766C11.6534 252.099 8.82673 249.413 6.00006 246.706C5.17006 245.916 2.00006 243.776 2.34006 242.596C2.46006 242.106 3.86007 241.386 4.23007 241.096C8.44007 237.786 12.7501 234.606 17.0001 231.356C19.5201 229.436 19.0001 230.536 18.9301 233.596C18.8801 236.866 18.7901 240.146 18.7501 243.426C18.7501 246.986 18.6901 250.556 18.7501 254.116C18.7501 255.296 19.5301 257.586 18.1501 258.016C17.7201 258.146 14.8301 254.956 14.5401 254.686C14.2501 254.416 14.0401 254.796 14.2401 254.986L19.0201 259.456C19.0516 259.49 19.093 259.515 19.1386 259.525C19.1843 259.536 19.232 259.532 19.2755 259.515C19.319 259.497 19.3562 259.467 19.382 259.428C19.4078 259.389 19.4211 259.343 19.4201 259.296C19.0201 249.296 19.4701 239.296 19.5701 229.226C19.5692 229.167 19.5512 229.11 19.5182 229.061C19.4852 229.013 19.4386 228.975 19.3843 228.953C19.33 228.93 19.2703 228.924 19.2127 228.936C19.1551 228.947 19.102 228.975 19.0601 229.016C13.1801 233.606 7.06008 237.926 1.33008 242.686C1.30217 242.711 1.27985 242.742 1.26459 242.776C1.24932 242.811 1.24145 242.848 1.24145 242.886C1.24145 242.924 1.24932 242.961 1.26459 242.995C1.27985 243.03 1.30217 243.061 1.33008 243.086C5.63008 247.086 9.99008 250.966 14.3301 254.906C14.3486 254.926 14.3743 254.937 14.4015 254.938C14.4287 254.939 14.4552 254.929 14.4751 254.911C14.495 254.892 14.5067 254.867 14.5076 254.839C14.5085 254.812 14.4986 254.786 14.4801 254.766Z" fill="black"></path><path d="M1.09999 225.016C0.979989 229.716 0.85999 234.426 1.09999 239.136C1.09999 239.346 1.36999 239.556 1.56999 239.406C7.68573 234.925 13.4923 230.038 18.95 224.776C19.0184 224.707 19.0567 224.613 19.0567 224.516C19.0567 224.418 19.0184 224.325 18.95 224.256C13.13 219.716 7.43999 214.996 1.94999 210.076C1.89937 210.03 1.83691 210 1.76985 209.989C1.70279 209.977 1.63388 209.985 1.57109 210.011C1.5083 210.038 1.45421 210.081 1.41508 210.137C1.37595 210.192 1.35338 210.258 1.34999 210.326C1.26999 215.226 1.15999 220.116 1.12999 225.016C1.12999 225.316 1.57999 225.316 1.59999 225.016C1.70999 221.836 1.86 218.656 1.94999 215.476C2.04999 211.706 1.74 210.876 4.83 213.566C6.90333 215.366 8.99998 217.139 11.12 218.886C12.53 220.056 17.27 222.786 17.39 224.556C17.51 226.326 13.74 228.656 12.47 229.756C10.27 231.656 8.03333 233.516 5.75999 235.336C4.87999 236.046 3.69998 237.506 2.52998 237.566C0.989983 237.636 1.59998 236.696 1.52998 235.136C1.45998 231.766 1.52998 228.386 1.52998 225.016C1.51012 224.976 1.47947 224.942 1.44148 224.918C1.40349 224.895 1.35969 224.882 1.31499 224.882C1.27029 224.882 1.22648 224.895 1.18849 224.918C1.1505 224.942 1.11985 224.976 1.09999 225.016Z" fill="black"></path><path d="M14.4801 216.306C11.6535 213.639 8.82679 210.953 6.00012 208.246C5.17012 207.456 2.00012 205.316 2.34012 204.136C2.46012 203.646 3.86013 202.926 4.23013 202.636C8.44013 199.326 12.7501 196.146 17.0001 192.896C19.5201 190.976 19.0001 192.076 18.9301 195.136C18.8801 198.406 18.7901 201.686 18.7501 204.966C18.7501 208.526 18.6901 212.096 18.7501 215.656C18.7501 216.836 19.5301 219.126 18.1501 219.556C17.7201 219.686 14.8301 216.496 14.5401 216.226C14.2501 215.956 14.0401 216.336 14.2401 216.526L19.0201 220.996C19.0517 221.031 19.093 221.055 19.1387 221.065C19.1844 221.076 19.2321 221.072 19.2756 221.055C19.3191 221.037 19.3563 221.007 19.3821 220.968C19.4079 220.929 19.4212 220.883 19.4201 220.836C19.0201 210.836 19.4701 200.786 19.5701 190.766C19.5693 190.707 19.5513 190.65 19.5182 190.601C19.4852 190.553 19.4387 190.515 19.3844 190.493C19.3301 190.47 19.2704 190.464 19.2128 190.476C19.1551 190.487 19.102 190.515 19.0601 190.556C13.1801 195.136 7.06014 199.466 1.33014 204.226C1.30353 204.252 1.28237 204.283 1.26794 204.317C1.25351 204.352 1.24609 204.389 1.24609 204.426C1.24609 204.463 1.25351 204.5 1.26794 204.534C1.28237 204.569 1.30353 204.6 1.33014 204.626C5.63014 208.626 9.99014 212.506 14.3301 216.446C14.3487 216.466 14.3744 216.478 14.4016 216.478C14.4288 216.479 14.4552 216.469 14.4751 216.451C14.495 216.432 14.5067 216.407 14.5077 216.379C14.5086 216.352 14.4987 216.326 14.4801 216.306Z" fill="black"></path><path d="M0.770018 18.7759C0.370019 28.5059 0.18 38.2359 -1.22459e-08 47.9659C0.00189813 48.0218 0.0199302 48.076 0.0519104 48.1219C0.0838906 48.1678 0.128448 48.2035 0.180237 48.2246C0.232025 48.2457 0.288851 48.2514 0.343811 48.241C0.398771 48.2306 0.449546 48.2046 0.490021 48.166C6.26335 43.0793 12.18 38.1626 18.24 33.416C18.309 33.345 18.3477 33.2499 18.3477 33.1509C18.3477 33.052 18.309 32.9569 18.24 32.886C12.7265 27.8082 6.93768 23.0377 0.899993 18.5959C0.709993 18.4659 0.469993 18.7759 0.649993 18.9359C3.64999 21.5559 6.64999 24.1059 9.64999 26.6459C11.57 28.2559 13.5 29.8459 15.4 31.4659C16.93 32.7859 17.2 32.3059 16.15 34.0959C15.36 35.4659 12.85 36.7759 11.67 37.7459C8.74001 40.1759 5.99999 43.0459 2.89999 45.2259C0.719994 46.7659 0.540007 47.2959 0.570007 44.4759L0.630004 39.076C0.710004 32.316 0.739998 25.5459 0.779997 18.7859L0.770018 18.7759Z" fill="black"></path><path d="M14.4801 25.8359C11.6534 23.1692 8.82673 20.4825 6.00006 17.7759C5.17006 16.9859 2.00006 14.8459 2.34006 13.6659C2.46006 13.1759 3.86007 12.4559 4.23007 12.1559C8.44007 8.85588 12.7501 5.67587 17.0001 2.42587C19.5201 0.495872 19.0001 1.60588 18.9301 4.65588C18.8801 7.93588 18.7901 11.2159 18.7501 14.4959C18.7501 18.0559 18.6901 21.6259 18.7501 25.1859C18.7501 26.3659 19.5301 28.6559 18.1501 29.0859C17.7201 29.2159 14.8301 26.0159 14.5401 25.7559C14.2501 25.4959 14.0401 25.8659 14.2401 26.0559L19.0201 30.5259C19.0522 30.5613 19.0945 30.5859 19.1411 30.5962C19.1878 30.6065 19.2366 30.6019 19.2806 30.5832C19.3246 30.5645 19.3616 30.5326 19.3866 30.4919C19.4116 30.4511 19.4233 30.4036 19.4201 30.3559C19.0201 20.3559 19.4701 10.3559 19.5701 0.295898C19.5692 0.23718 19.5512 0.17997 19.5182 0.131408C19.4852 0.0828458 19.4386 0.0450633 19.3843 0.0227043C19.33 0.000345268 19.2703 -0.00558759 19.2127 0.00564497C19.1551 0.0168775 19.102 0.0447633 19.0601 0.0858757C13.1801 4.66588 7.06008 8.99589 1.33008 13.7559C1.30217 13.7812 1.27985 13.8121 1.26459 13.8465C1.24932 13.8809 1.24145 13.9182 1.24145 13.9559C1.24145 13.9935 1.24932 14.0308 1.26459 14.0653C1.27985 14.0997 1.30217 14.1306 1.33008 14.1559C5.63008 18.1559 9.99008 22.0359 14.3301 25.9659C14.3482 25.9822 14.3717 25.9914 14.3961 25.9916C14.4205 25.9919 14.4441 25.9832 14.4626 25.9672C14.481 25.9512 14.4929 25.9291 14.4962 25.9049C14.4994 25.8807 14.4937 25.8561 14.4801 25.8359Z" fill="black"></path><path d="M14.4802 101.846L6.00021 93.7759C5.17021 92.9859 2.00021 90.8459 2.34021 89.6759C2.46021 89.1859 3.86022 88.4559 4.23022 88.1659C8.44022 84.8559 12.7502 81.6859 17.0002 78.4359C19.5202 76.5059 19.0002 77.6059 18.9302 80.6659C18.8802 83.9459 18.7902 87.2159 18.7502 90.4959C18.7502 94.0659 18.6902 97.6259 18.7502 101.196C18.7502 102.366 19.5302 104.656 18.1502 105.086C17.7202 105.216 14.8302 102.026 14.5402 101.756C14.2502 101.486 14.0402 101.876 14.2402 102.056C15.8302 103.546 17.4202 105.056 19.0202 106.536C19.0542 106.566 19.0961 106.586 19.1411 106.594C19.1861 106.601 19.2323 106.596 19.2743 106.578C19.3162 106.56 19.3523 106.531 19.3781 106.493C19.404 106.456 19.4186 106.411 19.4202 106.366C19.0202 96.3659 19.4702 86.3659 19.5702 76.2959C19.5694 76.2372 19.5514 76.18 19.5183 76.1314C19.4853 76.0829 19.4388 76.0451 19.3845 76.0227C19.3302 76.0004 19.2705 75.9944 19.2129 76.0057C19.1552 76.0169 19.1021 76.0448 19.0602 76.0859C13.1802 80.6759 7.06023 85.0059 1.33023 89.7659C1.30256 89.7903 1.2804 89.8203 1.26523 89.8539C1.25005 89.8876 1.24219 89.924 1.24219 89.9609C1.24219 89.9978 1.25005 90.0343 1.26523 90.0679C1.2804 90.1015 1.30256 90.1315 1.33023 90.1559C5.63023 94.1559 9.99023 98.0359 14.3302 101.976C14.4302 102.056 14.5602 101.926 14.4802 101.846Z" fill="black"></path><path d="M14.4801 63.3857L6.00006 55.3157C5.17006 54.5257 2.00006 52.3857 2.34006 51.2157C2.46006 50.7257 3.86007 49.9957 4.23007 49.7057C8.44007 46.3957 12.7501 43.2157 17.0001 39.9757C19.5201 38.0457 19.0001 39.1457 18.9301 42.2057C18.8801 45.4857 18.7901 48.7557 18.7501 52.0357C18.7501 55.5957 18.6901 59.1657 18.7501 62.7257C18.7501 63.9057 19.5301 66.1957 18.1501 66.6257C17.7201 66.7557 14.8301 63.5657 14.5401 63.2957C14.2501 63.0257 14.0401 63.4157 14.2401 63.5957C15.8301 65.0857 17.4201 66.5957 19.0201 68.0757C19.054 68.1061 19.096 68.1263 19.141 68.1337C19.186 68.1412 19.2321 68.1357 19.2741 68.1178C19.3161 68.1 19.3521 68.0706 19.378 68.033C19.4038 67.9955 19.4184 67.9513 19.4201 67.9057C19.0201 57.9057 19.4701 47.8557 19.5701 37.8357C19.5692 37.777 19.5512 37.7198 19.5182 37.6712C19.4852 37.6227 19.4386 37.5849 19.3843 37.5625C19.33 37.5401 19.2703 37.5342 19.2127 37.5455C19.1551 37.5567 19.102 37.5846 19.0601 37.6257C13.1801 42.2157 7.06008 46.5357 1.33008 51.2957C1.30217 51.321 1.27985 51.3519 1.26459 51.3863C1.24932 51.4208 1.24145 51.458 1.24145 51.4957C1.24145 51.5334 1.24932 51.5706 1.26459 51.6051C1.27985 51.6395 1.30217 51.6704 1.33008 51.6957C5.63008 55.6957 9.99008 59.5757 14.3301 63.5157C14.4301 63.5957 14.5601 63.4657 14.4801 63.3857Z" fill="black"></path></svg>