<svg xmlns="http://www.w3.org/2000/svg" width="278" height="20" viewBox="0 0 278 20" fill="none"><path d="M105.478 0.77002C95.7485 0.37002 86.0185 0.18 76.2785 0C76.2226 0.00189814 76.1684 0.0199302 76.1225 0.0519104C76.0766 0.0838906 76.041 0.128448 76.0198 0.180237C75.9987 0.232025 75.993 0.288851 76.0034 0.343811C76.0138 0.398771 76.0399 0.449546 76.0785 0.490021C81.1652 6.26335 86.0818 12.18 90.8285 18.24C90.8994 18.309 90.9945 18.3477 91.0935 18.3477C91.1925 18.3477 91.2875 18.309 91.3585 18.24C96.4425 12.7293 101.217 6.94031 105.658 0.899994C105.798 0.709994 105.478 0.469994 105.328 0.649994C102.708 3.64999 100.158 6.64999 97.6085 9.64999C95.9985 11.57 94.4085 13.5 92.7885 15.4C91.4785 16.93 91.9485 17.2 90.1585 16.15C88.7985 15.36 87.4885 12.85 86.5085 11.67C84.0885 8.74001 81.2085 5.99999 79.0285 2.89999C77.4885 0.719994 76.9585 0.540007 79.7885 0.570007L85.1785 0.630005C91.9485 0.710005 98.7085 0.739999 105.478 0.779999V0.77002Z" fill="black"></path><path d="M98.4085 14.4801L106.469 6.00006C107.269 5.17006 109.398 2.00006 110.578 2.34006C111.068 2.46006 111.788 3.86007 112.088 4.23007C115.398 8.44007 118.568 12.7501 121.818 17.0001C123.748 19.5201 122.638 19.0001 119.588 18.9301C116.308 18.8801 113.038 18.7901 109.758 18.7501C106.188 18.7501 102.628 18.6901 99.0585 18.7501C97.8885 18.7501 95.5885 19.5301 95.1685 18.1501C95.0285 17.7201 98.2285 14.8301 98.4885 14.5401C98.7485 14.2501 98.3785 14.0401 98.1985 14.2401C96.6985 15.8267 95.2052 17.4201 93.7185 19.0201C93.6881 19.054 93.6679 19.096 93.6605 19.141C93.653 19.186 93.6585 19.2321 93.6764 19.2741C93.6942 19.3161 93.7236 19.3521 93.7612 19.378C93.7988 19.4038 93.8429 19.4184 93.8885 19.4201C103.888 19.0201 113.888 19.4701 123.958 19.5701C124.017 19.5692 124.074 19.5512 124.123 19.5182C124.172 19.4852 124.209 19.4386 124.232 19.3843C124.254 19.33 124.26 19.2703 124.249 19.2127C124.238 19.1551 124.21 19.102 124.168 19.0601C119.578 13.1801 115.248 7.06008 110.488 1.33008C110.463 1.30217 110.432 1.27985 110.398 1.26459C110.363 1.24933 110.326 1.24146 110.288 1.24146C110.251 1.24146 110.214 1.24933 110.179 1.26459C110.145 1.27985 110.114 1.30217 110.088 1.33008C106.088 5.63008 102.209 9.99008 98.2785 14.3301C98.1985 14.4301 98.3285 14.5601 98.4085 14.4801Z" fill="black"></path><path d="M128.168 1.09999C123.458 0.97999 118.748 0.85999 114.048 1.09999C113.838 1.09999 113.629 1.36999 113.779 1.56999C118.255 7.68559 123.14 13.4921 128.398 18.95C128.468 19.0184 128.561 19.0567 128.658 19.0567C128.756 19.0567 128.849 19.0184 128.918 18.95C133.468 13.13 138.178 7.44 143.108 1.95C143.154 1.89937 143.184 1.83691 143.195 1.76985C143.207 1.70279 143.199 1.63388 143.173 1.57109C143.147 1.5083 143.103 1.45421 143.048 1.41508C142.992 1.37595 142.926 1.35338 142.858 1.34999C137.958 1.26999 133.068 1.15999 128.168 1.12999C127.868 1.12999 127.868 1.57999 128.168 1.59999C131.348 1.70999 134.528 1.86 137.708 1.95C141.468 2.05 142.298 1.74 139.618 4.83C137.808 6.9 136.038 8.99998 134.288 11.12C133.128 12.53 130.398 17.27 128.628 17.39C126.858 17.51 124.518 13.74 123.418 12.47C121.518 10.27 119.659 8.03333 117.839 5.75999C117.139 4.87999 115.679 3.69998 115.619 2.52998C115.539 0.989983 116.488 1.59998 118.048 1.52998C121.418 1.45998 124.798 1.52998 128.168 1.52998C128.209 1.51012 128.242 1.47947 128.266 1.44148C128.289 1.40349 128.302 1.35969 128.302 1.31499C128.302 1.27029 128.289 1.22648 128.266 1.18849C128.242 1.1505 128.209 1.11985 128.168 1.09999Z" fill="black"></path><path d="M136.869 14.4801L144.938 6.00006C145.728 5.17006 147.858 2.00006 149.038 2.34006C149.528 2.46006 150.248 3.86007 150.548 4.23007C153.858 8.44007 157.029 12.7501 160.279 17.0001C162.209 19.5201 161.108 19.0001 158.048 18.9301C154.768 18.8801 151.499 18.7901 148.219 18.7501C144.649 18.7501 141.088 18.6901 137.518 18.7501C136.348 18.7501 134.058 19.5301 133.628 18.1501C133.488 17.7201 136.688 14.8301 136.948 14.5401C137.208 14.2501 136.838 14.0401 136.658 14.2401C135.158 15.8267 133.665 17.4201 132.179 19.0201C132.148 19.054 132.128 19.096 132.12 19.141C132.113 19.186 132.119 19.2321 132.136 19.2741C132.154 19.3161 132.184 19.3521 132.221 19.378C132.259 19.4038 132.303 19.4184 132.348 19.4201C142.348 19.0201 152.398 19.4701 162.418 19.5701C162.477 19.5692 162.534 19.5512 162.583 19.5182C162.632 19.4852 162.669 19.4386 162.692 19.3843C162.714 19.33 162.72 19.2703 162.709 19.2127C162.698 19.1551 162.67 19.102 162.628 19.0601C158.038 13.1801 153.708 7.06008 148.948 1.33008C148.923 1.30217 148.892 1.27985 148.858 1.26459C148.823 1.24933 148.786 1.24146 148.749 1.24146C148.711 1.24146 148.674 1.24933 148.639 1.26459C148.605 1.27985 148.574 1.30217 148.548 1.33008C144.548 5.63008 140.668 9.99008 136.738 14.3301C136.658 14.4301 136.789 14.5601 136.869 14.4801Z" fill="black"></path><path d="M166.628 1.09999C161.918 0.97999 157.208 0.85999 152.508 1.09999C152.298 1.09999 152.088 1.36999 152.238 1.56999C156.715 7.68559 161.6 13.4921 166.858 18.95C166.928 19.0184 167.021 19.0567 167.119 19.0567C167.216 19.0567 167.309 19.0184 167.378 18.95C171.928 13.13 176.638 7.44 181.568 1.95C181.614 1.89937 181.644 1.83691 181.655 1.76985C181.667 1.70279 181.659 1.63388 181.633 1.57109C181.607 1.5083 181.563 1.45421 181.508 1.41508C181.452 1.37595 181.386 1.35338 181.318 1.34999C176.418 1.26999 171.528 1.15999 166.628 1.12999C166.328 1.12999 166.328 1.57999 166.628 1.59999C169.808 1.70999 172.988 1.86 176.168 1.95C179.938 2.05 180.758 1.74 178.078 4.83C176.268 6.9 174.499 8.99998 172.749 11.12C171.589 12.53 168.859 17.27 167.089 17.39C165.319 17.51 162.978 13.74 161.878 12.47C159.978 10.27 158.128 8.02999 156.298 5.75999C155.598 4.87999 154.138 3.69998 154.078 2.52998C153.998 0.989983 154.948 1.59998 156.508 1.52998C159.878 1.45998 163.258 1.52998 166.628 1.52998C166.669 1.51012 166.702 1.47947 166.726 1.44148C166.749 1.40349 166.762 1.35969 166.762 1.31499C166.762 1.27029 166.749 1.22648 166.726 1.18849C166.702 1.1505 166.669 1.11985 166.628 1.09999Z" fill="black"></path><path d="M175.328 14.4802L183.399 6.00021C184.189 5.17021 186.329 2.00021 187.499 2.34021C187.989 2.46021 188.718 3.86022 189.008 4.23022C192.318 8.44022 195.488 12.7502 198.738 17.0002C200.668 19.5202 199.568 19.0002 196.508 18.9302C193.228 18.8802 189.959 18.7902 186.679 18.7502C183.109 18.7502 179.548 18.6902 175.978 18.7502C174.808 18.7502 172.519 19.5302 172.089 18.1502C171.959 17.7202 175.148 14.8302 175.418 14.5402C175.688 14.2502 175.299 14.0402 175.119 14.2402C173.629 15.8302 172.118 17.4202 170.638 19.0202C170.608 19.0542 170.588 19.0961 170.58 19.1411C170.573 19.1861 170.579 19.2323 170.596 19.2743C170.614 19.3162 170.644 19.3523 170.681 19.3781C170.719 19.404 170.763 19.4186 170.809 19.4202C180.809 19.0202 190.808 19.4702 200.878 19.5702C200.937 19.5694 200.994 19.5514 201.043 19.5183C201.092 19.4853 201.129 19.4388 201.152 19.3845C201.174 19.3302 201.18 19.2705 201.169 19.2129C201.158 19.1552 201.13 19.1021 201.089 19.0602C196.499 13.1802 192.168 7.06023 187.408 1.33023C187.384 1.30256 187.354 1.28041 187.32 1.26523C187.287 1.25005 187.25 1.24219 187.214 1.24219C187.177 1.24219 187.14 1.25005 187.107 1.26523C187.073 1.28041 187.043 1.30256 187.018 1.33023C183.018 5.63023 179.138 9.99023 175.198 14.3302C175.118 14.4302 175.248 14.5602 175.328 14.4802Z" fill="black"></path><path d="M205.088 1.09999C200.388 0.97999 195.669 0.85999 190.969 1.09999C190.759 1.09999 190.548 1.36999 190.698 1.56999C195.175 7.68559 200.06 13.4921 205.318 18.95C205.389 19.019 205.485 19.0576 205.583 19.0576C205.682 19.0576 205.778 19.019 205.848 18.95C210.388 13.13 215.098 7.44 220.028 1.95C220.074 1.89937 220.104 1.83691 220.115 1.76985C220.127 1.70279 220.119 1.63388 220.093 1.57109C220.067 1.5083 220.023 1.45421 219.968 1.41508C219.912 1.37595 219.846 1.35338 219.778 1.34999C214.878 1.26999 209.988 1.15999 205.088 1.12999C204.788 1.12999 204.788 1.57999 205.088 1.59999C208.268 1.70999 211.448 1.86 214.628 1.95C218.398 2.05 219.218 1.74 216.538 4.83C214.738 6.90333 212.962 8.99998 211.208 11.12C210.048 12.53 207.318 17.27 205.548 17.39C203.778 17.51 201.438 13.74 200.348 12.47C198.438 10.27 196.588 8.02999 194.758 5.75999C194.058 4.87999 192.598 3.69998 192.538 2.52998C192.468 0.989983 193.409 1.59998 194.969 1.52998C198.339 1.45998 201.718 1.52998 205.088 1.52998C205.129 1.51012 205.162 1.47947 205.186 1.44148C205.209 1.40349 205.222 1.35969 205.222 1.31499C205.222 1.27029 205.209 1.22648 205.186 1.18849C205.162 1.1505 205.129 1.11985 205.088 1.09999Z" fill="black"></path><path d="M29.4685 0.77002C19.7385 0.37002 10.0085 0.18 0.278463 0C0.223558 0.00395033 0.170805 0.0229369 0.125967 0.0548706C0.0811286 0.0868043 0.0459362 0.130464 0.0242519 0.181061C0.00256756 0.231658 -0.00477171 0.287243 0.00302692 0.341736C0.0108255 0.396228 0.0334664 0.447537 0.0684719 0.490021C5.15514 6.26335 10.0718 12.18 14.8185 18.24C14.8911 18.3097 14.9878 18.3486 15.0885 18.3486C15.1891 18.3486 15.2858 18.3097 15.3585 18.24C20.4364 12.7266 25.2069 6.93782 29.6485 0.899994C29.7885 0.709994 29.4785 0.469994 29.3185 0.649994C26.6985 3.64999 24.1485 6.64999 21.5985 9.64999C19.9985 11.57 18.4085 13.5 16.7785 15.4C15.4685 16.93 15.9385 17.2 14.1485 16.15C12.7885 15.36 11.4785 12.85 10.4985 11.67C8.07846 8.74001 5.20847 5.99999 3.01847 2.89999C1.47847 0.719994 0.958463 0.540007 3.77846 0.570007L9.16846 0.630005C15.9385 0.710005 22.6985 0.739999 29.4685 0.779999V0.77002Z" fill="black"></path><path d="M22.4085 14.4801C25.0751 11.6534 27.7618 8.82673 30.4685 6.00006C31.2585 5.17006 33.3985 2.00006 34.5785 2.34006C35.0685 2.46006 35.7885 3.86007 36.0785 4.23007C39.3885 8.44007 42.5685 12.7501 45.8185 17.0001C47.7385 19.5201 46.6385 19.0001 43.5785 18.9301C40.3085 18.8801 37.0285 18.7901 33.7485 18.7501C30.1885 18.7501 26.6184 18.6901 23.0584 18.7501C21.8784 18.7501 19.5885 19.5301 19.1585 18.1501C19.0285 17.7201 22.2185 14.8301 22.4885 14.5401C22.7585 14.2501 22.3785 14.0401 22.1885 14.2401L17.7185 19.0201C17.6838 19.0516 17.6596 19.093 17.6491 19.1386C17.6387 19.1843 17.6424 19.232 17.6598 19.2755C17.6772 19.319 17.7074 19.3562 17.7465 19.382C17.7856 19.4078 17.8316 19.4211 17.8785 19.4201C27.8785 19.0201 37.8784 19.4701 47.9484 19.5701C48.0072 19.5692 48.0643 19.5512 48.1129 19.5182C48.1615 19.4852 48.1993 19.4386 48.2216 19.3843C48.244 19.33 48.2499 19.2703 48.2387 19.2127C48.2275 19.1551 48.1996 19.102 48.1584 19.0601C43.5684 13.1801 39.2485 7.06008 34.4885 1.33008C34.4631 1.30217 34.4323 1.27985 34.3978 1.26459C34.3634 1.24933 34.3261 1.24146 34.2885 1.24146C34.2508 1.24146 34.2135 1.24933 34.1791 1.26459C34.1446 1.27985 34.1138 1.30217 34.0884 1.33008C30.0884 5.63008 26.2085 9.99008 22.2685 14.3301C22.2486 14.3486 22.2369 14.3743 22.2359 14.4015C22.235 14.4287 22.2449 14.4552 22.2635 14.4751C22.282 14.495 22.3077 14.5067 22.3349 14.5076C22.3621 14.5085 22.3886 14.4986 22.4085 14.4801Z" fill="black"></path><path d="M52.1585 1.09999C47.4585 0.97999 42.7485 0.85999 38.0385 1.09999C37.8285 1.09999 37.6185 1.36999 37.7685 1.56999C42.2488 7.68574 47.1365 13.4923 52.3985 18.95C52.4677 19.0184 52.5611 19.0567 52.6585 19.0567C52.7558 19.0567 52.8492 19.0184 52.9185 18.95C57.4585 13.13 62.1785 7.44 67.0985 1.95C67.1439 1.89937 67.1741 1.83691 67.1855 1.76985C67.1969 1.70279 67.189 1.63388 67.1629 1.57109C67.1367 1.5083 67.0933 1.45421 67.0377 1.41508C66.982 1.37595 66.9164 1.35338 66.8485 1.34999C61.9485 1.26999 57.0585 1.15999 52.1585 1.12999C51.8585 1.12999 51.8585 1.57999 52.1585 1.59999C55.3385 1.70999 58.5185 1.86 61.6985 1.95C65.4685 2.05 66.2985 1.74 63.6085 4.83C61.8085 6.90333 60.0351 8.99998 58.2885 11.12C57.1185 12.53 54.3885 17.27 52.6185 17.39C50.8485 17.51 48.5185 13.74 47.4185 12.47C45.5185 10.27 43.6585 8.03333 41.8385 5.75999C41.1285 4.87999 39.6685 3.69998 39.6085 2.52998C39.5385 0.989983 40.4785 1.59998 42.0385 1.52998C45.4085 1.45998 48.7885 1.52998 52.1585 1.52998C52.1985 1.51012 52.2322 1.47947 52.2558 1.44148C52.2794 1.40349 52.2918 1.35969 52.2918 1.31499C52.2918 1.27029 52.2794 1.22648 52.2558 1.18849C52.2322 1.1505 52.1985 1.11985 52.1585 1.09999Z" fill="black"></path><path d="M60.8685 14.4801C63.5351 11.6535 66.2218 8.82679 68.9285 6.00012C69.7185 5.17012 71.8585 2.00012 73.0385 2.34012C73.5285 2.46012 74.2485 3.86013 74.5385 4.23013C77.8485 8.44013 81.0285 12.7501 84.2785 17.0001C86.1985 19.5201 85.0985 19.0001 82.0385 18.9301C78.7685 18.8801 75.4885 18.7901 72.2085 18.7501C68.6485 18.7501 65.0785 18.6901 61.5185 18.7501C60.3385 18.7501 58.0485 19.5301 57.6185 18.1501C57.4885 17.7201 60.6785 14.8301 60.9485 14.5401C61.2185 14.2501 60.8385 14.0401 60.6485 14.2401L56.1785 19.0201C56.1438 19.0517 56.1197 19.093 56.1092 19.1387C56.0987 19.1844 56.1024 19.2321 56.1198 19.2756C56.1372 19.3191 56.1674 19.3563 56.2065 19.3821C56.2456 19.4079 56.2916 19.4212 56.3385 19.4201C66.3385 19.0201 76.3885 19.4701 86.4085 19.5701C86.4672 19.5693 86.5244 19.5513 86.5729 19.5182C86.6215 19.4852 86.6593 19.4387 86.6816 19.3844C86.704 19.3301 86.7099 19.2704 86.6987 19.2128C86.6875 19.1551 86.6596 19.1021 86.6185 19.0601C82.0385 13.1801 77.7085 7.06014 72.9485 1.33014C72.9224 1.30353 72.8913 1.28238 72.8569 1.26794C72.8226 1.25351 72.7857 1.24609 72.7485 1.24609C72.7112 1.24609 72.6743 1.25351 72.64 1.26794C72.6056 1.28238 72.5745 1.30353 72.5485 1.33014C68.5485 5.63014 64.6685 9.99014 60.7285 14.3301C60.7086 14.3487 60.6969 14.3744 60.6959 14.4016C60.695 14.4288 60.7049 14.4552 60.7235 14.4751C60.742 14.495 60.7677 14.5067 60.7949 14.5077C60.8221 14.5086 60.8486 14.4987 60.8685 14.4801Z" fill="black"></path><path d="M258.399 0.77002C248.669 0.37002 238.938 0.18 229.208 0C229.153 0.00189814 229.098 0.0199302 229.053 0.0519104C229.007 0.0838906 228.971 0.128448 228.95 0.180237C228.929 0.232025 228.923 0.288851 228.933 0.343811C228.944 0.398771 228.97 0.449546 229.008 0.490021C234.095 6.26335 239.012 12.18 243.758 18.24C243.829 18.309 243.925 18.3477 244.024 18.3477C244.122 18.3477 244.218 18.309 244.288 18.24C249.366 12.7265 254.137 6.93768 258.578 0.899994C258.708 0.709994 258.398 0.469994 258.238 0.649994C255.618 3.64999 253.069 6.64999 250.529 9.64999C248.919 11.57 247.328 13.5 245.708 15.4C244.388 16.93 244.868 17.2 243.078 16.15C241.708 15.36 240.399 12.85 239.429 11.67C236.999 8.74001 234.128 5.99999 231.948 2.89999C230.408 0.719994 229.878 0.540007 232.698 0.570007L238.098 0.630005C244.858 0.710005 251.628 0.739999 258.388 0.779999L258.399 0.77002Z" fill="black"></path><path d="M251.339 14.4801C254.005 11.6534 256.692 8.82673 259.398 6.00006C260.188 5.17006 262.328 2.00006 263.508 2.34006C263.998 2.46006 264.718 3.86007 265.018 4.23007C268.318 8.44007 271.499 12.7501 274.749 17.0001C276.679 19.5201 275.568 19.0001 272.518 18.9301C269.238 18.8801 265.958 18.7901 262.678 18.7501C259.118 18.7501 255.548 18.6901 251.988 18.7501C250.808 18.7501 248.519 19.5301 248.089 18.1501C247.959 17.7201 251.158 14.8301 251.418 14.5401C251.678 14.2501 251.309 14.0401 251.119 14.2401L246.648 19.0201C246.613 19.0522 246.588 19.0945 246.578 19.1411C246.568 19.1878 246.572 19.2366 246.591 19.2806C246.61 19.3246 246.642 19.3616 246.683 19.3866C246.723 19.4116 246.771 19.4233 246.818 19.4201C256.818 19.0201 266.818 19.4701 276.878 19.5701C276.937 19.5692 276.994 19.5512 277.043 19.5182C277.092 19.4852 277.129 19.4386 277.152 19.3843C277.174 19.33 277.18 19.2703 277.169 19.2127C277.157 19.1551 277.13 19.102 277.089 19.0601C272.509 13.1801 268.178 7.06008 263.418 1.33008C263.393 1.30217 263.362 1.27985 263.328 1.26459C263.293 1.24933 263.256 1.24146 263.219 1.24146C263.181 1.24146 263.144 1.24933 263.109 1.26459C263.075 1.27985 263.044 1.30217 263.018 1.33008C259.018 5.63008 255.138 9.99008 251.208 14.3301C251.192 14.3482 251.183 14.3717 251.183 14.3961C251.182 14.4205 251.191 14.4441 251.207 14.4626C251.223 14.481 251.245 14.4929 251.27 14.4962C251.294 14.4994 251.318 14.4937 251.339 14.4801Z" fill="black"></path><path d="M175.328 14.4802L183.399 6.00021C184.189 5.17021 186.329 2.00021 187.499 2.34021C187.989 2.46021 188.718 3.86022 189.008 4.23022C192.318 8.44022 195.488 12.7502 198.738 17.0002C200.668 19.5202 199.568 19.0002 196.508 18.9302C193.228 18.8802 189.959 18.7902 186.679 18.7502C183.109 18.7502 179.548 18.6902 175.978 18.7502C174.808 18.7502 172.519 19.5302 172.089 18.1502C171.959 17.7202 175.148 14.8302 175.418 14.5402C175.688 14.2502 175.299 14.0402 175.119 14.2402C173.629 15.8302 172.118 17.4202 170.638 19.0202C170.608 19.0542 170.588 19.0961 170.58 19.1411C170.573 19.1861 170.579 19.2323 170.596 19.2743C170.614 19.3162 170.644 19.3523 170.681 19.3781C170.719 19.404 170.763 19.4186 170.809 19.4202C180.809 19.0202 190.808 19.4702 200.878 19.5702C200.937 19.5694 200.994 19.5514 201.043 19.5183C201.092 19.4853 201.129 19.4388 201.152 19.3845C201.174 19.3302 201.18 19.2705 201.169 19.2129C201.158 19.1552 201.13 19.1021 201.089 19.0602C196.499 13.1802 192.168 7.06023 187.408 1.33023C187.384 1.30256 187.354 1.28041 187.32 1.26523C187.287 1.25005 187.25 1.24219 187.214 1.24219C187.177 1.24219 187.14 1.25005 187.107 1.26523C187.073 1.28041 187.043 1.30256 187.018 1.33023C183.018 5.63023 179.138 9.99023 175.198 14.3302C175.118 14.4302 175.248 14.5602 175.328 14.4802Z" fill="black"></path><path d="M213.788 14.4801L221.858 6.00006C222.648 5.17006 224.788 2.00006 225.958 2.34006C226.448 2.46006 227.179 3.86007 227.469 4.23007C230.779 8.44007 233.958 12.7501 237.198 17.0001C239.128 19.5201 238.029 19.0001 234.969 18.9301C231.689 18.8801 228.418 18.7901 225.138 18.7501C221.578 18.7501 218.008 18.6901 214.448 18.7501C213.268 18.7501 210.978 19.5301 210.548 18.1501C210.418 17.7201 213.608 14.8301 213.878 14.5401C214.148 14.2501 213.758 14.0401 213.578 14.2401C212.088 15.8301 210.578 17.4201 209.098 19.0201C209.068 19.054 209.048 19.096 209.04 19.141C209.033 19.186 209.039 19.2321 209.056 19.2741C209.074 19.3161 209.104 19.3521 209.141 19.378C209.179 19.4038 209.223 19.4184 209.268 19.4201C219.268 19.0201 229.318 19.4701 239.338 19.5701C239.397 19.5692 239.454 19.5512 239.503 19.5182C239.552 19.4852 239.589 19.4386 239.612 19.3843C239.634 19.33 239.64 19.2703 239.629 19.2127C239.617 19.1551 239.59 19.102 239.548 19.0601C234.958 13.1801 230.638 7.06008 225.878 1.33008C225.853 1.30217 225.822 1.27985 225.788 1.26459C225.753 1.24933 225.716 1.24146 225.678 1.24146C225.641 1.24146 225.604 1.24933 225.569 1.26459C225.535 1.27985 225.504 1.30217 225.478 1.33008C221.478 5.63008 217.598 9.99008 213.658 14.3301C213.578 14.4301 213.708 14.5601 213.788 14.4801Z" fill="black"></path></svg>