<svg xmlns="http://www.w3.org/2000/svg" width="205" height="61" viewBox="0 0 205 61" fill="none"><path fill-rule="evenodd" clip-rule="evenodd" d="M17.9552 24.1146C18.683 19.2155 22.5643 18.0659 24.8108 18.3929C28.3124 18.9097 30.5694 21.6519 30.7909 25.6545C31.0124 29.6571 30.7751 33.4118 24.2834 33.9813C17.7917 34.5509 16.9005 30.8805 17.9552 24.1146ZM21.0138 25.1374C21.3935 22.6536 23.3658 22.0682 24.5049 22.2369C26.2821 22.4953 27.4053 23.8981 27.5213 25.9231C27.6374 27.9481 27.5055 29.873 24.2201 30.1419C20.9347 30.4109 20.4865 28.5704 21.0138 25.1374Z" fill="white"></path><path d="M16.6738 11.231L13.4833 2.62465C13.4274 2.45805 13.435 2.27665 13.5048 2.11535C13.5745 1.95405 13.7015 1.82425 13.8612 1.75093C14.0209 1.67762 14.2021 1.66599 14.3699 1.71825C14.5377 1.77051 14.6802 1.88298 14.7701 2.03402L19.1946 10.0761C19.2767 10.2425 19.3246 10.4236 19.3354 10.6088C19.3463 10.794 19.3199 10.9794 19.2578 11.1543C19.1957 11.3291 19.0992 11.4896 18.9739 11.6265C18.8487 11.7633 18.6972 11.8736 18.5286 11.9509C18.3599 12.0281 18.1775 12.0708 17.9921 12.0763C17.8066 12.0818 17.622 12.0501 17.449 11.983C17.2761 11.9158 17.1184 11.8147 16.9852 11.6855C16.8521 11.5564 16.7462 11.4018 16.6738 11.231Z" fill="white"></path><path d="M24.1674 10.0077L25.7494 0.889831C25.7863 0.717156 25.8855 0.564133 26.0281 0.460072C26.1708 0.356011 26.3468 0.30822 26.5225 0.325853C26.6981 0.343486 26.8611 0.425302 26.9803 0.555635C27.0994 0.685968 27.1662 0.855658 27.168 1.03221L26.9149 10.2819C26.9038 10.4684 26.8553 10.6507 26.772 10.818C26.6888 10.9852 26.5726 11.1339 26.4305 11.2552C26.2884 11.3764 26.1233 11.4677 25.945 11.5235C25.7667 11.5794 25.579 11.5986 25.3931 11.5802C25.2072 11.5617 25.027 11.5058 24.8632 11.416C24.6995 11.3261 24.5555 11.2041 24.4401 11.0573C24.3246 10.9104 24.24 10.7418 24.1913 10.5614C24.1427 10.381 24.1309 10.1927 24.1568 10.0077H24.1674Z" fill="white"></path><path d="M31.5345 11.5161L36.4389 3.29475C36.5696 3.09818 36.7688 2.95737 36.9977 2.89978C37.2267 2.84219 37.4688 2.87195 37.677 2.98327C37.8851 3.09459 38.0443 3.27948 38.1235 3.50185C38.2027 3.72422 38.1962 3.96813 38.1053 4.18597L33.9762 12.8134C33.8935 12.9801 33.7782 13.1284 33.6371 13.2496C33.496 13.3708 33.332 13.4624 33.1547 13.5189C32.9775 13.5754 32.7907 13.5957 32.6055 13.5785C32.4203 13.5613 32.2404 13.5071 32.0766 13.419C31.9128 13.3309 31.7683 13.2107 31.6519 13.0656C31.5354 12.9206 31.4494 12.7536 31.3988 12.5745C31.3482 12.3955 31.3342 12.2082 31.3575 12.0236C31.3808 11.8391 31.441 11.6611 31.5345 11.5003V11.5161Z" fill="white"></path><path d="M37.3196 16.0565L45.2298 13.4197C45.3672 13.3705 45.5181 13.3749 45.6524 13.432C45.7867 13.4891 45.8946 13.5947 45.9545 13.7278C46.0144 13.8609 46.0219 14.0116 45.9755 14.15C45.9292 14.2884 45.8324 14.4043 45.7044 14.4744L38.4534 18.6141C38.2847 18.7083 38.0983 18.7663 37.906 18.7846C37.7137 18.8028 37.5197 18.7808 37.3364 18.72C37.1531 18.6592 36.9844 18.5609 36.8411 18.4314C36.6978 18.3019 36.583 18.144 36.5041 17.9677C36.4251 17.7914 36.3837 17.6006 36.3825 17.4075C36.3812 17.2143 36.4202 17.023 36.4969 16.8458C36.5736 16.6685 36.6864 16.5091 36.828 16.3778C36.9696 16.2464 37.137 16.146 37.3196 16.0829V16.0565Z" fill="white"></path><path d="M39.1283 24.7632L47.0386 26.1923C47.2066 26.2284 47.3555 26.3249 47.4571 26.4636C47.5586 26.6022 47.6057 26.7733 47.5895 26.9444C47.5732 27.1155 47.4947 27.2746 47.3689 27.3917C47.243 27.5087 47.0786 27.5754 46.9068 27.5792L38.8488 27.5265C38.6566 27.5241 38.4669 27.4818 38.2918 27.4025C38.1167 27.3231 37.9599 27.2083 37.8313 27.0654C37.7027 26.9224 37.6052 26.7544 37.5447 26.5718C37.4843 26.3893 37.4624 26.1962 37.4803 26.0048C37.4982 25.8133 37.5556 25.6277 37.6488 25.4595C37.742 25.2913 37.869 25.1443 38.0219 25.0277C38.1747 24.911 38.3501 24.8273 38.5369 24.7818C38.7237 24.7362 38.9179 24.7299 39.1072 24.7632H39.1283Z" fill="white"></path><path d="M37.9102 33.4117L44.0327 37.4565C44.1382 37.5468 44.2098 37.6705 44.2357 37.807C44.2616 37.9434 44.2403 38.0847 44.1752 38.2075C44.1101 38.3302 44.0052 38.4272 43.8777 38.4824C43.7502 38.5376 43.6077 38.5477 43.4737 38.5112L36.6182 35.8744C36.4396 35.8009 36.2783 35.691 36.1445 35.5518C36.0107 35.4126 35.9073 35.2471 35.8409 35.0658C35.7745 34.8845 35.7465 34.6914 35.7588 34.4987C35.771 34.306 35.8233 34.1179 35.9121 33.9465C36.0009 33.7751 36.1245 33.624 36.2748 33.5028C36.4252 33.3817 36.5991 33.2932 36.7856 33.2429C36.972 33.1926 37.1668 33.1816 37.3577 33.2107C37.5486 33.2397 37.7313 33.3082 37.8944 33.4117H37.9102Z" fill="white"></path><path d="M33.9234 39.5447L37.8258 47.0541C37.9054 47.2019 37.9262 47.3744 37.8839 47.5368C37.8416 47.6993 37.7393 47.8397 37.5977 47.9299C37.4561 48.02 37.2857 48.0533 37.1206 48.0229C36.9555 47.9925 36.808 47.9007 36.7078 47.7661L31.5819 41.0318C31.4646 40.8785 31.3804 40.7024 31.3348 40.5148C31.2891 40.3272 31.283 40.1322 31.3168 39.9421C31.3505 39.752 31.4235 39.571 31.531 39.4106C31.6384 39.2502 31.7781 39.114 31.9411 39.0105C32.1041 38.9069 32.2868 38.8385 32.4777 38.8094C32.6685 38.7803 32.8633 38.7912 33.0498 38.8414C33.2362 38.8916 33.4101 38.9801 33.5605 39.1012C33.7109 39.2223 33.8345 39.3733 33.9234 39.5447Z" fill="white"></path><path d="M26.9307 42.3448L26.1766 50.3658C26.1567 50.5196 26.0815 50.6608 25.9651 50.7632C25.8486 50.8656 25.6989 50.922 25.5438 50.922C25.3887 50.922 25.239 50.8656 25.1225 50.7632C25.0061 50.6608 24.9309 50.5196 24.911 50.3658L24.1569 42.3448C24.1401 42.1525 24.1635 41.9588 24.2256 41.776C24.2876 41.5933 24.387 41.4254 24.5175 41.2831C24.6479 41.1408 24.8065 41.0272 24.9832 40.9494C25.1599 40.8717 25.3508 40.8315 25.5438 40.8315C25.7368 40.8315 25.9278 40.8717 26.1045 40.9494C26.2811 41.0272 26.4397 41.1408 26.5702 41.2831C26.7006 41.4254 26.8 41.5933 26.8621 41.776C26.9241 41.9588 26.9475 42.1525 26.9307 42.3448Z" fill="white"></path><path d="M17.3329 41.074L13.5043 49.3324C13.4308 49.475 13.3078 49.586 13.1583 49.6444C13.0088 49.7028 12.8432 49.7047 12.6924 49.6497C12.5417 49.5947 12.4161 49.4866 12.3394 49.3456C12.2626 49.2047 12.24 49.0406 12.2756 48.8841L14.7278 40.1195C14.7786 39.9336 14.8674 39.7603 14.9887 39.6105C15.1099 39.4607 15.261 39.3377 15.4323 39.2493C15.6035 39.1609 15.7913 39.109 15.9836 39.097C16.176 39.0849 16.3688 39.1129 16.5497 39.1792C16.7307 39.2455 16.8959 39.3487 17.035 39.4822C17.174 39.6156 17.2838 39.7765 17.3574 39.9547C17.431 40.1328 17.4669 40.3242 17.4626 40.5169C17.4584 40.7096 17.4142 40.8993 17.3329 41.074Z" fill="white"></path><path d="M11.3844 36.5966L3.65348 39.9927C3.49347 40.0712 3.30931 40.0849 3.13948 40.0308C2.96965 39.9767 2.82729 39.859 2.74218 39.7024C2.65706 39.5458 2.63578 39.3624 2.68276 39.1904C2.72974 39.0185 2.84137 38.8714 2.9943 38.7798L10.0661 34.1602C10.2267 34.0623 10.4056 33.9981 10.5918 33.9715C10.7781 33.9448 10.9678 33.9564 11.1494 34.0055C11.3311 34.0545 11.5009 34.14 11.6484 34.2567C11.796 34.3734 11.9182 34.5189 12.0078 34.6844C12.0973 34.8499 12.1523 35.0318 12.1693 35.2192C12.1862 35.4066 12.1649 35.5954 12.1066 35.7743C12.0483 35.9532 11.9542 36.1183 11.8301 36.2597C11.7059 36.401 11.5543 36.5157 11.3844 36.5966Z" fill="white"></path><path d="M9.13793 27.9007L0.499935 26.7405C0.355565 26.7158 0.225174 26.6393 0.13323 26.5253C0.0412862 26.4113 -0.00588632 26.2677 0.000587969 26.1213C0.00706225 25.975 0.0667243 25.8361 0.168378 25.7307C0.270032 25.6252 0.406689 25.5605 0.552674 25.5487L9.25395 25.1321C9.44797 25.1212 9.64213 25.151 9.82393 25.2196C10.0057 25.2883 10.1711 25.3942 10.3095 25.5306C10.4479 25.667 10.5562 25.8309 10.6275 26.0117C10.6987 26.1925 10.7313 26.3862 10.7232 26.5804C10.715 26.7745 10.6663 26.9648 10.5802 27.139C10.4941 27.3133 10.3725 27.4675 10.2232 27.5919C10.0738 27.7162 9.90015 27.808 9.71324 27.8611C9.52633 27.9143 9.33036 27.9278 9.13793 27.9007Z" fill="white"></path><path d="M10.683 16.8055L3.00482 11.1945C2.93557 11.1526 2.87524 11.0974 2.82729 11.0322C2.77934 10.967 2.74471 10.893 2.72537 10.8144C2.70603 10.7358 2.70237 10.6542 2.71457 10.5742C2.72678 10.4942 2.75462 10.4173 2.79652 10.3481C2.83842 10.2788 2.89355 10.2185 2.95876 10.1706C3.02397 10.1226 3.09797 10.088 3.17657 10.0686C3.25516 10.0493 3.33681 10.0456 3.41683 10.0578C3.49684 10.07 3.57365 10.0979 3.64291 10.1398L12.1332 14.4271C12.2953 14.5189 12.4373 14.6424 12.5506 14.7902C12.664 14.938 12.7464 15.1071 12.7929 15.2875C12.8395 15.4679 12.8492 15.6558 12.8216 15.84C12.7939 16.0242 12.7295 16.2009 12.632 16.3597C12.5346 16.5184 12.4061 16.6559 12.2544 16.7639C12.1027 16.872 11.9307 16.9483 11.7488 16.9885C11.5669 17.0286 11.3788 17.0317 11.1957 16.9975C11.0126 16.9634 10.8382 16.8927 10.683 16.7897V16.8055Z" fill="white"></path><path d="M25.4119 11.0414C19.611 10.282 12.9717 12.4494 11.4424 18.6511C10.9973 20.6209 10.7203 22.625 10.6145 24.6418C10.4141 28.5125 10.4984 32.7735 12.6131 36.0536C15.3764 40.13 20.8187 41.8545 25.6123 41.4748C33.7018 40.7048 36.9081 34.9567 37.5251 27.4262C37.6658 25.6524 37.6852 23.8711 37.5831 22.0947C37.4777 19.9589 36.9767 17.7809 35.7532 16.0987C33.4118 12.808 29.2774 11.6479 25.4119 11.0414ZM25.5648 9.98671C29.7414 10.6881 34.5298 11.3525 37.4197 14.812C40.6154 18.2766 40.6207 23.2496 40.3465 27.6477C39.7716 36.1591 35.0149 43.6369 25.6598 43.2308C19.2525 43.041 11.917 40.7101 9.5545 34.1182C8.32577 31.0649 8.07264 27.6846 8.15174 24.4414C8.2014 22.2402 8.51838 20.0533 9.0957 17.9286C11.2051 10.7408 18.9624 8.86345 25.5648 9.98671Z" fill="white"></path><path d="M111.746 40.4951C105.814 29.8531 100.82 19.2639 95.7306 7.96282H96.6693L79.5304 43.7752L78.5231 42.2406C89.8243 41.1859 100.503 40.5583 111.746 40.4951ZM114.91 42.3302C104.2 42.9789 89.1809 43.9756 78.6181 44.35C78.4795 44.3556 78.3413 44.3339 78.2111 44.2861C78.081 44.2382 77.9616 44.1652 77.8597 44.0712C77.7578 43.9771 77.6755 43.8639 77.6174 43.738C77.5593 43.6121 77.5266 43.476 77.5212 43.3375C77.5146 43.1553 77.5526 42.9742 77.6319 42.8101L95.2402 7.23508C95.3647 6.98482 95.5836 6.79426 95.8486 6.70526C96.1136 6.61627 96.4031 6.63612 96.6534 6.76046C96.8535 6.85696 97.0165 7.01624 97.1175 7.21399C102.454 17.2653 109.742 31.9994 114.91 42.3144V42.3302Z" fill="white"></path><path fill-rule="evenodd" clip-rule="evenodd" d="M86.8289 38.3755L105.814 37.6741C105.964 37.6721 106.111 37.6317 106.241 37.5567C106.372 37.4818 106.481 37.3747 106.558 37.2457C106.635 37.1167 106.678 36.9701 106.682 36.8199C106.687 36.6696 106.653 36.5207 106.583 36.3874L96.5374 17.1602C96.4606 17.0142 96.3444 16.8927 96.2019 16.8095C96.0595 16.7264 95.8965 16.6849 95.7316 16.6898C95.5667 16.6948 95.4065 16.7459 95.2693 16.8375C95.132 16.929 95.0233 17.0573 94.9554 17.2076L85.9904 37.1362C85.9293 37.2729 85.9041 37.423 85.9172 37.5723C85.9302 37.7215 85.9811 37.8649 86.0651 37.989C86.149 38.113 86.2632 38.2136 86.3969 38.2813C86.5305 38.3489 86.6792 38.3813 86.8289 38.3755ZM100.028 32.9646L96.4531 26.109C96.4144 26.0185 96.3493 25.9417 96.2663 25.8886C96.1834 25.8356 96.0864 25.8087 95.9879 25.8116C95.8895 25.8144 95.7942 25.8468 95.7144 25.9046C95.6347 25.9623 95.5741 26.0428 95.5407 26.1354L92.3766 33.2388C92.3427 33.3155 92.3287 33.3996 92.3361 33.4831C92.3435 33.5667 92.372 33.647 92.4189 33.7166C92.4658 33.7861 92.5296 33.8426 92.6043 33.8808C92.679 33.919 92.7621 33.9376 92.846 33.9349L99.6119 33.6818C99.6946 33.6787 99.7753 33.6548 99.8462 33.6122C99.9172 33.5695 99.9763 33.5096 100.018 33.438C100.059 33.3664 100.082 33.2855 100.084 33.2027C100.086 33.1199 100.067 33.038 100.028 32.9646Z" fill="white"></path><path d="M82.0248 43.1001L79.9576 52.2602H84.7248L84.0129 43.1001H82.0248Z" fill="white"></path><path d="M109.036 42.2197L109.473 50.7839L113.977 50.072L111.024 42.2197H109.036Z" fill="white"></path><path d="M96.047 42.4146L95.0925 51.5746L99.9652 52.0651L98.0351 42.4146H96.047Z" fill="white"></path><path d="M89.0438 42.4146L88.0735 52.2602L92.6509 51.8436L90.8473 42.4146H89.0438Z" fill="white"></path><path d="M103.435 42.2197L102.465 52.0654L107.037 51.6487L105.239 42.2197H103.435Z" fill="white"></path><path d="M186.645 17.5367C183.217 14.5906 178.812 13.033 174.294 13.1702C168.778 13.4128 164.322 17.9164 161.337 22.3198C159.453 25.0883 158.478 28.3746 158.547 31.7224C158.843 40.3815 167.475 49.5627 176.551 48.9509C181.223 48.6398 185.432 45.9187 188.39 42.338C191.417 38.4936 193.906 33.5734 193.294 28.5741C192.741 24.1391 189.946 20.4529 186.666 17.5261L186.645 17.5367ZM188.511 15.4853C192.414 19.008 195.71 23.8702 195.936 29.3072C196.163 34.7441 193.642 39.7751 190.426 44.0044C185.321 50.475 176.625 53.8448 168.773 50.417C163.882 48.1934 159.865 44.4123 157.35 39.6643C155.763 36.6733 155.005 33.3124 155.155 29.9298C155.304 26.5472 156.355 23.2661 158.199 20.4266C165.941 8.25533 177.49 5.33909 188.511 15.4853Z" fill="white"></path><path d="M171.657 35.7936C173.076 36.9115 176.931 39.485 180.512 34.9445C184.092 30.404 181.645 26.2116 178.318 24.3131C174.99 22.4147 170.898 24.0811 169.226 28.7271C168.187 31.6591 169.4 34.0111 171.657 35.7936Z" fill="white"></path><path d="M169.833 38.2935C172.997 41.0621 177.02 42.4806 180.612 39.5644C183.596 37.1597 185.917 32.9883 185.221 29.1967C184.424 24.5296 179.214 20.005 174.347 20.7591C169.632 21.4499 165.677 27.1189 165.909 31.8334C166.131 34.4702 167.823 36.6165 169.806 38.2935H169.833ZM168.752 39.6593C164.786 36.8274 162.518 32.192 164.164 27.3773C165.123 24.4242 166.8 21.645 169.437 19.8362C178.059 13.5608 190.194 23.9285 186.734 33.5473C185.749 36.2032 184.066 38.5442 181.861 40.3238C178.001 43.6039 172.506 42.5861 168.752 39.6751V39.6593Z" fill="white"></path><path d="M157.308 35.4349C154.623 35.9218 152.007 36.7347 149.519 37.8554C148.686 38.2175 147.876 38.6296 147.093 39.0894C146.914 39.184 146.716 39.2388 146.514 39.2501C146.311 39.2615 146.109 39.2291 145.92 39.1552C145.731 39.0813 145.56 38.9677 145.419 38.8219C145.278 38.6762 145.17 38.5018 145.102 38.3106C145.035 38.1195 145.009 37.916 145.027 37.7139C145.045 37.5119 145.106 37.3161 145.206 37.1399C145.307 36.9636 145.444 36.811 145.608 36.6925C145.773 36.5739 145.961 36.4921 146.16 36.4527C149.749 35.81 153.206 34.575 156.39 32.7981C156.57 32.6907 156.771 32.6244 156.979 32.604C157.187 32.5835 157.396 32.6094 157.593 32.6799C157.79 32.7503 157.969 32.8635 158.116 33.0113C158.264 33.1591 158.377 33.3378 158.448 33.5346C158.518 33.7314 158.544 33.9413 158.523 34.1493C158.503 34.3573 158.436 34.5581 158.329 34.7373C158.221 34.9166 158.076 35.0697 157.902 35.1858C157.728 35.3018 157.531 35.3779 157.324 35.4085L157.308 35.4349Z" fill="white"></path><path d="M158.537 22.357C156.393 20.043 153.8 18.1896 150.917 16.9095C150.567 16.7619 150.29 16.4815 150.147 16.1299C150.004 15.7784 150.007 15.3844 150.155 15.0348C150.302 14.6851 150.583 14.4084 150.934 14.2655C151.286 14.1226 151.68 14.1252 152.029 14.2727C152.783 14.7157 153.469 15.7124 154.239 16.2714C156.048 17.7796 157.93 19.2193 160.15 20.0841C160.36 20.1596 160.549 20.2825 160.703 20.4433C160.857 20.6041 160.971 20.7984 161.037 21.0109C161.103 21.2234 161.119 21.4484 161.084 21.6681C161.048 21.8878 160.962 22.0963 160.833 22.2772C160.703 22.4581 160.533 22.6065 160.337 22.7107C160.14 22.8149 159.922 22.8721 159.699 22.8778C159.477 22.8835 159.256 22.8375 159.054 22.7435C158.853 22.6495 158.676 22.51 158.537 22.3359V22.357Z" fill="white"></path><path d="M171.351 10.9975C171.59 8.83745 171.53 6.65477 171.172 4.51114C171.047 3.7858 170.836 3.07779 170.545 2.40174C170.382 2.04789 170.367 1.64408 170.503 1.27915C170.638 0.914221 170.913 0.618059 171.267 0.455819C171.621 0.293579 172.025 0.278551 172.39 0.414041C172.755 0.54953 173.051 0.824435 173.213 1.17829C173.351 1.47863 173.383 1.81728 173.303 2.13807C173.144 2.85824 173.069 3.59447 173.081 4.33185C173.119 5.77229 173.281 7.20677 173.566 8.6192C173.697 9.33291 173.873 10.0375 174.094 10.7286C174.165 10.9333 174.188 11.1516 174.163 11.3668C174.137 11.582 174.063 11.7886 173.946 11.9709C173.829 12.1532 173.671 12.3065 173.486 12.4191C173.301 12.5317 173.093 12.6007 172.877 12.6209C172.661 12.641 172.443 12.6119 172.241 12.5356C172.038 12.4592 171.855 12.3378 171.706 12.1804C171.557 12.0229 171.446 11.8337 171.381 11.627C171.316 11.4202 171.298 11.2014 171.33 10.987L171.351 10.9975Z" fill="white"></path><path d="M188.227 17.0304C191.19 15.6487 193.416 13.128 195.24 10.4807C195.445 10.1678 195.763 9.94682 196.128 9.86447C196.493 9.78211 196.875 9.84486 197.194 10.0394C197.514 10.234 197.745 10.5451 197.839 10.907C197.933 11.2688 197.882 11.6531 197.698 11.9784C197.56 12.2016 197.366 12.3837 197.134 12.5057C196.415 12.8899 195.728 13.3289 195.077 13.8188C193.157 15.3007 191.254 16.8563 190.12 19.0607C190.014 19.2777 189.857 19.4657 189.663 19.6085C189.468 19.7513 189.242 19.8446 189.003 19.8803C188.764 19.9161 188.521 19.8932 188.293 19.8136C188.065 19.7341 187.86 19.6003 187.695 19.4238C187.531 19.2473 187.411 19.0333 187.348 18.8005C187.285 18.5676 187.279 18.3228 187.331 18.0872C187.383 17.8516 187.492 17.6323 187.648 17.4481C187.804 17.264 188.003 17.1206 188.227 17.0304Z" fill="white"></path><path d="M194.676 29.6551C196.828 30.4461 199.043 30.3459 201.268 30.3934C202.006 30.3934 202.75 30.3617 203.493 30.2826C203.858 30.257 204.219 30.3744 204.499 30.61C204.779 30.8456 204.956 31.1808 204.993 31.5447C205.03 31.9087 204.924 32.2727 204.697 32.5598C204.47 32.8469 204.141 33.0345 203.778 33.0829C202.876 33.0459 202.006 32.7137 201.11 32.6293C198.9 32.3604 196.717 31.9438 194.476 32.4237C194.253 32.4766 194.021 32.4764 193.799 32.423C193.577 32.3697 193.37 32.2647 193.196 32.1165C193.022 31.9684 192.885 31.7813 192.796 31.5704C192.708 31.3595 192.671 31.1307 192.687 30.9027C192.704 30.6746 192.774 30.4536 192.891 30.2576C193.009 30.0617 193.172 29.8962 193.365 29.7747C193.559 29.6532 193.779 29.5791 194.006 29.5583C194.234 29.5375 194.464 29.5707 194.676 29.6551Z" fill="white"></path><path d="M190.099 42.3641C191.254 44.3205 193.02 45.7391 194.787 47.1102C195.384 47.5625 196.009 47.9764 196.659 48.3495C196.822 48.4406 196.966 48.5629 197.082 48.7096C197.199 48.8563 197.285 49.0244 197.336 49.2044C197.387 49.3843 197.402 49.5726 197.381 49.7584C197.359 49.9443 197.301 50.1241 197.21 50.2875C197.119 50.4509 196.997 50.5948 196.85 50.711C196.703 50.8271 196.535 50.9132 196.355 50.9644C196.175 51.0156 195.987 51.0308 195.801 51.0092C195.615 50.9876 195.435 50.9296 195.272 50.8386C194.602 50.364 194.049 49.2565 193.384 48.6395C192.399 47.5318 191.319 46.5119 190.157 45.5915C189.563 45.1236 188.917 44.7254 188.232 44.4049C188.02 44.3113 187.833 44.1686 187.687 43.9886C187.541 43.8087 187.44 43.5965 187.393 43.3698C187.345 43.1431 187.352 42.9083 187.413 42.6847C187.474 42.4611 187.587 42.2553 187.743 42.0841C187.899 41.9129 188.094 41.7814 188.311 41.7003C188.528 41.6192 188.761 41.5909 188.991 41.6177C189.221 41.6446 189.442 41.7258 189.634 41.8546C189.827 41.9835 189.986 42.1563 190.099 42.3588V42.3641Z" fill="white"></path><path d="M178.987 50.1377C178.801 52.3947 178.9 54.6662 179.283 56.8983C179.394 57.6481 179.554 58.3898 179.763 59.1184C179.815 59.2968 179.832 59.4836 179.812 59.6684C179.792 59.8532 179.736 60.0322 179.646 60.1953C179.557 60.3583 179.437 60.5022 179.292 60.6188C179.147 60.7353 178.981 60.8222 178.803 60.8745C178.625 60.9268 178.438 60.9435 178.253 60.9235C178.068 60.9036 177.889 60.8474 177.726 60.7583C177.563 60.6692 177.419 60.5488 177.303 60.4041C177.186 60.2593 177.099 60.0931 177.047 59.9147C176.92 58.9813 177.173 58.0216 177.089 57.0881C177.071 55.5833 176.944 54.0817 176.709 52.5951C176.599 51.8448 176.437 51.103 176.224 50.375C176.162 50.1726 176.146 49.959 176.177 49.7496C176.208 49.5403 176.286 49.3406 176.404 49.1651C176.523 48.9897 176.679 48.8429 176.861 48.7357C177.044 48.6284 177.248 48.5634 177.459 48.5452C177.67 48.5271 177.882 48.5564 178.08 48.631C178.278 48.7056 178.457 48.8235 178.604 48.9762C178.75 49.1289 178.861 49.3125 178.927 49.5135C178.994 49.7144 179.014 49.9277 178.987 50.1377Z" fill="white"></path><path d="M166.663 47.8594C164.085 50.0015 161.964 52.6394 160.425 55.6167C160.333 55.8131 160.198 55.9861 160.03 56.1226C159.861 56.2591 159.664 56.3555 159.453 56.4045C159.242 56.4536 159.022 56.454 158.811 56.4057C158.6 56.3574 158.402 56.2617 158.233 56.1258C158.065 55.9899 157.929 55.8174 157.837 55.6213C157.744 55.4252 157.698 55.2107 157.701 54.994C157.703 54.7773 157.755 54.5641 157.853 54.3705C157.95 54.1769 158.09 54.0079 158.263 53.8764C158.932 53.3685 159.557 52.8039 160.129 52.1889C161.859 50.3781 163.33 48.3373 164.501 46.1244C164.596 45.9347 164.731 45.7685 164.898 45.6381C165.065 45.5078 165.26 45.4165 165.467 45.371C165.673 45.3255 165.888 45.3269 166.094 45.3752C166.301 45.4235 166.494 45.5174 166.659 45.6501C166.824 45.7827 166.958 45.9507 167.049 46.1416C167.141 46.3326 167.189 46.5418 167.19 46.7537C167.19 46.9656 167.143 47.1749 167.052 47.3662C166.961 47.5576 166.828 47.7261 166.663 47.8594Z" fill="white"></path></svg>