<svg xmlns="http://www.w3.org/2000/svg" width="114" height="115" viewBox="0 0 114 115" fill="none"><path d="M79.08 32.6499C72.5806 27.0632 64.2265 24.1097 55.66 24.3699C45.2 24.8299 36.75 33.3699 31.09 41.7199C27.5183 46.9699 25.6694 53.2015 25.8 59.5499C26.36 75.9699 42.73 93.3799 59.94 92.2199C68.8 91.6299 76.78 86.4699 82.39 79.6799C88.13 72.3899 92.85 63.0599 91.69 53.5799C90.64 45.1699 85.34 38.1799 79.12 32.6299L79.08 32.6499ZM82.62 28.7599C90.02 35.4399 96.27 44.6599 96.7 54.9699C97.13 65.2799 92.35 74.8199 86.25 82.8399C76.57 95.1099 60.08 101.5 45.19 94.9999C35.9152 90.7834 28.2985 83.6133 23.53 74.6099C20.5209 68.9382 19.0834 62.5649 19.3665 56.1506C19.6496 49.7363 21.6429 43.5145 25.14 38.1299C39.82 15.0499 61.72 9.51989 82.62 28.7599Z" fill="black"></path><path d="M50.66 67.2701C53.35 69.3901 60.66 74.2701 67.45 65.6601C74.24 57.0501 69.6 49.1001 63.29 45.5001C56.98 41.9001 49.22 45.0601 46.05 53.8701C44.08 59.4301 46.38 63.8901 50.66 67.2701Z" fill="black"></path><path d="M47.2 72.0099C53.2 77.2599 60.83 79.9499 67.64 74.4199C73.3 69.8599 77.7 61.9499 76.38 54.7599C74.87 45.9099 64.99 37.3299 55.76 38.7599C46.82 40.0699 39.32 50.8199 39.76 59.7599C40.18 64.7599 43.39 68.8299 47.15 72.0099H47.2ZM45.15 74.5999C37.63 69.2299 33.33 60.4399 36.45 51.3099C38.27 45.7099 41.45 40.4399 46.45 37.0099C62.8 25.1099 85.81 44.7699 79.25 63.0099C77.3815 68.0462 74.1894 72.4853 70.01 75.8599C62.69 82.0799 52.27 80.1499 45.15 74.6299V74.5999Z" fill="black"></path><path d="M23.45 66.5901C18.3582 67.5134 13.3982 69.0548 8.67997 71.1801C7.1009 71.8667 5.56477 72.6481 4.07997 73.5201C3.73971 73.6993 3.36486 73.8032 2.98088 73.8248C2.5969 73.8463 2.21278 73.7849 1.85462 73.6448C1.49646 73.5047 1.17265 73.2892 0.905179 73.0129C0.637708 72.7365 0.43284 72.4058 0.304501 72.0433C0.176162 71.6808 0.127359 71.2949 0.161397 70.9118C0.195434 70.5287 0.311518 70.1574 0.501767 69.8232C0.692016 69.489 0.95197 69.1996 1.26397 68.9748C1.57598 68.7499 1.93272 68.5948 2.30997 68.5201C9.11606 67.3014 15.6721 64.9595 21.71 61.5901C22.0499 61.3864 22.4308 61.2606 22.8252 61.2218C23.2196 61.1831 23.6176 61.2322 23.9907 61.3658C24.3638 61.4994 24.7027 61.714 24.9829 61.9943C25.263 62.2746 25.4775 62.6135 25.611 62.9866C25.7444 63.3598 25.7934 63.7579 25.7545 64.1523C25.7156 64.5466 25.5897 64.9275 25.3858 65.2673C25.182 65.6072 24.9054 65.8976 24.5758 66.1177C24.2462 66.3378 23.872 66.482 23.48 66.5401L23.45 66.5901Z" fill="black"></path><path d="M25.78 41.7901C21.714 37.4021 16.7976 33.8874 11.33 31.4601C10.667 31.1803 10.1422 30.6485 9.87123 29.9818C9.60024 29.3152 9.60519 28.5681 9.885 27.9051C10.1648 27.242 10.6965 26.7173 11.3632 26.4463C12.0299 26.1753 12.777 26.1803 13.44 26.4601C14.87 27.3001 16.17 29.1901 17.63 30.2501C21.06 33.1101 24.63 35.8401 28.84 37.4801C29.2371 37.6231 29.5956 37.8562 29.8873 38.1612C30.1791 38.4661 30.3962 38.8345 30.5216 39.2375C30.647 39.6405 30.6772 40.0671 30.61 40.4837C30.5427 40.9004 30.3797 41.2957 30.1339 41.6388C29.8881 41.9818 29.566 42.2632 29.1931 42.4608C28.8202 42.6584 28.4065 42.7669 27.9846 42.7777C27.5627 42.7884 27.1441 42.7013 26.7616 42.523C26.379 42.3447 26.043 42.0801 25.78 41.7501V41.7901Z" fill="black"></path><path d="M50.08 20.2501C50.5323 16.1539 50.4179 12.015 49.74 7.95009C49.5018 6.57465 49.1024 5.23206 48.55 3.95009C48.2424 3.27909 48.2139 2.51336 48.4708 1.82135C48.7277 1.12934 49.249 0.567741 49.92 0.26009C50.591 -0.0475612 51.3567 -0.0760586 52.0487 0.180866C52.7407 0.437791 53.3024 0.959087 53.61 1.63008C53.8725 2.19962 53.9325 2.84179 53.78 3.45009C53.4789 4.81574 53.3379 6.21182 53.36 7.6101C53.4313 10.3416 53.7391 13.0617 54.28 15.7401C54.5272 17.0935 54.8613 18.4296 55.28 19.7401C55.415 20.1283 55.4599 20.5421 55.4113 20.9503C55.3628 21.3584 55.222 21.7501 54.9997 22.0958C54.7774 22.4415 54.4794 22.7322 54.1282 22.9457C53.777 23.1592 53.3819 23.2901 52.9726 23.3283C52.5634 23.3666 52.1508 23.3113 51.7661 23.1666C51.3815 23.0219 51.0347 22.7915 50.7522 22.493C50.4696 22.1945 50.2587 21.8357 50.1353 21.4436C50.0119 21.0516 49.9793 20.6366 50.04 20.2301L50.08 20.2501Z" fill="black"></path><path d="M82.08 31.69C87.7 29.07 91.92 24.29 95.38 19.27C95.7681 18.6767 96.3717 18.2576 97.0633 18.1015C97.7548 17.9453 98.48 18.0643 99.0854 18.4332C99.6907 18.8022 100.129 19.3922 100.307 20.0784C100.485 20.7645 100.389 21.4931 100.04 22.11C99.7795 22.5333 99.4099 22.8787 98.97 23.11C97.6079 23.8385 96.3041 24.671 95.07 25.6C91.43 28.41 87.82 31.36 85.67 35.54C85.4696 35.9515 85.1721 36.308 84.8032 36.5788C84.4342 36.8496 84.0049 37.0265 83.5523 37.0943C83.0997 37.1621 82.6374 37.1186 82.2053 36.9678C81.7732 36.817 81.3843 36.5633 81.0722 36.2285C80.7601 35.8938 80.5341 35.4882 80.4138 35.0466C80.2935 34.605 80.2825 34.1408 80.3817 33.694C80.4809 33.2473 80.6874 32.8313 80.9832 32.4822C81.2791 32.133 81.6555 31.8612 82.08 31.69Z" fill="black"></path><path d="M94.31 55.6301C98.39 57.1301 102.59 56.9401 106.81 57.0301C108.21 57.0301 109.62 56.9701 111.03 56.8201C111.722 56.7715 112.406 56.9942 112.936 57.4409C113.467 57.8876 113.803 58.5233 113.873 59.2134C113.943 59.9035 113.742 60.5938 113.312 61.1382C112.882 61.6826 112.258 62.0383 111.57 62.1301C109.86 62.0601 108.21 61.4301 106.51 61.2701C102.32 60.7601 98.18 59.9701 93.93 60.8801C93.5082 60.9805 93.0686 60.98 92.647 60.8789C92.2253 60.7777 91.8334 60.5786 91.5031 60.2976C91.1727 60.0167 90.9132 59.6619 90.7456 59.262C90.578 58.8621 90.5069 58.4283 90.5382 57.9958C90.5695 57.5633 90.7023 57.1443 90.9258 56.7727C91.1492 56.4011 91.4571 56.0873 91.8245 55.8569C92.1918 55.6265 92.6083 55.4859 93.0402 55.4465C93.472 55.4071 93.907 55.47 94.31 55.6301Z" fill="black"></path><path d="M85.63 79.73C87.82 83.44 91.17 86.13 94.52 88.73C95.6524 89.5877 96.8382 90.3726 98.07 91.08C98.3799 91.2527 98.6528 91.4848 98.873 91.7629C99.0933 92.041 99.2566 92.3598 99.3536 92.7011C99.4507 93.0424 99.4795 93.3994 99.4386 93.7518C99.3977 94.1042 99.2877 94.4451 99.115 94.755C98.9423 95.0649 98.7103 95.3378 98.4321 95.5581C98.154 95.7783 97.8352 95.9416 97.4939 96.0386C97.1527 96.1357 96.7957 96.1645 96.4432 96.1236C96.0908 96.0826 95.7499 95.9727 95.44 95.8C94.17 94.9 93.12 92.8 91.86 91.63C89.9915 89.5295 87.9438 87.5955 85.74 85.85C84.6135 84.9628 83.3888 84.2078 82.09 83.6C81.6881 83.4225 81.3342 83.152 81.0574 82.8107C80.7807 82.4694 80.5892 82.0671 80.4986 81.6372C80.408 81.2073 80.421 80.762 80.5365 80.338C80.652 79.9141 80.8667 79.5237 81.1628 79.1992C81.4589 78.8746 81.828 78.6251 82.2396 78.4713C82.6512 78.3176 83.0935 78.2639 83.5299 78.3148C83.9663 78.3657 84.3844 78.5196 84.7495 78.764C85.1147 79.0083 85.4165 79.336 85.63 79.72V79.73Z" fill="black"></path><path d="M64.56 94.47C64.2062 98.7498 64.3943 103.057 65.12 107.29C65.3302 108.712 65.6342 110.118 66.03 111.5C66.1292 111.838 66.1608 112.192 66.1229 112.543C66.0851 112.893 65.9787 113.233 65.8097 113.542C65.6407 113.851 65.4124 114.124 65.138 114.345C64.8635 114.566 64.5482 114.731 64.21 114.83C63.8719 114.929 63.5175 114.961 63.1671 114.923C62.8168 114.885 62.4773 114.779 62.1681 114.61C61.8589 114.441 61.586 114.212 61.365 113.938C61.144 113.663 60.9792 113.348 60.88 113.01C60.64 111.24 61.12 109.42 60.96 107.65C60.9256 104.796 60.6849 101.949 60.24 99.13C60.0302 97.7072 59.7228 96.3005 59.32 94.92C59.2022 94.5363 59.1718 94.1311 59.2309 93.7341C59.29 93.3372 59.4372 92.9584 59.6617 92.6257C59.8862 92.293 60.1823 92.0148 60.5283 91.8114C60.8743 91.608 61.2615 91.4846 61.6614 91.4503C62.0613 91.416 62.4638 91.4715 62.8394 91.613C63.215 91.7544 63.5542 91.978 63.8322 92.2676C64.1101 92.5571 64.3197 92.9052 64.4457 93.2863C64.5716 93.6674 64.6107 94.0718 64.56 94.47Z" fill="black"></path><path d="M41.19 90.15C36.3019 94.2122 32.2791 99.2143 29.36 104.86C29.1863 105.232 28.9301 105.561 28.6109 105.819C28.2916 106.078 27.9177 106.261 27.5174 106.354C27.1171 106.447 26.7009 106.448 26.3003 106.356C25.8996 106.265 25.5251 106.083 25.2049 105.825C24.8847 105.568 24.6274 105.241 24.4523 104.869C24.2772 104.497 24.189 104.09 24.1943 103.679C24.1996 103.268 24.2983 102.864 24.483 102.497C24.6676 102.13 24.9333 101.809 25.26 101.56C26.5296 100.597 27.7139 99.5262 28.8 98.36C32.0792 94.9263 34.8688 91.0564 37.09 86.86C37.2691 86.5003 37.5264 86.1852 37.8432 85.938C38.16 85.6908 38.5282 85.5177 38.9207 85.4314C39.3132 85.3451 39.72 85.3479 40.1113 85.4394C40.5025 85.531 40.8683 85.7091 41.1818 85.9606C41.4952 86.2121 41.7483 86.5306 41.9224 86.8928C42.0966 87.2549 42.1874 87.6515 42.1882 88.0534C42.189 88.4552 42.0997 88.8521 41.927 89.215C41.7543 89.5778 41.5024 89.8973 41.19 90.15Z" fill="black"></path></svg>