<?xml version="1.0" encoding="UTF-8"?> <svg xmlns="http://www.w3.org/2000/svg" width="17" height="11" viewBox="0 0 17 11" fill="none"><path fill-rule="evenodd" clip-rule="evenodd" d="M16.6099 0.744847C16.7281 0.315493 16.6099 0 16.0475 0H14.1877C13.7148 0 13.4968 0.272539 13.3785 0.573071C13.3785 0.573071 12.4328 3.08477 11.0929 4.71628C10.6595 5.18855 10.4624 5.33882 10.226 5.33882C10.1078 5.33882 9.93666 5.18855 9.93666 4.75923V0.744849C9.93666 0.229622 9.79942 0 9.40531 0H6.48276C6.18725 0 6.00952 0.239129 6.00952 0.465759C6.00952 0.954182 6.6794 1.06682 6.74845 2.44075V5.42472C6.74845 6.07895 6.64001 6.19756 6.40356 6.19756C5.77308 6.19756 4.23943 3.67464 3.32983 0.787765C3.15157 0.226658 2.97277 0 2.49746 0H0.637653C0.10628 0 0 0.272539 0 0.573071C0 1.10977 0.630516 3.77174 2.93579 7.29237C4.47262 9.69668 6.63792 11 8.60825 11C9.79044 11 9.93669 10.7105 9.93669 10.2119V8.39474C9.93669 7.81579 10.0487 7.70025 10.423 7.70025C10.6989 7.70025 11.1718 7.85051 12.2752 9.00975C13.5362 10.3837 13.7441 11 14.4534 11H16.3132C16.8445 11 17.1102 10.7105 16.957 10.1393C16.7892 9.56992 16.1872 8.74386 15.3883 7.76464C14.9548 7.2065 14.3046 6.60544 14.1075 6.30484C13.8317 5.91847 13.9105 5.74669 14.1075 5.40325C14.1075 5.40325 16.3735 1.92553 16.6099 0.744847Z" fill="white"></path></svg> 