<?xml version="1.0" encoding="UTF-8"?> <svg xmlns="http://www.w3.org/2000/svg" width="16" height="16" viewBox="0 0 16 16" fill="none"><path fill-rule="evenodd" clip-rule="evenodd" d="M12.8548 2.20353C11.4382 0.786977 9.5668 0.0174884 7.5555 0C3.42796 0 0.0699626 3.35777 0.0699626 7.48502C0.0699626 8.79665 0.419746 10.0908 1.06686 11.2275L0 15.1099L3.97014 14.0606C5.07198 14.6552 6.29625 14.97 7.5555 14.97C11.683 14.97 15.041 11.6123 15.041 7.48502C15.041 5.49135 14.254 3.62009 12.8548 2.20353ZM10.9093 9.01006C10.7169 8.92261 9.80748 8.46792 9.63259 8.39796C9.45769 8.32801 9.33526 8.31052 9.21283 8.4854C9.09041 8.67778 8.72312 9.0975 8.61818 9.21992C8.51325 9.34234 8.40831 9.35982 8.21592 9.27238C8.02354 9.18494 7.4289 8.97508 6.71182 8.3455C6.15216 7.85582 5.78488 7.24373 5.66245 7.05136C5.55751 6.85899 5.64496 6.77155 5.7499 6.66662C5.83735 6.57917 5.94228 6.45675 6.02973 6.33434C6.11717 6.22941 6.15216 6.14196 6.22212 6.01955C6.29208 5.89713 6.25709 5.7922 6.20462 5.68727C6.15215 5.59982 5.78487 4.67294 5.62747 4.30569C5.47006 3.93843 5.31265 3.9909 5.20771 3.9909C5.10278 3.9909 4.98035 3.9909 4.84044 3.9909C4.71801 3.9909 4.50813 4.04336 4.33324 4.21825C4.15834 4.41062 3.68613 4.86531 3.68613 5.77471C3.68613 6.70159 4.35073 7.5935 4.45566 7.71592C4.54311 7.83834 5.76738 9.72708 7.65626 10.549C8.11098 10.7414 8.44329 10.8638 8.72313 10.9513C9.17786 11.0912 9.58012 11.0737 9.89493 11.0212C10.2622 10.9688 10.9968 10.5665 11.1542 10.1293C11.3116 9.6921 11.3116 9.32485 11.2591 9.2374C11.2241 9.14996 11.1017 9.0975 10.9093 9.01006Z" fill="white"></path></svg> 