<?xml version="1.0" encoding="UTF-8"?> <svg xmlns="http://www.w3.org/2000/svg" width="37" height="37" viewBox="0 0 37 37" fill="none"><path fill-rule="evenodd" clip-rule="evenodd" d="M20.83 36.06H26.94C29.3614 36.06 31.6837 35.0981 33.3959 33.3859C35.1081 31.6737 36.07 29.3514 36.07 26.93V9.12C36.07 7.9215 35.8338 6.73476 35.3748 5.62761C34.9159 4.52047 34.2433 3.51465 33.3953 2.66765C32.5474 1.82065 31.5408 1.14909 30.4332 0.691351C29.3255 0.233616 28.1385 -0.00130866 26.94 5.48298e-06H9.13C7.93151 -0.00130866 6.74455 0.233616 5.6369 0.691351C4.52926 1.14909 3.52267 1.82065 2.67474 2.66765C1.82681 3.51465 1.15414 4.52047 0.69519 5.62761C0.236242 6.73476 0 7.9215 0 9.12V26.93C0 29.3514 0.961926 31.6737 2.67413 33.3859C4.38634 35.0981 6.70858 36.06 9.13 36.06H15.25V36.08H20.82V36.0567L20.83 36.06ZM20.82 36.0567V23.2H24.97L25.76 18.05H20.82V14.71C20.7854 14.3253 20.8376 13.9378 20.9727 13.576C21.1079 13.2141 21.3226 12.8873 21.6009 12.6195C21.8792 12.3517 22.2142 12.1499 22.5809 12.0288C22.9477 11.9077 23.337 11.8705 23.72 11.92H25.97V7.54C24.6471 7.3252 23.3102 7.20822 21.97 7.19C17.91 7.2 15.25 9.64001 15.25 14.1V18.03H10.73V23.2H15.25V36.06H15.27L18.04 35.14L20.82 36.0567Z" fill="white"></path></svg> 