<svg xmlns="http://www.w3.org/2000/svg" width="36" height="36" viewBox="0 0 36 36" fill="none"><g clip-path="url(#clip0_260_11)"><path d="M34.5292 30.5158C32.6564 29.3176 31.4426 29.1646 28.1106 29.7079C26.4432 29.9798 22.5034 29.7361 20.1212 29.2136C17.594 28.6596 14.3191 27.2239 12.002 25.6544C10.874 24.8902 8.67961 22.9038 7.77666 21.8294C5.06415 18.6014 3.17325 14.0124 1.81456 7.35994C1.52 5.91739 1.21642 4.54658 0.76834 2.63658C0.699516 2.34301 0.693089 2.06047 0.753837 2.00893C0.814585 1.9574 1.15109 2.09236 1.50122 2.31012C2.60616 2.99631 4.6072 3.48561 8.1868 3.9445C10.3052 4.21611 14.0242 4.98611 15.6811 5.49661C17.6063 6.08974 20.1168 7.236 21.5459 8.17596C23.6266 9.54395 25.0559 10.9569 26.3357 12.9109C27.1969 14.2272 28.3323 16.9919 29.1256 19.708C29.751 21.8491 30.6943 24.2798 31.2488 25.178C31.4555 25.5131 31.7933 26.061 32.0003 26.3955C32.4238 27.0836 33.3899 28.3059 34.4781 29.5311C35.8318 31.0554 35.8478 31.3588 34.5303 30.5157L34.5292 30.5158Z" fill="white"></path></g><defs><clipPath id="clip0_260_11"><rect width="36" height="36" fill="white"></rect></clipPath></defs></svg>