<svg xmlns="http://www.w3.org/2000/svg" width="36" height="36" viewBox="0 0 36 36" fill="none"><g clip-path="url(#clip0_260_12)"><path d="M2.88917 30.6409C2.8403 30.4821 4.88872 23.4459 5.45837 21.8164C7.65781 15.5237 9.53302 12.2352 12.3764 9.68375C13.7965 8.40936 16.6798 6.68629 18.5992 5.96512C21.7848 4.76817 25.3014 4.0571 30.2758 3.60513C31.0888 3.53124 31.9365 3.41653 32.1584 3.34975C32.5169 3.24258 32.5646 3.24984 32.5839 3.41513C32.5953 3.51783 32.546 3.67693 32.4726 3.76831C32.3992 3.85969 31.6889 6.29419 30.8927 9.17803C29.5056 14.2044 29.4159 14.4842 28.7462 15.9352C26.7506 20.2593 24.1089 23.8169 21.2082 26.0873C16.3371 29.8992 11.7098 31.3023 5.13943 30.9577C3.69256 30.882 2.93063 30.7746 2.88932 30.6403L2.88917 30.6409Z" fill="white"></path></g><defs><clipPath id="clip0_260_12"><rect width="36" height="36" fill="white"></rect></clipPath></defs></svg>