<?xml version="1.0" encoding="UTF-8"?> <svg xmlns="http://www.w3.org/2000/svg" width="37" height="37" viewBox="0 0 37 37" fill="none"><path d="M35.98 16.6593C35.6417 12.1301 33.6038 7.89621 30.2747 4.80658C26.9457 1.71695 22.5718 0 18.03 0C13.4882 0 9.11425 1.71695 5.78525 4.80658C2.45625 7.89621 0.418278 12.1301 0.0799866 16.6593H0V20.0193H0.0799866C0.418278 24.5485 2.45625 28.7824 5.78525 31.872C9.11425 34.9616 13.4882 36.6786 18.03 36.6786C22.5718 36.6786 26.9457 34.9616 30.2747 31.872C33.6038 28.7824 35.6417 24.5485 35.98 20.0193H36.06V16.6593H35.98ZM32.61 16.6593H25.81C25.7587 12.5334 24.9027 8.45725 23.29 4.6593C25.7873 5.62377 27.9746 7.25058 29.6167 9.36487C31.2588 11.4792 32.2936 14.001 32.61 16.6593V16.6593ZM18.03 33.0193C16.61 33.0193 13.93 28.4493 13.61 20.0193H22.45C22.13 28.4493 19.45 33.0193 18.03 33.0193V33.0193ZM13.61 16.6593C13.93 8.2393 16.61 3.6593 18.03 3.6593C19.45 3.6593 22.13 8.2293 22.45 16.6593H13.61ZM12.77 4.6593C11.1573 8.45725 10.3012 12.5334 10.25 16.6593H3.44998C3.76293 13.9974 4.79622 11.4714 6.43854 9.3533C8.08085 7.23521 10.2699 5.60536 12.77 4.63931V4.6593ZM3.44998 20.0393H10.25C10.3002 24.1653 11.1563 28.2417 12.77 32.0393C10.2681 31.0761 8.07727 29.447 6.43454 27.3284C4.79181 25.2098 3.75973 22.6823 3.44998 20.0193V20.0393ZM23.29 32.0393C24.9037 28.2417 25.7597 24.1653 25.81 20.0393H32.61C32.2968 22.6987 31.2632 25.222 29.6206 27.3368C27.9781 29.4517 25.7891 31.0777 23.29 32.0393V32.0393Z" fill="white"></path></svg> 