<?xml version="1.0" encoding="UTF-8"?> <svg xmlns="http://www.w3.org/2000/svg" width="37" height="26" viewBox="0 0 37 26" fill="none"><path d="M36.2 7.94998C36.2013 6.90644 35.9969 5.8729 35.5985 4.90842C35.2001 3.94394 34.6154 3.06746 33.878 2.3291C33.1406 1.59074 32.2648 1.00499 31.3008 0.605347C30.3369 0.205699 29.3035 -8.2763e-07 28.26 0H7.95001C5.84559 0.0131121 3.8311 0.854906 2.34302 2.34299C0.854936 3.83107 0.0131121 5.84556 0 7.94998V17.4C-8.27629e-07 18.4435 0.205699 19.4768 0.605347 20.4408C1.00499 21.4048 1.59074 22.2805 2.3291 23.018C3.06746 23.7554 3.94397 24.34 4.90845 24.7385C5.87293 25.1369 6.90648 25.3413 7.95001 25.34H28.26C29.3031 25.3413 30.3361 25.1368 31.3 24.7383C32.264 24.3397 33.1398 23.7549 33.8774 23.0174C34.6149 22.2798 35.1998 21.404 35.5983 20.4401C35.9969 19.4761 36.2013 18.4431 36.2 17.4V7.94998ZM24.26 13.38L15.15 17.89C14.79 18.08 13.58 17.82 13.58 17.42V8.16998C13.58 7.74998 14.8 7.49998 15.16 7.69998L23.88 12.44C24.24 12.65 24.63 13.18 24.26 13.38V13.38Z" fill="white"></path></svg> 